<?xml version="1.0" encoding="UTF-8"?>
<svg id="Layer_2" data-name="Layer 2" xmlns="http://www.w3.org/2000/svg" viewBox="0 0 1548.36 1982.07">
  <defs>
    <style>
      .cls-1 {
        fill: #9c4510;
      }

      .cls-2 {
        fill: #fff5aa;
      }

      .cls-3 {
        fill: #4b5770;
      }

      .cls-4 {
        fill: #f67152;
      }

      .cls-5 {
        fill: #ffea98;
      }

      .cls-6 {
        fill: #652000;
      }

      .cls-7 {
        fill: #08122b;
      }

      .cls-8 {
        fill: #b2530c;
      }

      .cls-9 {
        fill: #160d14;
      }

      .cls-10 {
        fill: #feeb74;
      }

      .cls-11 {
        fill: #fed858;
      }

      .cls-12 {
        fill: #44190e;
      }

      .cls-13 {
        fill: #551f11;
      }

      .cls-14 {
        fill: #fab421;
      }

      .cls-15 {
        fill: #03030b;
      }

      .cls-16 {
        fill: #091020;
      }

      .cls-17 {
        fill: #614729;
      }

      .cls-18 {
        fill: #fca400;
      }

      .cls-19 {
        fill: #384250;
      }

      .cls-20 {
        fill: #1e2632;
      }

      .cls-21 {
        fill: #201711;
      }

      .cls-22 {
        fill: #060715;
      }

      .cls-23 {
        fill: #8bcc2a;
      }

      .cls-24 {
        fill: #646b6e;
      }

      .cls-25 {
        fill: #873411;
      }

      .cls-26 {
        fill: #c5994a;
      }

      .cls-27 {
        fill: #ed8d01;
      }

      .cls-28 {
        fill: #f1cd70;
      }

      .cls-29 {
        fill: #c86608;
      }

      .cls-30 {
        fill: #281114;
      }

      .cls-31 {
        fill: #d96e00;
      }
    </style>
  </defs>
  <g id="_Слой_1" data-name="Слой 1">
    <g>
      <path class="cls-22" d="M1511.47,181.52l-5.81,5.69c-6.16-12.26-8.33-24.75-6.63-37.42.82-5.92-3.75-11.2-9.74-11.2h-389.13c-4.63,0-8.45,3.69-8.56,8.33l-.82,30.2-32.78,59.7c-2.05,3.64-4.98,6.69-8.62,8.86-5.45,3.28-11.5,6.51-18,9.68-28.74,13.96-8.68,38.88,8.56,49.97-5.1,31.26-5.75,64.4,9.5,92.31-9.32,20.12-12.49,44.16-9.5,72.14.35,3.11,2.52,5.69,5.45,6.57l40,12.02c2.23.7,3.75,2.82,3.69,5.22-.76,17.89-1.76,62.52-12.43,74.01-2.76,2.99-7.33,3.28-10.5.76-22.4-18-46.57-31.32-75.95-20.12-18.65,7.1-35.25,22.87-49.85,47.33-1.29,2.17,0,4.98,2.52,5.4l37.18,6.04c3.99.65,7.92-1.58,9.38-5.4,6.45-16.83,15.07-29.56,34.02-35.83,1.58-.53,3.28.29,3.81,1.88,12.55,35.13,23.52,58.41,50.32,77.3,10.26,7.21,18.94,13.61,25.92,19.18,13.72,10.91,24.81,29.91,34.43,43.69,34.66,49.67,99,30.67,110.14,107.68,2.05,14.02,4.87,39.59,8.5,76.65,3.11,31.85,14.54,57.59,30.14,98.35,9.85,25.8-2.05,52.14-20.82,77.47-18.59,25.22-32.26,47.92-40.99,68.03-1.29,2.99-4.22,4.93-7.51,4.93h-83.69c-3.81,0-6.86,3.05-6.86,6.8v30.56c0,1.99-1.58,3.69-3.58,3.81l-38.59,2.4-3.28-45.63c-.12-1.82-1.35-3.4-3.11-3.99-35.19-11.44-69.97-12.02-104.39-1.88l1.17-47.97c11.73,4.87,24.69,5.92,38.94,3.17,1.76-.35,3.05-1.88,3.05-3.69v-38.53c0-5.4-4.05-9.97-9.44-10.62l-21.17-2.35c-6.33-.7-11.85,4.28-11.79,10.62l.41,41.41-.47-49.73c0-1.52.94-2.87,2.35-3.46,19.3-7.62,36.6-4.05,51.9,10.67,7.51,7.27,15.66,22.93,25.92,27.33,34.66,14.96,53.49-22.05,64.22-47.21.76-1.76-.7-3.69-2.64-3.4-6.86,1.11-12.67.76-17.54-1.06-.88-.29-.64-1.64.29-1.64l32.84-.7.53-39.06c.12-5.57,4.63-10.03,10.2-10.03h18.77c2.46,0,4.52-2.05,4.46-4.52-.35-18.77-7.98-32.61-22.93-41.46-1.41-.82-2.58-2.05-3.4-3.46-8.03-14.02,7.57-37.18-25.22-32.78l-70.38,1.58c-2.23.06-4.05,1.76-4.34,3.99l-2.87,25.8c-.23,2.23-2.05,3.99-4.34,4.11l-35.89,1.99c-2.52.12-4.52,2.05-4.75,4.57l-3.52,40.7,2.11-73.78c.12-4.52-3.58-8.27-8.09-8.21-20,.41-35.72-6.51-47.15-20.88-9.68-12.14-15.78-18.94-18.42-20.53-21.7-12.96-50.61-7.68-77.36-3.64-1.35.18-2.35,1.35-2.35,2.7v29.79c0,2.52,1.88,4.57,4.34,4.87l80.7,9.09c3.81.41,6.69,3.69,6.57,7.57-.76,24.1-.12,61.4,1.94,112.02,1.94,47.68,0,100.35-2.7,138.53-.88,12.32-.47,22.4,1.17,30.26,1.17,5.51-3.05,10.73-8.68,10.73h-36.01c-6.22,0-11.2-5.16-11.03-11.38.41-13.84-7.21-26.1-22.76-36.71-16.54-11.26-26.74-29.62-45.22-35.78-14.84-4.93-29.97-6.98-45.28-6.22-8.33.41-15.31-6.22-15.31-14.54v-35.95c0-6.39,5.04-11.73,11.44-12.08l18.65-1c1.99-.12,3.52-1.76,3.52-3.75v-76.65c0-1.47,1.06-2.7,2.46-2.99l17.12-3.05c11.14-1.99,20.47-9.5,24.87-19.88l5.16-12.2c4.34-10.32-4.52-21.41-15.54-19.41l-54.25,9.74c-2.46.41-4.52,2.11-5.51,4.4l-22.52,53.31c-1.17,2.64-3.69,4.46-6.63,4.63l-82.34,4.52c-7.1.41-12.49,6.63-11.91,13.72,1.82,22.23,15.13,33.78,39.94,34.66,3.34.12,6.04,2.87,5.98,6.22l-.53,155.95c-15.42-16.07-23.99-33.84-25.81-53.25-.12-1.58-1.41-2.82-3.05-2.93l-70.55-4.16c6.86-83.1,10.73-143.28,11.73-180.46.18-5.57.12-18.47-.06-38.71-.06-1.99-1.35-3.69-3.23-4.28l-18.18-5.51c-2.52-.7-4.28-3.05-4.28-5.69v-89.61c0-3.46-2.81-6.28-6.28-6.28h-30.03c-2.7,0-4.75-2.35-4.4-5.04l14.66-114.42.41,51.85c0,2.46,1.99,4.46,4.46,4.4l91.96-.47,34.6,2.11c2.05.12,3.69,1.88,3.69,3.93v43.46c0,2.17,1.82,3.93,3.99,3.81l44.87-1.7c15.19-4.99,24.75-11.14,28.74-18.36,13.14-23.75,26.22-35.66,54.13-27.04l1.47,35.31c.23,6.16,5.51,10.97,11.73,10.62l25.22-1.41c6.92-.41,12.26-6.33,11.85-13.25l-1.47-27.51c-.12-2.17.88-4.22,2.64-5.45,2.99-2.11,7.1-3.05,12.32-2.81,38.06-3.17,72.9-16.3,104.45-39.47,1.47-1.06,2.17-2.93,1.82-4.69-4.75-23.4-18.65-34.25-41.58-32.67-27.98,1.99-56.18,3.17-84.57,3.46,30.85-6.33,36.24-23.58,45.57-52.31,3.17-9.79,5.81-19.94,7.92-30.44.41-1.99-1.11-3.81-3.11-3.81h-205.44c-6.86,0-11.38,7.21-8.39,13.43l26.22,54.07c2.7,5.63,7.57,9.85,13.49,11.67,13.67,4.28,31.2,5.98,52.67,5.1.82-.06,1.52.65,1.52,1.47,0,.76-.59,1.41-1.35,1.41l-55.83.12.41,71.67-42.7.18c-3.23.06-5.81-2.58-5.81-5.81v-94.72c0-3.52-3.17-6.1-6.63-5.45-9.85,1.94-18.77.88-26.8-3.05-1.47-.76-3.23.23-3.4,1.88l-1,9.21c-8.5,15.19-20.64,23.69-36.36,25.51-26.45,3.05-46.8,5.98-60.99,8.74,17.36-8.5,35.66-13.08,54.84-13.61,1.47-.06,2.46-1.52,1.99-2.93-8.74-24.16-9.5-49.21-2.35-75.13.47-1.76,2.11-2.93,3.93-2.93h29.32c1.76,0,3.23,1.47,3.23,3.23v26.45c0,2.46,3.34,3.28,4.52,1.06,9.56-18.47,16.42-31.61,20.47-39.53,10.03-19.35-.53-29.44-19.76-33.08-39.06-7.45-92.78-16.54-106.92-61.23-3.69-11.67-5.75-17.95-6.16-18.77-3.93-7.45-9.21-14.08-15.54-19.53l-27.27-23.28c-.94-.82-1.58-1.99-1.76-3.28-4.05-28.09-1.35-56.42,8.09-85.04.47-1.52,1.52-2.87,2.93-3.75,28.5-17.65,34.54-41.41,34.19-73.72,0-1.7-1.23-3.17-2.93-3.46-16.48-2.64-31.49,1.99-44.98,13.78l-1.11-71.9c1.11-7.45,13.72-10.5,37.95-9.09l57.36-2.29c1.94-.06,3.52-1.7,3.52-3.69v-72.08c0-1-.76-1.76-1.76-1.76h-27.98c-2.93,0-5.34-2.29-5.51-5.22l-1.7-30.97c-.12-2.7-2.35-4.81-5.04-4.75l-25.16.29-27.8-.7c-3.46-.12-6.28,2.82-6.04,6.28,1.99,27.51.76,56.07-3.64,85.57l-5.63-85.39c-.18-2.11.59-4.28,1.99-6.1.06-.06.35-.35,1-.94,1.52-1.47,2.58-3.34,2.93-5.45,2.52-12.84,2.35-23.75-.53-32.73-1.29-4.05,1.7-8.15,5.92-8.15h108.79c1.52,0,2.76,1.23,2.76,2.76v37.83c0,1.47,1.06,2.76,2.52,2.99,13.31,2.23,25.16,1.94,35.54-.82,3.52-.94,6.98,1.76,6.98,5.4v37.71c0,1.29,1.06,2.35,2.35,2.35h278.81c1.7,0,3.11-1.41,3.11-3.11v-34.9c0-2.23,1.82-4.05,4.05-4.05h46.68c2.87,0,5.22-2.35,5.22-5.22V4.16c0-2.29,1.88-4.16,4.16-4.16h109.32c2.23,0,3.99,1.76,3.99,3.99v121.99c0,1.7,1.41,3.11,3.11,3.11h412.88c1.76,0,3.28,1.23,3.64,2.93,2.93,14.6,3.87,29.62,2.76,45.1-.29,4.52,1.17,5.98,4.28,4.4M973.13,154.07l2.29-13.9c.12-1,.94-1.82,1.94-1.99l13.55-2.4c2.58-.47,4.99,1.47,4.99,4.11v20.76c0,5.63,5.16,9.85,10.67,8.68,12.73-2.64,21.7-2.7,26.8-.06,3.05,1.52,6.69-.7,6.69-4.11V51.26c0-2.29-1.88-4.16-4.16-4.16h-35.95c-1.94,0-3.52,1.58-3.52,3.52v33.49c0,2.29-1.88,4.16-4.16,4.16h-18.12c-3.17,0-5.69,2.52-5.69,5.63v59.82c0,1.23.94,2.23,2.17,2.35,1.23.06,2.35-.76,2.52-1.99M757.9,170.72h73.31c1.17,0,2.05-.94,1.99-2.05l-2.99-53.6c-.12-2.29-1.64-4.28-3.87-4.93l-33.14-9.97c-2.46-.76-5.16-.41-7.39.88-26.04,15.42-36.36,37.83-30.91,67.21.29,1.41,1.52,2.46,2.99,2.46M633.27,451.12l41.05,1.64c1.64.06,3.05-1.23,3.05-2.87l.12-50.61c-12.73-3.75-25.75-4.52-39.06-2.29-5.28.88-10.09-3.17-10.09-8.56v-82.34c0-.88-.7-1.58-1.52-1.58h-43.58c-.7,0-1.29.59-1.29,1.29v86.86c0,1.94,1.58,3.52,3.52,3.52h35.83c2.99,0,5.45,2.23,5.81,5.16l6.16,49.79M737.37,427.9c.88-1.11,1.52-1.64,2.05-1.64,1.11.06,1.99.94,2.11,2.05l1.88,18.47c.23,2.52,2.35,4.4,4.87,4.34l29.38-.7c1.88-.06,3.58,1,4.34,2.64.35.7,1.23,1.58,2.7,2.64,1.29.94,3.11,0,3.11-1.58v-56.48c0-1-.76-1.76-1.76-1.76h-54.72c-2.05,0-3.69-1.64-3.69-3.64v-85.39c0-1.23-1-2.23-2.23-2.23h-46.21c-1.94,0-3.46,1.58-3.34,3.52l4.34,78.47c.23,4.34,3.81,7.74,8.15,7.8l35.48.53c3.11.06,5.63,2.4,5.92,5.51.59,5.4-1.64,19.47,4.69,27.51.76.94,2.17.94,2.93-.06M875.4,306.06c-.03-.86-.73-1.5-1.55-1.49l-43.04.83c-.83-.01-1.53.69-1.5,1.55l1.69,87.96c.03.86.73,1.5,1.55,1.5l43.04-.83c.83.01,1.53-.69,1.5-1.55l-1.69-87.96M934.13,304.68c-1.11,0-2.05.94-2.05,2.05v86.45c0,1.11-.94,2.05-2.05,2.05h-50.79c-1.17,0-2.11,1-2.05,2.17l2.76,51.08c.06,1.06,1,1.94,2.05,1.94h47.8c1.11,0,2.05-.94,2.05-2.05v-50.2c0-1.11.94-2.05,2.05-2.05h47.86c1.17,0,2.11-1,2.05-2.17l-4.75-87.33c-.06-1.06-1-1.94-2.05-1.94h-42.87M755.43,1077.25l22.58-.59c3.52-.12,6.22-2.99,6.16-6.45l-.65-22.81c-.18-7.51-7.04-13.43-15.31-13.2l-5.28.12c-8.21.23-14.78,6.51-14.54,14.02l.59,22.81c.06,3.46,2.99,6.16,6.45,6.1h0Z"/>
      <path class="cls-25" d="M502.31,47.74l6.28,120.46c-24.22-1.41-36.83,1.64-37.95,9.09-15.19,4.22-31.79,5.45-49.67,3.75l1.29-40.41c.06-3.11,2.35-5.81,5.45-6.33,9.44-1.7,21.82-.18,37.12,4.57,4.4-29.5,5.63-58.06,3.64-85.57-.23-3.46,2.58-6.39,6.04-6.28l27.8.7h0Z"/>
      <path class="cls-4" d="M508.58,168.2l-6.28-120.46,25.16-.29c2.7-.06,4.93,2.05,5.04,4.75l1.7,30.97c.18,2.93,2.58,5.22,5.51,5.22h27.98c1,0,1.76.76,1.76,1.76v72.08c0,1.99-1.58,3.64-3.52,3.69l-57.36,2.29h0Z"/>
      <path class="cls-4" d="M968.44,153.72v-59.82c0-3.11,2.52-5.63,5.69-5.63h18.12c2.29,0,4.16-1.88,4.16-4.16v-33.49c0-1.94,1.58-3.52,3.52-3.52h35.95c2.29,0,4.16,1.88,4.16,4.16v113.89c0,3.4-3.64,5.63-6.69,4.11-5.1-2.64-14.08-2.58-26.8.06-5.51,1.17-10.67-3.05-10.67-8.68v-20.76c0-2.64-2.4-4.57-4.99-4.11l-13.55,2.4c-1,.18-1.82,1-1.94,1.99l-2.29,13.9c-.18,1.23-1.29,2.05-2.52,1.99-1.23-.12-2.17-1.11-2.17-2.35h0Z"/>
      <path class="cls-20" d="M754.9,168.26c-5.45-29.38,4.87-51.79,30.91-67.21,2.23-1.29,4.93-1.64,7.39-.88l33.14,9.97c2.23.65,3.75,2.64,3.87,4.93l2.99,53.6c.06,1.11-.82,2.05-1.99,2.05h-73.31c-1.47,0-2.7-1.06-2.99-2.46h0Z"/>
      <path class="cls-13" d="M1505.66,187.2l1.11,84.16-3.69-74.95c-.12-1.88-.76-3.69-1.82-5.22-1.35-1.88-2.05-3.58-2.23-5.16-.59-5.04-5.04-8.56-9.56-7.57-9.74,2.11-19.53,2.64-29.32,1.58l-251.83-.12-117.82.53c.06-1.11.18-2.23.29-3.34l.82-30.2c.12-4.63,3.93-8.33,8.56-8.33h389.13c5.98,0,10.56,5.28,9.74,11.2-1.7,12.67.47,25.16,6.63,37.42h0Z"/>
      <path class="cls-15" d="M1090.78,177.12c-.12,1.11-.23,2.23-.29,3.34l1,118.94c.06,2.52,2.05,4.52,4.57,4.52h29.73c1.99,0,3.58,1.58,3.64,3.58l1.7,99.58-1.58,13.67c-.23,1.88-1.76,3.28-3.64,3.4-8.74.53-14.31-5.92-16.77-19.35-.59-2.93-2.93-5.16-5.86-5.45l-11.73-1.35c-3.46-.41-6.45,2.46-6.22,5.92l3.99,64.81.47,3.93c.18,1.64,1.58,2.87,3.23,2.87l246.91.7c-20,11.2-46.51,10.79-68.74,11.08,23.22,18.18,33.55,42.75,31.02,73.78-.53,6.63-1.11,55.01-1.64,145.04-.18,25.75-.47,48.27-.88,67.68-1.29,59.65,6.98,116.94,24.81,171.9.06.18.29.18.29,0l3.11-32.67q0-.06.06-.06h1.76c.59,0,1.06.47,1.11,1.06l1.35,25.8-1.06,23.58c-.18,3.52,2.7,6.51,6.22,6.51h30.61c2.35,0,4.28,1.94,4.28,4.28v40.64c0,1.58,1.35,2.93,2.93,2.87l46.57-1c.94-5.1,2.35-9.33,4.22-12.61.82-1.47,2.93-1.52,3.87-.12,3.75,5.57,3.93,14.6,13.2,16.66,1.64.41,3.34-.65,3.81-2.29l7.74-29.21.12,30.61c0,.53.06,1,.12,1.47l6.1,35.66c.7,4.11,6.16,5.16,8.33,1.58.29-.41.47-.7.53-.76,1.17-1.11,3.05-1,4.05.23.18.23.29.7.35,1.47,0,.29.35.41.53.23l2.58-2.17c.94-.76.53-2.29-.65-2.52-1-.18-1.76-.65-2.4-1.35-.53-.53-.41-1.35.23-1.7l5.69-3.28c1.23-.7,2.82.29,2.64,1.76l-.7,6.51c-.23,1.88,1.17,3.64,3.05,3.81,5.22.53,8.04,2.87,8.33,6.98,1.35,17.24,2.17,28.44,2.46,33.66.12,2.35,1.58,4.4,3.81,5.28,4.58,1.7,7.74,3.93,9.5,6.57,1.06,1.58,2.99,2.35,4.87,2.05l11.38-2.05c1.82-.35,3.69.41,4.75,1.88,5.28,6.92,7.8,14.43,7.57,22.46-1,35.25-.7,65.51,1,90.9.12,1.94-1.41,3.58-3.34,3.58h-31.08c-5.1,0-9.27,4.16-9.27,9.32v33.55c0,1.58-1.23,2.81-2.81,2.81h-33.78c-1.99,0-3.64,1.64-3.64,3.64v531.47c0,2.46-2.05,4.4-4.52,4.22l-24.98-1.47c13.96-15.66,21.17-30.44,21.7-44.4,1.82-50.85,1.99-171.55.47-362.04-.29-33.96,1.58-70.55,0-105.86-.41-8.56.18-15.95,1.64-22.23.82-3.52-3.75-5.57-5.86-2.7-9.27,12.61-11.73,39.7-15.31,55.13-.35,1.7-2.11,2.7-3.75,2.17l-2.35-.76c.94-.06,1.64-.65,2.17-1.76.06-.18.12-.35.06-.53l-4.16-51.38c-.12-1.52-1.41-2.76-2.93-2.82l-25.69-1.06-18.18-1.23c-1.29-.12-2.4.94-2.4,2.29v56.13c0,.41.29.82.7,1.06l2.23,1.06c-4.05-1.52-6.98-1.35-8.74.53l1.76-48.62c1.47-3.93,1.82-7.45,1-10.44-.59-2.05-2.46-3.46-4.57-3.46h-88.27c-1.94,0-2.46-2.64-.7-3.4,2.93-1.35,4.4-3.87,4.46-7.68,0-7.45-.12-18.01-.29-31.55-.06-1.64-1.41-2.93-3.05-2.87-.47.06-.94.12-1.47.23l-802.6-.47.65-89.32c.06-2.76-2.23-4.98-4.99-4.87l-44.57,1.64.12-19.12c.94,1.58,1.29,3.69,1,6.22-.06.59.23,1.17.82,1.47,1.23.65,2.52.35,3.87-.82.82,1.58,1.88,2.46,3.11,2.58,14.02,1.06,31.08,2.99,44.04-8.39l41.35-2.93c1.47-.12,2.58-1.35,2.58-2.81v-224.27c0-2.52-1.99-4.52-4.52-4.52h-34.9c-2.82,0-5.16-2.35-5.1-5.16l.35-75.71-.88-159.35c0-1.94,1.52-3.52,3.46-3.64l35.89-1.99c1.64-.12,2.93-1.41,2.93-3.05l.23-103.87-1.29-50.67-42.64-4.22-1.88-39.7c-.06-1.88-1.64-3.34-3.52-3.34h-39.24c-1.99,0-3.64-1.64-3.64-3.69v-124.39c0-2.05,1.64-3.69,3.64-3.69h40c1.99,0,3.58-1.58,3.58-3.58l.06-48.5c13.49-11.79,28.5-16.42,44.98-13.78,1.7.29,2.93,1.76,2.93,3.46.35,32.32-5.69,56.07-34.19,73.72-1.41.88-2.46,2.23-2.93,3.75-9.44,28.62-12.14,56.95-8.09,85.04.18,1.29.82,2.46,1.76,3.28l27.27,23.28c6.33,5.45,11.61,12.08,15.54,19.53.41.82,2.46,7.1,6.16,18.77,14.13,44.69,67.86,53.78,106.92,61.23,19.24,3.64,29.79,13.72,19.76,33.08-4.05,7.92-10.91,21.05-20.47,39.53-1.17,2.23-4.52,1.41-4.52-1.06v-26.45c0-1.76-1.47-3.23-3.23-3.23h-29.32c-1.82,0-3.46,1.17-3.93,2.93-7.16,25.92-6.39,50.96,2.35,75.13.47,1.41-.53,2.87-1.99,2.93-19.18.53-37.48,5.1-54.84,13.61l-.7,7.04-14.66,114.42c-.35,2.7,1.7,5.04,4.4,5.04h30.03c3.46,0,6.28,2.81,6.28,6.28v89.61c0,2.64,1.76,4.98,4.28,5.69l18.18,5.51c1.88.59,3.17,2.29,3.23,4.28.18,20.23.23,33.14.06,38.71-1,37.18-4.87,97.36-11.73,180.46-23.4-4.22-42.99-2.76-58.77,4.34-2.11.94-2.87,3.58-1.64,5.51,1.58,2.52,4.34,4.81,8.21,6.74,3.64,1.82,5.4,4.4,5.22,7.62-.35,9.38-1.76,21.76-4.16,37.07l58.18,1.23c9.44-1.41,15.66-1.82,18.77-1.29,25.22,4.52,49.73,4.22,73.6-.88l.53-155.95c.06-3.34-2.64-6.1-5.98-6.22-24.81-.88-38.12-12.43-39.94-34.66-.59-7.1,4.81-13.31,11.91-13.72l82.34-4.52c2.93-.18,5.45-1.99,6.63-4.63l22.52-53.31c1-2.29,3.05-3.99,5.51-4.4l54.25-9.74c11.03-1.99,19.88,9.09,15.54,19.41l-5.16,12.2c-4.4,10.38-13.72,17.89-24.87,19.88l-17.12,3.05c-1.41.29-2.46,1.52-2.46,2.99v76.65c0,1.99-1.53,3.64-3.52,3.75l-18.65,1c-6.39.35-11.44,5.69-11.44,12.08v35.95c0,8.33,6.98,14.96,15.31,14.54,15.31-.76,30.44,1.29,45.28,6.22,18.47,6.16,28.68,24.52,45.22,35.78,15.54,10.62,23.17,22.87,22.76,36.71-.18,6.22,4.81,11.38,11.03,11.38h36.01c5.63,0,9.85-5.22,8.68-10.73-1.64-7.86-2.05-17.95-1.17-30.26,2.7-38.18,4.63-90.85,2.7-138.53-2.05-50.61-2.7-87.91-1.94-112.02.12-3.87-2.76-7.15-6.57-7.57l-80.7-9.09c-2.46-.29-4.34-2.35-4.34-4.87v-29.79c0-1.35,1-2.52,2.35-2.7,26.74-4.05,55.66-9.32,77.36,3.64,2.64,1.58,8.74,8.39,18.42,20.53,11.44,14.37,27.15,21.29,47.15,20.88,4.52-.06,8.21,3.69,8.09,8.21l-2.11,73.78c20.82,2.76,42.81,2.82,65.98.12l26.74,1c2.76.12,4.93,2.4,4.93,5.1v38.65c0,2.05,1.64,3.69,3.64,3.69h42.4l-32.84.7c-.94,0-1.17,1.35-.29,1.64,4.87,1.82,10.67,2.17,17.54,1.06,1.94-.29,3.4,1.64,2.64,3.4-10.73,25.16-29.56,62.17-64.22,47.21-10.26-4.4-18.42-20.06-25.92-27.33-15.31-14.72-32.61-18.3-51.9-10.67-1.41.59-2.35,1.94-2.35,3.46l.47,49.73-1.17,47.97,1.17,41.76c.12,4.34,3.64,7.86,7.98,7.92l101.64,1.82,38.59-2.4c1.99-.12,3.58-1.82,3.58-3.81v-30.56c0-3.75,3.05-6.8,6.86-6.8h83.69c3.28,0,6.22-1.94,7.51-4.93,8.74-20.12,22.4-42.81,40.99-68.03,18.77-25.34,30.67-51.67,20.82-77.47-15.6-40.76-27.04-66.51-30.14-98.35-3.64-37.07-6.45-62.64-8.5-76.65-11.14-77-75.48-58-110.14-107.68-9.62-13.78-20.7-32.78-34.43-43.69-6.98-5.57-15.66-11.96-25.92-19.18-26.8-18.88-37.77-42.17-50.32-77.3-.53-1.58-2.23-2.4-3.81-1.88-18.94,6.28-27.57,19-34.02,35.83-1.47,3.81-5.4,6.04-9.38,5.4l-37.18-6.04c-2.52-.41-3.81-3.23-2.52-5.4,14.6-24.46,31.2-40.23,49.85-47.33,29.38-11.2,53.55,2.11,75.95,20.12,3.17,2.52,7.74,2.23,10.5-.76,10.67-11.49,11.67-56.13,12.43-74.01.06-2.4-1.47-4.52-3.69-5.22l-40-12.02c-2.93-.88-5.1-3.46-5.45-6.57-2.99-27.98.18-52.02,9.5-72.14l25.45-.41c2.05-.06,3.75-1.58,4.05-3.58,3.64-25.75,5.75-58.59-5.75-81.58-1.11-2.17-3.17-3.58-5.51-3.81l-27.74-2.93c-17.24-11.08-37.3-36.01-8.56-49.97,6.51-3.17,12.55-6.39,18-9.68,3.64-2.17,6.57-5.22,8.62-8.86l32.78-59.7M448.7,428.07l23.22,1.35c.59.06,1.11-.41,1.17-1.06v-.41c.35-6.04-4.57-11.26-10.97-11.67l-2.23-.12c-6.39-.35-11.85,4.28-12.2,10.32l-.06.41c0,.65.47,1.17,1.06,1.17M1292.59,827.35c.59-17.42,3.75-33.55,3.75-51.85.06-67.33.06-150.43-.06-249.37-.06-2.52-2.05-4.52-4.52-4.52h-176.53c-1.99,0-3.93.29-5.87.82-3.64,1-7.86,1.7-12.61,2.05-3.46.23-5.98,3.4-5.34,6.8l11.49,64.22c.65,3.52,3.69,6.04,7.27,6.04h36.13c1.94,0,3.46,1.52,3.46,3.4v40.94c0,2.52,1.99,4.52,4.52,4.52h23.52c3.64,0,6.57,2.93,6.57,6.57v25.51c0,2.23,1.82,4.05,4.05,4.05h21c2.46,0,4.46,1.99,4.46,4.46v31.38c0,2.17,1.7,3.99,3.87,4.11l37.48,2.4c2.46.18,4.34,2.23,4.34,4.69v53.31c0,5.4,4.4,9.74,9.79,9.74h16.19c2.46,0,4.46,2.05,4.4,4.52l-.35,26.45c0,.7.53,1.29,1.17,1.41h.06c.94.06,1.7-.7,1.76-1.64M1292.47,834.15c0-.29,0-.47-.06-.65,0-.18-.18-.29-.35-.23-.12,0-.23.12-.23.29.06.23.12.47.18.7.12.23.47.18.47-.12M1294.47,1230.56l40.23-.47,84.22.76c12.38-5.34,20.7-10.67,24.98-16.13,20.82-26.27,42.52-42.58,46.33-74.54.24-1.94-1.11-3.75-3.05-3.99-22.34-3.11-40.29,4.22-53.84,21.93-4.75,6.22-9.44,12.73-14.07,19.47l-1.29-35.31c-.06-1.88-1.41-3.46-3.28-3.81l-8.45-1.64c-26.39-.88-55.42,1.82-78.82,0-24.1-1.82-36.95-2.82-38.41-2.87-2.76-.18-5.22,1.76-5.63,4.46l-11.67,71.9c-.41,2.64.47,5.28,2.41,7.1,6.69,6.22,13.49,10.62,20.35,13.14M718.25,1181.06c-.23,1.88,1.23,3.52,3.11,3.52h109.55c1.82,0,3.28-1.52,3.17-3.34l-2.23-41.05c-.12-1.7-1.47-2.99-3.17-2.99h-102.75c-1.58,0-2.93,1.23-3.11,2.81l-4.57,41.05h0Z"/>
      <path class="cls-8" d="M470.64,177.29l1.11,71.9-.06,48.5c0,1.99-1.58,3.58-3.58,3.58h-40c-1.99,0-3.64,1.64-3.64,3.69v124.39c0,2.05,1.64,3.69,3.64,3.69h39.24c1.88,0,3.46,1.47,3.52,3.34l1.88,39.7-48.85.06c-6.04-19.18-17.71-29.73-34.95-31.55-5.4-.59-9.5-5.1-9.56-10.56l-1.64-226.44.82-2.7,2.93-9.03c.65-1.99,2.46-3.34,4.52-3.34h19.71c1.94,0,3.75-.82,5.04-2.29l7.45-8.62c1.58.53,2.52.35,2.76-.59,17.89,1.7,34.49.47,49.67-3.75h0Z"/>
      <path class="cls-8" d="M1208.31,179.93l1,46.51-1.11,53.78c-.06,1.7-2.23,2.29-3.17.94-3.23-4.63-8.56-7.92-16.13-9.91-1.82-.47-3.69.47-4.46,2.17-6.39,14.19-8.15,29.09-5.4,44.69,3.34,18.47,14.66,32.26,20.59,50.2,3.75,11.32,4.98,25.45,3.64,42.4-1.52,19.47-2.93,38.82-4.22,58.06l-68.33.41.41-62.11-1.7-99.58c-.06-1.99-1.64-3.58-3.64-3.58h-29.73c-2.52,0-4.52-1.99-4.57-4.52l-1-118.94,117.82-.53h0Z"/>
      <path class="cls-8" d="M1506.77,271.36l-1,27.15-3.75,51.26c-.12,1.99-1.64,3.64-3.64,3.99l-56.07,9.97c-6.45-4.87-13.72-8.33-21.88-10.5,1-2.52,3.05-4.34,6.22-5.4l29.27-.23c1.76-.06,3.17-1.47,3.17-3.17l1.06-164.39c9.79,1.06,19.59.53,29.32-1.58,4.52-1,8.97,2.52,9.56,7.57.18,1.58.88,3.28,2.23,5.16,1.06,1.52,1.7,3.34,1.82,5.22l3.69,74.95h0Z"/>
      <path class="cls-14" d="M1460.15,180.05l-1.06,164.39c0,1.7-1.41,3.11-3.17,3.17l-29.27.23c-5.98.06-9.09-4.11-9.32-12.37-.76-28.86-.94-58.18-.47-87.91.06-7.45.12-12.08.18-13.78,0-3.11-2.35-5.75-5.45-6.1l-16.36-1.82c-2.81-.29-5.28,1.88-5.28,4.69v42.52c0,4.46-4.34,7.62-8.62,6.28-11.49-3.64-22.64-5.28-33.37-4.93-2.64.06-6.51-1.88-11.67-5.92-1.41-1.11-3.28-1.29-4.87-.47-4.75,2.4-8.21,0-10.26-7.21-.23-.88-.65-10.38-1.29-28.56-.06-1.7-1.47-3.05-3.17-3.11l-107.38-2.7-1-46.51,251.83.12h0Z"/>
      <path class="cls-12" d="M1531.93,181.05c5.57,14.37,8.33,26.1,8.15,35.31-.76,43.75-1.29,95.66-1.58,155.65-.18,33.02-1.47,55.07-3.99,66.04-2.76,12.02-6.28,20.17-10.5,24.46-23.87,23.99-39.41,46.63-69.67,60.7l.24,465.96-7.74,29.21c-.47,1.64-2.17,2.7-3.81,2.29-9.27-2.05-9.44-11.08-13.2-16.66-.94-1.41-3.05-1.35-3.87.12-1.88,3.28-3.28,7.51-4.22,12.61l-.35-358.46-.65-39.94-2.64-90.67c-.06-1.76-1.35-3.28-3.11-3.64-25.34-5.04-51.79-6.16-79.29-3.34-2.87.29-5.04,2.87-4.81,5.81l1.88,22.81-.47,58.71-.12,331.83-1.35-25.8c-.06-.59-.53-1.06-1.11-1.06h-1.76q-.06,0-.06.06l-3.11,32.67c0,.18-.23.18-.29,0-17.83-54.95-26.1-112.25-24.81-171.9.41-19.41.7-41.93.88-67.68.53-90.02,1.11-138.41,1.64-145.04,2.52-31.02-7.8-55.6-31.02-73.78,22.23-.29,48.74.12,68.74-11.08l84.8-.65,28.44,1.64c2.52.12,4.69-1.82,4.87-4.34l1.94-29.85c.18-2.64,3.34-3.87,5.22-1.99l11.08,11.14c.76.76,1.88,1.23,2.99,1.23h22.29c2.17,0,3.93-1.76,3.93-3.93l.29-150.96,1-27.15-1.11-84.16,5.81-5.69,20.47-.47h0Z"/>
      <path class="cls-30" d="M1454.34,523.2c30.26-14.08,45.8-36.71,69.67-60.7,4.22-4.28,7.74-12.43,10.5-24.46,2.52-10.97,3.81-33.02,3.99-66.04.29-60,.82-111.9,1.58-155.65.18-9.21-2.58-20.94-8.15-35.31,10.73-1.94,16.13,1.17,16.19,9.38.59,85.8.12,179.76-1.41,281.92-.06,4.46-3.93,7.92-8.33,7.39l-24.51-2.76c-3.46-.35-6.45,2.29-6.45,5.75v35.19c0,6.39-6.22,10.97-12.38,9.09-13.66-4.28-27.21-5.51-40.7-3.81h0Z"/>
      <path class="cls-21" d="M418.21,181.63l-7.45,8.62c-1.29,1.47-3.11,2.29-5.04,2.29h-19.71c-2.05,0-3.87,1.35-4.52,3.34l-2.93,9.03-.47-19c-.06-1.64,1.23-2.99,2.87-3.05l37.24-1.23h0Z"/>
      <path class="cls-13" d="M377.74,207.61l1.64,226.44c.06,5.45,4.16,9.97,9.56,10.56,17.24,1.82,28.91,12.37,34.95,31.55l-43.81,1.35c-4.69-3.17-12.08-3.4-16.66.23-1.88,1.47-3.46,1.17-4.75-.88-.88-1.41-2.7-1.76-4.05-.88-3.64,2.52-7.21,3.81-10.79,3.93-2.11.06-3.81-1.58-3.81-3.69v-245.97c0-2.64,2.52-4.46,5.04-3.69,12.14,3.87,13.84-4.34,26.1-1.52,1.99.47,3.99-.88,4.28-2.93l2.29-14.49h0Z"/>
      <path class="cls-31" d="M1426.66,347.84c-3.17,1.06-5.22,2.87-6.22,5.4l-.18,14.37c-.06-5.04-.94-9.68-2.64-13.96-.76-1.88-2.58-3.11-4.57-3.11h-38.53c-1.99,0-3.58,1.58-3.58,3.58v57.89c0,2.81,2.23,5.1,5.04,5.22l44.87,2.05,1.23,33.72c.53,5.69.06,11.26-1.41,16.83l-221.63-1.06c1.29-19.24,2.7-38.59,4.22-58.06,1.35-16.95.12-31.08-3.64-42.4-5.92-17.95-17.24-31.73-20.59-50.2-2.76-15.6-1-30.5,5.4-44.69.76-1.7,2.64-2.64,4.46-2.17,7.57,1.99,12.9,5.28,16.13,9.91.94,1.35,3.11.76,3.17-.94l1.11-53.78,107.38,2.7c1.7.06,3.11,1.41,3.17,3.11.65,18.18,1.06,27.68,1.29,28.56,2.05,7.21,5.51,9.62,10.26,7.21,1.58-.82,3.46-.65,4.87.47,5.16,4.05,9.03,5.98,11.67,5.92,10.73-.35,21.88,1.29,33.37,4.93,4.28,1.35,8.62-1.82,8.62-6.28v-42.52c0-2.81,2.46-4.98,5.28-4.69l16.36,1.82c3.11.35,5.45,2.99,5.45,6.1-.06,1.7-.12,6.33-.18,13.78-.47,29.73-.29,59.06.47,87.91.23,8.27,3.34,12.43,9.32,12.37M1265.32,398.34l1.47,26.51c.23,4.28,3.75,7.62,8.03,7.62h23.34c2.17,0,3.93-1.76,3.93-3.87v-30.09c0-2.23-1.76-3.99-3.99-3.99h-29.15c-2.11,0-3.75,1.76-3.64,3.81h0Z"/>
      <path class="cls-25" d="M1505.78,298.52l-.29,150.96c0,2.17-1.76,3.93-3.93,3.93h-22.29c-1.11,0-2.23-.47-2.99-1.23l-11.08-11.14c-1.88-1.88-5.04-.65-5.22,1.99l-1.94,29.85c-.18,2.52-2.35,4.46-4.87,4.34l-28.44-1.64c.65-4.63-.7-6.57-4.05-5.75,1.47-5.57,1.94-11.14,1.41-16.83,1.06-8.74,10.73-12.14,28.97-10.2,4.63.47,8.62-3.17,8.62-7.8v-55.01c0-1.82-.82-3.52-2.29-4.63l-15.07-11.61,56.07-9.97c1.99-.35,3.52-1.99,3.64-3.99l3.75-51.26h0Z"/>
      <path class="cls-23" d="M677.49,399.28c-7.68,4.63-20.17,5.86-37.36,3.69-2.76-.35-4.99,2.05-4.52,4.75,2.52,13.14,1.76,27.62-2.35,43.4l-6.16-49.79c-.35-2.93-2.82-5.16-5.81-5.16h-35.83c-1.94,0-3.52-1.58-3.52-3.52v-86.86c0-.7.59-1.29,1.29-1.29h43.58c.82,0,1.52.7,1.52,1.58v82.34c0,5.4,4.81,9.44,10.09,8.56,13.31-2.23,26.33-1.47,39.06,2.29h0Z"/>
      <path class="cls-4" d="M734.44,427.96c-6.33-8.04-4.11-22.11-4.69-27.51-.29-3.11-2.82-5.45-5.92-5.51l-35.48-.53c-4.34-.06-7.92-3.46-8.15-7.8l-4.34-78.47c-.12-1.94,1.41-3.52,3.34-3.52h46.21c1.23,0,2.23,1,2.23,2.23v85.39c0,1.99,1.64,3.64,3.69,3.64h54.72c1,0,1.76.76,1.76,1.76v56.48c0,1.58-1.82,2.52-3.11,1.58-1.47-1.06-2.35-1.94-2.7-2.64-.76-1.64-2.46-2.7-4.34-2.64l-29.38.7c-2.52.06-4.63-1.82-4.87-4.34l-1.88-18.47c-.12-1.11-1-1.99-2.11-2.05-.53,0-1.17.53-2.05,1.64-.76,1-2.17,1-2.93.06h0Z"/>
      <path class="cls-26" d="M877.09,394.02c.04.86-.66,1.57-1.5,1.55l-43.04.83c-.82,0-1.52-.64-1.55-1.5l-1.69-87.96c-.04-.86.67-1.57,1.5-1.55l43.04-.83c.82,0,1.52.64,1.55,1.49l1.69,87.96h0Z"/>
      <path class="cls-23" d="M934.13,304.68h42.87c1.06,0,1.99.88,2.05,1.94l4.75,87.33c.06,1.17-.88,2.17-2.05,2.17h-47.86c-1.11,0-2.05.94-2.05,2.05v50.2c0,1.11-.94,2.05-2.05,2.05h-47.8c-1.06,0-1.99-.88-2.05-1.94l-2.76-51.08c-.06-1.17.88-2.17,2.05-2.17h50.79c1.11,0,2.05-.94,2.05-2.05v-86.45c0-1.11.94-2.05,2.05-2.05h0Z"/>
      <path class="cls-16" d="M1049.43,397.63c-15.25-27.92-14.6-61.05-9.5-92.31l27.74,2.93c2.35.23,4.4,1.64,5.51,3.81,11.49,22.99,9.38,55.83,5.75,81.58-.29,1.99-1.99,3.52-4.05,3.58l-25.45.41h0Z"/>
      <path class="cls-14" d="M1420.27,367.61l.59,51.67-44.87-2.05c-2.82-.12-5.04-2.4-5.04-5.22v-57.89c0-1.99,1.58-3.58,3.58-3.58h38.53c1.99,0,3.81,1.23,4.57,3.11,1.7,4.28,2.58,8.91,2.64,13.96h0Z"/>
      <path class="cls-1" d="M1442.32,363.74l15.07,11.61c1.47,1.11,2.29,2.82,2.29,4.63v55.01c0,4.63-3.99,8.27-8.62,7.8-18.24-1.94-27.92,1.47-28.97,10.2l-1.23-33.72-.59-51.67.18-14.37c8.15,2.17,15.42,5.63,21.88,10.5h0Z"/>
      <path class="cls-8" d="M1265.32,398.34c-.12-2.05,1.52-3.81,3.64-3.81h29.15c2.23,0,3.99,1.76,3.99,3.99v30.09c0,2.11-1.76,3.87-3.93,3.87h-23.34c-4.28,0-7.8-3.34-8.03-7.62l-1.47-26.51h0Z"/>
      <path class="cls-24" d="M633.27,451.12c4.11-15.78,4.87-30.26,2.35-43.4-.47-2.7,1.76-5.1,4.52-4.75,17.18,2.17,29.68.94,37.36-3.69l-.12,50.61c0,1.64-1.41,2.93-3.05,2.87l-41.05-1.64h0Z"/>
      <path class="cls-6" d="M1131.13,407.08l-.41,62.11-41.41-.47-3.99-64.81c-.23-3.46,2.76-6.33,6.22-5.92l11.73,1.35c2.93.29,5.28,2.52,5.86,5.45,2.46,13.43,8.03,19.88,16.77,19.35,1.88-.12,3.4-1.52,3.64-3.4l1.58-13.67h0Z"/>
      <path class="cls-13" d="M448.7,428.07c-.59,0-1.06-.53-1.06-1.17l.06-.41c.35-6.04,5.81-10.67,12.2-10.32l2.23.12c6.39.41,11.32,5.63,10.97,11.67v.41c-.06.65-.59,1.11-1.17,1.06l-23.22-1.35h0Z"/>
      <path class="cls-18" d="M1130.72,469.19l68.33-.41,221.63,1.06c3.34-.82,4.69,1.11,4.05,5.75l-84.8.65-246.91-.7c-1.64,0-3.05-1.23-3.23-2.87l-.47-3.93,41.41.47h0Z"/>
      <path class="cls-9" d="M423.89,476.16l48.85-.06,42.64,4.22c-21.82,3.58-38.3,13.37-49.5,29.32-3.69,5.28-15.42,13.49-35.13,24.69-1.58.88-2.52,2.58-2.52,4.4l-.29,193.95-2.05,383.38c0,1.64.29,3.23.94,4.75l1.29,3.28c-1.35,1.17-2.64,1.47-3.87.82-.59-.29-.88-.88-.82-1.47.29-2.52-.06-4.63-1-6.22v-593.05c0-1.7-1.41-3.11-3.11-3.11h-38.88c-1.76,0-3.17-1.47-3.05-3.23l2.7-40.35,43.81-1.35h0Z"/>
      <path class="cls-13" d="M515.39,480.33l1.29,50.67c-8.03-4.46-21.7-6.63-40.99-6.45-3.46.06-6.22,2.87-6.1,6.33l1.23,43.69c-.47,8.91-2.46,17.07-6.04,24.4-1.52,3.11-6.69,8.68-15.42,16.71-8.45,7.74-13.61,17.77-15.48,30.03-4.4,28.56-6.33,57.59-5.92,86.97l.29-193.95c0-1.82.94-3.52,2.52-4.4,19.71-11.2,31.44-19.41,35.13-24.69,11.2-15.95,27.68-25.75,49.5-29.32h0Z"/>
      <path class="cls-6" d="M1420.74,618.33l-12.96-42.17c-1.29-4.16-5.16-6.92-9.5-6.74l-22.81.88c-2.87-.12-5.16,1.7-6.74,5.45l-35.95-26.45-1.88-22.81c-.23-2.93,1.94-5.51,4.81-5.81,27.51-2.82,53.96-1.7,79.29,3.34,1.76.35,3.05,1.88,3.11,3.64l2.64,90.67h0Z"/>
      <path class="cls-1" d="M516.68,531l-.23,103.87c0,1.64-1.29,2.93-2.93,3.05l-35.89,1.99c-1.94.12-3.46,1.7-3.46,3.64l.88,159.35c-4.28,4.05-7.45,8.68-9.5,13.84-1.11-44.63-1.94-89.2-2.4-133.84-.29-23.28,4.22-44.4,8.45-66.92,1.17-6.28.94-20.12-.76-41.41l-1.23-43.69c-.12-3.46,2.64-6.28,6.1-6.33,19.3-.18,32.96,1.99,40.99,6.45h0Z"/>
      <path class="cls-1" d="M1368.72,575.75c1.58,9.79,1.52,19.65-.12,29.44-.35,1.99-1.99,3.4-3.99,3.4h-19.47c-1.17,0-2.23-.7-2.76-1.76-.41-.76-.88-1.47-1.47-2.17-1.06-1.29-2.64-1.41-4.69-.41-1.76.88-3.05,2.11-3.93,3.75l.47-58.71,35.95,26.45h0Z"/>
      <path class="cls-15" d="M845.93,655.1c-.53.29-.94.76-1.23,1.41l-46.39,1.41-3.11,12.73c-.29,1.23-1.41,1.99-2.64,1.88l-54.84-6.16c-1-.12-1.93-.65-2.52-1.52-2.99-4.4-8.33-7.45-16.01-9.03l55.83-.12c.76,0,1.35-.65,1.35-1.41,0-.82-.7-1.52-1.52-1.47-21.47.88-39-.82-52.67-5.1-5.92-1.82-10.79-6.04-13.49-11.67l-26.22-54.07c-2.99-6.22,1.52-13.43,8.39-13.43h205.44c1.99,0,3.52,1.82,3.11,3.81-2.11,10.5-4.75,20.64-7.92,30.44-9.33,28.74-14.72,45.98-45.57,52.31h0Z"/>
      <path class="cls-1" d="M1420.74,618.33l.65,39.94c-8.5-6.51-12.08.29-10.67,20.47.06.53-.35.94-1.23,1.17-.41.12-.82-.18-.82-.59-.06-2.29-3.34-20-9.91-53.19-4.4-22.34-12.2-40.94-23.28-55.83l22.81-.88c4.34-.18,8.21,2.58,9.5,6.74l12.96,42.17h0Z"/>
      <path class="cls-29" d="M1375.46,570.29c11.08,14.9,18.88,33.49,23.28,55.83,6.57,33.2,9.85,50.91,9.91,53.19,0,.41.41.7.82.59.88-.23,1.29-.65,1.23-1.17-1.41-20.17,2.17-26.98,10.67-20.47l.35,358.46-46.57,1c-1.58.06-2.93-1.29-2.93-2.87v-40.64c0-2.35-1.94-4.28-4.28-4.28h-30.61c-3.52,0-6.39-2.99-6.22-6.51l1.06-23.58.12-331.83c.88-1.64,2.17-2.87,3.93-3.75,2.05-1,3.64-.88,4.69.41.59.7,1.06,1.41,1.47,2.17.53,1.06,1.58,1.76,2.76,1.76h19.47c1.99,0,3.64-1.41,3.99-3.4,1.64-9.79,1.7-19.65.12-29.44,1.58-3.75,3.87-5.57,6.74-5.45h0Z"/>
      <path class="cls-25" d="M465.53,816.73c-.59,21.47-2.23,41.93-.23,63.57,7.16,77.3,8.33,154.71,3.58,232.31-.18,2.64,1.99,4.52,6.39,5.69-12.96,11.38-30.03,9.44-44.04,8.39-1.23-.12-2.29-1-3.11-2.58l-1.29-3.28c-.65-1.52-.94-3.11-.94-4.75l2.05-383.38c-.41-29.38,1.52-58.41,5.92-86.97,1.88-12.26,7.04-22.29,15.48-30.03,8.74-8.04,13.9-13.61,15.42-16.71,3.58-7.33,5.57-15.48,6.04-24.4,1.7,21.29,1.94,35.13.76,41.41-4.22,22.52-8.74,43.63-8.45,66.92.47,44.63,1.29,89.2,2.4,133.84h0Z"/>
      <path class="cls-3" d="M719.6,727.47l-.41,50.91-44.87,1.7c-2.17.12-3.99-1.64-3.99-3.81v-43.46c0-2.05-1.64-3.81-3.69-3.93l-34.6-2.11c-7.92-34.02.23-67.68,1.23-97.06l1-9.21c.18-1.64,1.94-2.64,3.4-1.88,8.03,3.93,16.95,4.98,26.8,3.05,3.46-.65,6.63,1.94,6.63,5.45v94.72c0,3.23,2.58,5.86,5.81,5.81l42.7-.18h0Z"/>
      <path class="cls-20" d="M633.27,629.7c-1,29.38-9.15,63.05-1.23,97.06l-91.96.47c-2.46.06-4.46-1.94-4.46-4.4l-.41-51.85.7-7.04c14.19-2.76,34.54-5.69,60.99-8.74,15.72-1.82,27.86-10.32,36.36-25.51h0Z"/>
      <path class="cls-20" d="M865.81,728.47c14.84-21.88,14.96-44.75.41-68.68-.94-1.58-2.64-2.58-4.46-2.64l-17.07-.65c.29-.65.7-1.11,1.23-1.41,28.39-.29,56.6-1.47,84.57-3.46,22.93-1.58,36.83,9.27,41.58,32.67.35,1.76-.35,3.64-1.82,4.69-31.55,23.17-66.39,36.3-104.45,39.47h0Z"/>
      <path class="cls-20" d="M719.19,655.8c7.68,1.58,13.02,4.63,16.01,9.03.59.88,1.52,1.41,2.52,1.52l54.84,6.16c1.23.12,2.35-.65,2.64-1.88l3.11-12.73,3.75,75.07c-27.92-8.62-40.99,3.28-54.13,27.04-3.99,7.21-13.55,13.37-28.74,18.36l.41-50.91-.41-71.67h0Z"/>
      <path class="cls-19" d="M844.69,656.51l17.07.65c1.82.06,3.52,1.06,4.46,2.64,14.54,23.93,14.43,46.8-.41,68.68-5.22-.23-9.33.7-12.32,2.81-1.76,1.23-2.76,3.28-2.64,5.45l1.47,27.51c.41,6.92-4.93,12.84-11.85,13.25l-25.22,1.41c-6.22.35-11.5-4.46-11.73-10.62l-1.47-35.31-3.75-75.07,46.39-1.41h0Z"/>
      <path class="cls-8" d="M475.04,802.89l-.35,75.71c-.06,2.81,2.29,5.16,5.1,5.16h34.9c2.52,0,4.52,1.99,4.52,4.52v224.27c0,1.47-1.11,2.7-2.58,2.81l-41.35,2.93c-4.4-1.17-6.57-3.05-6.39-5.69,4.75-77.59,3.58-155.01-3.58-232.31-1.99-21.64-.35-42.11.23-63.57,2.05-5.16,5.22-9.79,9.5-13.84h0Z"/>
      <path class="cls-20" d="M1114.36,884.53l-25.45,1.76c-2.05.12-3.7,1.88-3.7,3.93v25.92c0,2.81-2.29,5.1-5.1,5.1h-33.08c-2.64,0-4.81,1.99-5.04,4.63-1.35,16.01,2.76,29.85,12.26,41.52-23.17,2.7-45.16,2.64-65.98-.12l3.52-40.7c.23-2.52,2.23-4.46,4.75-4.57l35.89-1.99c2.29-.12,4.11-1.88,4.34-4.11l2.87-25.8c.29-2.23,2.11-3.93,4.34-3.99l70.38-1.58h0Z"/>
      <path class="cls-19" d="M1131.95,1015.84h-42.4c-1.99,0-3.64-1.64-3.64-3.69v-38.65c0-2.7-2.17-4.98-4.93-5.1l-26.74-1c-9.5-11.67-13.61-25.51-12.26-41.52.23-2.64,2.4-4.63,5.04-4.63h33.08c2.81,0,5.1-2.29,5.1-5.1v-25.92c0-2.05,1.64-3.81,3.7-3.93l25.45-1.76c32.78-4.4,17.18,18.77,25.22,32.78.82,1.41,1.99,2.64,3.4,3.46,14.96,8.86,22.58,22.7,22.93,41.46.06,2.46-1.99,4.52-4.46,4.52h-18.77c-5.57,0-10.09,4.46-10.2,10.03l-.53,39.06h0Z"/>
      <path class="cls-19" d="M975.07,1085.05l-.41-41.41c-.06-6.33,5.45-11.32,11.79-10.62l21.17,2.35c5.4.65,9.44,5.22,9.44,10.62v38.53c0,1.82-1.29,3.34-3.05,3.69-14.25,2.76-27.21,1.7-38.94-3.17h0Z"/>
      <path class="cls-20" d="M755.43,1077.25c-3.46.06-6.39-2.64-6.45-6.1l-.59-22.81c-.23-7.51,6.33-13.78,14.54-14.02l5.28-.12c8.27-.23,15.13,5.69,15.31,13.2l.65,22.81c.06,3.46-2.64,6.33-6.16,6.45l-22.58.59h0Z"/>
      <path class="cls-15" d="M1483.61,1047.51c-.18-1,.35-1.58,1.58-1.76,1.41-.18,1.94.47,1.53,1.94-.47,1.64-2.87,1.52-3.11-.18h0Z"/>
      <path class="cls-20" d="M575.26,1121l70.55,4.16c1.64.12,2.93,1.35,3.05,2.93,1.82,19.41,10.38,37.18,25.81,53.25-23.87,5.1-48.38,5.4-73.6.88-3.11-.53-9.33-.12-18.77,1.29l-1.64-42.29c-.06-2.11-1.82-3.81-3.99-3.81h-32.02c-1.76,0-3.34,1.06-3.99,2.7l-16.54,42.17c2.4-15.31,3.81-27.68,4.16-37.07.18-3.23-1.58-5.81-5.22-7.62-3.87-1.94-6.63-4.22-8.21-6.74-1.23-1.94-.47-4.57,1.64-5.51,15.78-7.1,35.36-8.56,58.77-4.34h0Z"/>
      <path class="cls-7" d="M1084.68,1184.52l-101.64-1.82c-4.34-.06-7.86-3.58-7.98-7.92l-1.17-41.76c34.43-10.15,69.21-9.56,104.39,1.88,1.76.59,2.99,2.17,3.11,3.99l3.28,45.63h0Z"/>
      <path class="cls-7" d="M1406.25,1136.84l-33.9,4.4c-2.4.29-4.11,2.4-3.99,4.81l1.88,34.54c.12,1.64-1.11,2.99-2.76,3.11l-35.54,2.23c-10.61-2.52-21-2.93-31.14-1.35-1.94.29-3.4,1.88-3.52,3.81l-2.82,42.17c-6.86-2.52-13.67-6.92-20.35-13.14-1.94-1.82-2.82-4.46-2.41-7.1l11.67-71.9c.41-2.7,2.87-4.63,5.63-4.46,1.47.06,14.31,1.06,38.41,2.87,23.4,1.82,52.43-.88,78.82,0h0Z"/>
      <path class="cls-9" d="M421.08,1137.19l2.17,31.08c.29,4.75-.12,8.86-1.23,12.26-.59,1.7-2.17,2.87-3.99,2.87l-148.91.35c-.18.23-.35.47-.53.65l2.52-46.74c.06-1.06.94-1.88,1.99-1.88l147.97,1.41M417.23,1148.9c-.02-3.86-3.13-6.96-7-6.95l-128.91.45c-3.87,0-6.98,3.18-6.95,7l.07,20.06c.02,3.86,3.13,6.96,7,6.95l128.91-.45c3.87,0,6.98-3.18,6.95-7l-.07-20.06h0Z"/>
      <path class="cls-28" d="M471.22,1228.91l-23.17.47c-1.99-23.64-10.26-43.99-24.81-61.11l-2.17-31.08,1.23-.82,44.57-1.64c2.76-.12,5.04,2.11,4.99,4.87l-.65,89.32h0Z"/>
      <path class="cls-19" d="M582.3,1183.52l-58.18-1.23,16.54-42.17c.65-1.64,2.23-2.7,3.99-2.7h32.02c2.17,0,3.93,1.7,3.99,3.81l1.64,42.29h0Z"/>
      <path class="cls-16" d="M1418.92,1230.85l.35-53.25c4.63-6.74,9.32-13.25,14.07-19.47,13.55-17.71,31.49-25.04,53.84-21.93,1.94.23,3.28,2.05,3.05,3.99-3.81,31.96-25.51,48.27-46.33,74.54-4.28,5.45-12.61,10.79-24.98,16.13h0Z"/>
      <path class="cls-3" d="M718.25,1181.06l4.57-41.05c.18-1.58,1.52-2.81,3.11-2.81h102.75c1.7,0,3.05,1.29,3.17,2.99l2.23,41.05c.12,1.82-1.35,3.34-3.17,3.34h-109.55c-1.88,0-3.34-1.64-3.11-3.52h0Z"/>
      <path class="cls-19" d="M1406.25,1136.84l8.45,1.64c1.88.35,3.23,1.94,3.28,3.81l1.29,35.31-.35,53.25-84.22-.76c-4.4-12.26-5.34-26.98-2.76-44.16l35.54-2.23c1.64-.12,2.87-1.47,2.76-3.11l-1.88-34.54c-.12-2.4,1.58-4.52,3.99-4.81l33.9-4.4h0Z"/>
      <path class="cls-17" d="M417.3,1168.96c.02,3.83-3.08,6.99-6.95,7l-128.91.45c-3.87.01-6.98-3.1-7-6.95l-.07-20.06c-.02-3.83,3.08-6.99,6.95-7l128.91-.45c3.87-.01,6.98,3.1,7,6.95l.07,20.06h0Z"/>
      <path class="cls-10" d="M448.06,1229.38l-177.29-.06-1.64-45.57,148.91-.35c1.82,0,3.4-1.17,3.99-2.87,1.11-3.4,1.52-7.51,1.23-12.26,14.54,17.13,22.81,37.48,24.81,61.11h0Z"/>
      <path class="cls-17" d="M268.59,1184.4c.18-.18.35-.41.53-.65l1.64,45.57-139.35,1.35c-2.58.06-4.63,2.17-4.57,4.75l.65,30.38-81.87,1.82-.18-33.66c0-1.82,1.47-3.28,3.28-3.28h68.85c5.92,0,10.73-4.81,10.73-10.73v-31.08c0-2.11,1.7-3.81,3.81-3.81l136.47-.65h0Z"/>
      <path class="cls-3" d="M1331.94,1185.92c-2.58,17.18-1.64,31.9,2.76,44.16l-40.23.47,2.82-42.17c.12-1.94,1.58-3.52,3.52-3.81,10.15-1.58,20.53-1.17,31.14,1.35h0Z"/>
      <path class="cls-2" d="M471.22,1228.91l802.6.47c.53,1.58,1.06,2.52,1.7,2.87,1.94,1.11,1.17,4.05-1.06,4.05h-107.5l-123.28,3.23c-1.52.06-2.99.53-4.22,1.47-4.05,3.23-6.1,6.63-6.1,10.15,0,2.17,2.93,5.81,8.86,10.85,17.89,15.25,22.17,34.72,12.73,58.41l-37.65.7c-89.32-2.35-145.15-2.46-167.62-.41-38.06,3.46-74.31,5.75-108.73,6.86-2.87.12-5.16,2.46-5.16,5.4v14.78c0,2.58,2.05,4.69,4.63,4.69,36.3.23,72.43,1.29,103.98,16.66l-244.56-.12-21.47-1.29c-2.58-.18-2.99-3.81-.53-4.57,11.67-3.69,25.22-4.69,40.64-3.05,3.69.41,6.92-2.46,6.92-6.16v-27.92c0-2.82-2.35-5.16-5.16-5.1l-74.89,1.11-281.63-.23-94.07.06-83.34-.94c-1.64-.06-2.99-1.35-3.11-2.99l-2.93-42.93c14.6-1.82,29.38-2.35,44.34-1.7,2.76.12,4.28-.59,4.63-2.05.29-1.41-.29-3.23-1.76-5.4l-.65-30.38c-.06-2.58,1.99-4.69,4.57-4.75l139.35-1.35,177.29.06,23.17-.47h0Z"/>
      <path class="cls-28" d="M1366.72,1288.56c-27.8-6.51-55.72-7.92-83.81-4.11-1.82.23-3.4,1.35-4.34,2.93-21,35.6-20.47,62.58,1.64,80.88l-113.25,1.11c-9.44-1.11-19.18-1.23-29.27-.47-25.57,1.94-51.2,2.76-76.83,2.46-4.99-.06-13.37-.88-25.1-2.46-8.27-1.11-16.66-1.52-25.16-1.29-1.94-3.99-6.22-6.63-12.73-7.92-2.23-.47-3.75-2.58-3.46-4.87,1.29-9.56.12-18.83-3.52-27.92-.64-1.7.47-3.58,2.29-3.75l24.1-2.05,37.65-.7,52.02-1.76c1.88-.06,3.69-.76,5.1-2.05,24.81-22.64,43.11-49.38,54.89-80.29h107.5c2.23,0,2.99-2.93,1.06-4.05-.65-.35-1.17-1.29-1.7-2.87.53-.12,1-.18,1.47-.23,1.64-.06,2.99,1.23,3.05,2.87.18,13.55.29,24.1.29,31.55-.06,3.81-1.53,6.33-4.46,7.68-1.76.76-1.23,3.4.7,3.4h88.27c2.11,0,3.99,1.41,4.57,3.46.82,2.99.47,6.51-1,10.44h0Z"/>
      <path class="cls-10" d="M1166.97,1236.3c-11.79,30.91-30.09,57.65-54.89,80.29-1.41,1.29-3.23,1.99-5.1,2.05l-52.02,1.76c9.44-23.69,5.16-43.17-12.73-58.41-5.92-5.04-8.86-8.68-8.86-10.85,0-3.52,2.05-6.92,6.1-10.15,1.23-.94,2.7-1.41,4.22-1.47l123.28-3.23h0Z"/>
      <path class="cls-9" d="M127.49,1265.8c1.47,2.17,2.05,3.99,1.76,5.4-.35,1.47-1.88,2.17-4.63,2.05-14.96-.65-29.73-.12-44.34,1.7l-35.25,3.64c-2.87,2.87-5.22,2.23-6.98-1.82,7.33-.47,9.85-3.52,7.57-9.15l81.87-1.82h0Z"/>
      <path class="cls-17" d="M38.05,1276.77c1.76,4.05,4.11,4.69,6.98,1.82l2.17,90.67,1.35,39.18c-1.47.65-1.99,1.94-1.47,3.93-2.99.76-4.87,2.05-5.63,3.87l-7.57-1-16.71-.23-15.42,2.05c-.23.06-.47,0-.65-.12-.88-.59-1.23-1.7-1.06-3.28,1.41.47,2.7.53,3.93.12.88-.23,1.52-1.06,1.52-2.05l-3.17-133.72,35.72-1.23h0Z"/>
      <path class="cls-26" d="M80.27,1274.95l2.93,42.93c.12,1.64,1.47,2.93,3.11,2.99l83.34.94,1.29,38.71c-1,3.05-.82,5.45.41,7.27.53.76,1.35,1.23,2.29,1.29,29.38,1.64,60.29.47,92.72-3.46,4.99,4.22,15.6,4.69,31.79,1.35l100.82,1.58,200.87.41,244.56.12,166.21-1.47c8.5-.23,16.89.18,25.16,1.29,11.73,1.58,20.12,2.4,25.1,2.46,25.63.29,51.26-.53,76.83-2.46,10.09-.76,19.82-.65,29.27.47l10.5,8.21c2.17,23.64-.35,35.83-7.51,36.65l-8.97-.29c2.4-.12,3.7-.76,3.75-1.88.18-2.76-1.17-4.16-3.93-4.16-272.48.18-544.08.47-814.86,1-8.68.06-10.09,1.64-4.16,4.81l-31.2.12c.35-2.99,0-4.46-1.06-4.46-64.45-1.29-128.44-1.7-191.9-1.17,5.34-8.39,7.39-19.88,6.16-34.49-.18-2.52-2.35-4.52-4.87-4.52l-71.73.06-2.17-90.67,35.25-3.64h0Z"/>
      <path class="cls-8" d="M1391.35,1277.36c-9.33,3.11-3.75,5.1,16.66,5.98,3.58.12,6.45,2.93,6.69,6.51l2.93,46.21-43.93.59-2.23-1.06c-.41-.23-.7-.65-.7-1.06v-56.13c0-1.35,1.11-2.4,2.4-2.29l18.18,1.23h0Z"/>
      <path class="cls-26" d="M1421.91,1334.89c-1.41.41-2.81.76-4.28,1.17l-2.93-46.21c-.23-3.58-3.11-6.39-6.69-6.51-20.41-.88-25.98-2.87-16.66-5.98l25.69,1.06c1.52.06,2.81,1.29,2.93,2.82l4.16,51.38c.06.18,0,.35-.06.53-.53,1.11-1.23,1.7-2.17,1.76h0Z"/>
      <path class="cls-12" d="M1425.37,1815.57l-4.98-.88c-1.7-.47-2.46-1.11-2.41-1.99l3.23-115.3.18-147.56-.76-132.9c0-2.64-2.17-4.81-4.81-4.81l-50.38-.06-69.79,1.99-77.01-.47c-1.94-.53-3.05-1.11-3.34-1.7,2.52-11.32,3.17-22.58,1.82-33.72-.23-2.17-2.17-3.75-4.4-3.58l-35.25,2.99-10.5-8.21,113.25-1.11,82.4-1.29c1.64-.06,2.93-1.35,2.87-2.99l-.53-26.8c1.76-1.88,4.69-2.05,8.74-.53l43.93-.59c1.47-.41,2.87-.76,4.28-1.17l2.35.76c1.64.53,3.4-.47,3.75-2.17,3.58-15.42,6.04-42.52,15.31-55.13,2.11-2.87,6.69-.82,5.86,2.7-1.47,6.28-2.05,13.67-1.64,22.23,1.58,35.31-.29,71.9,0,105.86,1.52,190.49,1.35,311.19-.47,362.04-.53,13.96-7.74,28.74-21.7,44.4h0Z"/>
      <path class="cls-21" d="M2.33,1278l3.17,133.72c0,1-.65,1.82-1.52,2.05-1.23.41-2.52.35-3.93-.12l2.29-135.65h0Z"/>
      <path class="cls-26" d="M1366.72,1288.56l-1.76,48.62.53,26.8c.06,1.64-1.23,2.93-2.87,2.99l-82.4,1.29c-22.11-18.3-22.64-45.28-1.64-80.88.94-1.58,2.52-2.7,4.34-2.93,28.09-3.81,56.01-2.4,83.81,4.11h0Z"/>
      <path class="cls-5" d="M1017.3,1321.11l-24.1,2.05c-1.82.18-2.93,2.05-2.29,3.75,3.64,9.09,4.81,18.36,3.52,27.92-.29,2.29,1.23,4.4,3.46,4.87,6.51,1.29,10.79,3.93,12.73,7.92l-166.21,1.47c-31.55-15.37-67.68-16.42-103.98-16.66-2.58,0-4.63-2.11-4.63-4.69v-14.78c0-2.93,2.29-5.28,5.16-5.4,34.43-1.11,70.67-3.4,108.73-6.86,22.46-2.05,78.29-1.94,167.62.41h0Z"/>
      <path class="cls-5" d="M263.73,1321.75l2.05,32.9c.12,2.11,1.58,3.93,3.64,4.52l28.74,7.8c-16.19,3.34-26.8,2.87-31.79-1.35-30.67-6.39-62.46-8.09-95.42-5.1l-1.29-38.71,94.07-.06h0Z"/>
      <path class="cls-28" d="M545.35,1321.99c2.4,2.76,1.94,6.04-1.41,9.79-1.88,2.17-2.46,4.28-1.82,6.45,1.58,5.1,3.11,9.09,4.52,11.85,2.35,4.63-1,10.09-6.22,10.09h-181.52c-1.11,0-1.99.82-2.05,1.94l-.12,1.94c-.18,2.23,1.58,4.11,3.81,4.16l38.41.35-100.82-1.58-28.74-7.8c-2.05-.59-3.52-2.4-3.64-4.52l-2.05-32.9,281.63.23h0Z"/>
      <path class="cls-5" d="M599.84,1368.96l-200.87-.41-38.41-.35c-2.23-.06-3.99-1.94-3.81-4.16l.12-1.94c.06-1.11.94-1.94,2.05-1.94h181.52c5.22,0,8.56-5.45,6.22-10.09-1.41-2.76-2.93-6.74-4.52-11.85-.65-2.17-.06-4.28,1.82-6.45,3.34-3.75,3.81-7.04,1.41-9.79l74.89-1.11c2.82-.06,5.16,2.29,5.16,5.1v27.92c0,3.69-3.23,6.57-6.92,6.16-15.42-1.64-28.97-.65-40.64,3.05-2.46.76-2.05,4.4.53,4.57l21.47,1.29h0Z"/>
      <path class="cls-2" d="M266.37,1365.62c-32.43,3.93-63.34,5.1-92.72,3.46-.94-.06-1.76-.53-2.29-1.29-1.23-1.82-1.41-4.22-.41-7.27,32.96-2.99,64.75-1.29,95.42,5.1h0Z"/>
      <path class="cls-8" d="M117.63,1408.2l-69.09.23-1.35-39.18,71.73-.06c2.52,0,4.69,1.99,4.87,4.52,1.23,14.6-.82,26.1-6.16,34.49h0Z"/>
      <path class="cls-17" d="M1215.29,1411.9c-2.05,1.58-3.99,2.46-5.81,2.58-14.6.94-27.74.88-39.53-.23,7.15-.82,9.68-13.02,7.51-36.65l35.25-2.99c2.23-.18,4.16,1.41,4.4,3.58,1.35,11.14.7,22.4-1.82,33.72h0Z"/>
      <path class="cls-11" d="M117.63,1408.2c63.46-.53,127.44-.12,191.9,1.17,1.06,0,1.41,1.47,1.06,4.46l-263.51-1.47c-.53-1.99,0-3.28,1.47-3.93l69.09-.23h0Z"/>
      <path class="cls-11" d="M1160.98,1413.95l-819.2-.23c-5.92-3.17-4.52-4.75,4.16-4.81,270.78-.53,542.38-.82,814.86-1,2.76,0,4.11,1.41,3.93,4.16-.06,1.11-1.35,1.76-3.75,1.88h0Z"/>
      <path class="cls-30" d="M1215.29,1411.9c.29.59,1.41,1.17,3.34,1.7-3.17,1.35-4.69,3.23-4.63,5.63.29,7.33.35,14.84.29,22.4,0,1.94-1.06,3.69-2.7,4.69-2.52,1.47-5.63,2.23-9.44,2.17l-168.73.53-629.06.53-86.27.35-133.48.76c-19.18-2.4-37.83-1.82-56.07,1.76-33.19,1.17-60.17,6.69-77.77,35.25-1,1.58-1.58,3.4-1.7,5.34-4.22,80.76-5.1,161.63-2.7,242.51l.12,79.17c-1.29.76-3.05.88-5.28.47l.23-398.92c.76-1.82,2.64-3.11,5.63-3.87l263.51,1.47,31.2-.12,819.2.23,8.97.29c11.79,1.11,24.93,1.17,39.53.23,1.82-.12,3.75-1,5.81-2.58h0Z"/>
      <path class="cls-6" d="M1365.43,1412.07c-2.11,18.24-1.11,36.6,2.93,55.07.35,1.58.53,3.23.59,4.87l.64,74.89-4.81,65.86-62.28,3.99c-1.88-38.65-.76-77.47,3.34-116.48.18-1.7-1.11-3.11-2.81-3.17l-47.39-1c30.73-18.24,44.04-45.63,40-82.05l69.79-1.99h0Z"/>
      <path class="cls-1" d="M1421.38,1549.84l-51.79-2.93-.64-74.89c-.06-1.64-.23-3.28-.59-4.87-4.05-18.47-5.04-36.83-2.93-55.07l50.38.06c2.64,0,4.81,2.17,4.81,4.81l.76,132.9h0Z"/>
      <path class="cls-25" d="M1295.64,1414.07c4.05,36.42-9.27,63.81-40,82.05-4.05.65-7.57.29-10.56-.94-21.58-7.21-44.1-11.08-67.62-11.73,4.93-14.6,13.14-26.27,24.69-34.95,3.81.06,6.92-.7,9.44-2.17,1.64-1,2.7-2.76,2.7-4.69.06-7.57,0-15.07-.29-22.4-.06-2.4,1.47-4.28,4.63-5.63l77.01.47h0Z"/>
      <path class="cls-13" d="M33.88,1415.24c-5.81,1.17-11.38,1.11-16.71-.23l16.71.23h0Z"/>
      <path class="cls-25" d="M184.61,1450.66c3.17,9.74,3.99,19.94,2.4,30.56l-57.77-2.52-.7-26.27c18.24-3.58,36.89-4.16,56.07-1.76h0Z"/>
      <path class="cls-13" d="M318.09,1449.9l-1.41,31.26-39.24,1.94c-.29,0-.53.06-.82.12-13.96,3.11-27.56,6.69-40.88,10.85-1.88.59-3.17,2.4-3.05,4.4l2.05,42.23c.41.7.35,2.52-.18,5.4-2.4,26.92-7.8,54.6-7.68,80.47.7,136.24,1.17,207.5,1.47,213.83.29,5.81-.88,30.97-3.4,75.42-.53,8.39-7.04,15.19-15.42,16.01l-22.17,2.11-.18-105.68v-114.13l-.12-173.13-.06-59.76c1.58-10.62.76-20.82-2.4-30.56l133.48-.76h0Z"/>
      <path class="cls-25" d="M1033.42,1449.02c5.57,34.07,5.81,67.09.65,99l-5.16.29-.94-4.63-2.17-57.53c-.12-2.76-2.35-4.93-5.1-4.93h-84.57c-1.88,0-3.46,1.47-3.58,3.34l-.82,12.32c-1.7,2.64-3.34,4.4-4.81,5.34-2.35,1.52-5.4-.18-5.4-2.93v-11.5c0-2.35-1.94-4.28-4.28-4.28l-464.38-1.82c-29.15,23.52-44.22-7.62-48.5-32.14l629.06-.53h0Z"/>
      <path class="cls-6" d="M1202.15,1448.49c-11.55,8.68-19.76,20.35-24.69,34.95l-100.46-.59c-2.76-.06-4.93,2.35-4.63,5.1l6.86,59c5.28.76,3.23.94-6.22.65-9.62-6.16-28.09-1.17-38.94.41,5.16-31.9,4.93-64.92-.65-99l168.73-.53h0Z"/>
      <path class="cls-13" d="M128.54,1452.42l.7,26.27-2.87,94.37-38.71,1.17c-1.76.06-3.28,1.35-3.46,3.11l-2.64,22.58c-4.63-3.75-6.16-10.38-4.69-19.82.7-4.46-3.28-8.33-7.74-7.51l-7.21,1.29c-4.93.88-8.62,5.1-8.86,10.09l-6.69,151.55c-2.4-80.88-1.52-161.75,2.7-242.51.12-1.94.7-3.75,1.7-5.34,17.59-28.56,44.57-34.07,77.77-35.25h0Z"/>
      <path class="cls-1" d="M404.36,1449.55c4.28,24.51,19.35,55.66,48.5,32.14l3.46,59.35c-21.05,3.69-43.69,4.11-67.91,1.17l8.86-52.61c.82-4.81-2.93-9.15-7.74-9.09l-72.84.65,1.41-31.26,86.27-.35h0Z"/>
      <path class="cls-8" d="M187.01,1481.22l.06,59.76-7.92,34.95c-.35,1.58-1.88,2.7-3.52,2.52l-49.26-5.4,2.87-94.37,57.77,2.52h0Z"/>
      <path class="cls-1" d="M316.69,1481.16l-.59,60.06c-27.51,2.87-54.6,2.7-81.34-.53l-2.05-42.23c-.12-1.99,1.17-3.81,3.05-4.4,13.31-4.16,26.92-7.74,40.88-10.85.29-.06.53-.12.82-.12l39.24-1.94h0Z"/>
      <path class="cls-8" d="M388.41,1542.21c-23.4,2.7-47.5,2.35-72.31-1l.59-60.06,72.84-.65c4.81-.06,8.56,4.28,7.74,9.09l-8.86,52.61h0Z"/>
      <path class="cls-31" d="M1027.97,1543.68l-55.42,5.81c-1.64.18-2.87,1.52-2.87,3.17-.18,15.84,2.4,30.91,7.74,45.28l-.18,120.4c-9.68-5.22-22.87-8.09-39.7-8.62-1.82-.06-3.34-1.35-3.81-3.11l-4.81-19.24.23-42.7.82-96.07,1.76-51.73.82-12.32c.12-1.88,1.7-3.34,3.58-3.34h84.57c2.76,0,4.99,2.17,5.1,4.93l2.17,57.53h0Z"/>
      <path class="cls-8" d="M931.73,1496.88l-1.76,51.73-29.15-.76c-23.52-3.58-47.21-5.22-71.2-4.98-40.47.41-60.88.59-61.29.59-62.23-1.35-124.51-1.64-186.74-.88-24.57.29-66.33-.23-125.27-1.52l-3.46-59.35,464.38,1.82c2.35,0,4.28,1.94,4.28,4.28v11.5c0,2.76,3.05,4.46,5.4,2.93,1.47-.94,3.11-2.7,4.81-5.34h0Z"/>
      <path class="cls-1" d="M1177.46,1483.45c23.52.65,46.04,4.52,67.62,11.73l-35.89,1.52c-1.82.12-3.23,1.58-3.23,3.4v25.57c0,5.28-4.05,9.68-9.33,10.2l-28.39,2.52c-27.97,9.15-57.65,12.02-89.03,8.56l-6.86-59c-.29-2.76,1.88-5.16,4.63-5.1l100.46.59h0Z"/>
      <path class="cls-30" d="M1245.09,1495.18c2.99,1.23,6.51,1.58,10.56.94l47.39,1c1.7.06,2.99,1.47,2.81,3.17-4.11,39-5.22,77.83-3.34,116.48l-.94,17.89c-4.28,12.26-6.22,23.81-5.86,34.6,1.82,53.08-.59,98.88-7.21,137.53-.76,4.46-4.63,7.74-9.15,7.74h-2.87c-3.81,0-6.8-3.23-6.57-7.04,2.58-39.7.18-79.88-7.15-120.46l-.35-136.83c-.06-1.64-1.35-2.93-2.99-2.93l-92.96.53c2.87-3.34,3.52-6.45,1.82-9.38l28.39-2.52c5.28-.53,9.33-4.93,9.33-10.2v-25.57c0-1.82,1.41-3.28,3.23-3.4l35.89-1.52h0Z"/>
      <path class="cls-13" d="M1073.01,1547.61c-4.34,31.73-6.51,55.01-6.51,69.79-.06,124.74-.35,203.27-1,235.59-.65,33.55,0,56.71-10.15,80.23-.7,1.7-2.29,2.81-4.11,2.87l-24.22,1.35-.82-112.37c.53-3.11.47-6.63-.23-10.56l.06-217c.82-12.37.82-25.45-.06-39.18-.29-4.28.7-7.62,2.93-10.03l5.16-.29c10.85-1.58,29.32-6.57,38.94-.41h0Z"/>
      <path class="cls-31" d="M900.82,1547.84l-666.24-1.76c.53-2.87.59-4.69.18-5.4,26.74,3.23,53.84,3.4,81.34.53,24.81,3.34,48.91,3.69,72.31,1,24.22,2.93,46.86,2.52,67.91-1.17,58.94,1.29,100.7,1.82,125.27,1.52,62.23-.76,124.51-.47,186.74.88.41,0,20.82-.18,61.29-.59,23.99-.23,47.68,1.41,71.2,4.98h0Z"/>
      <path class="cls-29" d="M187.07,1540.98l.12,173.13-54.89-.53c-2.58-.06-4.69,2.05-4.69,4.63v92.31c0,1.99,1.58,3.69,3.58,3.81,9.91.76,21.64,1.17,35.19,1.17,7.39,0,11.73.53,13.02,1.58,2.4,2.05,5.04,5.81,7.8,11.14l.18,105.68c.76,2.64.23,4.81-1.58,6.45-.59.59-1.41.88-2.29.88l-89.5-.41c-.53-4.52.65-6.63,3.58-6.33l2.64-63.63c.06-1.52,1.29-2.76,2.81-2.76h56.19c2.29,0,4.16-1.88,4.16-4.16v-26.68c0-2.64-1.58-4.93-4.05-5.87l-42.81-15.95c-.29-.06-.53-.12-.82-.12l-33.66.18-.47-215.59,2.64-22.58c.18-1.76,1.7-3.05,3.46-3.11l38.71-1.17,49.26,5.4c1.64.18,3.17-.94,3.52-2.52l7.92-34.95h0Z"/>
      <path class="cls-9" d="M1168.26,1538.4c1.7,2.93,1.06,6.04-1.82,9.38l.23,43.93c0,1.82-1.47,3.28-3.28,3.28h-86.56c-2.05,0-3.75,1.7-3.75,3.75v337.93c0,1.76-1.35,3.23-3.11,3.34l-39.29,2.52-4.4-1.94c.65-1.23.94-2.29.76-3.17l24.22-1.35c1.82-.06,3.4-1.17,4.11-2.87,10.15-23.52,9.5-46.68,10.15-80.23.65-32.32.94-110.85,1-235.59,0-14.78,2.17-38.06,6.51-69.79,9.44.29,11.5.12,6.22-.65,31.38,3.46,61.05.59,89.03-8.56h0Z"/>
      <path class="cls-8" d="M1028.91,1548.31c-2.23,2.4-3.23,5.75-2.93,10.03.88,13.72.88,26.8.06,39.18l-48.62.41c-5.34-14.37-7.92-29.44-7.74-45.28,0-1.64,1.23-2.99,2.87-3.17l55.42-5.81.94,4.63h0Z"/>
      <path class="cls-8" d="M1421.38,1549.84l-.18,147.56-.82,11.08c-.06.88-1.23,1.17-1.64.41l-53.96-96.12,4.81-65.86,51.79,2.93h0Z"/>
      <path class="cls-22" d="M234.58,1546.08l666.24,1.76,29.15.76-.82,96.07c-3.46-.41-6.16-2.11-8.15-5.1l-.7-43.11c-.06-2.58-2.17-4.57-4.75-4.46l-36.6,2.05c-3.05.18-5.45,2.64-5.51,5.63-1.7,71.84-4.87,111.84-.65,175.06,3.23,48.27,3.75,100.35,1.58,156.24-.12,2.05,1.35,3.87,3.34,4.22l28.03,5.34-34.43.35c-1.64.06-2.99-1.29-2.99-2.99v-338.58c0-2.52-2.05-4.57-4.57-4.57h-255.18c-.94,0-1.7.76-1.7,1.76v212.83c0,4.22-3.46,7.68-7.68,7.68h-23.46c-1.17,0-2.17,1.06-2.05,2.23l1.94,35.66c.12,2.17-1.64,4.05-3.87,4.05h-145.04c-2.4,0-4.34-1.99-4.34-4.4v-254.36c0-2.87-2.35-5.22-5.22-5.22h-178.94c-2.11,0-3.87,1.76-3.87,3.93v338.58c0,1.94-1.58,3.52-3.52,3.52h-38.53c-2.7,0-4.87,2.23-4.87,4.93v33.61c0,1.41-1.11,2.52-2.46,2.52H44.26c-1.7,0-3.05-1.41-3.05-3.11v-163.8c2.23.41,3.99.29,5.28-.47l2.29,118.65c.12,3.99,3.34,7.15,7.33,7.21l37.89.29,89.5.41c.88,0,1.7-.29,2.29-.88,1.82-1.64,2.35-3.81,1.58-6.45l22.17-2.11c8.39-.82,14.9-7.62,15.42-16.01,2.52-44.46,3.69-69.62,3.4-75.42-.29-6.33-.76-77.59-1.47-213.83-.12-25.86,5.28-53.55,7.68-80.47M469.82,1813.58c28.91,2.11,55.6,2.4,80.11.94,12.9-.82,20.53,2.11,20.82-12.73.65-38.65.65-81.17,0-127.5l-1.35-73.9c-.06-2.64-2.23-4.75-4.87-4.69-29.73.65-65.92.12-108.62-1.58-7.39-.29-14.78,1-22.11,3.99-2.35.94-3.93,3.23-3.93,5.81v197.7c0,6.98,5.69,12.55,12.67,12.43l27.27-.47h0Z"/>
      <path class="cls-25" d="M81.57,1599.92l.47,215.59,3.05,100.35c.06.88,1.11,1.29,1.7.7l1.58-1.64c.76-.76,2.05-.65,2.64.29,2.99,4.57,5.22,11.03,6.57,19.3-2.93-.29-4.11,1.82-3.58,6.33l-37.89-.29c-3.99-.06-7.21-3.23-7.33-7.21l-2.29-118.65-.12-79.17,6.69-151.55c.23-4.99,3.93-9.21,8.86-10.09l7.21-1.29c4.46-.82,8.45,3.05,7.74,7.51-1.47,9.44.06,16.07,4.69,19.82h0Z"/>
      <path class="cls-12" d="M921,1639.57c-25.92,5.81-39.82,22.05-41.76,48.8-1.29,17.42-1.82,29.38-1.52,35.89,2.17,52.96,3.23,109.85,3.17,170.78,0,12.61,5.4,24.22,16.13,34.78,1.7,1.64,4.4,1.64,6.1,0l1.58-1.58c1.76-1.76,4.69-1.47,6.1.59l2.17,3.28c-.65,4.93.94,7.74,4.69,8.45-2.52-.23-4.99.35-7.39,1.82l-4.52-1.82-28.03-5.34c-1.99-.35-3.46-2.17-3.34-4.22,2.17-55.89,1.64-107.97-1.58-156.24-4.22-63.22-1.06-103.22.65-175.06.06-2.99,2.46-5.45,5.51-5.63l36.6-2.05c2.58-.12,4.69,1.88,4.75,4.46l.7,43.11h0Z"/>
      <path class="cls-12" d="M570.75,1674.29c-29.85-6.39-61.76-7.62-95.77-3.58-3.87.41-6.8,3.75-6.74,7.68l1.58,135.18-27.27.47c-6.98.12-12.67-5.45-12.67-12.43v-197.7c0-2.58,1.58-4.87,3.93-5.81,7.33-2.99,14.72-4.28,22.11-3.99,42.7,1.7,78.88,2.23,108.62,1.58,2.64-.06,4.81,2.05,4.87,4.69l1.35,73.9h0Z"/>
      <path class="cls-14" d="M1026.03,1597.52l-.06,217-39.18-.76c-11.03-17.54-9.09-46.51-9.44-66.57l-.12-28.86.18-120.4,48.62-.41h0Z"/>
      <path class="cls-1" d="M1364.79,1612.76l53.96,96.12c.41.76,1.58.47,1.64-.41l.82-11.08-3.23,115.3-107.44,2.64c-4.81.12-8.74-3.75-8.74-8.5l-.23-172.19.94-17.89,62.28-3.99h0Z"/>
      <path class="cls-22" d="M1301.56,1634.64l.23,172.19c0,4.75,3.93,8.62,8.74,8.5l107.44-2.64c-.06.88.7,1.52,2.41,1.99l.41,42.34c.06,1.17-.94,2.11-2.11,2.11h-151.66c-2.58,0-4.75-1.88-5.16-4.4-1.29-8.03-1.17-16.6.29-25.63.12-.59.18-1.17.18-1.82l.41-140.29c7.33,40.58,9.74,80.76,7.15,120.46-.23,3.81,2.76,7.04,6.57,7.04h2.87c4.52,0,8.39-3.28,9.15-7.74,6.63-38.65,9.03-84.45,7.21-137.53-.35-10.79,1.58-22.34,5.86-34.6h0Z"/>
      <path class="cls-13" d="M921,1639.57c1.99,2.99,4.69,4.69,8.15,5.1l-.23,42.7c-9.21-4.75-17.07-3.11-23.64,5.04-1.11,1.41-1.7,3.28-1.52,5.1l8.09,88.56.76,59.18.35,86.86-2.17-3.28c-1.41-2.05-4.34-2.35-6.1-.59l-1.58,1.58c-1.7,1.64-4.4,1.64-6.1,0-10.73-10.56-16.13-22.17-16.13-34.78.06-60.94-1-117.82-3.17-170.78-.29-6.51.23-18.47,1.52-35.89,1.94-26.74,15.84-42.99,41.76-48.8h0Z"/>
      <path class="cls-25" d="M570.75,1674.29c.65,46.33.65,88.85,0,127.5-.29,14.84-7.92,11.91-20.82,12.73-24.51,1.47-51.2,1.17-80.11-.94l-1.58-135.18c-.06-3.93,2.87-7.27,6.74-7.68,34.02-4.05,65.92-2.81,95.77,3.58h0Z"/>
      <path class="cls-29" d="M928.91,1687.37l4.81,19.24c.47,1.76,1.99,3.05,3.81,3.11,16.83.53,30.03,3.4,39.7,8.62l.12,28.86-1.41,7.68c-.29,1.64-1.7,2.81-3.34,2.93l-53.72,2.93c-1.88.12-3.34,1.64-3.34,3.58l.29,51.38c-3.58-7.68-4.93-17.54-3.99-29.62l-8.09-88.56c-.18-1.82.41-3.69,1.52-5.1,6.57-8.15,14.43-9.79,23.64-5.04h0Z"/>
      <path class="cls-14" d="M187.19,1714.11v114.13c-2.76-5.34-5.4-9.09-7.8-11.14-1.29-1.06-5.63-1.58-13.02-1.58-13.55,0-25.28-.41-35.19-1.17-1.99-.12-3.58-1.82-3.58-3.81v-92.31c0-2.58,2.11-4.69,4.69-4.63l54.89.53h0Z"/>
      <path class="cls-27" d="M977.36,1747.19c.35,20.06-1.58,49.03,9.44,66.57l-70.96,1.94-.29-51.38c0-1.94,1.47-3.46,3.34-3.58l53.72-2.93c1.64-.12,3.05-1.29,3.34-2.93l1.41-7.68h0Z"/>
      <path class="cls-1" d="M911.85,1786.07c-.94,12.08.41,21.93,3.99,29.62l70.96-1.94,39.18.76c.7,3.93.76,7.45.23,10.56-2.64-2.23-4.93-.82-6.8,4.16-2.23,5.92.35,15.48-3.28,19.76-1.7,1.99-4.16,3.17-6.74,3.17h-75.07c-2.05,0-3.75,1.7-3.75,3.75v73.96c0,1.41-1,2.58-2.4,2.81l-3.75.7c-1.64.29-3.11-1-3.05-2.7.7-19.94,1.41-40.35,2.11-61.23.24-7.15-.23-13.2-1.35-18.18-2.58-11.32-5.75-13.31-9.5-6.04l-.76-59.18h0Z"/>
      <path class="cls-8" d="M97.58,1934.51c-1.35-8.27-3.58-14.72-6.57-19.3-.59-.94-1.88-1.06-2.64-.29l-1.58,1.64c-.59.59-1.64.18-1.7-.7l-3.05-100.35,33.66-.18c.29,0,.53.06.82.12l42.81,15.95c2.46.94,4.05,3.23,4.05,5.87v26.68c0,2.29-1.88,4.16-4.16,4.16h-56.19c-1.52,0-2.76,1.23-2.81,2.76l-2.64,63.63h0Z"/>
      <path class="cls-29" d="M1026.21,1825.07l.82,112.37c.18.88-.12,1.94-.76,3.17l-108.62-.06c-3.75-.7-5.34-3.52-4.69-8.45l-.35-86.86c3.75-7.27,6.92-5.28,9.5,6.04,1.11,4.98,1.58,11.03,1.35,18.18-.7,20.88-1.41,41.29-2.11,61.23-.06,1.7,1.41,2.99,3.05,2.7l3.75-.7c1.41-.23,2.4-1.41,2.4-2.81v-73.96c0-2.05,1.7-3.75,3.75-3.75h75.07c2.58,0,5.04-1.17,6.74-3.17,3.64-4.28,1.06-13.84,3.28-19.76,1.88-4.99,4.16-6.39,6.8-4.16h0Z"/>
      <path class="cls-22" d="M1026.27,1940.61l4.4,1.94v35.48c.06,2.23-1.76,4.05-3.99,4.05h-112.96c-1.99,0-3.58-1.58-3.58-3.58l.12-36.13c2.4-1.47,4.87-2.05,7.39-1.82l108.62.06h0Z"/>
    </g>
  </g>
</svg>