<?xml version="1.0" encoding="UTF-8"?>
<svg id="Layer_2" data-name="Layer 2" xmlns="http://www.w3.org/2000/svg" viewBox="0 0 1125.44 1510.78">
  <defs>
    <style>
      .cls-1 {
        fill: #26375a;
      }

      .cls-2 {
        fill: #18274a;
      }

      .cls-3 {
        fill: #566378;
      }

      .cls-4 {
        fill: #4b5770;
      }

      .cls-5 {
        fill: #f67152;
      }

      .cls-6 {
        fill: #08122b;
      }

      .cls-7 {
        fill: #949ea5;
      }

      .cls-8 {
        fill: #fab421;
      }

      .cls-9 {
        fill: #03030b;
      }

      .cls-10 {
        fill: #091020;
      }

      .cls-11 {
        fill: #687a98;
      }

      .cls-12 {
        fill: #bfc2c0;
      }

      .cls-13 {
        fill: #384250;
      }

      .cls-14 {
        fill: #eae7d1;
      }

      .cls-15 {
        fill: #1e2632;
      }

      .cls-16 {
        fill: #3e4c69;
      }

      .cls-17 {
        fill: #fdc737;
      }

      .cls-18 {
        fill: #c86608;
      }

      .cls-19 {
        fill: #828582;
      }
    </style>
  </defs>
  <g id="_Слой_1" data-name="Слой 1">
    <g>
      <path class="cls-6" d="M203.79,53.08c3.11,1,5.45,1,6.92,0l26.39-.06c1.29,0,2.58.29,3.75.94,7.92,4.16,9.8,9.97,5.51,17.36-2.05,3.58,1.47,7.8,5.34,6.39,5.75-2.05,12.2-1.17,19.41,2.76,1.64.88,2.82,2.35,3.28,4.16,3.23,12.61-2.7,24.05-9.21,38.71-1.06,2.29.64,4.93,3.17,4.93h237.7c2.17,0,3.75-1.99,3.28-4.11-2.52-11.67-2.52-24.51-.12-38.65.29-1.94,1.99-3.34,3.93-3.34h35.13c2.76,0,4.93-2.29,4.75-4.99l-1.23-22.7c-.12-2.4,2.17-4.16,4.46-3.4,6.04,1.94,14.31,2.82,24.87,2.52,1.35,0,2.58.47,3.52,1.35,2.29,2.05,5.86,1.29,10.73-2.35.41-.35.7-.82.76-1.29l7.68-47.39c.29-1.94,1.99-3.34,3.93-3.34h84.39c2.23,0,4.34,1.29,5.28,3.34,5.45,11.44,7.15,26.04,5.04,43.81-.29,2.46,1.64,4.63,4.16,4.63h26.8c5.92,0,10.67,4.75,10.67,10.62l.18,282.16-43.05-1.52c-2.11-.06-3.75-1.82-3.69-3.93l1.99-93.19,1.64-189.08c.06-1.23-1-2.29-2.23-2.29-23.75-.12-47.62-.41-71.67-.82-8.8-.18-17.3,1.17-25.45,4.16-1.88.7-3.46,2.05-4.46,3.81-1,1.94-1.64,6.28-1.94,13.08-.06,1.58,1.17,2.99,2.76,3.11,3.75.23,5.98,2.52,6.69,6.8.82,4.87,1.64,12.02,2.52,21.52.23,2.05-.59,4.11-2.11,5.51-2.7,2.4-6.8,3.87-12.38,4.52.53,6.28.24,11.08-.88,14.37-.53,1.58-2.7,1.7-3.4.23-1.82-3.64-2.87-7.57-3.23-11.73-.18-1.88-2.46-2.7-3.75-1.35-.59.65-1.11,2.29-1.52,5.04-.23,1.35-1.17,2.52-2.46,2.99-.82.29-2.29.18-4.4-.23-.82-.18-1.47-1.58-1.88-4.22-.29-1.64-1.29-2.93-3.11-3.81-3.81-1.88-8.27,0-9.09,3.75-2.29,10.67-3.46,20.7-3.52,30.15,0,1.94-1.47,3.58-3.4,3.87-23.05,2.93-44.51,2.99-61.35,2.64-.12,0-13.96.41-41.46,1.29-24.1.76-46.16,7.27-68.44,3.69-23.52-3.81-42.93-4.81-58.18-3.05-23.05,2.64-40.41,4.11-52.14,4.34-3.4.06-6.22-2.7-6.22-6.1v-19.47c0-3.58-2.76-6.51-6.33-6.69l-47.04-2.76-.65-38.36c-.06-1.7-1.41-3.05-3.05-3.11-12.49-.29-23.52-2.93-33.02-7.8l2.7-22.87c.23-1.99-1.29-3.69-3.28-3.69h-75.71c-2.58,0-4.69,2.11-4.69,4.75l.41,191.19c-.7,22.58-.53,46.16.53,70.79.53,12.37-1.7,21.17-6.75,26.39-1.11-.23-2.29-.47-3.4-.65l-29.79.12c-2.23,0-4.05,1.82-4.05,4.05v158.7c0,1.58,1.29,2.87,2.87,2.87l41.99-.47-1.47,53.43c-.06,1.11.88,2.05,1.99,2.11l82.58,1.64c.59,0,1.06.23,1.41.59,1.23,1.41,1.11,2.93-.29,4.57-1.23,1.47-1.93,3.23-2.23,5.28-1.23,10.67-2.52,21.23-3.87,31.67-.18,1.82.59,2.76,2.4,2.81,45.22,2.99,90.67,2.76,136.24-.82l1.35-44.16c.12-3.46,2.93-6.22,6.33-6.22h44.1c3.46,0,6.22,2.76,6.22,6.22v38.41c0,4.46-3.64,8.09-8.09,8.09h-42.64c-5.92,0-10.73,4.81-10.73,10.73v15.13c0,3.64-3.23,6.45-6.8,5.92-10.09-1.47-18.77-1.52-26.1-.29-1.23.23-2.11,1.35-1.99,2.64.12,1.23,1.17,2.23,2.46,2.23h184.15c1.41,0,2.58-1.17,2.58-2.58v-31.08c0-1.35,1.11-2.46,2.46-2.46h126.15c1.94,0,3.52-1.58,3.58-3.58v-2.87l.41-40.23,1.29-.82c.7-.47,1.47-.7,2.29-.7l51.73-1.35,42.7-1.99c1.94-.06,3.52-1.7,3.52-3.69v-2.17c0-2.05-1.58-3.69-3.64-3.81-1.88-.12-3.28-.76-4.22-1.88-.82-1-1.23-2.52-1.29-4.57-.23-7.45.35-17.36,1.76-29.73.23-1.64,1.52-2.99,3.17-3.28,3.81-.59,7.51-1.99,11.08-4.16l11.79.41,23.58-.59c2.64-.06,4.69-2.17,4.69-4.81l.41-160.58,38.59,1.06c4.57.12,8.21,3.87,8.21,8.5v202.98c0,2.99-2.35,5.45-5.28,5.57l-42.34,2.35c-2.29.12-4.11,2.05-4.11,4.4.23,17.59-2.76,36.42,3.99,54.25.64,1.7,2.35,2.76,4.11,2.64l25.51-1.41c6.98-.41,12.96,4.99,13.37,11.96.23,4.16,1.64,9.85,4.28,17.01.29.76.41,1.64.35,2.46l-1.35,23.46c-.06,1.53,1.35,2.76,2.81,2.4.06,0,.41-.23,1.17-.7,1.47-.88,3.23-1.17,4.93-.76,7.39,1.82,14.72,1.17,21.93-1.94,1.99-.88,4.28.29,4.75,2.46.7,3.4,2.46,7.21,5.34,11.44,1.29,1.88,1.76,4.22,1.17,6.45-2.64,10.26-1.94,20.35,2.23,30.26.88,2.05,2.17,3.28,3.93,3.81,1.47.41,2.81-1.06,2.17-2.46-1.64-3.69-.23-6.39,4.22-8.21,5.75-2.29,11.85,1.94,11.26,7.74-.35,3.4,1.11,5.75,4.4,7.1.59.29,1.23.41,1.88.41l39.29.47c3.58.06,6.51,2.99,6.51,6.57v28.15c0,3.23,2.58,5.81,5.81,5.81h29.09c4.93,0,8.97,4.05,8.97,8.97v33.72c0,2.05,1.7,3.75,3.75,3.75h35.89c3.05,0,5.51,2.46,5.51,5.45v149.79c0,1.94,1.52,3.46,3.46,3.52,8.27.06,15.19-.7,20.64-2.29,1.35-.41,2.76-.41,4.11,0,6.86,2.17,15.31,2.7,25.22,1.53,3.28-.41,6.16,2.17,6.16,5.45v240.52c0,4.22,3.34,7.62,7.57,7.68l54.72.53c3.99.06,7.1,3.4,6.8,7.39-.35,4.87-.29,50.5.12,136.88.06,8.62-1.88,17.89-5.69,27.8-.7,1.82-2.46,2.93-4.4,2.81-5.51-.35-16.71.12-33.55,1.41-6.39.53-11.2,5.86-10.97,12.14.06.7,1,1.41,2.93,2.17,2.17.88,3.7,2.93,3.81,5.28l.88,15.72c.12,2.64-1.99,4.87-4.63,4.87h-54.95c-1.82,0-3.46,1.17-3.93,2.93-2.81,9.91-2.76,22.17.18,36.66,1.23,6.33-3.34,12.26-9.74,12.67-26.57,1.58-47.5,2.52-62.69,2.7-103.22,1.41-227.91,1.7-374.06.94-11.55-.06-22.23-1-32.08-2.81-1.82-.35-3.11-1.88-3.11-3.69v-51.38c0-2.11-2.17-3.58-4.16-2.76-13.96,5.75-34.84,4.4-61.11,4.52-2.7.06-4.93,1.99-5.34,4.57l-.59,3.64c-.35,2.23-2.4,3.81-4.63,3.64-11.44-.88-33.96-.82-67.45.18-7.45.23-18.89,1.11-34.31,2.58-17.83,1.76-29.27,1.99-34.31.76-6.98-1.76-10.44-6.92-10.32-15.48.18-10.97.29-17.36.47-19.12.35-3.46-2.4-6.51-5.92-6.51h-42.23c-2.52,0-4.57,1.94-4.75,4.46l-1.23,19.12c-.18,2.23-1.99,3.99-4.22,3.99H103.73c-2.58,0-4.63-2.17-4.57-4.75.18-9.33,1.47-16.19,3.87-20.53,1.58-2.82-.47-6.28-3.69-6.28h-32.02c-4.22,0-7.68-3.46-7.68-7.68v-112.84c0-1.7,1.23-3.17,2.93-3.46l23.75-4.28c2.35-.41,3.99-2.52,3.87-4.87l-.47-8.33c-.06-1.58,1.47-2.76,2.93-2.23,6.28,2.11,10.2,5.81,10.44,12.61,3.17-11.08,4.28-22.58,3.34-34.37,4.87-.18,9.5-.53,13.84-1,1.64-.18,2.93-1.58,2.93-3.34.06-60-.53-118.7-1.76-176.12-.12-4.63-2.11-11.03-3.58-15.95-1.76-5.98-1.11-18.53,1.99-37.65,1.58-9.79,2.35-23.22,2.4-40.41,0-2.29-1.82-4.11-4.05-4.11h-43.69c-2.35,0-4.28-1.94-4.28-4.28v-281.16c0-1.82,1.41-3.28,3.23-3.34,5.34-.18,10.03,1.23,13.96,4.22.76.59,1.82.76,2.7.41.53-.23.94-1.11,1.23-2.58.29-1.7,1.76-2.93,3.46-2.93h23.05c2.58,0,4.63-2.05,4.63-4.63v-30.44c0-2.11-1.58-3.87-3.69-4.16-10.97-1.47-18.47-1.23-22.52.59-1.58.7-3.34-.41-3.34-2.11v-27.56c0-3.93-3.17-7.1-7.1-7.1h-32.78c-3.23,0-5.81-2.58-5.81-5.81v-41.11c0-2.4-1.99-4.28-4.4-4.16l-24.57,1.35c-2.35.18-4.69-.76-6.27-2.52-7.33-7.92-11.03-13.49-11.08-16.72C-.08,481.33-.25,415.64.33,349.43c.06-2.17,1.76-3.87,3.87-3.87h40.23c1.35,0,2.4-1.06,2.4-2.4V60.23c0-2.35,1.88-4.34,4.22-4.46l36.01-1.99c3.23-.18,5.87-2.7,6.22-5.92,1.76-15.78,1.35-28.15-1.17-37.01-1.52-5.45,2.58-10.85,8.27-10.85h90.85c1.29,0,2.29,1,2.29,2.29v46.68c0,1.94,1.29,3.64,3.17,4.11,1.94.47,4.28.47,7.1,0M609.28,685.24l-77.12,4.46c-8.45-5.1-19.12-7.57-31.96-7.45-13.31.06-21.52-.59-24.57-2.05-10.97-5.28-18.47-8.86-22.64-10.73-37.01-16.54-79.82,8.5-111.31,14.78-18.06,3.58-42.23,4.87-72.43,3.81-20.88-2.93-40.41-2.76-58.65.53l-28.39.18c-13.66-2.52-27.15-2.29-40.47.65-3.46.76-5.92,3.69-6.16,7.21l-1.88,28.56c-.06,1.41-.7,2.7-1.7,3.69-1.99,1.94-4.63,2.87-7.92,2.93l-2.23.06c-2.58.12-4.63,2.23-4.63,4.81v199.93c0,1.88.82,3.69,2.29,4.87,3.28,2.81,7.8,4.69,13.55,5.63,7.68,13.43,17.65,25.22,29.85,35.37,1.23,1,1.99,2.4,2.17,3.93l5.22,48.85c.23,2.4,2.4,4.1,4.81,3.87l72.67-7.57c.82.76,1.82,1.23,3.05,1.41,4.69,15.42,12.32,29.09,22.81,40.99,1.35,1.53,3.28,2.4,5.34,2.4h32.32c3.23,0,5.98,2.29,6.51,5.45l4.58,25.34c.7,4.05,4.05,7.16,8.15,7.57l63.11,6.63-1.58,112.66-35.19,2.35c-1.82.12-3.28,1.58-3.46,3.4-.76,7.57.94,13.37,5.1,17.54,1.17,1.11,1.82,2.7,1.82,4.28v24.4c0,2.64,2.11,4.81,4.75,4.81h45.8c2.23,0,3.58,2.4,2.41,4.28l-1.52,2.46-95.48.41c-1.82,0-3.52,1.06-4.28,2.76-1.47,3.11-1.52,6.1-.06,8.86l-1.35,39.18c-.06,1.82,1,3.52,2.7,4.22,2.52,1.06,5.75,1.52,9.56,1.41-2.35,6.75-7.8,7.86-16.42,3.34-1-21.29-3.23-42.4-6.57-63.22-2.05-12.96.88-27.15,8.86-42.58.82-1.58,1.29-3.34,1.23-5.16l-.18-20.18.18-105.57c0-3.11-2.52-5.63-5.63-5.63h-38.94c-3.93,0-7.27-2.87-7.86-6.8l-2.99-20.12c6.63-15.19-6.57-20.23-39.59-15.01-1.7.29-3.05,1.7-3.17,3.4-.59,7.21-.64,14.19-.23,20.82.47,7.1-2.17,11.67-7.98,13.72l-30.79,3.05c-1.82.18-3.28,1.58-3.52,3.34-2.23,15.78-1.7,31.55,1.64,47.45l2.46,76.24c14.19,16.19,29.5,41.41,50.03,49.79.47.23.82.65,1,1.11.76,2.05-.29,3.46-3.05,4.34l-110.32.65c-4.52.06-8.15,3.69-8.15,8.21.06,27.98,1.17,55.01,3.34,81.11.18,2.29,2.93,2.87,8.27,1.76l43.4.35,16.66,1.41-63.63,7.33c-4.75.53-8.39,4.57-8.39,9.44v5.22c0,5.28,4.11,9.62,9.32,9.85,37.53,1.99,76.77,3.17,117.77,3.52,25.75.23,43.99-3.17,55.89-26.22.64-1.29-.23-2.81-1.64-2.87l-55.31-3.58c-.82-.06-1.41-.7-1.41-1.53,0-.76.59-1.41,1.41-1.47,4.69-.23,9.62-.65,14.78-1.23l129.61-.18,1.29,1.35-2.11,30.2c-.23,3.52,2.76,6.39,6.22,6.04l30.96-3.17c3.58-.41,6.28-3.52,6.1-7.1-.23-4.52,2.41-7.39,7.92-8.62l35.48-1c1.99-.06,3.58-1.7,3.52-3.69l-.65-43.34.88-60.06,44.1,2.52c20.18,7.21,27.45,23.11,21.76,47.8l-17.01.35c-3.17.06-5.69,2.64-5.69,5.81v27.8c0,4.63,3.75,8.39,8.33,8.39h40.29c1.17,0,2.11.94,2.11,2.11v63.05c0,3.28,2.29,6.16,5.51,6.86,10.21,2.35,20.41,1.99,30.61-1,128.5,3.23,257.46,3.34,386.9.35-1.82-13.55-1.41-26.74,1.17-39.65l40.47-2.4c5.04-.29,9.27-3.87,10.5-8.74l4.99-20.23,28.03-.06c2.17-.06,3.87-1.76,3.87-3.93v-127.44c0-4.22-3.4-7.62-7.57-7.62h-100.05c-2.81,0-5.1,2.35-5.04,5.16l.76,38.18c-7.1-1.35-14.19-1.41-21.29-.18l-106.5-.23c-.53,0-1,.29-1.29.7-.41.59-.65,1.35-.59,2.23-2.64-1.58-4.34-3.28-4.99-5.22-.7-2.23.88-4.57,3.23-4.69l4.87-.29c2.29-.12,4.11-1.99,4.16-4.28l.35-12.67,1.76-14.54c.06-2.64.82-5.22,2.17-7.74l29.62-1.29c.94-.06,1.7-.82,1.7-1.76v-1.76c0-1-.76-1.82-1.76-1.88l-27.33-1.06c9.56-3.05,19.06-4.46,28.5-4.28,19.76.41,39.41,0,59.06-1.11,1.99-.12,3.64-1.7,3.75-3.75l3.4-51.79c22.81,10.38,47.8,15.01,75.01,13.9,1.82-.06,3.23-1.58,3.23-3.4.12-61.99.23-124.1.29-186.27,0-3.46-.82-5.92-2.46-7.45-1.64-1.58-3.99-2.82-7.1-3.81l-47.21-2.76c-1.88-.12-3.52-1.35-4.11-3.11l-.94-2.76-2.52-143.16c2.46-11.67-2.64-17.83-15.31-18.47-9.79-.53-18.53-1.11-26.33-1.82-1.23-2.64-4.34-3.34-9.32-2.05-6.57,1.7-16.36,2.17-29.32,1.52.35-2.4.29-4.57-.12-6.63l-.76-27.45c-.06-2.23-1.82-4.05-4.05-4.16l-31.08-1.99c-1.88-.12-3.58-1.29-4.46-2.99-1.99-4.05-2.7-8.86-2.05-14.31l-2.46-28.39c-.18-2.35-2.11-4.11-4.46-4.11h-35.01c-2.58,0-4.75-1.99-4.93-4.63-3.17-41.46-41.17-43.11-72.84-41.41-1.99.12-3.81-1.29-4.16-3.28l-4.98-27.8c-.47-2.64-2.82-4.57-5.51-4.57h-68.85c-2.17,0-3.99,1.7-4.11,3.87-.82,12.02,7.74,26.1-10.2,31.9h0Z"/>
      <path class="cls-10" d="M210.71,53.08c-1.47,1-3.81,1-6.92,0h6.92Z"/>
      <path class="cls-5" d="M174.4,80.52c-5.34,16.72-7.98,35.42-7.98,56.13-.06,4.16,3.28,7.51,7.45,7.51h22.58c3.99,0,7.21-3.23,7.27-7.21.06-4.75,2.29-7.74,6.74-8.86,1.23,20.35,1.35,40.12.29,59.18-.06,1.7-.76,3.17-2.11,4.28-11.96-.53-23.75.82-35.31,4.11-.53.12-1,.18-1.52.12l-23.05-2.05c-1.76-.18-3.23,1.17-3.23,2.93v48.44c0,2.52-2.35,4.4-4.81,3.87-14.9-3.05-30.56-2.76-46.92.94l-.41-191.19c0-2.64,2.11-4.75,4.69-4.75h75.71c1.99,0,3.52,1.7,3.28,3.69l-2.7,22.87h0Z"/>
      <path class="cls-5" d="M699.54,246.5l-54.13-2.52-.35-49.03c-.06-3.99-3.4-7.15-7.33-6.92l-36.71,1.99c-3.46.18-6.33-2.46-6.45-5.86l-1.64-67.33c5.57-.65,9.68-2.11,12.38-4.52,1.52-1.41,2.35-3.46,2.11-5.51-.88-9.5-1.7-16.66-2.52-21.52-.7-4.28-2.93-6.57-6.69-6.8-1.58-.12-2.81-1.52-2.76-3.11.29-6.8.94-11.14,1.94-13.08,1-1.76,2.58-3.11,4.46-3.81,8.15-2.99,16.66-4.34,25.45-4.16,24.05.41,47.92.7,71.67.82,1.23,0,2.29,1.06,2.23,2.29l-1.64,189.08h0Z"/>
      <path class="cls-3" d="M174.4,80.52c9.5,4.87,20.53,7.51,33.02,7.8,1.64.06,2.99,1.41,3.05,3.11l.65,38.36c-.23-.59-.47-1.17-.65-1.7-4.46,1.11-6.69,4.11-6.74,8.86-.06,3.99-3.29,7.21-7.27,7.21h-22.58c-4.16,0-7.51-3.34-7.45-7.51,0-20.7,2.64-39.41,7.98-56.13h0Z"/>
      <path class="cls-1" d="M592.92,116.83l1.64,67.33c.12,3.4,2.99,6.04,6.45,5.86l36.71-1.99c3.93-.23,7.27,2.93,7.33,6.92l.35,49.03-37.18-2.29c-1.99-.12-3.64-1.41-4.22-3.28-4.99-16.25-13.14-39.35-29.85-44.57-14.37-4.52-29.38-6.92-44.98-7.15-34.6-.53-68.44-.18-101.58.94l-102.22.47c-37.18-2.4-74.72-.12-112.55,6.8-1.99.41-3.4-.7-4.16-3.34,1.35-1.11,2.05-2.58,2.11-4.28,1.06-19.06.94-38.83-.29-59.18.18.53.41,1.11.65,1.7l47.04,2.76c3.58.18,6.33,3.11,6.33,6.69v19.47c0,3.4,2.81,6.16,6.22,6.1,11.73-.23,29.09-1.7,52.14-4.34,15.25-1.76,34.66-.76,58.18,3.05,22.29,3.58,44.34-2.93,68.44-3.69,27.51-.88,41.35-1.29,41.46-1.29,16.83.35,38.3.29,61.35-2.64,1.94-.29,3.4-1.94,3.4-3.87.06-9.44,1.23-19.47,3.52-30.15.82-3.75,5.28-5.63,9.09-3.75,1.82.88,2.82,2.17,3.11,3.81.41,2.64,1.06,4.05,1.88,4.22,2.11.41,3.58.53,4.4.23,1.29-.47,2.23-1.64,2.46-2.99.41-2.76.94-4.4,1.52-5.04,1.29-1.35,3.58-.53,3.75,1.35.35,4.16,1.41,8.09,3.23,11.73.7,1.47,2.87,1.35,3.4-.23,1.11-3.28,1.41-8.09.88-14.37h0Z"/>
      <path class="cls-4" d="M645.41,243.98l54.13,2.52-1.99,93.19c-.06,2.11,1.58,3.87,3.69,3.93l43.05,1.52-.41,160.58c0,2.64-2.05,4.75-4.69,4.81l-23.58.59c-4.05-3.34-8.68-4.93-13.9-4.81-2.4.06-4.34-1.94-4.34-4.34-.06-23.93-.06-36.19-.12-36.71-2.17-26.33-16.07-41.11-41.7-44.34-1.88-.23-3.64,1-3.99,2.87l-16.83,87.91,16.01,54.31-51.73,1.35c-.82,0-1.58.23-2.29.7l-1.29.82-8.03.35c4.69-14.9,6.33-30.15,4.93-45.69-.18-1.88-1.76-3.28-3.64-3.17-40.53,2.05-82.64,1.11-126.27-2.81-2.64-.23-4.46-2.76-3.81-5.4,0-.18,1.47-.29,4.4-.47,2.64.76,5.34.94,8.09.53l122.16-.23c1.41,0,2.52-1.11,2.46-2.52-.23-12.14-.29-24.34-.12-36.71.06-1.99.7-3.64,1.94-4.98,1.47-1.58,3.05-2.29,4.81-2.17l35.19.59c1.7.06,3.11-1.35,3.11-3.11l-.76-95.71-.23-28.33c-.06-2.11-1.7-3.75-3.81-3.75h-125.68c-1.88,0-3.46,1.41-3.7,3.23-1.88,13.55-.35,24.46,4.57,32.67-2.11.76-2.87,3.81-2.29,9.03-2.35-12.08-15.95-15.72-40.88-10.85-2.99.59-5.16,3.17-5.16,6.22l-.12,92.08c-5.16.29-13.31.23-24.46-.29-6.86-.29-10.79,1.99-11.73,6.74-4.52,22.64-18.94,33.78-41.05,22.05-15.25-8.09-24.34-20.59-42.23-25.1-12.49-3.11-25.4-4.46-38.83-3.99,13.37,1.29,20.06-3.99,20-15.78-.17-39.12-.82-62.99-1.93-71.67-.29-2.17-1.11-4.22-2.29-6.04-6.86-10.26-10.2-19.88-10.03-28.91.12-5.28-4.16-9.68-9.44-9.68h-143.63c-2.05,0-3.75,1.64-3.87,3.69-.88,15.07,1.7,25.1,7.74,30.09l-.94,94.89-8.39-54.84c-.23-1.64-1.17-3.05-2.58-3.87-13.02-7.51-19.53-32.26-24.63-38.65-8.5-10.79-20.7-17.18-36.71-19.24,5.04-5.22,7.27-14.02,6.75-26.39-1.06-24.63-1.23-48.21-.53-70.79,16.36-3.69,32.02-3.99,46.92-.94,2.46.53,4.81-1.35,4.81-3.87v-48.44c0-1.76,1.47-3.11,3.23-2.93l23.05,2.05c.53.06,1,0,1.52-.12,11.55-3.28,23.34-4.63,35.31-4.11.76,2.64,2.17,3.75,4.16,3.34l-19,6.33c-1.64.53-2.93,1.88-3.4,3.52-9.09,34.13-15.31,77.01,31.49,84.34,42.52,6.74,91.84-17.36,126.33-42.29l15.78-1.58c1.06-.12,1.99-.65,2.64-1.53.88-1.17,1.29-2.52,1.29-3.99.06-1.88,1.52-3.4,3.46-3.52l53.14-2.93c2.17-.12,3.87-1.99,3.81-4.16l-.76-41.46c33.14-1.11,66.98-1.47,101.58-.94,15.6.23,30.61,2.64,44.98,7.15,16.72,5.22,24.87,28.33,29.85,44.57.59,1.88,2.23,3.17,4.22,3.28l37.18,2.29h0Z"/>
      <path class="cls-3" d="M325.36,188.08l-.94,51.73c-.06,3.58,2.76,6.51,6.33,6.57l17.48.41c-34.49,24.93-83.81,49.03-126.33,42.29-46.8-7.33-40.58-50.2-31.49-84.34.47-1.64,1.76-2.99,3.4-3.52l19-6.33c37.83-6.92,75.36-9.21,112.55-6.8h0Z"/>
      <path class="cls-7" d="M427.59,187.62l.76,41.46c.06,2.17-1.64,4.05-3.81,4.16l-53.14,2.93c-1.93.12-3.4,1.64-3.46,3.52,0,1.47-.41,2.81-1.29,3.99-.65.88-1.58,1.41-2.64,1.53l-15.78,1.58-17.48-.41c-3.58-.06-6.39-2.99-6.33-6.57l.94-51.73,102.22-.47h0Z"/>
      <path class="cls-10" d="M304.31,467.07c-7.68-.94-14.31-.65-19.88.94l-67.74-1.52c-2.05-.06-3.69-1.7-3.69-3.75v-90.96c0-1.58-1.23-2.82-2.81-2.82l-49.32-.18c-6.04-4.99-8.62-15.01-7.74-30.09.12-2.05,1.82-3.69,3.87-3.69h143.63c5.28,0,9.56,4.4,9.44,9.68-.18,9.03,3.17,18.65,10.03,28.91,1.17,1.82,1.99,3.87,2.29,6.04,1.11,8.68,1.76,32.55,1.93,71.67.06,11.79-6.63,17.07-20,15.78M290.4,371.18c0-.87-.75-1.58-1.61-1.56l-31.43.44c-.85.01-1.56.72-1.56,1.61l.6,43.04c0,.87.75,1.58,1.61,1.56l31.43-.44c.85-.01,1.56-.72,1.56-1.61l-.6-43.04h0Z"/>
      <path class="cls-10" d="M639.89,367.37l-43.4-.24c-.7-.06-1.35.53-1.29,1.23l.65,94.89c-1.23,2.05-3.52,3.17-6.86,3.28-42.64,1.17-84.8,1.53-126.39,1.11l.12-92.08c0-3.05,2.17-5.63,5.16-6.22,24.93-4.87,38.53-1.23,40.88,10.85l1,37.65c.06,1.99,1.7,3.58,3.64,3.58h25.28c3.75,0,6.74-3.05,6.74-6.8v-36.07c0-4.63-3.81-8.33-8.39-8.21l-25.98.82c-4.93-8.21-6.45-19.12-4.57-32.67.23-1.82,1.82-3.23,3.7-3.23h125.68c2.11,0,3.75,1.64,3.81,3.75l.23,28.33h0Z"/>
      <path class="cls-11" d="M84.2,346.43c22.58,11.85,34.72,29.56,36.54,53.19,1.88,25.1.29,70.61,7.57,107.44.29,1.58-.88,3.11-2.52,3.17l-30.56,1.47-41.99.47c-1.58,0-2.87-1.29-2.87-2.87v-158.7c0-2.23,1.82-4.05,4.05-4.05l29.79-.12h0Z"/>
      <path class="cls-3" d="M87.6,347.08c16.01,2.05,28.21,8.45,36.71,19.24,5.1,6.39,11.61,31.14,24.63,38.65,1.41.82,2.35,2.23,2.58,3.87l8.39,54.84,27.92,5.04c1.7.29,2.93,1.82,2.87,3.58l-2.23,39.29c-1.58,1.47-1.82,3.4-.76,5.87,1.06,2.35,3.34,3.87,5.86,3.87h76.13c1.41,0,2.81-.59,3.81-1.64,2.64-2.7,1.64-5.04-2.87-7.1,4.4,0,8.27-1,11.67-3.05,1.64-1,2.76-2.7,3.05-4.57,1.99-12.96,1.7-25.28-.94-36.95,5.57-1.58,12.2-1.88,19.88-.94,13.43-.47,26.33.88,38.83,3.99,17.89,4.52,26.98,17.01,42.23,25.1,22.11,11.73,36.54.59,41.05-22.05l2.58,30.2c.12,1.82,1.52,3.28,3.34,3.52l30.67,3.87c-2.93.18-4.4.29-4.4.47-.65,2.64,1.17,5.16,3.81,5.4,43.63,3.93,85.74,4.87,126.27,2.81,1.88-.12,3.46,1.29,3.64,3.17,1.41,15.54-.23,30.79-4.93,45.69l-16.01-2.99c-2.93-.59-5.69,1.7-5.69,4.69v33.84c0,3.11,2.64,5.63,5.81,5.51l23.52-1.17v2.87c-.06,1.99-1.64,3.58-3.58,3.58h-126.15c-1.35,0-2.46,1.11-2.46,2.46v31.08c0,1.41-1.17,2.58-2.58,2.58h-184.15c-1.29,0-2.35-1-2.46-2.23-.12-1.29.76-2.4,1.99-2.64,7.33-1.23,16.01-1.17,26.1.29,3.58.53,6.8-2.29,6.8-5.92v-15.13c0-5.92,4.81-10.73,10.73-10.73h42.64c4.46,0,8.09-3.64,8.09-8.09v-38.41c0-3.46-2.76-6.22-6.22-6.22h-44.1c-3.4,0-6.22,2.76-6.33,6.22l-1.35,44.16-129.55-1.47c-1.35,0-2.7.29-3.93.94l-2.76,1.35c-1.82-.06-2.58-1-2.4-2.81,1.35-10.44,2.64-21,3.87-31.67.29-2.05,1-3.81,2.23-5.28,1.41-1.64,1.52-3.17.29-4.57-.35-.35-.82-.59-1.41-.59l-82.58-1.64c-1.11-.06-2.05-1-1.99-2.11l1.47-53.43,30.56-1.47c1.64-.06,2.81-1.58,2.52-3.17-7.27-36.83-5.69-82.34-7.57-107.44-1.82-23.64-13.96-41.35-36.54-53.19,1.11.18,2.29.41,3.4.65M413.51,516.46c0-2.17-1.76-3.93-3.93-3.93h-33.78c-2.17,0-3.93,1.76-3.93,3.93v47.39c0,2.17,1.76,3.93,3.93,3.93h33.78c2.17,0,3.93-1.76,3.93-3.93v-47.39M462.27,576.48c.04-4.25-3.36-7.77-7.65-7.84l-36.24-.44c-4.28-.07-7.8,3.39-7.84,7.65l-.39,32.02c-.04,4.25,3.36,7.77,7.65,7.84l36.24.44c4.28.07,7.8-3.39,7.84-7.65l.39-32.02h0Z"/>
      <path class="cls-8" d="M639.89,367.37l.76,95.71c0,1.76-1.41,3.17-3.11,3.11l-35.19-.59c-.82-1.82-2.99-2.64-6.51-2.35l-.65-94.89c-.06-.7.59-1.29,1.29-1.23l43.4.24h0Z"/>
      <path class="cls-8" d="M160.85,368.78l49.32.18c1.58,0,2.81,1.23,2.81,2.82v90.96c0,2.05,1.64,3.69,3.69,3.75l67.74,1.52c2.64,11.67,2.93,23.99.94,36.95-.29,1.88-1.41,3.58-3.05,4.57-3.4,2.05-7.27,3.05-11.67,3.05l-82.17-1,2.23-39.29c.06-1.76-1.17-3.28-2.87-3.58l-27.92-5.04.94-94.89h0Z"/>
      <path class="cls-14" d="M291,414.22c0,.89-.71,1.59-1.56,1.61l-31.43.44c-.85.02-1.61-.69-1.61-1.56l-.6-43.04c0-.89.71-1.59,1.56-1.61l31.43-.44c.85-.02,1.62.69,1.61,1.56l.6,43.04h0Z"/>
      <path class="cls-12" d="M511.04,371.18l25.98-.82c4.57-.12,8.39,3.58,8.39,8.21v36.07c0,3.75-2.99,6.8-6.74,6.8h-25.28c-1.94,0-3.58-1.58-3.64-3.58l-1-37.65c-.59-5.22.18-8.27,2.29-9.03h0Z"/>
      <path class="cls-3" d="M715.61,511.12l-11.79-.41-69.09,1,16.83-87.91c.35-1.88,2.11-3.11,3.99-2.87,25.63,3.23,39.53,18,41.7,44.34.06.53.06,12.79.12,36.71,0,2.4,1.94,4.4,4.34,4.34,5.22-.12,9.85,1.47,13.9,4.81h0Z"/>
      <path class="cls-17" d="M602.36,465.61c-1.76-.12-3.34.59-4.81,2.17-1.23,1.35-1.88,2.99-1.94,4.98-.18,12.37-.12,24.57.12,36.71.06,1.41-1.06,2.52-2.46,2.52l-122.16.23,1.58-32.43c.12-2.81-1.82-5.34-4.63-5.86-4.69-.88-6.51-2.99-5.45-6.28,41.58.41,83.75.06,126.39-1.11,3.34-.12,5.63-1.23,6.86-3.28,3.52-.29,5.69.53,6.51,2.35h0Z"/>
      <path class="cls-18" d="M462.6,467.66c-1.06,3.28.76,5.4,5.45,6.28,2.81.53,4.75,3.05,4.63,5.86l-1.58,32.43c-2.76.41-5.46.24-8.09-.53l-30.67-3.87c-1.82-.23-3.23-1.7-3.34-3.52l-2.58-30.2c.94-4.75,4.87-7.04,11.73-6.74,11.14.53,19.3.59,24.46.29h0Z"/>
      <path class="cls-1" d="M188.48,511.59l82.17,1c4.52,2.05,5.51,4.4,2.87,7.1-1,1.06-2.4,1.64-3.81,1.64h-76.13c-2.52,0-4.81-1.53-5.86-3.87-1.06-2.46-.82-4.4.76-5.87h0Z"/>
      <path class="cls-1" d="M703.82,510.71c-3.58,2.17-7.27,3.58-11.08,4.16-1.64.29-2.93,1.64-3.17,3.28-1.41,12.37-1.99,22.29-1.76,29.73.06,2.05.47,3.58,1.29,4.57.94,1.11,2.35,1.76,4.22,1.88,2.05.12,3.64,1.76,3.64,3.81v2.17c0,1.99-1.58,3.64-3.52,3.69l-42.7,1.99-16.01-54.31,69.09-1h0Z"/>
      <path class="cls-6" d="M413.51,563.84c0,2.17-1.76,3.93-3.93,3.93h-33.78c-2.17,0-3.93-1.76-3.93-3.93v-47.39c0-2.17,1.76-3.93,3.93-3.93h33.78c2.17,0,3.93,1.76,3.93,3.93v47.39h0Z"/>
      <path class="cls-13" d="M587.4,569.24l8.03-.35-.41,40.23-23.52,1.17c-3.17.12-5.81-2.4-5.81-5.51v-33.84c0-2.99,2.76-5.28,5.69-4.69l16.01,2.99h0Z"/>
      <path class="cls-6" d="M461.87,608.5c-.04,4.26-3.56,7.72-7.84,7.65l-36.24-.44c-4.28-.07-7.69-3.59-7.65-7.84l.39-32.02c.04-4.26,3.56-7.72,7.84-7.65l36.24.44c4.29.07,7.69,3.59,7.65,7.84l-.39,32.02h0Z"/>
      <path class="cls-11" d="M311.99,612.99c-45.57,3.58-91.02,3.81-136.24.82l2.76-1.35c1.23-.65,2.58-.94,3.93-.94l129.55,1.47h0Z"/>
      <path class="cls-2" d="M826.8,763.66c-12.79-24.16-32.49-27.27-57.12-24.93-20.06,1.93-29.56,13.14-40.35,30.61-3.34,5.45-11.44,10.26-24.16,14.31l-2.35,2.05c-2.29-1.23-3.58-2.82-3.81-4.63-1-9.09-1.64-21.29-1.99-36.66l1.23-42.81c.18-6.69-4.98-12.32-11.67-12.67l-40.06-2.05-37.24-1.64c17.95-5.81,9.38-19.88,10.2-31.9.12-2.17,1.94-3.87,4.11-3.87h68.85c2.7,0,5.04,1.94,5.51,4.57l4.98,27.8c.35,1.99,2.17,3.4,4.16,3.28,31.67-1.7,69.67-.06,72.84,41.41.18,2.64,2.35,4.63,4.93,4.63h35.01c2.35,0,4.28,1.76,4.46,4.11l2.46,28.39h0Z"/>
      <path class="cls-2" d="M532.16,689.7c-3.7,11.91-3.28,26.45,1.17,43.58l-35.66,1.17-182.69-.7c-3.81-10.62-5.51-20.82-5.1-30.67.18-4.22-2.76-7.92-6.92-8.68l-33.72-6.33c30.2,1.06,54.37-.24,72.43-3.81,31.49-6.28,74.31-31.32,111.31-14.78,4.16,1.88,11.67,5.45,22.64,10.73,3.05,1.47,11.26,2.11,24.57,2.05,12.84-.12,23.52,2.35,31.96,7.45h0Z"/>
      <path class="cls-2" d="M182.2,688.76l-.18,25.75-1.23,13.72c-.18,1.76-1.64,3.11-3.46,3.17l-53.25.41c3.28-.06,5.92-1,7.92-2.93,1-1,1.64-2.29,1.7-3.69l1.88-28.56c.23-3.52,2.7-6.45,6.16-7.21,13.31-2.93,26.8-3.17,40.47-.65h0Z"/>
      <path class="cls-1" d="M269.24,688.06l33.72,6.33c4.16.76,7.1,4.46,6.92,8.68-.41,9.85,1.29,20.06,5.1,30.67l-5.92.88-43.93.06c-.94,0-1.7.76-1.7,1.64v41.7c0,1.88-1.52,3.4-3.4,3.4l-47.39.7-4.52-48.91,2.46-44.63c18.24-3.28,37.77-3.46,58.65-.53h0Z"/>
      <path class="cls-4" d="M609.28,685.24l37.24,1.64c-.47,32.08,14.9,46.63,46.16,43.63l-1.35,38.94c-.06,1.93-1.35,3.64-3.17,4.28-26.45,8.91-54.25,10.91-83.34,6.04-1.88-.35-3.23-1.99-3.23-3.87v-40.23c0-1.23-.94-2.17-2.17-2.23-.65-.06-1.29-.12-1.99-.18h-64.1c-4.46-17.12-4.87-31.67-1.17-43.58l77.12-4.46h0Z"/>
      <path class="cls-16" d="M697.02,744.42c.41-15.78-1-20.41-4.34-13.9-31.26,2.99-46.63-11.55-46.16-43.63l40.06,2.05c6.69.35,11.85,5.98,11.67,12.67l-1.23,42.81h0Z"/>
      <path class="cls-7" d="M210.59,688.59l-2.46,44.63c-3.34-.59-4.63-5.22-3.87-13.9.24-2.35-1.41-4.46-3.69-4.87-5.57-1-11.79-.94-18.53.06l.18-25.75,28.39-.18h0Z"/>
      <path class="cls-4" d="M208.13,733.22l4.52,48.91-1.99,98.35c-.06,2.23,1.76,4.05,3.99,4.11l61.05.82c-22.76,7.57-42.87,5.75-66.33,6.63-1.82.06-3.34,1.52-3.46,3.34l-2.7,41.76c-.12,2.05,1.06,3.93,2.93,4.75l31.73,13.25-33.55-6.28c-23.05-4.05-46.8-4.63-71.26-1.76-5.75-.94-10.26-2.82-13.55-5.63-1.47-1.17-2.29-2.99-2.29-4.87v-199.93c0-2.58,2.05-4.69,4.63-4.81l2.23-.06,53.25-.41c1.82-.06,3.28-1.41,3.46-3.17l1.23-13.72c6.74-1,12.96-1.06,18.53-.06,2.29.41,3.93,2.52,3.69,4.87-.76,8.68.53,13.31,3.87,13.9h0Z"/>
      <path class="cls-3" d="M697.02,744.42c.35,15.37,1,27.56,1.99,36.66.23,1.82,1.52,3.4,3.81,4.63,46.57,12.73,64.04,44.22,78.06,86.33,1.11,3.28,4.99,4.63,7.86,2.7l80.58-53.55c12.96.64,22.76.18,29.32-1.52,4.98-1.29,8.09-.59,9.32,2.05l1.17,38.47c.06,1.76.76,3.4,1.99,4.69,8.15,8.62,18.06,12.96,29.62,12.96,1.58,0,2.87-1.35,2.82-2.93-.53-11.55,1.47-22.52,6.04-32.9l2.52,143.16-157.7-.29-6.98-87.97c-.47-6.45-8.56-9.03-12.73-4.11-22.64,26.63-44.81,43.63-80.11,52.84-1.88.47-3.23,2.05-3.46,3.99l-2.05,18.06,21.64,26.16c1.23,1.47,1.23,3.58.12,5.1-2.35,3.11-6.45,4.22-12.26,3.46-17.89-2.35-37.95-4.75-60.17-7.27-5.45-.65-10.62,2.52-12.61,7.62l-14.49,37.18-17.77,37.71c-.53,1.11-.76,2.35-.76,3.58l1.58,78.35c.06,2.82-2.29,5.16-5.1,5.16h-71.61c-2.23,0-4.16,1.47-4.75,3.58l-2.58,9.09-1.06,79.88c.29,3.58-.12,6.69-1.11,9.38-.65,1.7-3.17,1.23-3.17-.59v-10.91c0-2.17-1.7-3.93-3.87-3.99l-49.68-1.17-27.62,2.4c-3.87.29-7.16-2.76-7.16-6.63v-33.66c0-3.05,2.46-5.51,5.51-5.51h27.68c6.39,0,11.03-6.16,9.21-12.32l-7.62-25.63c-1.52-5.16-6.33-8.68-11.79-8.56-10.21.23-19.94-6.86-20.64-18.06-.65-9.97,3.28-19.94,11.79-29.91,16.36-19.06,31.26-34.37,44.81-45.86,8.5-22.05,18-31.9,28.44-29.56,9.91-7.68,18.36-16.42,25.22-26.33,17.07-24.51,32.02-28.27,61.93-32.2,1.64-.23,2.87-1.76,2.7-3.4-2.05-21.93-9.15-35.07-31.14-47.21-11.79-6.51-27.92-16.54-48.38-30.09-2.35-1.58-4.81-2.93-7.39-4.11l-21.47-9.91c5.51-10.67,6.8-24.05,3.87-40.06-.35-1.88,1.06-3.64,2.99-3.75l49.03-2.7c2.87-.18,5.1-2.52,5.1-5.4v-39.24c0-1.7,1.35-3.11,3.05-3.11h40.88c2.11,0,3.69-1.88,3.4-3.93-2.76-18.59-1.58-35.89,3.58-52.02.7.06,1.35.12,1.99.18,1.23.06,2.17,1,2.17,2.23v40.23c0,1.88,1.35,3.52,3.23,3.87,29.09,4.87,56.89,2.87,83.34-6.04,1.82-.65,3.11-2.35,3.17-4.28l1.35-38.94c3.34-6.51,4.75-1.88,4.34,13.9h0Z"/>
      <path class="cls-16" d="M497.67,734.45v43.22l-78.53,2.64c-.65.06-1.23.29-1.64.7-.41.47-.76.94-.94,1.35-.47,1.17.29,2.4,1.52,2.58,1.53.18,2.93.7,4.17,1.47l-6.22,1.23-46.57-.7-53.9.47c-2.05.06-3.75-1.64-3.75-3.75v-45.8c0-.94-.47-1.76-1.23-2.23l-1.52-1,5.92-.88,182.69.7h0Z"/>
      <path class="cls-7" d="M533.33,733.28h64.1c-5.16,16.13-6.33,33.43-3.58,52.02.29,2.05-1.29,3.93-3.4,3.93h-40.88c-1.7,0-3.05,1.41-3.05,3.11v39.24c0,2.87-2.23,5.22-5.1,5.4l-49.03,2.7c-1.94.12-3.34,1.88-2.99,3.75,2.93,16.01,1.64,29.38-3.87,40.06l-58.24,2.17c-3.93.29-7.39-.29-10.32-1.64-1.7-.82-2.87-2.46-3.05-4.34-3.17-30.85-2.46-61.52,2.11-92.02l6.22-1.23c24.34.41,48.74.29,73.13-.41,2.52-.06,3.28-2.87,2.29-8.33v-43.22l35.66-1.17h0Z"/>
      <path class="cls-7" d="M309.06,734.63l1.52,1c.76.47,1.23,1.29,1.23,2.23v45.8c0,2.11,1.7,3.81,3.75,3.75l53.9-.47c-13.49,19.35-12.9,37.71-5.86,59,8.39,25.39,6.92,46.39,3.34,71.37-.88,6.16-5.98,10.85-12.2,11.2l-22.58,1.23c-7.68.41-14.19-5.75-14.19-13.43v-24.51c0-2.35-1.88-4.34-4.22-4.46l-38.06-1.94-61.05-.82c-2.23-.06-4.05-1.88-3.99-4.11l1.99-98.35,47.39-.7c1.88,0,3.4-1.53,3.4-3.4v-41.7c0-.88.76-1.64,1.7-1.64l43.93-.06h0Z"/>
      <path class="cls-1" d="M826.8,763.66c-.65,5.45.06,10.26,2.05,14.31.88,1.7,2.58,2.87,4.46,2.99l31.08,1.99c2.23.12,3.99,1.94,4.05,4.16l.76,27.45-3.29-22.29c-.47-3.05-3.11-5.34-6.16-5.4l-154.6-3.23c12.73-4.05,20.82-8.86,24.16-14.31,10.79-17.48,20.29-28.68,40.35-30.61,24.63-2.35,44.34.76,57.12,24.93h0Z"/>
      <path class="cls-2" d="M497.67,777.67c1,5.45.23,8.27-2.29,8.33-24.4.7-48.8.82-73.13.41-1.23-.76-2.64-1.29-4.17-1.47-1.23-.18-1.99-1.41-1.52-2.58.18-.41.53-.88.94-1.35.41-.41,1-.65,1.64-.7l78.53-2.64h0Z"/>
      <path class="cls-16" d="M705.17,783.66l154.6,3.23c3.05.06,5.69,2.35,6.16,5.4l3.29,22.29c.41,2.05.47,4.22.12,6.63l-80.58,53.55c-2.87,1.94-6.74.59-7.86-2.7-14.02-42.11-31.49-73.6-78.06-86.33l2.35-2.05h0Z"/>
      <path class="cls-3" d="M416.03,787.64c-4.57,30.5-5.28,61.17-2.11,92.02.18,1.88,1.35,3.52,3.05,4.34,2.93,1.35,6.39,1.94,10.32,1.64l-7.33,55.19c-.23,1.76-1.7,3.05-3.46,3.17l-60.35,3.4-41.23-1.76c-2.52-.12-4.63,1.88-4.63,4.46l.12,32.08c-20.7,4.63-41.41,5.04-62.11,1.17-1.94-.35-3.52-1.64-4.34-3.46-3.4-7.68-5.45-15.89-6.1-24.75l-31.73-13.25c-1.88-.82-3.05-2.7-2.93-4.75l2.7-41.76c.12-1.82,1.64-3.28,3.46-3.34,23.46-.88,43.58.94,66.33-6.63l38.06,1.94c2.34.12,4.22,2.11,4.22,4.46v24.51c0,7.68,6.51,13.84,14.19,13.43l22.58-1.23c6.22-.35,11.32-5.04,12.2-11.2,3.58-24.98,5.04-45.98-3.34-71.37-7.04-21.29-7.62-39.65,5.86-59l46.57.7h0Z"/>
      <path class="cls-16" d="M949.61,842.01c-4.57,10.38-6.57,21.35-6.04,32.9.06,1.58-1.23,2.93-2.82,2.93-11.55,0-21.46-4.34-29.62-12.96-1.23-1.29-1.94-2.93-1.99-4.69l-1.17-38.47c7.8.7,16.54,1.29,26.33,1.82,12.67.65,17.77,6.8,15.31,18.47h0Z"/>
      <path class="cls-4" d="M485.53,883.48l21.47,9.91c2.58,1.17,5.04,2.52,7.39,4.11,20.47,13.55,36.6,23.58,48.38,30.09,21.99,12.14,29.09,25.28,31.14,47.21.18,1.64-1.06,3.17-2.7,3.4-29.91,3.93-44.87,7.68-61.93,32.2-6.86,9.91-15.31,18.65-25.22,26.33,7.1-10.97,13.72-21.93,19.88-32.78,12.96-22.87,32.14-26.51,54.84-33.08,2.23-.65,3.58-2.87,3.17-5.1l-2.93-16.3c-.53-2.76-2.93-4.81-5.75-4.75-26.69.47-61.23-.06-78.76,14.43-21.47,17.83-35.54,22.93-63.4,24.4-35.25,1.88-62.11,3.28-74.95-36.13l60.35-3.4c1.76-.12,3.23-1.41,3.46-3.17l7.33-55.19,58.24-2.17h0Z"/>
      <path class="cls-16" d="M794.43,984.88c-11.61-24.57-10.85-44.69-9.56-72.67.06-1.41-1.47-2.29-2.64-1.58-8.86,5.22-19.76,12.08-32.84,20.7-9.27,6.04-24.34,11.38-45.28,15.95-1.82.41-3.28,1.88-3.64,3.75-1.17,6.04-1.05,10.73.41,14.08.82,1.88,2.35,3.34,4.28,3.99,19.94,7.1,44.92,15.31,74.89,24.69,5.51,1.76,8.56,5.1,9.09,9.97.29,2.46-1.11,7.16-4.1,14.08-1.06,2.46-3.23,4.28-5.81,4.93-49.44,12.37-94.19,5.4-134.25-21-2.23-1.47-5.1-1.64-7.45-.41-7.21,3.69-12.08,12.67-14.72,26.92q0,.06.06.06l-1-.12q-.06,0-.06-.06l6.04-27.33c.29-1.76,1.64-3.11,3.34-3.4,10.15-1.94,19.18-.76,27.1,3.64,28.33,15.54,57.65,20.53,87.91,14.95,8.39-1.52,9.15-13.2,1.11-15.89-20.17-6.74-39.59-17.54-58.24-32.43l2.05-18.06c.23-1.94,1.58-3.52,3.46-3.99,35.31-9.21,57.48-26.22,80.11-52.84,4.16-4.93,12.26-2.35,12.73,4.11l6.98,87.97h0Z"/>
      <path class="cls-1" d="M794.43,984.88l157.7.29.94,2.76c.59,1.76,2.23,2.99,4.11,3.11l47.21,2.76c-12.49,25.86-22.29,43.93-29.32,54.19-5.92,8.74-15.01,15.42-27.15,20.06l-48.38,1.06-27.15-1.35c-2.64-.12-4.75-2.35-4.75-4.99v-21.35c0-2.11-1.76-3.87-3.87-3.87h-172.89c-1.58,0-2.87,1.17-3.05,2.76l-2.58,27.51-40.7-.53-17.89-.88c-1.76-.06-3.11-1.47-3.11-3.23v-23.52c0-1.53-1.58-2.52-2.93-1.88-2.64,1.23-5.75,1.99-9.27,2.17l14.49-37.18c1.99-5.1,7.15-8.27,12.61-7.62,22.23,2.52,42.29,4.93,60.17,7.27,5.81.76,9.91-.35,12.26-3.46,1.11-1.53,1.11-3.64-.12-5.1l-21.64-26.16c18.65,14.9,38.06,25.69,58.24,32.43,8.03,2.7,7.27,14.37-1.11,15.89-30.26,5.57-59.59.59-87.91-14.95-7.92-4.4-16.95-5.57-27.1-3.64-1.7.29-3.05,1.64-3.34,3.4l-6.04,27.33q0,.06.06.06l1,.12q-.06,0-.06-.06c2.64-14.25,7.51-23.22,14.72-26.92,2.35-1.23,5.22-1.06,7.45.41,40.06,26.39,84.81,33.37,134.25,21,2.58-.65,4.75-2.46,5.81-4.93,2.99-6.92,4.4-11.61,4.1-14.08-.53-4.87-3.58-8.21-9.09-9.97-29.97-9.38-54.95-17.59-74.89-24.69-1.94-.64-3.46-2.11-4.28-3.99-1.47-3.34-1.58-8.03-.41-14.08.35-1.88,1.82-3.34,3.64-3.75,20.94-4.57,36.01-9.91,45.28-15.95,13.08-8.62,23.99-15.48,32.84-20.7,1.17-.7,2.7.18,2.64,1.58-1.29,27.98-2.05,48.09,9.56,72.67h0Z"/>
      <path class="cls-2" d="M204.31,948.87c11.32,2.87,15.25,7.74,11.79,14.66-.94,1.82-5.57,10.67-13.9,26.68-8.15,15.6-8.27,25.69,3.87,37.59,1.11,1.11,2.64,1.82,4.22,1.88l37.48,1.88-72.67,7.57c-2.4.23-4.57-1.47-4.81-3.87l-5.22-48.85c-.18-1.52-.94-2.93-2.17-3.93-12.2-10.15-22.17-21.94-29.85-35.37,24.46-2.87,48.21-2.29,71.26,1.76h0Z"/>
      <path class="cls-1" d="M356.15,947.4c12.84,39.41,39.7,38,74.95,36.13,27.86-1.47,41.93-6.57,63.4-24.4,17.54-14.49,52.08-13.96,78.76-14.43,2.81-.06,5.22,1.99,5.75,4.75l2.93,16.3c.41,2.23-.94,4.46-3.17,5.1-22.7,6.57-41.87,10.2-54.84,33.08-6.16,10.85-12.78,21.82-19.88,32.78-10.44-2.35-19.94,7.51-28.44,29.56-16.25,6.04-25.98,12.55-29.21,19.41-12.43,26.45-30.03,27.45-52.78,35.66l-63.11-6.63c-4.11-.41-7.45-3.52-8.15-7.57l-4.58-25.34c-.53-3.17-3.28-5.45-6.51-5.45h-32.32c-2.05,0-3.99-.88-5.34-2.4-10.5-11.91-18.12-25.57-22.81-40.99,25.81,1.06,51.26-1,76.3-6.22,1.53-.29,2.35-1.94,1.7-3.28l-18.41-41.29-.12-32.08c0-2.58,2.11-4.57,4.63-4.46l41.23,1.76h0Z"/>
      <path class="cls-16" d="M237.86,955.14c.65,8.86,2.7,17.07,6.1,24.75.82,1.82,2.4,3.11,4.34,3.46,20.7,3.87,41.4,3.46,62.11-1.17l18.41,41.29c.65,1.35-.18,2.99-1.7,3.28-25.04,5.22-50.5,7.27-76.3,6.22-1.23-.18-2.23-.65-3.05-1.41l-37.48-1.88c-1.58-.06-3.11-.76-4.22-1.88-12.14-11.91-12.02-21.99-3.87-37.59,8.33-16.01,12.96-24.87,13.9-26.68,3.46-6.92-.47-11.79-11.79-14.66l33.55,6.28h0Z"/>
      <path class="cls-4" d="M1004.39,993.79c3.11,1,5.45,2.23,7.1,3.81,1.64,1.52,2.46,3.99,2.46,7.45-.06,62.17-.18,124.28-.29,186.27,0,1.82-1.41,3.34-3.23,3.4-27.21,1.11-52.2-3.52-75.01-13.9,2.11-11.96,7.1-33.55,14.95-64.69,3.69-14.49,2.87-30.56-2.46-48.09,12.14-4.63,21.23-11.32,27.15-20.06,7.04-10.26,16.83-28.33,29.32-54.19h0Z"/>
      <path class="cls-16" d="M644.53,1067.28l5.92,11.55.29,33.78c0,3.87,3.17,6.98,7.04,6.98h34.84c2.23,0,4.05,1.76,4.16,3.99,1.12,19.3,1.52,32.9,1.35,40.7-.18,6.16,4.57,8.33,14.25,6.45-6.1,5.57-12.96,8.33-20.59,8.33-1.7,0-3.11-1.47-2.99-3.17l2.76-41.93c.18-2.99-2.11-5.63-5.1-5.81l-29.68-1.88c-2.81-.18-5.22,2.05-5.22,4.87v100.52c0,2.23,1.76,4.11,3.99,4.22l119.11,7.33,7.21,31.67c.94,3.99,4.52,6.86,8.62,6.86h25.16c2.05,0,3.99-1,5.16-2.64l15.48-21.88-1.76,14.54c-20.76,17.07-44.22,16.83-70.32-.82-3.28-2.17-7.74-.35-8.45,3.52-4.46,23.52-12.49,46.21-24.04,67.97l-29.27-.59c-1.94-.06-3.7-1.29-4.34-3.11-.59-1.76-.82-3.87-.76-6.39l1.41-31.67c.06-1.64-1.23-3.05-2.87-3.17l-36.42-2.29c-2.4-3.23-6.45-4.98-12.14-5.28-7.1-.29-14.37-.7-21.76-1.17-2.05-.12-3.64-1.82-3.64-3.87v-15.07c0-2.76-.65-5.45-1.82-7.92l-15.42-31.9c-.41-.7-.53-1.53-.41-2.35,2.05-17.18,4.99-46.92-1.94-64.98-1.23-3.17-5.86-2.7-6.39.65l-1.53,9.5c-.41,2.29-2.23,4.05-4.52,4.28-26.39,2.87-52.9,2.99-79.59.29l2.58-9.09c.59-2.11,2.52-3.58,4.75-3.58h71.61c2.81,0,5.16-2.35,5.1-5.16l-1.58-78.35c0-1.23.23-2.46.76-3.58l17.77-37.71c3.52-.18,6.63-.94,9.27-2.17,1.35-.65,2.93.35,2.93,1.88v23.52c0,1.76,1.35,3.17,3.11,3.23l17.89.88h0Z"/>
      <path class="cls-7" d="M899.53,1069.1c2.52.47,4.34,1.17,5.57,2.05,1.64,1.17,1.58,3.64-.12,4.75-.7.47-1.06.7-1.11.76-1.53,1.52-2.4,3.64-2.35,5.81l.47,32.84c0,1.99-1.58,3.64-3.58,3.64h-129.73c-3.52,0-6.27,2.93-6.1,6.39l2.35,42.64c.23,4.34-3.46,7.8-7.74,7.33l-34.95-3.81-9.85-.76c-9.68,1.88-14.43-.29-14.25-6.45.18-7.8-.23-21.41-1.35-40.7-.12-2.23-1.93-3.99-4.16-3.99h-34.84c-3.87,0-7.04-3.11-7.04-6.98l-.29-33.78,6.86,31.49c.35,1.7,1.88,2.93,3.64,2.93h22.75c1.7,0,3.11-1.47,3.05-3.17l-1.52-42.29,2.58-27.51c.18-1.58,1.47-2.76,3.05-2.76h172.89c2.11,0,3.87,1.76,3.87,3.87v21.35c0,2.64,2.11,4.87,4.75,4.99l27.15,1.35h0Z"/>
      <path class="cls-4" d="M475.62,1066.28c-13.55,11.49-28.44,26.8-44.81,45.86-8.5,9.97-12.43,19.94-11.79,29.91.7,11.2,10.44,18.3,20.64,18.06,5.45-.12,10.26,3.4,11.79,8.56l7.62,25.63c1.82,6.16-2.81,12.32-9.21,12.32h-27.68c-3.05,0-5.51,2.46-5.51,5.51v33.66c0,3.87,3.29,6.92,7.16,6.63l27.62-2.4c-9.74,3.75-19.53,5.75-29.44,5.98-1.94.06-3.87-.41-5.63-1.23-10.5-5.1-18.65-12.02-24.34-20.76l1.58-112.66c22.76-8.21,40.35-9.21,52.78-35.66,3.23-6.86,12.96-13.37,29.21-19.41h0Z"/>
      <path class="cls-11" d="M685.23,1067.81l1.52,42.29c.06,1.7-1.35,3.17-3.05,3.17h-22.75c-1.76,0-3.28-1.23-3.64-2.93l-6.86-31.49-5.92-11.55,40.7.53h0Z"/>
      <path class="cls-3" d="M947.91,1068.04c5.34,17.54,6.16,33.61,2.46,48.09-7.86,31.14-12.84,52.72-14.95,64.69l-3.4,51.79c-.12,2.05-1.76,3.64-3.75,3.75-19.65,1.11-39.29,1.53-59.06,1.11-9.44-.18-18.94,1.23-28.5,4.28-2.4.12-3.17,2.7-2.23,7.74-1.35,2.52-2.11,5.1-2.17,7.74l-15.48,21.88c-1.17,1.64-3.11,2.64-5.16,2.64h-25.16c-4.11,0-7.68-2.87-8.62-6.86l-7.21-31.67-7.86-50.79c-.23-1.76-1.41-3.23-3.05-3.93l-41.52-17.01,34.95,3.81c4.28.47,7.98-2.99,7.74-7.33l-2.35-42.64c-.17-3.46,2.58-6.39,6.1-6.39h129.73c1.99,0,3.58-1.64,3.58-3.64l-.47-32.84c-.06-2.17.82-4.28,2.35-5.81.06-.06.41-.29,1.11-.76,1.7-1.11,1.76-3.58.12-4.75-1.23-.88-3.05-1.58-5.57-2.05l48.38-1.06h0Z"/>
      <path class="cls-3" d="M254.52,1088.45c2.64,29.56-1.93,54.84-13.72,75.77,0-32.2-12.43-49.79-37.24-52.84,5.81-2.05,8.44-6.63,7.98-13.72-.41-6.63-.35-13.61.23-20.82.12-1.7,1.47-3.11,3.17-3.4,33.02-5.22,46.21-.18,39.59,15.01h0Z"/>
      <path class="cls-16" d="M309.76,1226.57l-28.68,10.5c-1.64.59-3.34.82-5.04.7-35.19-2.29-69.44-1.06-102.69,3.69l-2.46-76.24,69.91-1c11.79-20.94,16.36-46.21,13.72-75.77l2.99,20.12c.59,3.93,3.93,6.8,7.86,6.8h38.94c3.11,0,5.63,2.52,5.63,5.63l-.18,105.57h0Z"/>
      <path class="cls-19" d="M203.55,1111.38c24.81,3.05,37.24,20.64,37.24,52.84l-69.91,1c-3.34-15.89-3.87-31.67-1.64-47.45.23-1.76,1.7-3.17,3.52-3.34l30.79-3.05h0Z"/>
      <path class="cls-4" d="M712.38,1170.73l9.85.76,41.52,17.01c1.64.7,2.82,2.17,3.05,3.93l7.86,50.79-119.11-7.33c-2.23-.12-3.99-1.99-3.99-4.22v-100.52c0-2.81,2.4-5.04,5.22-4.87l29.68,1.88c2.99.18,5.28,2.82,5.1,5.81l-2.76,41.93c-.12,1.7,1.29,3.17,2.99,3.17,7.62,0,14.49-2.76,20.59-8.33h0Z"/>
      <path class="cls-15" d="M659.48,1295.24c-34.31.94-68.62,1.53-102.93,1.82-2.76.06-4.75,1.35-5.92,3.87-.29.64-.06,1.82.7,3.52.82,3.99.53,7.92-.82,11.73l-5.69,28.62c-.29,1.7-1.7,2.99-3.4,3.17l-13.02,1.47c5.69-24.69-1.58-40.58-21.76-47.8,3.46-13.66,4.34-28.44,2.64-44.34l1.06-79.88c26.69,2.7,53.19,2.58,79.59-.29,2.29-.23,4.11-1.99,4.52-4.28l1.53-9.5c.53-3.34,5.16-3.81,6.39-.65,6.92,18.06,3.99,47.8,1.94,64.98-.12.82,0,1.64.41,2.35l15.42,31.9c1.17,2.46,1.82,5.16,1.82,7.92v15.07c0,2.05,1.58,3.75,3.64,3.87,7.39.47,14.66.88,21.76,1.17,5.69.29,9.74,2.05,12.14,5.28h0Z"/>
      <path class="cls-2" d="M309.76,1226.57l.18,20.18c.06,1.82-.41,3.58-1.23,5.16-7.98,15.42-10.91,29.62-8.86,42.58,3.34,20.82,5.57,41.93,6.57,63.22-22.7-10.44-27.04-25.51-37.18-44.16-3.4-6.22-10.67-11.44-21.88-15.6-8.15-2.4-15.43-2.4-21.76,0l-4.28-1.23c2.76-.88,3.81-2.29,3.05-4.34-.18-.47-.53-.88-1-1.11-20.53-8.39-35.83-33.61-50.03-49.79,33.25-4.75,67.5-5.98,102.69-3.69,1.7.12,3.4-.12,5.04-.7l28.68-10.5h0Z"/>
      <path class="cls-16" d="M392.05,1234.02c5.69,8.74,13.84,15.66,24.34,20.76,1.76.82,3.69,1.29,5.63,1.23,9.91-.23,19.71-2.23,29.44-5.98l49.68,1.17c2.17.06,3.87,1.82,3.87,3.99v10.91c0,1.82,2.52,2.29,3.17.59,1-2.7,1.41-5.81,1.11-9.38,1.7,15.89.82,30.67-2.64,44.34l-44.1-2.52c-15.84-4.05-32.78-4.57-50.79-1.58l1.52-2.46c1.17-1.88-.18-4.28-2.41-4.28h-45.8c-2.64,0-4.75-2.17-4.75-4.81v-24.4c0-1.58-.65-3.17-1.82-4.28-4.16-4.16-5.86-9.97-5.1-17.54.18-1.82,1.64-3.28,3.46-3.4l35.19-2.35h0Z"/>
      <path class="cls-4" d="M840.7,1241.76l27.33,1.06c1,.06,1.76.88,1.76,1.88v1.76c0,.94-.76,1.7-1.7,1.76l-29.62,1.29c-.94-5.04-.18-7.62,2.23-7.74h0Z"/>
      <path class="cls-4" d="M1036.59,1392.13c-7.39-10.15-11.03-18.3-10.91-24.46.47-22.29-2.46-43.28-8.74-63.05-2.11-5.92-4.93-8.74-8.5-8.39-17.65,1.7-34.95,1.76-51.85.18l-.76-38.18c-.06-2.81,2.23-5.16,5.04-5.16h100.05c4.16,0,7.57,3.4,7.57,7.62v127.44c0,2.17-1.7,3.87-3.87,3.93l-28.03.06h0Z"/>
      <path class="cls-1" d="M834.55,1271.78l-.35,12.67c-.06,2.29-1.88,4.16-4.16,4.28l-4.87.29c-2.35.12-3.93,2.46-3.23,4.69.65,1.94,2.35,3.64,4.99,5.22l1.17,40.41c.06,1.7-1.35,3.17-3.05,3.17l-93.31-.06c11.55-21.76,19.59-44.46,24.04-67.97.7-3.87,5.16-5.69,8.45-3.52,26.1,17.65,49.56,17.89,70.32.82h0Z"/>
      <path class="cls-7" d="M221.32,1296.71l4.28,1.23c-3.17,2.29-6.39,3.34-9.68,3.17-2.46-.12-4.52,1.88-4.52,4.34v38.41c0,2.7,2.05,4.93,4.75,5.1l26.92,1.7c.59.06,1,.47,1.06,1.06,0,.53-.41,1.06-.94,1.11-.53.12-1.17.12-1.94.06l-54.07.94c-4.28-1.76-6.45-3.64-6.57-5.63-.23-5.4-6.16-8.68-11.32-6.28-18.18,8.56-36.19,11.32-54.02,8.33-1.64-.23-3.23.76-3.58,2.4-2.76,11.49-1.88,23.4,2.76,35.78-5.34,1.11-8.09.53-8.27-1.76-2.17-26.1-3.28-53.14-3.34-81.11,0-4.52,3.64-8.15,8.15-8.21l110.32-.65h0Z"/>
      <path class="cls-3" d="M247.36,1297.94l1.64,53.08c.06,1.7-1.41,3.11-3.11,2.99-1.58-.06-3.17-.47-4.63-1.11.76.06,1.41.06,1.94-.06.53-.06.94-.59.94-1.11-.06-.59-.47-1-1.06-1.06l-26.92-1.7c-2.7-.18-4.75-2.4-4.75-5.1v-38.41c0-2.46,2.05-4.46,4.52-4.34,3.28.18,6.51-.88,9.68-3.17,6.33-2.4,13.61-2.4,21.76,0h0Z"/>
      <path class="cls-7" d="M411.75,1297.53l-2.7,56.83-36.6,1.29-3.46-1.41c-.12-1.94-1.06-3.46-2.76-4.63-.59-.41-1.23-.59-1.94-.59h-41.05c-4.28,0-7.45-3.93-6.57-8.09,2.93-13.37,1.35-23.81-4.75-31.38-1.47-2.76-1.41-5.75.06-8.86.76-1.7,2.46-2.76,4.28-2.76l95.48-.41h0Z"/>
      <path class="cls-3" d="M462.54,1299.12l-.88,60.06c-17.89-3.52-35.25-2.23-52.14,3.93l-.47-8.74,2.7-56.83c18-2.99,34.95-2.46,50.79,1.58h0Z"/>
      <path class="cls-12" d="M659.48,1295.24l36.42,2.29c1.64.12,2.93,1.53,2.87,3.17l-1.41,31.67-5.22-23.52c-.35-1.64-1.82-2.81-3.52-2.76l-102.69,1-34.6-2.64c-.76-1.7-1-2.87-.7-3.52,1.17-2.52,3.17-3.81,5.92-3.87,34.31-.29,68.62-.88,102.93-1.82h0Z"/>
      <path class="cls-7" d="M935.3,1296.24c-10.38,14.02-16.66,29.56-18.83,46.74-.23,1.88-1.35,3.52-2.99,4.46-3.58,1.94-8.21,3.17-13.96,3.64l-33.31.88c-1.7.06-3.11,1.41-3.17,3.11l-1.53,34.25-90.02.76c-2.11,0-3.99,1.29-4.81,3.23-2.99,6.98-4.05,15.01-3.23,24.1.23,2.58-1.82,4.87-4.46,4.87h-57.18c-2.23,0-4.05-1.7-4.16-3.93l-1.29-23.75c-.18-3.17-2.76-5.63-5.92-5.69l-66.27-.82-.65-33.66c-.06-2.35-2.17-4.11-4.46-3.75-7.45,1.17-13.78-.65-19.06-5.4-1.58-1.47-2.46-3.58-2.35-5.75.53-9.21,1.29-16.25,2.17-21.11.35-1.88,1.17-3.28,2.52-4.28,2.29-1.7,2.64-3.58,1.17-5.57-.53-.76-1.47-1.23-2.4-1.23l-15.19-.23,102.69-1c1.7-.06,3.17,1.11,3.52,2.76l5.22,23.52c-.06,2.52.18,4.63.76,6.39.64,1.82,2.4,3.05,4.34,3.11l29.27.59,93.31.06c1.7,0,3.11-1.47,3.05-3.17l-1.17-40.41c-.06-.88.18-1.64.59-2.23.29-.41.76-.7,1.29-.7l106.5.23h0Z"/>
      <path class="cls-3" d="M956.59,1296.42c16.89,1.58,34.19,1.52,51.85-.18,3.58-.35,6.39,2.46,8.5,8.39l-1.41,78.76c-.06,2.87-2.4,5.16-5.28,5.22l-46.86.59-18.59-30.91c-.82-1.47-2.35-2.46-4.11-2.64l-41.17-4.57c5.75-.47,10.38-1.7,13.96-3.64,1.64-.94,2.76-2.58,2.99-4.46,2.17-17.18,8.44-32.73,18.83-46.74,7.1-1.23,14.19-1.17,21.29.18h0Z"/>
      <path class="cls-1" d="M306.42,1357.7c8.62,4.52,14.07,3.4,16.42-3.34l46.16-.12,3.46,1.41.47,32.84-129.61.18-68.79,1.53-16.66-1.41,9.5-1.11c3.64-.41,4.4-5.4,1-6.86l-6.04-2.58c-1.94-.82-3.11-2.76-2.87-4.81,1.64-15.13,10.91-21.64,27.74-19.59l54.07-.94c1.47.65,3.05,1.06,4.63,1.11,1.7.12,3.17-1.29,3.11-2.99l-1.64-53.08c11.2,4.16,18.47,9.38,21.88,15.6,10.15,18.65,14.49,33.72,37.18,44.16h0Z"/>
      <path class="cls-1" d="M1036.59,1392.13l-4.99,20.23c-1.23,4.87-5.45,8.45-10.5,8.74l-40.47,2.4-.23-22.52c-.06-1.82-1.11-3.46-2.82-4.16l-18.12-7.51c1.17.35,2.46.29,3.93-.12l46.86-.59c2.87-.06,5.22-2.35,5.28-5.22l1.41-78.76c6.28,19.76,9.21,40.76,8.74,63.05-.12,6.16,3.52,14.31,10.91,24.46h0Z"/>
      <path class="cls-19" d="M585.94,1307.09l15.19.23c.94,0,1.88.47,2.4,1.23,1.47,1.99,1.11,3.87-1.17,5.57-1.35,1-2.17,2.4-2.52,4.28-.88,4.87-1.64,11.91-2.17,21.11-.12,2.17.76,4.28,2.35,5.75,5.28,4.75,11.61,6.57,19.06,5.4,2.29-.35,4.4,1.41,4.46,3.75l.65,33.66-1.64-29.21c-.18-3.28-2.99-5.86-6.33-5.75-12.37.41-18.77-1.47-19.3-5.75-.12-1-1-1.76-1.99-1.76h-33.9c-2.64,0-4.75-2.17-4.69-4.81.18-8.03-1.76-16.25-5.81-24.63,1.35-3.81,1.64-7.74.82-11.73l34.6,2.64h0Z"/>
      <path class="cls-12" d="M369,1354.24l-46.16.12c-3.81.12-7.04-.35-9.56-1.41-1.7-.7-2.76-2.4-2.7-4.22l1.35-39.18c6.1,7.57,7.68,18.01,4.75,31.38-.88,4.16,2.29,8.09,6.57,8.09h41.05c.7,0,1.35.18,1.94.59,1.7,1.17,2.64,2.7,2.76,4.63h0Z"/>
      <path class="cls-16" d="M550.51,1316.18c4.05,8.39,5.98,16.6,5.81,24.63-.06,2.64,2.05,4.81,4.69,4.81h33.9c1,0,1.88.76,1.99,1.76.53,4.28,6.92,6.16,19.3,5.75,3.34-.12,6.16,2.46,6.33,5.75l1.64,29.21,66.27.82c3.17.06,5.75,2.52,5.92,5.69l1.29,23.75c.12,2.23,1.93,3.93,4.16,3.93h57.18c2.64,0,4.69-2.29,4.46-4.87-.82-9.09.23-17.12,3.23-24.1.82-1.94,2.7-3.23,4.81-3.23l90.02-.76h97.94l18.12,7.51c1.7.7,2.76,2.35,2.82,4.16l.23,22.52c-2.58,12.9-2.99,26.1-1.17,39.65-129.44-3.4-258.4-3.52-386.9-.35-10.2,2.99-20.41,3.34-30.61,1-3.23-.7-5.51-3.58-5.51-6.86v-63.05c0-1.17-.94-2.11-2.11-2.11h-40.29c-4.57,0-8.33-3.75-8.33-8.39v-27.8c0-3.17,2.52-5.75,5.69-5.81l17.01-.35,13.02-1.47c1.7-.18,3.11-1.47,3.4-3.17l5.69-28.62h0Z"/>
      <path class="cls-3" d="M187.19,1353.83c-16.83-2.05-26.1,4.46-27.74,19.59-.23,2.05.94,3.99,2.87,4.81l6.04,2.58c3.4,1.47,2.64,6.45-1,6.86l-9.5,1.11-43.4-.35c-4.63-12.37-5.51-24.28-2.76-35.78.35-1.64,1.94-2.64,3.58-2.4,17.83,2.99,35.83.23,54.02-8.33,5.16-2.4,11.08.88,11.32,6.28.12,1.99,2.29,3.87,6.57,5.63h0Z"/>
      <path class="cls-4" d="M899.53,1351.08l41.17,4.57c1.76.18,3.29,1.17,4.11,2.64l18.59,30.91c-1.47.41-2.76.47-3.93.12h-97.94l1.53-34.25c.06-1.7,1.47-3.05,3.17-3.11l33.31-.88h0Z"/>
      <path class="cls-4" d="M461.66,1359.17l.65,43.34c.06,1.99-1.53,3.64-3.52,3.69l-35.48,1,28.56-9.09c1.94-.65,3.29-2.46,3.29-4.52v-1.82c0-1.64-1.29-2.93-2.93-2.93l-43.69.18c2.11-6.86,2.46-15.54,1-25.92,16.89-6.16,34.25-7.45,52.14-3.93h0Z"/>
      <path class="cls-19" d="M409.05,1354.36l.47,8.74c1.47,10.38,1.11,19.06-1,25.92l-34.31.82-1.29-1.35-.47-32.84,36.6-1.29h0Z"/>
      <path class="cls-2" d="M243.31,1388.67c-5.16.59-10.09,1-14.78,1.23-.82.06-1.41.7-1.41,1.47,0,.82.59,1.47,1.41,1.53l55.31,3.58c1.41.06,2.29,1.58,1.64,2.87-11.91,23.05-30.15,26.45-55.89,26.22-40.99-.35-80.23-1.52-117.77-3.52-5.22-.23-9.32-4.57-9.32-9.85v-5.22c0-4.87,3.64-8.91,8.39-9.44l63.63-7.33,68.79-1.53h0Z"/>
      <path class="cls-1" d="M423.31,1407.2c-5.51,1.23-8.15,4.11-7.92,8.62.18,3.58-2.52,6.69-6.1,7.1l-30.96,3.17c-3.46.35-6.45-2.52-6.22-6.04l2.11-30.2,34.31-.82,43.69-.18c1.64,0,2.93,1.29,2.93,2.93v1.82c0,2.05-1.35,3.87-3.29,4.52l-28.56,9.09h0Z"/>
      <path class="cls-7" d="M979.47,1463.15c-129.44,2.99-258.4,2.87-386.9-.35,128.5-3.17,257.46-3.05,386.9.35h0Z"/>
      <path class="cls-9" d="M1021.22,1463.8c.18-.88.65-1.52,1.35-1.93.7-.41,1.52.23,1.29,1-.35,1.29-.65,1.99-.82,2.11-.88.65-2.05-.12-1.82-1.17h0Z"/>
    </g>
  </g>
</svg>