<?xml version="1.0" encoding="UTF-8"?>
<svg id="Layer_2" data-name="Layer 2" xmlns="http://www.w3.org/2000/svg" viewBox="0 0 1291.67 2000">
  <defs>
    <style>
      .cls-1 {
        fill: #c9d7da;
      }

      .cls-1, .cls-2, .cls-3, .cls-4, .cls-5, .cls-6, .cls-7, .cls-8, .cls-9 {
        fill-rule: evenodd;
      }

      .cls-2 {
        fill: #c96558;
      }

      .cls-3 {
        fill: #92a1b0;
      }

      .cls-4 {
        fill: #2e2b25;
      }

      .cls-6 {
        fill: #403f3b;
      }

      .cls-7 {
        fill: #2f1929;
      }

      .cls-8 {
        fill: #4e4b3f;
      }

      .cls-9 {
        fill: #8e8d78;
      }
    </style>
  </defs>
  <g id="switch">
    <g>
      <g>
        <polygon class="cls-5" points="83.33 41.67 83.33 0 375 0 666.67 0 958.33 0 1208.33 0 1208.33 41.67 916.67 41.67 625 41.67 333.33 41.67 83.33 41.67 83.33 41.67"/>
        <polygon class="cls-5" points="41.67 83.33 41.67 41.67 83.33 41.67 83.33 83.33 41.67 83.33 41.67 83.33"/>
        <polygon class="cls-5" points="1208.33 41.67 1250 41.67 1250 83.33 1208.33 83.33 1208.33 41.67 1208.33 41.67"/>
        <polygon class="cls-5" points="0 83.33 41.67 83.33 41.67 166.67 41.67 291.67 41.67 458.33 41.67 500 41.67 666.67 41.67 791.67 41.67 916.67 41.67 1041.67 41.67 1125 41.67 1250 41.67 1333.33 41.67 1458.33 41.67 1541.67 41.67 1666.67 41.67 1916.67 0 1916.67 0 1458.33 0 1000 0 750 0 625 0 541.67 0 416.67 0 291.67 0 166.67 0 83.33 0 83.33"/>
        <path class="cls-5" d="M583.33,125v-41.67h125v125h-125v-83.33h0ZM666.67,166.67v-41.67h-41.67v41.67h41.67Z"/>
        <polygon class="cls-5" points="1250 83.33 1291.67 83.33 1291.67 250 1291.67 375 1291.67 541.67 1291.67 666.67 1291.67 833.33 1291.67 958.33 1291.67 1125 1291.67 1250 1291.67 1375 1291.67 1458.33 1291.67 1708.33 1291.67 1833.33 1291.67 1916.67 1250 1916.67 1250 1833.33 1250 1708.33 1250 1458.33 1250 1375 1250 1250 1250 1000 1250 791.67 1250 541.67 1250 458.33 1250 333.33 1250 208.33 1250 83.33 1250 83.33"/>
        <polygon class="cls-5" points="541.67 458.33 541.67 416.67 583.33 416.67 625 416.67 708.33 416.67 750 416.67 750 458.33 625 458.33 541.67 458.33 541.67 458.33"/>
        <polygon class="cls-5" points="500 500 500 458.33 541.67 458.33 541.67 500 500 500 500 500"/>
        <polygon class="cls-5" points="750 458.33 791.67 458.33 791.67 500 791.67 541.67 791.67 583.33 791.67 708.33 791.67 833.33 791.67 916.67 791.67 1041.67 791.67 1125 791.67 1250 750 1250 750 875 750 666.67 750 583.33 750 458.33 750 458.33"/>
        <polygon class="cls-5" points="500 500 500 541.67 500 583.33 500 625 458.33 625 458.33 500 500 500 500 500"/>
        <polygon class="cls-5" points="458.33 625 458.33 750 458.33 791.67 416.67 791.67 416.67 625 458.33 625 458.33 625"/>
        <polygon class="cls-5" points="375 833.33 375 791.67 416.67 791.67 416.67 833.33 375 833.33 375 833.33"/>
        <polygon class="cls-5" points="375 833.33 375 1083.33 500 1083.33 541.67 1083.33 583.33 1083.33 625 1083.33 666.67 1083.33 666.67 1125 541.67 1125 500 1125 500 1166.67 500 1208.33 458.33 1208.33 458.33 1166.67 458.33 1125 416.67 1125 375 1125 333.33 1125 333.33 1083.33 333.33 958.33 333.33 916.67 333.33 875 333.33 833.33 375 833.33 375 833.33"/>
        <polygon class="cls-5" points="500 1208.33 541.67 1208.33 541.67 1250 500 1250 500 1208.33 500 1208.33"/>
        <polygon class="cls-5" points="541.67 1250 666.67 1250 750 1250 750 1291.67 708.33 1291.67 666.67 1291.67 625 1291.67 541.67 1291.67 541.67 1250 541.67 1250"/>
        <path class="cls-5" d="M166.67,1416.67v-41.67h916.67v333.33H166.67v-291.67h0ZM208.33,1500v166.67h833.33v-250H208.33v83.33h0Z"/>
        <path class="cls-5" d="M583.33,1833.33v-41.67h125v125h-125v-83.33h0ZM666.67,1875v-41.67h-41.67v41.67h41.67Z"/>
        <polygon class="cls-5" points="41.67 1916.67 83.33 1916.67 83.33 1958.33 41.67 1958.33 41.67 1916.67 41.67 1916.67"/>
        <polygon class="cls-5" points="1208.33 1958.33 1208.33 1916.67 1250 1916.67 1250 1958.33 1208.33 1958.33 1208.33 1958.33"/>
        <polygon class="cls-5" points="83.33 2000 83.33 1958.33 333.33 1958.33 458.33 1958.33 625 1958.33 916.67 1958.33 1208.33 1958.33 1208.33 2000 916.67 2000 625 2000 333.33 2000 83.33 2000 83.33 2000"/>
      </g>
      <g>
        <path class="cls-2" d="M541.67,1458.33v166.67h-125v-166.67h125ZM458.33,1583.33h41.67v-83.33h-41.67v83.33h0Z"/>
        <polygon class="cls-2" points="583.33 1458.33 708.33 1458.33 708.33 1500 666.67 1500 625 1500 625 1541.67 666.67 1541.67 666.67 1583.33 625 1583.33 625 1625 583.33 1625 583.33 1458.33 583.33 1458.33"/>
        <polygon class="cls-2" points="750 1458.33 791.67 1458.33 833.33 1458.33 875 1458.33 875 1500 833.33 1500 791.67 1500 791.67 1541.67 833.33 1541.67 833.33 1583.33 791.67 1583.33 791.67 1625 750 1625 750 1458.33 750 1458.33"/>
      </g>
      <g>
        <path class="cls-7" d="M208.33,1458.33v-41.67h833.33v250H208.33v-208.33h0ZM416.67,1541.67v83.33h125v-166.67h-125v83.33h0ZM708.33,1458.33h-125v166.67h41.67v-41.67h41.67v-41.67h-41.67v-41.67h83.33v-41.67h0ZM875,1458.33h-125v166.67h41.67v-41.67h41.67v-41.67h-41.67v-41.67h83.33v-41.67h0Z"/>
        <polygon class="cls-7" points="458.33 1541.67 458.33 1500 500 1500 500 1541.67 500 1583.33 458.33 1583.33 458.33 1541.67 458.33 1541.67"/>
      </g>
      <g>
        <polygon class="cls-6" points="625 166.67 625 125 666.67 125 666.67 166.67 625 166.67 625 166.67"/>
        <polygon class="cls-6" points="625 1833.33 666.67 1833.33 666.67 1875 625 1875 625 1833.33 625 1833.33"/>
      </g>
      <g>
        <polygon class="cls-9" points="541.67 458.33 625 458.33 666.67 458.33 708.33 458.33 708.33 500 625 500 583.33 500 541.67 500 541.67 458.33 541.67 458.33"/>
        <polygon class="cls-9" points="541.67 875 500 875 458.33 875 416.67 875 375 875 375 833.33 416.67 833.33 416.67 791.67 458.33 791.67 500 791.67 541.67 791.67 583.33 791.67 583.33 833.33 541.67 833.33 541.67 875 541.67 875"/>
      </g>
      <g>
        <polygon class="cls-8" points="500 500 666.67 500 666.67 541.67 666.67 583.33 666.67 625 625 625 625 666.67 625 708.33 625 750 625 791.67 583.33 791.67 541.67 791.67 500 791.67 458.33 791.67 458.33 750 458.33 708.33 458.33 666.67 458.33 625 500 625 500 583.33 500 541.67 500 500 500 500"/>
        <polygon class="cls-8" points="375 875 416.67 875 458.33 875 500 875 541.67 875 541.67 916.67 541.67 958.33 541.67 1000 541.67 1041.67 541.67 1083.33 500 1083.33 458.33 1083.33 375 1083.33 375 1000 375 875 375 875"/>
        <polygon class="cls-8" points="708.33 1208.33 708.33 1250 666.67 1250 625 1250 583.33 1250 541.67 1250 541.67 1208.33 500 1208.33 500 1166.67 500 1125 541.67 1125 583.33 1125 625 1125 666.67 1125 666.67 1166.67 666.67 1208.33 708.33 1208.33 708.33 1208.33"/>
      </g>
      <polygon class="cls-4" points="708.33 458.33 750 458.33 750 500 750 541.67 750 583.33 750 625 750 666.67 750 708.33 750 750 750 791.67 750 833.33 750 875 750 916.67 750 1041.67 750 1208.33 750 1250 708.33 1250 708.33 1208.33 666.67 1208.33 666.67 1166.67 666.67 1125 666.67 1083.33 625 1083.33 583.33 1083.33 541.67 1083.33 541.67 833.33 583.33 833.33 583.33 791.67 625 791.67 625 750 625 708.33 625 666.67 625 625 666.67 625 666.67 583.33 666.67 541.67 666.67 500 708.33 500 708.33 458.33 708.33 458.33"/>
      <path class="cls-1" d="M83.33,41.67h1083.33v41.67h41.67v1833.33h-41.67v41.67H83.33v-41.67h-41.67V83.33h41.67v-41.67h0ZM708.33,83.33h-125v125h125v-125h0ZM500,458.33v41.67h-41.67v125h-41.67v166.67h-41.67v41.67h-41.67v291.67h125v83.33h41.67v41.67h41.67v41.67h208.33v-41.67h83.33v-125h41.67v41.67h166.67v-208.33h-41.67v-83.33h-41.67v-125h-41.67v-83.33h-41.67v-125h-41.67v-83.33h-41.67v-41.67h-250v41.67h-41.67ZM166.67,1458.33v250h916.67v-333.33H166.67v83.33h0ZM583.33,1875v41.67h125v-125h-125v83.33h0Z"/>
      <g>
        <polygon class="cls-3" points="1166.67 41.67 1208.33 41.67 1208.33 83.33 1166.67 83.33 1166.67 41.67 1166.67 41.67"/>
        <polygon class="cls-3" points="1208.33 83.33 1250 83.33 1250 250 1250 375 1250 541.67 1250 666.67 1250 958.33 1250 1125 1250 1250 1250 1375 1250 1458.33 1250 1708.33 1250 1833.33 1250 1916.67 1208.33 1916.67 1208.33 1500 1208.33 1416.67 1208.33 1291.67 1208.33 1041.67 1208.33 833.33 1208.33 583.33 1208.33 500 1208.33 375 1208.33 250 1208.33 83.33 1208.33 83.33"/>
        <polygon class="cls-3" points="750 458.33 750 416.67 791.67 416.67 791.67 458.33 750 458.33 750 458.33"/>
        <polygon class="cls-3" points="791.67 458.33 833.33 458.33 833.33 500 833.33 541.67 875 541.67 875 583.33 875 625 875 666.67 916.67 666.67 916.67 708.33 916.67 750 958.33 750 958.33 791.67 958.33 833.33 958.33 875 1000 875 1000 916.67 1000 958.33 1041.67 958.33 1041.67 1000 1041.67 1041.67 1041.67 1083.33 1041.67 1166.67 1000 1166.67 958.33 1166.67 916.67 1166.67 875 1166.67 875 1125 833.33 1125 833.33 1166.67 833.33 1208.33 833.33 1250 791.67 1250 791.67 1208.33 791.67 1041.67 791.67 916.67 791.67 791.67 791.67 458.33 791.67 458.33"/>
        <polygon class="cls-3" points="1166.67 1958.33 1166.67 1916.67 1208.33 1916.67 1208.33 1958.33 1166.67 1958.33 1166.67 1958.33"/>
      </g>
    </g>
  </g>
</svg>