<?xml version="1.0" encoding="UTF-8"?>
<svg id="Layer_2" data-name="Layer 2" xmlns="http://www.w3.org/2000/svg" viewBox="0 0 1423.3 854.64">
  <defs>
    <style>
      .cls-1 {
        fill: #9c4510;
      }

      .cls-2 {
        fill: #652000;
      }

      .cls-3 {
        fill: #b2530c;
      }

      .cls-4 {
        fill: #feeb74;
      }

      .cls-5 {
        fill: #fed858;
      }

      .cls-6 {
        fill: #44190e;
      }

      .cls-7 {
        fill: #fab421;
      }

      .cls-8 {
        fill: #fca400;
      }

      .cls-9 {
        fill: #201711;
      }

      .cls-10 {
        fill: #873411;
      }

      .cls-11 {
        fill: #fdc737;
      }

      .cls-12 {
        fill: #ed8d01;
      }

      .cls-13 {
        fill: #c86608;
      }

      .cls-14 {
        fill: #281114;
      }

      .cls-15 {
        fill: #d96e00;
      }
    </style>
  </defs>
  <g id="_Слой_1" data-name="Слой 1">
    <g>
      <path class="cls-2" d="M556.48,45.15l67.56-.18-3.05,47.92-122.11-.41-207.56,1.35-58.24,1.23-.41-45.51c0-1.64-1.35-3.05-2.99-3.11l-29.97-1.06c.53-.65,1-1.23,1.29-1.82.76-1.41-.23-3.11-1.82-3.11-17.42-.06-34.72-.29-52.02-.7-3.81-.06-5.57,1.7-5.4,5.28-4.69.53-6.98,3.52-6.92,9.09.18,14.6.53,29.38.94,44.4l-2.93,141.34c-.06,3.23-2.4,5.92-5.57,6.51l-26.92,4.81c-2.17.41-3.75,2.29-3.75,4.52v41.76c0,3.46-2.46,6.45-5.86,7.04l-28.44,5.1c-2.29.41-3.99,2.4-3.93,4.75l.53,151.9-8.8,5.92c-12.14-6.51-28.09-8.03-47.86-4.57v-179.7l41.23,1.76c1.7.12,3.17-1.23,3.28-2.93l1.23-19.76c2.99-4.57,5.04-9.74,6.28-15.42.41-1.93,2.11-3.28,4.05-3.28h33.66c3.11,0,5.63-2.4,5.75-5.45l1.29-28.15-1.64-60.76-.53-31.32-.53-69.79,27.45-14.66c3.99-2.17,6.51-6.33,6.51-10.91V2.87c0-1.88,1.82-3.28,3.64-2.76,19.35,5.4,36.66,7.15,51.84,5.28.88-.12,1.7-.06,2.58.12l40.12,9.27c2.99.65,5.04,3.46,4.75,6.57-1.35,13.37,4.52,21,17.71,22.93,5.34.76,15.19,1.11,29.68,1.06,91.55-.18,183.51-.23,275.88-.18h0Z"/>
      <path class="cls-6" d="M750.9,11.84c-.88,17.89,2.82,29.09,11.03,33.61-6.28,4.46-9.62,5.1-10.15,1.99-8.39-3.58-20.94-4.99-37.59-4.28l-43.46-2.4,36.95-8.33c2.81-.65,5.1-2.76,5.98-5.57l4.22-14.08c.59-1.94,2.46-3.23,4.46-3.05l28.56,2.11h0Z"/>
      <path class="cls-14" d="M199.73,45.39h-11.32l-46.63-.35c-.18-3.58,1.58-5.34,5.4-5.28,17.3.41,34.6.65,52.02.7,1.58,0,2.58,1.7,1.82,3.11-.29.59-.76,1.17-1.29,1.82h0Z"/>
      <path class="cls-7" d="M670.73,40.75l43.46,2.4-9.03,49.56c-.47,2.52-2.58,4.46-5.1,4.57l-27.04,1.64c-.53-.76-1.82-.88-3.87-.41.29-1.94-.53-3.81-2.4-5.57.53-.35,1.06-.76,1.53-1.29.53-.59.82-1.29.82-2.05l-.7-45.86c.23-.76,1-1.76,2.35-2.99h0Z"/>
      <path class="cls-12" d="M751.78,47.44l.65,244.27c-2.58.88-4.58.76-5.98-.35-1.52-1.23-2.05-3.17-1.58-5.86,1.35-7.86,1.99-14.37,1.94-19.59-.06-4.22-4.57-6.86-8.33-4.93-3.05,1.58-6.1,2.46-9.15,2.58-21,.59-41.99.7-62.93.35l-26.98,35.13c-1.06,1.35-1.29,3.23-.59,4.81,2.52,5.86,6.92,7.86,13.14,5.92,1.06-.29,2.17-.18,3.05.35.65.41.53.59-.47.64-9.33.35-18.65.59-27.86.7-1.94.06-3.52-1.52-3.58-3.52l-1.41-79.7c11.96,3.52,27.21-1.11,45.8-13.9,3.99-2.7,8.68-4.16,13.49-4.16h23.64c1.47,0,2.7-1.23,2.7-2.76v-100.11c0-2.35-1.94-4.16-4.28-4.05-9.44.53-19.47-.94-30.03-4.34l27.04-1.64c2.52-.12,4.63-2.05,5.1-4.57l9.03-49.56c16.66-.7,29.21.7,37.59,4.28h0Z"/>
      <path class="cls-10" d="M625.63,44.39l42.75-.65.7,45.86c0,.76-.29,1.47-.82,2.05-.47.53-1,.94-1.53,1.29l-37.36-.35-8.39.29,3.05-47.92c.53-.18,1.06-.41,1.58-.59h0Z"/>
      <path class="cls-7" d="M141.78,45.04l46.63.35c-3.11,4.46-3.11,9.03-.12,13.72.65.94,1,2.05,1.17,3.17,1.82,13.02.23,24.93-4.75,35.66l-48.91.59c-.41-15.01-.76-29.79-.94-44.4-.06-5.57,2.23-8.56,6.92-9.09h0Z"/>
      <path class="cls-4" d="M199.73,45.39l29.97,1.06c1.64.06,2.99,1.47,2.99,3.11l.41,45.51c-2.46,2.4-5.4,4.22-8.74,5.45l-39.65-2.58c4.99-10.73,6.57-22.64,4.75-35.66-.18-1.11-.53-2.23-1.17-3.17-2.99-4.69-2.99-9.27.12-13.72h11.32Z"/>
      <path class="cls-2" d="M1047.02,152.77l50.85.47c-3.4,13.31-2.52,26.27,2.64,39,.7,1.76,2.17,3.11,3.93,3.69,12.43,3.93,31.49,2.81,39.18,14.31l-100.82,1.35-68.56-1.47c-1.7-.06-3.05-1.29-3.23-2.99-.53-5.45-3.34-8.27-8.44-8.39-51.08-1.29-102.17-1.41-153.13-.29-2.29.06-3.4,2.82-1.82,4.46.53.53,1.11,1.99,1.82,4.52l.76,50.09.41,52.84c.06,2.81,2.46,5.1,5.28,4.93l17.48-.94c2.93-.18,5.45,2.11,5.57,5.04l2.4,44.98,14.43,18.71c1.17,1.52,1.7,3.52,1.53,5.45l-2.4,21.46c-.23,2.05.65,4.05,2.29,5.28,14.54,10.73,21.93,24.16,22.17,40.35.29,19,.82,61.58,1.47,127.74.06,1.99,1.7,3.64,3.69,3.64h73.43c2.05,0,3.75,1.58,3.87,3.64l1.76,31.96c.12,2.11-1.53,3.93-3.64,3.99l-3.46.12-8.91-.88c1.58-2.52,1.29-4.34-.82-5.34-.06-.06-.18-.06-.29-.06l-184.57.41c-.47,0-.88.18-1.23.53-1.11,1.23-1.41,2.46-.88,3.75-.59,1.17-2.05,2.05-4.34,2.58-.76-.06-1.35-.41-1.88-.94-.41-.41-.7-1.06-.76-1.88-1.23-16.83-.88-32.73,1-47.8.23-1.99,2.93-2.4,3.81-.59.94,1.94,1.41,4.05,1.41,6.33.06,2.4,1.99,4.34,4.4,4.34h71.73c2.29,0,4.11-1.82,4.11-4.11v-61.64c0-3.46-2.82-6.28-6.28-6.28h-74.42c-1.94,0-3.69-1.11-4.52-2.81-1.23-2.52-1.82-5.86-1.88-9.91l-.41-21.23c-.24-4.63.35-8.56,1.7-11.79.88-2.05,2.93-3.28,5.16-3.17l18.47,1.17c1.88.12,3.58-1.17,3.87-3.05,2.52-15.07,2.87-28.03,1-39-.35-1.94,1.06-3.75,2.99-3.87l9.97-.82,14.43-2.17c1.7-.29,2.99-1.82,2.87-3.58l-3.64-57.18c-.06-.76-.24-1.52-.53-2.23-6.86-16.19-3.46-25.28-6.86-41.52-12.02-3.69-25.51-3.99-40.58-.94-5.16.29-7.86-6.8-8.15-21.35l-.65-244.27c.53,3.11,3.87,2.46,10.15-1.99,10.97-1,21.29-.29,30.85,2.23,1.94.47,3.11,2.4,2.7,4.34-.29,1.47-1.17,3.05-2.52,4.63-1,1.23-1.53,2.82-1.47,4.46l3.52,82.64c.18,4.98,4.28,8.91,9.32,8.97l242.69.06h0Z"/>
      <path class="cls-15" d="M498.89,92.48c-17.01,30.5-29.32,54.84-68.68,48.68-28.21-4.4-55.89-4.57-83.1-.53-1.88.29-3.69.82-5.4,1.58-15.37,6.57-31.67,8.86-48.85,6.92l-1.52-55.3,207.56-1.35h0Z"/>
      <path class="cls-12" d="M621,92.89l8.39-.29c-5.75-.82-9.38.35-10.91,3.46-.18.41-.29.82-.29,1.29l.29,27.39c-1.52-5.69,1.29-14.6-.35-18.24-.59-1.35-1.58-1.94-3.05-1.76-1.76-1.23-3.52-1.99-5.28-2.29-31.44-5.86-45.22-1.99-41.41,11.61-22.11-.65-44.34-4.16-66.57-10.62-1.76-.47-3.58.23-4.52,1.82-15.48,26.45-25.98,44.51-61.7,41.52-29.21-2.4-71.9-9.09-96.24,7.8-21.41,14.9-43.05,39.18-69.73,54.72,12.73-7.98,18.77-18.77,18.06-32.31.53-.41.88-1,.94-1.7.12-.82-.35-1.58-1.11-1.76l-2.35-.53,7.68-23.87c17.18,1.94,33.49-.35,48.85-6.92,1.7-.76,3.52-1.29,5.4-1.58,27.21-4.05,54.89-3.87,83.1.53,39.35,6.16,51.67-18.18,68.68-48.68l122.11.41h0Z"/>
      <path class="cls-4" d="M666.74,92.95c1.88,1.76,2.7,3.64,2.4,5.57l.29,45.1c0,4.16-3.34,7.51-7.51,7.51h-36.24c-4.05,0-7.39-3.34-7.33-7.39l.12-19-.29-27.39c0-.47.12-.88.29-1.29,1.53-3.11,5.16-4.28,10.91-3.46l37.36.35h0Z"/>
      <path class="cls-5" d="M291.33,93.83l1.52,55.3-7.68,23.87-56.6,1.88c-2.93-2.4-4.4-5.98-4.46-10.79-.18-20.7-.12-41.93.23-63.57,3.34-1.23,6.28-3.05,8.74-5.45l58.24-1.23h0Z"/>
      <path class="cls-3" d="M184.71,97.94l39.65,2.58c-.35,21.64-.41,42.87-.23,63.57.06,4.81,1.52,8.39,4.46,10.79,17.95,5.16,37.65,5.86,59.12,2.11.7,13.55-5.34,24.34-18.06,32.31l-41.52,5.98c-32.67,13.02-61.76,39.12-67.45,75.48-3.58,22.93-5.22,45.98-4.81,69.03l-49.97,1.94c-1.94.12-3.58,1.41-4.11,3.23-5.57,18.71-3.64,35.89,5.81,51.61,1.41,2.35,3.99,3.81,6.74,3.81h65.92c3.28,0,5.98,2.64,5.98,5.92v29.09c0,4.11,3.4,7.39,7.51,7.27l41.64-1.47c.47,0,.88.23,1.06.65l.76,1.58c.53,1.06-.23,2.23-1.41,2.29l-31.67,1.17-68.15-1.11c-12.84,3.23-25.39,3.87-37.77,1.88l-39.29-1.41-.53-151.9c-.06-2.35,1.64-4.34,3.93-4.75l28.44-5.1c3.4-.59,5.86-3.58,5.86-7.04v-41.76c0-2.23,1.58-4.11,3.75-4.52l26.92-4.81c3.17-.59,5.51-3.28,5.57-6.51l2.93-141.34,48.91-.59h0Z"/>
      <path class="cls-13" d="M673.02,98.93c10.56,3.4,20.59,4.87,30.03,4.34,2.35-.12,4.28,1.7,4.28,4.05v100.11c0,1.52-1.23,2.76-2.7,2.76h-23.64c-4.81,0-9.5,1.47-13.49,4.16-18.59,12.79-33.84,17.42-45.8,13.9l-.76-28.5c-.06-2.93-2.46-5.28-5.4-5.28h-38.53c-3.4,0-6.22-2.76-6.33-6.16l-1.64-47.21c2.05,4.87,6.63,7.57,13.78,8.15,10.62.88,21.05,1.7,31.32,2.35,1.52.12,2.76-1.11,2.7-2.64l-1.76-44.22c1.47-.18,2.46.41,3.05,1.76,1.64,3.64-1.17,12.55.35,18.24l-.12,19c-.06,4.05,3.28,7.39,7.33,7.39h36.24c4.16,0,7.51-3.34,7.51-7.51l-.29-45.1c2.05-.47,3.34-.35,3.87.41h0Z"/>
      <path class="cls-3" d="M615.07,104.74l1.76,44.22c.06,1.52-1.17,2.76-2.7,2.64-10.26-.65-20.7-1.47-31.32-2.35-7.16-.59-11.73-3.28-13.78-8.15l-.65-27.04c-3.81-13.61,9.97-17.48,41.41-11.61,1.76.29,3.52,1.06,5.28,2.29h0Z"/>
      <path class="cls-8" d="M568.39,114.07l.65,27.04,1.64,47.21c.12,3.4,2.93,6.16,6.33,6.16h38.53c2.93,0,5.34,2.35,5.4,5.28l.76,28.5,1.41,79.7c.06,1.99,1.64,3.58,3.58,3.52,9.21-.12,18.53-.35,27.86-.7,1-.06,1.11-.23.47-.64-.88-.53-1.99-.65-3.05-.35-6.22,1.94-10.62-.06-13.14-5.92-.7-1.58-.47-3.46.59-4.81l26.98-35.13-12.43,26.92c-.88,1.94-2.7,3.28-4.81,3.52-4.4.59-7.15,2.17-8.33,4.81-.88,1.94.23,4.28,2.35,4.75,38.71,8.74,77.83,11.79,117.41,9.15,15.07-3.05,28.56-2.76,40.58.94l-2.35,47.56c-.88,14.37-1.29,28.86-1.35,43.46-.06,5.69-2.05,9.44-6.1,11.2-4.87,2.11-9.97,2.99-15.19,2.64-29.56-2.05-60.23-2.76-92.02-1.99-2.29.06-5.63-1.7-9.91-5.28l-.53-44.34c.06-4.4-1-6.51-3.11-6.45-35.6,1.41-71.2,1.76-106.68,1.11,5.86-17.42,15.31-32.02,28.39-43.81.47-.47.59-1.17.18-1.76-.35-.53-1.11-.7-1.7-.41-20.35,10.26-34.37,25.57-41.93,45.92l-4.22.12c-3.58-5.51-7.92-10.26-12.96-14.19-1.52-1.23-2.52-2.93-2.82-4.81-.53-3.69-1.58-6.57-3.28-8.74-2.4-3.05-6.86-3.46-9.79-.94-7.21,6.39-13.2,14.9-17.95,25.57-.76,1.58,0,3.52,1.64,4.16,3.46,1.47,5.4,3.93,5.81,7.51.23,1.82-1.58,3.17-3.28,2.46-37.24-15.54-80.7-11.85-117.59-11.2-8.27.18-17.65-5.86-24.98-.47-.18.12-.12.35.06.47.47.23.94.41,1.47.53.18.06.29.18.29.35l.41,55.01c-1.23-.47-2.05-.59-2.52-.35-5.1-17.3-6.04-34.31-2.82-50.96.29-1.52-.82-2.93-2.35-3.05l-22.11-1.58-142.28.94c-1.99,1.35-4.93.53-8.74-2.35,2.64-33.9,1.7-63.11,11.91-99.29.53-1.82,1.41-3.52,2.58-4.99l32.78-40.76,41.52-5.98c26.68-15.54,48.33-39.82,69.73-54.72,24.34-16.89,67.03-10.2,96.24-7.8,35.72,2.99,46.21-15.07,61.7-41.52.94-1.58,2.76-2.29,4.52-1.82,22.23,6.45,44.46,9.97,66.57,10.62M522.53,164.57c-.12-7.04-5.93-12.67-12.96-12.61l-7.15.1c-7.04.12-12.73,5.93-12.61,12.96l.22,15.95c.12,7.05,5.93,12.68,12.96,12.61l7.15-.1c7.04-.12,12.73-5.93,12.61-12.96l-.22-15.95M358.71,362.97c-1.11,0-1.99,10.79-1.93,24.06.06,13.3,1.06,24.04,2.18,24.04,1.11,0,1.99-10.79,1.93-24.06-.06-13.3-1.06-24.04-2.18-24.03h0Z"/>
      <path class="cls-7" d="M522.75,180.52c.12,7.03-5.56,12.84-12.61,12.96l-7.15.1c-7.03.07-12.84-5.56-12.96-12.61l-.22-15.95c-.12-7.03,5.56-12.84,12.61-12.96l7.15-.1c7.03-.07,12.84,5.56,12.96,12.61l.22,15.95h0Z"/>
      <path class="cls-1" d="M285.18,173.01l2.35.53c.76.18,1.23.94,1.11,1.76-.06.7-.41,1.29-.94,1.7-21.47,3.75-41.17,3.05-59.12-2.11l56.6-1.88h0Z"/>
      <path class="cls-13" d="M1042.79,211.6c26.45.53,52.96.88,79.41,1.06,6.28.06,11.91,1.11,16.89,3.28,1.94.88,3.34,2.7,3.75,4.81l3.69,20.76c1.41,7.57,7.62,13.25,15.31,13.96l50.03,4.57c17.83,9.56,25.22,27.1,36.3,43.17,1.06,1.52,2.64,2.52,4.46,2.76l26.27,3.52,17.65,2.05c1.82.23,3.4,1.35,4.22,3.05,8.39,18.24,12.73,37.53,12.9,58-.59-.94-.94-1.94-1.11-2.99-16.48-5.34-33.2-10.2-50.03-14.72-11.91-3.17-23.05-9.15-29.03-21.29-11.03-22.34-25.92-29.5-40.47-45.39-11.26-12.26-19.06-19.47-23.4-21.64-24.05-12.08-51.43-15.07-79.41-10.79-9.27,1.41-18.59,2.64-27.97,3.75l-96.42-.88c-1.88,0-3.4-1.58-3.28-3.46.53-12.02,1-25.22,1.41-39.59.12-5.4-6.51-8.04-10.09-4.05-1.47,1.58-2.35,2.52-2.64,2.76-1.11.82-2.4,1.23-3.58,1.17l-65.57-2.93c-19.47-7.39-43.69-9.09-72.67-5.1-.7-2.52-1.29-3.99-1.82-4.52-1.58-1.64-.47-4.4,1.82-4.46,50.97-1.11,102.05-1,153.13.29,5.1.12,7.92,2.93,8.44,8.39.18,1.7,1.53,2.93,3.23,2.99l68.56,1.47h0Z"/>
      <path class="cls-3" d="M882.1,212.54l-3.69,52.31c-.23,3.23-4.75,3.75-5.98.65-.23-.59-.23-1.47,0-2.7.35-1.99-1.17-3.81-3.23-3.87l-59-1.41-.76-50.09c28.97-3.99,53.19-2.29,72.67,5.1h0Z"/>
      <path class="cls-8" d="M1062.26,259.51l73.6,3.52c1.94.12,3.46,1.7,3.46,3.64v62.75c0,1.82-1.52,3.34-3.34,3.34h-209.84c-2.11,0-4.05,1.11-5.1,2.93l-18.94,32.84c-2.64,4.52-7.86,6.8-12.9,5.75l-47.86-9.91-2.4-44.98c-.12-2.93-2.64-5.22-5.57-5.04l-17.48.94c-2.82.18-5.22-2.11-5.28-4.93l-.41-52.84,59,1.41c2.05.06,3.58,1.88,3.23,3.87-.23,1.23-.23,2.11,0,2.7,1.23,3.11,5.75,2.58,5.98-.65l3.69-52.31,65.57,2.93c1.17.06,2.46-.35,3.58-1.17.29-.23,1.17-1.17,2.64-2.76,3.58-3.99,10.2-1.35,10.09,4.05-.41,14.37-.88,27.56-1.41,39.59-.12,1.88,1.41,3.46,3.28,3.46l96.42.88h0Z"/>
      <path class="cls-10" d="M1143.61,210.25l43.99,4.63c5.1.53,9.03,4.69,9.33,9.79l.94,16.36c.12,2.17,1.58,4.05,3.64,4.63l19.18,5.81c.82.23,1.58.7,2.17,1.41,2.82,3.28,6.86,5.28,12.08,5.98-2.46-.06-7.74-.94-15.78-2.58-3.34-.64-5.81.59-7.27,3.75l-50.03-4.57c-7.68-.7-13.9-6.39-15.31-13.96l-3.69-20.76c-.41-2.11-1.82-3.93-3.75-4.81-4.99-2.17-10.62-3.23-16.89-3.28-26.45-.18-52.96-.53-79.41-1.06l100.82-1.35h0Z"/>
      <path class="cls-15" d="M228.11,215.29l-32.78,40.76c-1.17,1.47-2.05,3.17-2.58,4.99-10.2,36.19-9.27,65.39-11.91,99.29-8.62,2.23-16.95,2.05-24.98-.53-.41-23.05,1.23-46.1,4.81-69.03,5.69-36.36,34.78-62.46,67.45-75.48h0Z"/>
      <path class="cls-15" d="M1312.57,369.59c-23.99-1.23-52.31-9.03-72.61-6.98-7.74.76-20.64,1.94-38.77,3.4-5.22.41-9.27,4.81-9.27,10.03v37.53c0,1.82-1.47,3.28-3.23,3.28h-90.61c-1.35,0-2.4-1.06-2.4-2.4v-44.87c0-2.05-1.7-3.64-3.69-3.52l-70.61,3.87c-3.81.24-6.39,3.99-5.22,7.62,3.58,11.03,4.58,23.05,2.99,36.01-.29,2.29-2.46,3.87-4.75,3.4-12.79-2.46-17.59-9.91-14.37-22.4.47-1.76-.59-3.58-2.35-4.05-6.33-1.7-12.08-2.29-17.3-1.82-24.81.47-51.96,5.1-61.35,29.91l3.28,92.02c.06,2.05,1.76,3.64,3.81,3.64h40.23c2.17,0,4.11,1.47,4.75,3.58,1.52,5.04,3.28,8.8,5.34,11.32,1.58,1.94,3.87,3.11,6.39,3.17l73.19,1.47c2.76.06,5.04,2.23,5.16,4.99.35,9.15.29,19.35-.18,30.56-.12,3.34-1.76,5.75-4.93,7.16-1.23.53-1.58,2.11-.7,3.11l41.87,50.26c-18.71,1.99-32.84,2.82-42.52,2.46-30.44-1.11-60.52-1.53-90.26-1.23-1-2.64-3.69-4.11-8.04-4.4l3.46-.12c2.11-.06,3.75-1.88,3.64-3.99l-1.76-31.96c-.12-2.05-1.82-3.64-3.87-3.64h-73.43c-1.99,0-3.64-1.64-3.69-3.64-.65-66.16-1.17-108.73-1.47-127.74-.23-16.19-7.62-29.62-22.17-40.35-1.64-1.23-2.52-3.23-2.29-5.28l2.4-21.46c.18-1.94-.35-3.93-1.53-5.45l-14.43-18.71,47.86,9.91c5.04,1.06,10.26-1.23,12.9-5.75l18.94-32.84c1.06-1.82,2.99-2.93,5.1-2.93h209.84c1.82,0,3.34-1.52,3.34-3.34v-62.75c0-1.94-1.52-3.52-3.46-3.64l-73.6-3.52c9.38-1.11,18.71-2.35,27.97-3.75,27.98-4.28,55.36-1.29,79.41,10.79,4.34,2.17,12.14,9.38,23.4,21.64,14.54,15.89,29.44,23.05,40.47,45.39,5.98,12.14,17.13,18.12,29.03,21.29,16.83,4.52,33.55,9.38,50.03,14.72h0Z"/>
      <path class="cls-2" d="M1234.92,258.87l67.91.18c1.35,0,2.58.76,3.28,1.94l.82,1.41c.76,1.35,2.76,1.23,3.4-.23.53-1.35,1.29-2.35,2.17-3.11l3.69,47.39-37.3,3.05-26.27-3.52c-1.82-.23-3.4-1.23-4.46-2.76-11.08-16.07-18.47-33.61-36.3-43.17,1.47-3.17,3.93-4.4,7.27-3.75,8.03,1.64,13.31,2.52,15.78,2.58h0Z"/>
      <path class="cls-15" d="M752.43,291.71c.29,14.54,2.99,21.64,8.15,21.35-39.59,2.64-78.71-.41-117.41-9.15-2.11-.47-3.23-2.82-2.35-4.75,1.17-2.64,3.93-4.22,8.33-4.81,2.11-.23,3.93-1.58,4.81-3.52l12.43-26.92c20.94.35,41.93.23,62.93-.35,3.05-.12,6.1-1,9.15-2.58,3.75-1.94,8.27.7,8.33,4.93.06,5.22-.59,11.73-1.94,19.59-.47,2.7.06,4.63,1.58,5.86,1.41,1.11,3.4,1.23,5.98.35h0Z"/>
      <path class="cls-3" d="M46.77,263.56l1.23,3.4-1.23,19.76c-.12,1.7-1.58,3.05-3.28,2.93l-41.23-1.76c-.53-1.76-1.11-2.87-1.82-3.4-1-7.16-.29-13.49,2.05-19.06l44.28-1.88h0Z"/>
      <path class="cls-10" d="M1316.21,306.43l35.48-1.88c4.87-.24,8.91,3.58,8.91,8.45v34.78c0,1.52.94,2.87,2.35,3.46,2.05.88,4.81.82,8.27-.12,2.11,4.93,8.09,7.04,18,6.28.82-.06,1.47.59,1.47,1.35v153.36c0,2.52,1.99,4.52,4.46,4.52h20.35c1.82,0,3.46,1.06,4.22,2.7,2.05,4.52,3.23,9.38,3.58,14.66l-.29,5.75c-.41-2.76-1.29-5.1-2.64-6.92-1.06-1.47-2.76-2.29-4.57-2.35l-47.09-1.35c-3.46-.47-6.28-.35-8.5.29,2.35-50.38,1.94-100.41-1.29-150.08-.18-2.05-.88-3.99-2.05-5.69-4.46-6.1-10.56-10.32-18.24-12.67-1.58-.47-3.34-.41-4.87.23-6.98,2.99-11.61,7.74-13.84,14.31-.53,1.41-2.23,2.05-3.52,1.29l-2.35-1.41c.18-1,.06-1.94-.35-2.81-.18-20.47-4.52-39.76-12.9-58-.82-1.7-2.41-2.82-4.22-3.05l-17.65-2.05,37.3-3.05h0Z"/>
      <path class="cls-7" d="M563.93,361.91l-15.07-.06c7.57-20.35,21.58-35.66,41.93-45.92.59-.29,1.35-.12,1.7.41.41.59.29,1.29-.18,1.76-13.08,11.79-22.52,26.39-28.39,43.81h0Z"/>
      <path class="cls-13" d="M794.89,420.68c5.75-16.54,7.04-36.24,3.93-59.12l2.35-47.56c3.4,16.25,0,25.34,6.86,41.52.29.7.47,1.47.53,2.23l3.64,57.18c.12,1.76-1.17,3.28-2.87,3.58l-14.43,2.17h0Z"/>
      <path class="cls-7" d="M544.64,361.97l-4.28-.06c-2.87,1.47-4.11,3.87-3.58,7.16-6.92,9.68-15.42,18.01-25.51,25.1-.53.35-1.23.06-1.35-.59l-.29-1.7c-.06-.41.06-.82.29-1.06l23.28-24.34c1.41-1.47.82-3.93-1.17-4.57-3.23-1.06-6.45-.94-9.56.41-9.5,4.11-15.6,11.96-15.25,19.71.29,7.04.94,15.95,1.94,26.74l-3.75,3.05c-16.66-2.35-32.43-.65-47.33,5.1-2.99,1.17-6.16,1.88-9.38,2.05l-45.98,2.35c-.82-1.58-2.46-2.87-4.99-3.75-.47-.18-1-.29-1.52-.29l-34.54.41-.41-55.01c0-.18-.12-.29-.29-.35-.53-.12-1-.29-1.47-.53-.18-.12-.23-.35-.06-.47,7.33-5.4,16.71.65,24.98.47,36.89-.65,80.35-4.34,117.59,11.2,1.7.7,3.52-.65,3.28-2.46-.41-3.58-2.35-6.04-5.81-7.51-1.64-.65-2.4-2.58-1.64-4.16,4.75-10.67,10.73-19.18,17.95-25.57,2.93-2.52,7.39-2.11,9.79.94,1.7,2.17,2.76,5.04,3.28,8.74.29,1.88,1.29,3.58,2.82,4.81,5.04,3.93,9.38,8.68,12.96,14.19h0Z"/>
      <path class="cls-13" d="M1360.2,529.41l-26.33,2.29c-6.86,0-12.37-1.52-16.48-4.57-1.64-1.23-2.64-3.17-2.7-5.28l-.94-72.61.29-73.84,2.35,1.41c1.29.76,2.99.12,3.52-1.29,2.23-6.57,6.86-11.32,13.84-14.31,1.52-.65,3.28-.7,4.87-.23,7.68,2.35,13.78,6.57,18.24,12.67,1.17,1.7,1.88,3.64,2.05,5.69,3.23,49.67,3.64,99.7,1.29,150.08h0Z"/>
      <path class="cls-12" d="M155.86,359.8c8.03,2.58,16.36,2.76,24.98.53,3.81,2.87,6.74,3.69,8.74,2.35l.59,52.72c0,1.58,1.23,2.82,2.82,2.82l76.18-.41,2.64,49.67-67.68-.59,31.67-1.17c1.17-.06,1.94-1.23,1.41-2.29l-.76-1.58c-.18-.41-.59-.65-1.06-.65l-41.64,1.47c-4.11.12-7.51-3.17-7.51-7.27v-29.09c0-3.28-2.7-5.92-5.98-5.92h-65.92c-2.76,0-5.34-1.47-6.74-3.81-9.44-15.72-11.38-32.9-5.81-51.61.53-1.82,2.17-3.11,4.11-3.23l49.97-1.94h0Z"/>
      <path class="cls-10" d="M673.72,367.25l-128.85-.23c-.65,0-1.29-.18-1.82-.59-1.58-1.11-2.52-2.58-2.7-4.52l4.28.06,4.22-.12,15.07.06c35.48.65,71.08.29,106.68-1.11,2.11-.06,3.17,2.05,3.11,6.45h0Z"/>
      <path class="cls-10" d="M331.86,361.74l.47,55.72-63.16.35-76.18.41c-1.58,0-2.82-1.23-2.82-2.82l-.59-52.72,142.28-.94h0Z"/>
      <path class="cls-15" d="M359.13,417.33l-26.8.12-.47-55.72,22.11,1.58c1.52.12,2.64,1.52,2.35,3.05-3.23,16.66-2.29,33.66,2.82,50.96h0Z"/>
      <path class="cls-13" d="M536.78,369.07c-3.23,17.65-12.43,30.91-27.62,39.7-1-10.79-1.64-19.71-1.94-26.74-.35-7.74,5.75-15.6,15.25-19.71,3.11-1.35,6.33-1.47,9.56-.41,1.99.65,2.58,3.11,1.17,4.57l-23.28,24.34c-.23.23-.35.65-.29,1.06l.29,1.7c.12.65.82.94,1.35.59,10.09-7.1,18.59-15.42,25.51-25.1M519.74,370.77c-.38-.35-1.55.18-2.63,1.3-1.04,1.1-1.57,2.27-1.18,2.68.38.35,1.55-.17,2.63-1.3,1.04-1.1,1.57-2.27,1.18-2.68h0Z"/>
      <path class="cls-3" d="M540.35,361.91c.18,1.94,1.11,3.4,2.7,4.52.53.41,1.17.59,1.82.59l128.85.23.53,44.34-2.17,2.93c-1.06,1.35-2.64,2.23-4.4,2.35l-47.8,2.46-111.78-.53c-2.23-1-3.11-3.28-2.7-6.98l3.75-3.05c15.19-8.8,24.4-22.05,27.62-39.7-.53-3.28.7-5.69,3.58-7.16h0Z"/>
      <path class="cls-15" d="M798.82,361.56c3.11,22.87,1.82,42.58-3.93,59.12l-9.97.82c-1.94.12-3.34,1.93-2.99,3.87,1.88,10.97,1.53,23.93-1,39-.29,1.88-1.99,3.17-3.87,3.05l-18.47-1.17c-2.23-.12-4.28,1.11-5.16,3.17-1.35,3.23-1.94,7.16-1.7,11.79l-.88-8.33c-.18-1.88-1.76-3.28-3.64-3.28l-123.75-1.58-3.4-.65-.18-48.03,47.8-2.46c1.76-.12,3.34-1,4.4-2.35l2.17-2.93c4.28,3.58,7.62,5.34,9.91,5.28,31.79-.76,62.46-.06,92.02,1.99,5.22.35,10.32-.53,15.19-2.64,4.05-1.76,6.04-5.51,6.1-11.2.06-14.6.47-29.09,1.35-43.46h0Z"/>
      <path class="cls-8" d="M1312.57,369.59c.18,1.06.53,2.05,1.11,2.99.41.88.53,1.82.35,2.81l-.29,73.84-65.51-1.88c-5.75-.18-10.62,4.11-11.26,9.79-1,9.33,0,17.48,3.05,24.46.18.41.29.88.29,1.29l2.05,49.21-95.77.53-47.62.7c-1.52.06-2.76,1.29-2.76,2.81v34.49c0,1.64,1.29,2.99,2.93,2.99h43.22c1.47,0,2.58,1.29,2.4,2.76l-6.63,49.32-5.51,2.64-35.37,1.52-41.87-50.26c-.88-1-.53-2.58.7-3.11,3.17-1.41,4.81-3.81,4.93-7.16.47-11.2.53-21.41.18-30.56-.12-2.76-2.4-4.93-5.16-4.99l-73.19-1.47c-2.52-.06-4.81-1.23-6.39-3.17-2.05-2.52-3.81-6.28-5.34-11.32-.65-2.11-2.58-3.58-4.75-3.58h-40.23c-2.05,0-3.75-1.58-3.81-3.64l-3.28-92.02c16.07-14.02,36.54-23.99,61.35-29.91,5.22-.47,10.97.12,17.3,1.82,1.76.47,2.81,2.29,2.35,4.05-3.23,12.49,1.58,19.94,14.37,22.4,2.29.47,4.46-1.11,4.75-3.4,1.58-12.96.59-24.98-2.99-36.01-1.17-3.64,1.41-7.39,5.22-7.62l70.61-3.87c1.99-.12,3.69,1.47,3.69,3.52v44.87c0,1.35,1.06,2.4,2.4,2.4h90.61c1.76,0,3.23-1.47,3.23-3.28v-37.53c0-5.22,4.05-9.62,9.27-10.03,18.12-1.47,31.02-2.64,38.77-3.4,20.29-2.05,48.62,5.75,72.61,6.98h0Z"/>
      <path class="cls-12" d="M358.71,362.97c1.12,0,2.12,10.73,2.18,24.03.06,13.27-.82,24.06-1.93,24.06-1.12,0-2.12-10.73-2.18-24.04-.06-13.26.82-24.06,1.93-24.06h0Z"/>
      <path class="cls-15" d="M519.74,370.77c.38.41-.14,1.58-1.18,2.68-1.07,1.13-2.25,1.66-2.63,1.3-.38-.41.14-1.58,1.18-2.68,1.07-1.13,2.25-1.66,2.63-1.3h0Z"/>
      <path class="cls-12" d="M980.39,388.71c-24.81,5.92-45.28,15.89-61.35,29.91,9.38-24.81,36.54-29.44,61.35-29.91h0Z"/>
      <path class="cls-15" d="M505.4,411.82c-.41,3.69.47,5.98,2.7,6.98l-41.99.06c-4.16,0-7.33,3.87-6.51,7.98l1.99,10.2-.35,41.05c0,1.99-1.7,3.58-3.69,3.46-1.06-.06-2.52-.88-4.4-2.35-1.29-1.11-3.05-1.7-4.81-1.64-6.04.29-15.54,1.82-28.62,4.57-7.62,1.64-12.55,3.99-14.78,7.04-.59.7-1.35,1.23-2.23,1.47-5.1,1.17-10.15.76-15.19-1.29-.35-1.58-.41-3.46-.12-5.75l13.31-1.23c1.7-.18,2.99-1.58,2.93-3.28l-.94-57.77,45.98-2.35c3.23-.18,6.39-.88,9.38-2.05,14.9-5.75,30.67-7.45,47.33-5.1h0Z"/>
      <path class="cls-5" d="M332.33,417.45l26.8-.12c.47-.23,1.29-.12,2.52.35l34.54-.41c.53,0,1.06.12,1.52.29,2.52.88,4.16,2.17,4.99,3.75l.94,57.77c.06,1.7-1.23,3.11-2.93,3.28l-13.31,1.23-26.22.35c-1.52,0-2.76,1.23-2.76,2.76v38.41c0,2.64-2.35,4.69-4.98,4.34-6.69-.94-13.25,0-19.71,2.82l-16.07.47c-11.73-1.76-18.83-1.17-21.29,1.76l-52.26-2.05c-1.47-.64-3.17-.94-5.22-.76-.18-3.05,3.4-5.34,10.67-6.8,6.45,1.35,12.32,1.17,17.54-.53,1.64-.59,2.76-2.11,2.81-3.87l1.88-53.02-2.64-49.67,63.16-.35h0Z"/>
      <path class="cls-5" d="M508.1,418.8l111.78.53.18,48.03-.41,37.42c-.06,4.28,3.46,7.68,7.74,7.45l36.19-1.99c4.34-.23,7.27-4.52,5.98-8.68-1.52-4.87-1.11-11.85,1.29-20.94.76-2.87-1.35-5.69-4.28-5.81-9.21-.35-22.34-.53-39.41-.53-3.64,0-4.87-2.11-3.69-6.28l123.75,1.58c1.88,0,3.46,1.41,3.64,3.28l.88,8.33.41,21.23c-2.87,10.91-4.87,6.63-6.1-12.84-.18-2.93-2.93-4.98-5.81-4.4-6.98,1.47-13.2.59-18.59-2.64-1.82-1.06-4.11.29-3.99,2.4,1.11,22.05-2.7,32.26-11.55,30.56l-34.66.76c-2.7.06-4.4,2.99-3.11,5.4.94,1.82,1.53,3.58,1.76,5.4.29,2.17-1.41,4.11-3.58,4.16l-49.09,1.52-41.23-1.17c-1.52-.06-2.81,1.23-2.81,2.76l.47,53.6-4.99.47-180.11-.41c-13.2-3.81-7.51-7.86,17.01-12.08,1.99-.29,2.23-1.76.65-4.4l72.55,1.35c2.64,0,4.57-2.52,3.81-5.1-4.4-14.72-12.32-29.56-23.69-44.51l61.87-4.16c.82-.06,1.47-.7,1.52-1.53,0-.82-.53-1.52-1.35-1.7-7.27-1.41-13.25-1.64-17.95-.65-1.99.41-3.87-1.11-3.87-3.17v-23.52c0-1.64-1.35-2.99-2.99-2.99h-31.14c-1.82,0-3.28-1.47-3.28-3.28l-.29-45.22-1.99-10.2c-.82-4.11,2.35-7.98,6.51-7.98l41.99-.06h0Z"/>
      <path class="cls-12" d="M459.07,523.25c-4.99-10.03-20.7-11.61-47.27-4.81-6.28-2.52-11.96-3.64-17.13-3.46-4.81.18-8.68-3.81-8.39-8.56l1.23-17.07c5.04,2.05,10.09,2.46,15.19,1.29.88-.23,1.64-.76,2.23-1.47,2.23-3.05,7.16-5.4,14.78-7.04,13.08-2.76,22.58-4.28,28.62-4.57,1.76-.06,3.52.53,4.81,1.64,1.88,1.47,3.34,2.29,4.4,2.35,1.99.12,3.69-1.47,3.69-3.46l.35-41.05.29,45.22c0,1.82,1.47,3.28,3.28,3.28h31.14c1.64,0,2.99,1.35,2.99,2.99v23.52c0,2.05,1.88,3.58,3.87,3.17,4.69-1,10.67-.76,17.95.65.82.18,1.35.88,1.35,1.7-.06.82-.7,1.47-1.52,1.53l-61.87,4.16h0Z"/>
      <path class="cls-15" d="M1313.75,449.24l.94,72.61c.06,2.11,1.06,4.05,2.7,5.28,4.11,3.05,9.62,4.57,16.48,4.57l-20.47,28.5.29-25.04c.06-1.58-1.23-2.93-2.82-2.93l-68.5-.12-2.05-49.21c0-.41-.12-.88-.29-1.29-3.05-6.98-4.05-15.13-3.05-24.46.65-5.69,5.51-9.97,11.26-9.79l65.51,1.88h0Z"/>
      <path class="cls-8" d="M204.12,466.89l67.68.59-1.88,53.02c-.06,1.76-1.17,3.28-2.81,3.87-5.22,1.7-11.08,1.88-17.54.53.41-4.63-1.58-7.21-6.04-7.8-17.3-2.35-34.66-3.05-52.14-2.17l-35.48.06-15.95.12c-4.63-14.25-5.98-30.73-3.99-49.32l68.15,1.11h0Z"/>
      <path class="cls-6" d="M58.91,466.25l39.29,1.41c-1,4.11-1.99,8.03-3.05,11.79-4.87,16.54-4.4,38.18-5.04,55.54l-41.23-9.97,1.23-52.84,8.8-5.92h0Z"/>
      <path class="cls-2" d="M135.98,465.78c-1.99,18.59-.65,35.07,3.99,49.32,4.63,21.7,3.93,44.4-2.11,68.15-1.94,1.35-3.11,2.58-3.52,3.81-8.74-3.69-16.36-4.75-22.87-3.11-4.75,1.17-8.86,1.47-12.26.94-3.34-.53-5.4-.53-6.28,0-1.7,1-2.46,2.87-2.4,5.63l-.41-55.54c.65-17.36.18-39,5.04-55.54,1.06-3.75,2.05-7.68,3.05-11.79,12.37,1.99,24.93,1.35,37.77-1.88h0Z"/>
      <path class="cls-11" d="M623.46,468.01c-1.17,4.16.06,6.28,3.69,6.28,17.07,0,30.2.18,39.41.53,2.93.12,5.04,2.93,4.28,5.81-2.4,9.09-2.82,16.07-1.29,20.94,1.29,4.16-1.64,8.45-5.98,8.68l-36.19,1.99c-4.28.23-7.8-3.17-7.74-7.45l.41-37.42,3.4.65h0Z"/>
      <path class="cls-15" d="M752.13,502.43c.06,4.05.65,7.39,1.88,9.91.82,1.7,2.58,2.81,4.52,2.81h74.42c3.46,0,6.28,2.82,6.28,6.28v61.64c0,2.29-1.82,4.11-4.11,4.11h-71.73c-2.4,0-4.34-1.94-4.4-4.34,0-2.29-.47-4.4-1.41-6.33-.88-1.82-3.58-1.41-3.81.59-1.88,15.07-2.23,30.97-1,47.8.06.82.35,1.47.76,1.88.53.53,1.11.88,1.88.94-.76.7-1.23,1.76-1.41,3.11l-79.88-1.76c-1.7-.06-3.17,1.23-3.34,2.93l-2.52,29.15-43.81.59c-1.82-9.91-2.58-20.06-2.35-30.56.06-1.82-.47-3.11-1.58-3.75-1.17-.65-2.64-.94-4.4-.88,1.35.18,2.7.06,3.93-.23,1.41-.35,1.82-2.23.65-3.11-1.29-1-2.7-1.7-4.16-2.05l1.64-29.68c.12-1.58-1.17-2.93-2.76-2.93l-41.58-.59-.47-53.6c0-1.53,1.29-2.81,2.81-2.76l41.23,1.17c5.22,11.55,7.39,24.46,6.57,38.83,0,.53.41.94.88.94h85.68c2.87,0,5.22-2.35,5.22-5.22v-38.41c0-1.94,1.41-3.58,3.28-3.87,3.23-.53,5.51-1.23,6.74-2.11,1.23-.88.88-2.81-.65-3.17l-19.06-4.22c8.86,1.7,12.67-8.5,11.55-30.56-.12-2.11,2.17-3.46,3.99-2.4,5.4,3.23,11.61,4.11,18.59,2.64,2.87-.59,5.63,1.47,5.81,4.4,1.23,19.47,3.23,23.75,6.1,12.84h0Z"/>
      <path class="cls-7" d="M387.4,483.61c-.29,2.29-.23,4.16.12,5.75l-1.23,17.07c-.29,4.75,3.58,8.74,8.39,8.56,5.16-.18,10.85.94,17.13,3.46-6.98-1.7-12.9-1.41-17.83.88-1.47.65-2.4,2.23-2.35,3.87l2.35,42.52c.12,1.64,1.06,3.11,2.52,3.87,2.81,1.47,6.1,2.11,9.91,1.94,1.58,2.64,1.35,4.11-.65,4.4-24.51,4.22-30.2,8.27-17.01,12.08l-71.9.47c-1-13.66-1.76-27.56-2.29-41.82-.12-3.69,1.29-6.51,4.16-8.56,8.39.47,13.37-1.47,15.01-5.81,6.45-2.82,13.02-3.75,19.71-2.82,2.64.35,4.98-1.7,4.98-4.34v-38.41c0-1.52,1.23-2.76,2.76-2.76l26.22-.35h0Z"/>
      <path class="cls-10" d="M155.92,514.98l-2.58,12.55c-.35,1.7.82,3.28,2.52,3.52l30.85,4.05,1.17,37.59c-.47,8.27-2.82,13.02-6.98,14.25-2.4-2.05-4.4-3.05-5.86-2.99-12.02.88-24.46.65-37.18-.7,6.04-23.75,6.74-46.45,2.11-68.15l15.95-.12h0Z"/>
      <path class="cls-3" d="M191.4,514.93l-4.69,20.17-30.85-4.05c-1.7-.23-2.87-1.82-2.52-3.52l2.58-12.55,35.48-.06h0Z"/>
      <path class="cls-13" d="M249.58,524.9c-7.27,1.47-10.85,3.75-10.67,6.8-1.99,13.9-.88,27.27,3.34,40.23.59,1.64,2.05,2.82,3.81,2.93,22.7,1.11,43.99,5.51,63.93,13.2l-34.95-1-83.51.06c-1.76,0-3.23-1.41-3.28-3.17l-.35-11.26-1.17-37.59,4.69-20.17c17.48-.88,34.84-.18,52.14,2.17,4.46.59,6.45,3.17,6.04,7.8h0Z"/>
      <path class="cls-4" d="M459.07,523.25c11.38,14.96,19.3,29.79,23.69,44.51.76,2.58-1.17,5.1-3.81,5.1l-72.55-1.35c-3.81.18-7.1-.47-9.91-1.94-1.47-.76-2.4-2.23-2.52-3.87l-2.35-42.52c-.06-1.64.88-3.23,2.35-3.87,4.93-2.29,10.85-2.58,17.83-.88,26.57-6.8,42.29-5.22,47.27,4.81h0Z"/>
      <path class="cls-3" d="M706.09,515.51l19.06,4.22c1.53.35,1.88,2.29.65,3.17-1.23.88-3.52,1.58-6.74,2.11-1.88.29-3.28,1.94-3.28,3.87v38.41c0,2.87-2.35,5.22-5.22,5.22h-85.68c-.47,0-.88-.41-.88-.94.82-14.37-1.35-27.27-6.57-38.83l49.09-1.52c2.17-.06,3.87-1.99,3.58-4.16-.23-1.82-.82-3.58-1.76-5.4-1.29-2.4.41-5.34,3.11-5.4l34.66-.76h0Z"/>
      <path class="cls-8" d="M1360.2,529.41c2.23-.64,5.04-.76,8.5-.29,14.72,12.49,22.29,31.73,22.64,57.77.41,27.33-8.91,46.92-27.97,58.82-32.37,20.29-51.32,23.34-55.42,67.15-.23,2.58-2.4,4.57-4.99,4.57h-29.32c-3.17,0-5.92,2.29-6.51,5.4l-6.8,37.07-71.02.59,1.35-50.91c.06-1.06-.76-1.88-1.82-1.88h-44.04c-1.17,0-2.17.82-2.46,1.94-4.28,16.71-4.69,33.61-1.23,50.79l-83.22.7c-1.7,0-3.11-1.41-3.11-3.11v-38.59c0-1.41-1.11-2.52-2.52-2.52h-34.25c-1.52,0-2.76,1.23-2.76,2.76v36.6c0,2.23-1.76,3.99-3.93,3.99l-85.45.29,2.76-41.93,84.16-2.93c1.88-.06,3.4-1.7,3.28-3.58l-1.64-29.85c-.12-1.7-1.47-3.05-3.17-3.17l-34.37-2.23c45.57,2.52,90.14,2.11,133.72-1.11,7.8-2.99,17.59-4.75,29.44-5.28l40.12-8.62c2.23-.47,3.87-2.46,3.87-4.81v-15.54c0-2.23,1.52-4.22,3.64-4.75l27.27-6.74c.18.12.41.23.65.41,8.03,1.47,15.19.29,21.35-3.4.76-.47,1.35-1.17,1.7-1.99l13.96-32.9c.47-1.17,1.58-1.94,2.82-1.99l52.26-2.87c3.28-.18,5.86-2.93,5.81-6.22l-.06-20.82,20.47-28.5,26.33-2.29h0Z"/>
      <path class="cls-13" d="M1423.01,539.73l-2.11,103.63c-14.31,18.42-32.08,32.78-53.37,43.11-1.64.82-2.99,2.23-3.7,3.93l-8.15,19.18c-.76,1.88-2.46,3.17-4.46,3.46l-26.98,3.99c-2.7.7-4.87,2.23-6.51,4.63-.88,1.29-2.46,1.99-3.99,1.82-1.23-.12-2.29.12-3.11.7-1.23.82-1.7,2.87-1.47,6.1.76,10.26,1.11,19.18,1.11,26.69-.06,2.64-2.23,4.81-4.87,4.75l-38-.53c-2.64,1.11-5.04.65-7.1-1.29l6.8-37.07c.59-3.11,3.34-5.4,6.51-5.4h29.32c2.58,0,4.75-1.99,4.99-4.57,4.11-43.81,23.05-46.86,55.42-67.15,19.06-11.91,28.39-31.49,27.97-58.82-.35-26.04-7.92-45.28-22.64-57.77l47.09,1.35c1.82.06,3.52.88,4.57,2.35,1.35,1.82,2.23,4.16,2.64,6.92h0Z"/>
      <path class="cls-1" d="M244.12,532.46l-.59,1.99c-.47,1.52.53,3.17,2.11,3.4,19.41,2.99,36.36,1.88,50.73-3.34,2.46-2.93,9.56-3.52,21.29-1.76,1.76.82,2.11,2.58,1.06,5.34-2.87,2.05-4.28,4.87-4.16,8.56.53,14.25,1.29,28.15,2.29,41.82-1.06.41-3.34.23-6.86-.41-19.94-7.68-41.23-12.08-63.93-13.2-1.76-.12-3.23-1.29-3.81-2.93-4.22-12.96-5.34-26.33-3.34-40.23,2.05-.18,3.75.12,5.22.76h0Z"/>
      <path class="cls-2" d="M296.38,534.51c-14.37,5.22-31.32,6.33-50.73,3.34-1.58-.23-2.58-1.88-2.11-3.4l.59-1.99,52.26,2.05h0Z"/>
      <path class="cls-15" d="M333.74,532.29c-1.64,4.34-6.63,6.27-15.01,5.81,1.06-2.76.7-4.52-1.06-5.34l16.07-.47h0Z"/>
      <path class="cls-12" d="M1146.6,532.64l3.81,56.54-1.35,20.35-10.91,16.19,6.63-49.32c.18-1.47-.94-2.76-2.4-2.76h-43.22c-1.64,0-2.93-1.35-2.93-2.99v-34.49c0-1.52,1.23-2.76,2.76-2.81l47.62-.7h0Z"/>
      <path class="cls-13" d="M1242.37,532.11l68.5.12c1.58,0,2.87,1.35,2.82,2.93l-.29,25.04.06,20.82c.06,3.28-2.52,6.04-5.81,6.22l-52.26,2.87c-1.23.06-2.35.82-2.82,1.99l-13.96,32.9c-.35.82-.94,1.52-1.7,1.99-6.16,3.69-13.31,4.87-21.35,3.4l11.32-4.57c1.99-.82,3.34-2.7,3.46-4.81.59-8.21,3.58-15.19,8.97-21,3.46-3.81.82-9.91-4.34-9.97l-84.57-.88-3.81-56.54,95.77-.53h0Z"/>
      <path class="cls-1" d="M187.88,572.69l.35,11.26c.06,1.76,1.52,3.17,3.28,3.17l83.51-.06-26.57,1.94c-1.52.12-2.7,1.23-2.87,2.7l-.23,1.99c-.12,1.23.88,2.35,2.11,2.35l321.8-.06c2.87,0,4.57-3.11,3.11-5.57-.18-.29-1.35-1-3.52-1.99l4.99-.47,41.58.59c1.58,0,2.87,1.35,2.76,2.93l-1.64,29.68c-67.45-1.23-127.62-1.06-180.46.47-2.87.12-4.11,2.46-3.69,7.04l-38.53.47c-2.05-.29-3.28-1.11-3.75-2.35,1.29,0,2.4-.18,3.34-.53,1.23-.41,1.17-2.23-.12-2.46-6.39-1.35-15.66-2.17-27.74-2.35-60.52-1.06-117.88-.94-172.13.35-2.11.06-2.82,2.82-1,3.87,1.35.76,3.05.82,5.16.18l-44.87-.23c8.86-4.05,19.3-5.86,31.32-5.4,1.94.06,3.58-1.58,3.46-3.52l-1.35-23.75c-.06-1.7-1-3.28-2.52-4.22l-2.76-1.76c4.16-1.23,6.51-5.98,6.98-14.25h0Z"/>
      <path class="cls-10" d="M134.33,587.06l1.11,39.82-4.46,1.99c-1.64.76-2.7,2.4-2.7,4.22v42.46c0,1.58-1.17,2.93-2.76,3.23-9.62,1.64-18.24,6.16-25.86,13.61-1.06,1-2.81.41-3.05-1.06l-3.58-21.23-1.7-34.19c2.64-4.99,2.81-9.44.47-13.49-.59-1.06-.88-2.23-.94-3.4l-.35-28.5c-.06-2.76.7-4.63,2.4-5.63.88-.53,2.93-.53,6.28,0,3.4.53,7.51.23,12.26-.94,6.51-1.64,14.13-.59,22.87,3.11h0Z"/>
      <path class="cls-13" d="M137.85,583.25c12.73,1.35,25.16,1.58,37.18.7,1.47-.06,3.46.94,5.86,2.99l2.76,1.76c1.52.94,2.46,2.52,2.52,4.22l1.35,23.75c.12,1.94-1.52,3.58-3.46,3.52-12.02-.47-22.46,1.35-31.32,5.4-2.35,3.64-8.09,4.05-17.3,1.29l-1.11-39.82c.41-1.23,1.58-2.46,3.52-3.81h0Z"/>
      <path class="cls-2" d="M275.03,587.06l34.95,1c3.52.65,5.81.82,6.86.41l71.9-.47,180.11.41c2.17,1,3.34,1.7,3.52,1.99,1.47,2.46-.23,5.57-3.11,5.57l-321.8.06c-1.23,0-2.23-1.11-2.11-2.35l.23-1.99c.18-1.47,1.35-2.58,2.87-2.7l26.57-1.94h0Z"/>
      <path class="cls-1" d="M1215.57,630.4c-.23-.18-.47-.29-.65-.41l-55.66,3.28c-4.69.23-8.68-3.28-9.03-7.92l-1.17-15.84,1.35-20.35,84.57.88c5.16.06,7.8,6.16,4.34,9.97-5.4,5.81-8.39,12.79-8.97,21-.12,2.11-1.47,3.99-3.46,4.81l-11.32,4.57h0Z"/>
      <path class="cls-15" d="M1214.93,629.99l-27.27,6.74c-2.11.53-3.64,2.52-3.64,4.75v15.54c0,2.35-1.64,4.34-3.87,4.81l-40.12,8.62c.23-9.85.47-19.53.7-28.97.06-1.7.53-3.46,1.52-5.22,1.11-2.05,1.11-3.81-.12-5.28-.59-.65-2.17-1.11-4.75-1.35-1.7-.18-3.28-.59-4.75-1.29l5.51-2.64,10.91-16.19,1.17,15.84c.35,4.63,4.34,8.15,9.03,7.92l55.66-3.28h0Z"/>
      <path class="cls-14" d="M947.55,625.83l-185.5.35c-.35,0-.65-.06-.94-.23-.41-.29-.88-.53-1.35-.82-.53-1.29-.23-2.52.88-3.75.35-.35.76-.53,1.23-.53l184.57-.41c.12,0,.23,0,.29.06,2.11,1,2.4,2.81.82,5.34h0Z"/>
      <path class="cls-2" d="M390.1,626.77l-97.77-.29-67.68-.53-27.04-.12c-2.11.65-3.81.59-5.16-.18-1.82-1.06-1.11-3.81,1-3.87,54.25-1.29,111.61-1.41,172.13-.35,12.08.18,21.35,1,27.74,2.35,1.29.23,1.35,2.05.12,2.46-.94.35-2.05.53-3.34.53h0Z"/>
      <path class="cls-10" d="M616.54,621.14c1.47.35,2.87,1.06,4.16,2.05,1.17.88.76,2.76-.65,3.11-1.23.29-2.58.41-3.93.23l-43.46-.06h-82.11l-47.21.41c-1.7,0-3.11,1.41-3.11,3.11v84.22c0,1.23.47,2.46,1.35,3.34l2.11,2.23c-1.41,1.23-1.99,2.58-1.7,4.11.12.7.76,1.17,1.47,1.17h129.14c1.99,0,3.58-1.64,3.52-3.58,0-.65-.12-1.41-.35-2.17-.59,1,.65,1,3.69-.12l41.64-.59c2.46,12.32,2.35,25.69-.41,40.06l-94.13,1-40.47-.35-284.44.82,3.75-.12c1.47-.06,2.05-1.99.82-2.81-10.2-6.98-12.43-17.07-6.74-30.26.76-1.82,2.58-2.93,4.52-2.87,34.84,1.29,75.19,1.47,121.05.47,2.58-.06,4.52-2.23,4.34-4.75-.06-1-.76-1.58-2.11-1.82l.76-39.82,91.61-.18c3.4,1,6.33,1.17,8.86.53,1.82-.47,3.05-2.11,3.11-3.99l.76-45.86c-.41-4.58.82-6.92,3.69-7.04,52.84-1.53,113.01-1.7,180.46-.47h0Z"/>
      <path class="cls-8" d="M152.75,625.59l44.87.23c3.99,18.83,3.34,36.24-1.99,52.37l-56.42-.29c-1.7,0-3.05-1.35-3.05-3.05l-.7-47.97c9.21,2.76,14.96,2.35,17.3-1.29h0Z"/>
      <path class="cls-7" d="M224.65,625.95l-1.23,53.49-22.4-.47c-1.58.29-3.34.06-5.4-.76,5.34-16.13,5.98-33.55,1.99-52.37l27.04.12h0Z"/>
      <path class="cls-11" d="M292.33,626.47l1.29.76-3.28,45.69c-.18,2.52-2.23,4.57-4.75,4.69l-60.47,2.93c-.59-.35-1.17-.7-1.7-1.11l1.23-53.49,67.68.53h0Z"/>
      <path class="cls-15" d="M390.1,626.77c.47,1.23,1.7,2.05,3.75,2.35l-.53,36.19c-.06,1.76,1.06,3.34,2.7,3.93l23.64,8.74-91.61.18c-12.96-7.57-18.88-23.28-17.65-47.15.06-1.64-1.23-2.99-2.87-3.11l-13.9-.65-1.29-.76,97.77.29h0Z"/>
      <path class="cls-7" d="M490.56,626.47c3.23,10.67,3.93,21.76,2.17,33.31-.29,1.99-.35,4.11-.06,6.1,2.64,17.71,1.94,35.6-2.05,53.6l-46.92.29-2.11-2.23c-.88-.88-1.35-2.11-1.35-3.34v-84.22c0-1.7,1.41-3.11,3.11-3.11l47.21-.41h0Z"/>
      <path class="cls-5" d="M572.67,626.47c2.87,1.35,4.05,3.81,3.4,7.33-.06.12-.12.23-.23.29l-1.41,1c-.65.47-1.06,1.17-1.11,1.94-1.58,25.98-1.58,52.14-.06,78.41.18,2.99,2.29,4.28,6.22,3.75-3.05,1.11-4.28,1.11-3.69.12l-85.16.18c3.99-18,4.69-35.89,2.05-53.6-.29-1.99-.23-4.11.06-6.1,1.76-11.55,1.06-22.64-2.17-33.31h82.11Z"/>
      <path class="cls-12" d="M616.13,626.53c1.76-.06,3.23.23,4.4.88,1.11.65,1.64,1.94,1.58,3.75-.23,10.5.53,20.64,2.35,30.56-1.88,1.41-2.4,3.46-1.58,6.16l-1.76,50.73-41.64.59c-3.93.53-6.04-.76-6.22-3.75-1.52-26.27-1.52-52.43.06-78.41.06-.76.47-1.47,1.11-1.94l1.41-1c.12-.06.18-.18.23-.29.65-3.52-.53-5.98-3.4-7.33l43.46.06h0Z"/>
      <path class="cls-5" d="M759.76,625.13c.47.29.94.53,1.35.82.29.18.59.23.94.23l185.5-.35,8.91.88c4.34.29,7.04,1.76,8.04,4.4-4.63,25.16-1.17,37.42,10.32,36.89-1.58,6.57-1.47,9.79.35,9.74l-10.03,31.96c-.59,1.76-2.05,2.99-3.87,3.34l-32.67,5.57-2.76,41.93-28.5.65-74.95.76-11.5-.59-5.22-.82c.53-12.43.29-24.98-.59-37.65-.18-2.29-.76-3.81-1.88-4.63-1.47-1.17-1.76-2.64-.88-4.46.94-1.76-.29-3.87-2.29-3.99l-43.17-2.81c-2.76-.18-4.93-2.46-4.87-5.22l.65-36.01,1.35-34.95c.18-1.35.65-2.4,1.41-3.11,2.29-.53,3.75-1.41,4.34-2.58h0Z"/>
      <path class="cls-6" d="M135.45,626.88l.7,47.97c0,1.7,1.35,3.05,3.05,3.05l56.42.29c2.05.82,3.81,1.06,5.4.76l.06,40.06,126.21-1.06c1.35.23,2.05.82,2.11,1.82.18,2.52-1.76,4.69-4.34,4.75-45.86,1-86.21.82-121.05-.47-1.94-.06-3.75,1.06-4.52,2.87-5.69,13.2-3.46,23.28,6.74,30.26,1.23.82.65,2.76-.82,2.81l-3.75.12-66.62-1,.94-40.47c.06-1.94-1.52-3.52-3.52-3.46l-37.18,1.11-2.23-46.21,3.58,21.23c.23,1.47,1.99,2.05,3.05,1.06,7.62-7.45,16.25-11.96,25.86-13.61,1.58-.29,2.76-1.64,2.76-3.23v-42.46c0-1.82,1.06-3.46,2.7-4.22l4.46-1.99M194.78,689.23c.02-2.65-2.15-4.82-4.82-4.8l-49.5.09c-2.67.02-4.78,2.18-4.8,4.82l.04,21.58c-.02,2.65,2.15,4.82,4.82,4.8l49.5-.09c2.67-.02,4.78-2.19,4.8-4.82l-.04-21.58h0Z"/>
      <path class="cls-7" d="M328.05,678.14l-.76,39.82-126.21,1.06h11.2c7.39,0,13.37-6.04,13.25-13.43l-.41-25.04,60.47-2.93c2.52-.12,4.57-2.17,4.75-4.69l3.28-45.69,13.9.65c1.64.12,2.93,1.47,2.87,3.11-1.23,23.87,4.69,39.59,17.65,47.15h0Z"/>
      <path class="cls-3" d="M432.38,628.64l-.76,45.86c-.06,1.88-1.29,3.52-3.11,3.99-2.52.65-5.45.47-8.86-.53l-23.64-8.74c-1.64-.59-2.76-2.17-2.7-3.93l.53-36.19,38.53-.47h0Z"/>
      <path class="cls-2" d="M754.01,630.81l-1.35,34.95-4.22-.06c-.88-.94-1.29-1.76-1.23-2.52.82-2.4.65-4.46-.53-6.1-.47-.7-1.29-1.11-2.11-1.11h-26.68c-.47,0-.94.29-1.06.76-.35,1,0,1.99,1.06,2.87l-.41,50.03,2.29,47.33c.12,1.7,1.47,2.99,3.17,2.99l82.75.59,5.22.82c-.65,19.24-1.29,38.41-1.94,57.53-.18,4.52,3.69,6.1,11.49,4.69-4.4,2.17-9.21,2.93-14.43,2.35l-8.09-.7c-4.05-.88-8.27-.76-12.78.23l-29.27-.29c-2.23,0-3.99-1.76-3.99-3.99v-36.6c0-3.58-2.87-6.45-6.39-6.45h-71.32c-2.64,0-4.69-2.17-4.57-4.81.23-5.69,0-9.15-.7-10.32-1.29-2.05-3.4-3.34-5.69-3.34l-41.35-.29c-1.06-1.47-1.47-1.7-1.17-.7,2.76-14.37,2.87-27.74.41-40.06l1.76-50.73c3.23,2.17,4.81,5.45,4.69,9.85-.41,13.08.18,26.57,1.7,40.47.06.41.47.76.88.7l37.07-1.99c.88-.06,1.58-.82,1.58-1.7l-.53-54.07,2.52-29.15c.18-1.7,1.64-2.99,3.34-2.93l79.88,1.76h0Z"/>
      <path class="cls-10" d="M1132.64,628.35c1.47.7,3.05,1.11,4.75,1.29,2.58.23,4.16.7,4.75,1.35,1.23,1.47,1.23,3.23.12,5.28-1,1.76-1.47,3.52-1.52,5.22-.23,9.44-.47,19.12-.7,28.97-11.85.53-21.64,2.29-29.44,5.28-18.59-5.4-37.95-6.04-58.06-1.99-2.4.47-4.87-.65-6.1-2.76l-.94-1.58c-1.06-1.94-3.17-3.11-5.4-3.05l-65.28,1.64c-11.5.53-14.96-11.73-10.32-36.89,29.73-.29,59.82.12,90.26,1.23,9.68.35,23.81-.47,42.52-2.46l35.37-1.52h0Z"/>
      <path class="cls-2" d="M1420.9,643.36c.94,2.4,1.06,4.99.41,7.74l-19.88,50.73c-1.88,4.75-6.22,8.09-11.26,8.8l-36.89,4.81-29.03,1.58,26.98-3.99c1.99-.29,3.69-1.58,4.46-3.46l8.15-19.18c.7-1.7,2.05-3.11,3.7-3.93,21.29-10.32,39.06-24.69,53.37-43.11h0Z"/>
      <path class="cls-14" d="M1421.31,651.11c1,16.01.06,28.03-2.87,36.07-14.84,40.99-43.28,65.1-85.33,72.31-.35-15.6,6.39-30.26,20.18-44.04l36.89-4.81c5.04-.7,9.38-4.05,11.26-8.8l19.88-50.73h0Z"/>
      <path class="cls-13" d="M747.21,663.19c-15.37,6.1-25.16,4.93-29.32-3.58-1.06-.88-1.41-1.88-1.06-2.87.12-.47.59-.76,1.06-.76h26.68c.82,0,1.64.41,2.11,1.11,1.17,1.64,1.35,3.69.53,6.1h0Z"/>
      <path class="cls-7" d="M747.21,663.19c-.06.76.35,1.58,1.23,2.52l-.82,34.54c-.06,1.82-1.35,3.34-3.11,3.69l-27.04,5.69.41-50.03c4.16,8.5,13.96,9.68,29.32,3.58h0Z"/>
      <path class="cls-10" d="M668.27,661.14l.53,54.07c0,.88-.7,1.64-1.58,1.7l-37.07,1.99c-.41.06-.82-.29-.88-.7-1.53-13.9-2.11-27.39-1.7-40.47.12-4.4-1.47-7.68-4.69-9.85-.82-2.7-.29-4.75,1.58-6.16l43.81-.59h0Z"/>
      <path class="cls-8" d="M752.66,665.77l-.65,36.01c-.06,2.76,2.11,5.04,4.87,5.22l43.17,2.81c1.99.12,3.23,2.23,2.29,3.99-.88,1.82-.59,3.28.88,4.46,1.11.82,1.7,2.35,1.88,4.63.88,12.67,1.11,25.22.59,37.65l-82.75-.59c-1.7,0-3.05-1.29-3.17-2.99l-2.29-47.33,27.04-5.69c1.76-.35,3.05-1.88,3.11-3.69l.82-34.54,4.22.06h0Z"/>
      <path class="cls-13" d="M1110.59,675.74c-43.58,3.23-88.15,3.64-133.72,1.11-.59.29-1.17.59-1.7.88-1.82.06-1.94-3.17-.35-9.74l65.28-1.64c2.23-.06,4.34,1.11,5.4,3.05l.94,1.58c1.23,2.11,3.69,3.23,6.1,2.76,20.12-4.05,39.47-3.4,58.06,1.99h0Z"/>
      <path class="cls-11" d="M976.87,676.85l34.37,2.23c1.7.12,3.05,1.47,3.17,3.17l1.64,29.85c.12,1.88-1.41,3.52-3.28,3.58l-84.16,2.93,32.67-5.57c1.82-.35,3.28-1.58,3.87-3.34l10.03-31.96c.53-.29,1.11-.59,1.7-.88h0Z"/>
      <path class="cls-12" d="M223.42,679.43c.53.41,1.11.76,1.7,1.11l.41,25.04c.12,7.39-5.86,13.43-13.25,13.43h-11.2l-.06-40.06,22.4.47h0Z"/>
      <path class="cls-2" d="M194.82,710.82c-.02,2.63-2.13,4.8-4.8,4.82l-49.5.09c-2.67.02-4.84-2.15-4.82-4.8l-.04-21.58c.02-2.63,2.13-4.8,4.8-4.82l49.5-.09c2.67-.02,4.84,2.15,4.82,4.8l.04,21.58h0Z"/>
      <path class="cls-13" d="M1189.3,760.48l-48.21-.06c-3.46-17.18-3.05-34.07,1.23-50.79.29-1.11,1.29-1.94,2.46-1.94h44.04c1.06,0,1.88.82,1.82,1.88l-1.35,50.91h0Z"/>
      <path class="cls-6" d="M1353.28,715.44c-13.78,13.78-20.53,28.44-20.18,44.04-12.67,12.84-19.35,28.39-20.06,46.62l-33.78.35-12.49.47.65-45.75,38,.53c2.64.06,4.81-2.11,4.87-4.75,0-7.51-.35-16.42-1.11-26.69-.23-3.23.23-5.28,1.47-6.1.82-.59,1.88-.82,3.11-.7,1.52.18,3.11-.53,3.99-1.82,1.64-2.4,3.81-3.93,6.51-4.63l29.03-1.58h0Z"/>
      <path class="cls-1" d="M1141.09,760.43l48.21.06,71.02-.59c2.05,1.94,4.46,2.4,7.1,1.29l-.65,45.75c-5.57,1.47-8.21,5.45-7.92,11.96.06,1.7-1.23,3.17-2.93,3.23l-24.4.94-280.98-.65c-8.56-4.75-15.72-7.27-21.41-7.45-12.08-.53-24.16-1.58-36.24-3.17-.94-.12-1.23-1.41-.41-1.88,18.94-11.32,20.59-27.56,4.87-48.74l28.5-.65,85.45-.29c2.17,0,3.93-1.76,3.93-3.99v-36.6c0-1.53,1.23-2.76,2.76-2.76h34.25c1.41,0,2.52,1.11,2.52,2.52v38.59c0,1.7,1.41,3.11,3.11,3.11l83.22-.7h0Z"/>
      <path class="cls-6" d="M490.62,719.49l85.16-.18c.23.76.35,1.52.35,2.17.06,1.94-1.52,3.58-3.52,3.58h-129.14c-.7,0-1.35-.47-1.47-1.17-.29-1.52.29-2.87,1.7-4.11l46.92-.29h0Z"/>
      <path class="cls-3" d="M822.39,761.95l.53,58.12c0,.65.23,1.29.7,1.76l1.17,1.29c-1.64.65-3.11.76-4.34.47-7.8,1.41-11.67-.18-11.49-4.69.65-19.12,1.29-38.3,1.94-57.53l11.5.59h0Z"/>
      <path class="cls-15" d="M897.35,761.19c15.72,21.17,14.08,37.42-4.87,48.74-.82.47-.53,1.76.41,1.88,12.08,1.58,24.16,2.64,36.24,3.17,5.69.18,12.84,2.7,21.41,7.45l-125.74.7-1.17-1.29c-.47-.47-.7-1.11-.7-1.76l-.53-58.12,74.95-.76h0Z"/>
      <path class="cls-9" d="M950.54,822.42l280.98.65c-7.57,8.21-9.85,14.96-6.86,20.23,1.58,2.76-.18,6.22-3.34,6.63-22.23,2.58-43.05,3.64-62.46,3.23-26.45-.59-80.99-.18-163.63,1.23-26.57.47-55.77.29-87.62-.47-32.78-.82-61.99-1.64-87.62-2.46-6.57-.23-11.38-5.86-10.2-11.91.88-4.34-.35-8.86-3.75-13.61,5.22.59,10.03-.18,14.43-2.35,1.23.29,2.7.18,4.34-.47l125.74-.7h0Z"/>
    </g>
  </g>
</svg>