<?xml version="1.0" encoding="UTF-8"?>
<svg id="Layer_2" data-name="Layer 2" xmlns="http://www.w3.org/2000/svg" viewBox="0 0 348.59 349.14">
  <defs>
    <style>
      .cls-1 {
        fill: #010101;
      }

      .cls-2 {
        fill: #5f5f5f;
      }

      .cls-3 {
        fill: #4c4c4b;
      }

      .cls-4 {
        fill: #868686;
      }

      .cls-5 {
        fill: #faac01;
      }

      .cls-6 {
        fill: #fcf771;
      }

      .cls-7 {
        fill: #9e9d9d;
      }

      .cls-8 {
        fill: #767675;
      }
    </style>
  </defs>
  <g id="_ò__1" data-name="ò‡_1">
    <g>
      <path class="cls-1" d="M347.4,103.32h-10.53c-.65,0-1.19-.54-1.19-1.19v-10.66c0-.65-.54-1.19-1.19-1.19h-10.66c-.65,0-1.19-.54-1.19-1.19v-10.1c0-.65-.54-1.19-1.19-1.19h-10.71c-.65,0-1.19-.54-1.19-1.19v-10.93c0-.65-.54-1.19-1.19-1.19h-10.19c-.65,0-1.19-.54-1.19-1.19v-10.53c0-.65-.54-1.19-1.19-1.19h-10.53c-.65,0-1.19-.54-1.19-1.19v-10.03c0-.65-.54-1.19-1.19-1.19h-11.07c-.65,0-1.19-.54-1.19-1.19v-10.82c0-.65-.54-1.19-1.19-1.19h-10.1c-.65,0-1.19-.54-1.19-1.19v-10.57c0-.65-.54-1.19-1.19-1.19h-10.41c-.65,0-1.19-.54-1.19-1.19V1.19c0-.65-.54-1.19-1.19-1.19h-23.46c-.65,0-1.19.54-1.19,1.19v10.46c0,.65-.54,1.19-1.19,1.19h-10.23c-.65,0-1.19.54-1.19,1.19v10.59c0,.65-.54,1.19-1.19,1.19h-10.89c-.65,0-1.19.54-1.19,1.19v10.5c0,.65-.54,1.19-1.19,1.19h-10.28c-.65,0-1.19.54-1.19,1.19v10.26c0,.65-.54,1.19-1.19,1.19h-11.07c-.65,0-1.19.54-1.19,1.19v62.32c0,.65-.54,1.19-1.19,1.19h-10.41c-.65,0-1.19.54-1.19,1.19v10.93c0,.65-.54,1.19-1.19,1.19h-10.44c-.65,0-1.19.54-1.19,1.19v10.75c0,.65-.54,1.19-1.19,1.19h-11.11c-.65,0-1.19.54-1.19,1.19v10.21c0,.65-.54,1.19-1.19,1.19h-9.87c-.65,0-1.19.54-1.19,1.19v10.53c0,.65-.54,1.19-1.19,1.19h-10.48c-.65,0-1.19.54-1.19,1.19v10.64c0,.65-.54,1.19-1.19,1.19h-10.59c-.65,0-1.19.54-1.19,1.19v10.53c0,.65-.54,1.19-1.19,1.19h-9.92c-.65,0-1.19.54-1.19,1.19v10.41c0,.65-.54,1.19-1.19,1.19h-11.13c-.65,0-1.19.54-1.19,1.19v10.71c0,.65-.54,1.19-1.19,1.19h-10.59c-.65,0-1.19.54-1.19,1.19v10.28c0,.65-.54,1.19-1.19,1.19h-10.03c-.65,0-1.19.54-1.19,1.19v10.66c0,.65-.54,1.19-1.19,1.19h-10.71c-.65,0-1.19.54-1.19,1.19v10.62c0,.65-.54,1.19-1.19,1.19h-10.95c-.65,0-1.19.54-1.19,1.19v10.19c0,.65-.54,1.19-1.19,1.19H1.19c-.65,0-1.19.54-1.19,1.19v37.01c0,.65.54,1.19,1.19,1.19h10.14c.65,0,1.19.54,1.19,1.19v10.21c0,.65.54,1.19,1.19,1.19h10.77c.65,0,1.19.54,1.19,1.19v10.48c0,.65.54,1.19,1.19,1.19h10.5c.65,0,1.19.54,1.19,1.19v10.68c0,.65.54,1.19,1.19,1.19h36.13c.65,0,1.19-.54,1.19-1.19v-10.73c0-.65.54-1.19,1.19-1.19h10.08c.65,0,1.19-.54,1.19-1.19v-10.26c0-.65.54-1.19,1.19-1.19h11.36c.65,0,1.19-.54,1.19-1.19v-10.41c0-.65.54-1.19,1.19-1.19h10.1c.65,0,1.19-.54,1.19-1.19v-11c0-.65.54-1.19,1.19-1.19h10.37c.65,0,1.19-.54,1.19-1.19v-10.26c0-.65.54-1.19,1.19-1.19h11.02c.65,0,1.19-.54,1.19-1.19v-10.59c0-.65.54-1.19,1.19-1.19h10.37c.65,0,1.19-.54,1.19-1.19v-10.39c0-.65.54-1.19,1.19-1.19h10.12c.65,0,1.19-.54,1.19-1.19v-10.66c0-.65.54-1.19,1.19-1.19h10.86c.65,0,1.19-.54,1.19-1.19v-10.68c0-.65.54-1.19,1.19-1.19h10.66c.65,0,1.19-.54,1.19-1.19v-10.32c0-.65.54-1.19,1.19-1.19h10.5c.65,0,1.19-.54,1.19-1.19v-10.46c0-.65.54-1.19,1.19-1.19h10.57c.65,0,1.19-.54,1.19-1.19v-10.82c0-.65.54-1.19,1.19-1.19h9.92c.65,0,1.19-.54,1.19-1.19v-10.5c0-.65.54-1.19,1.19-1.19h62.3c.65,0,1.19-.54,1.19-1.19v-10.57c0-.65.54-1.19,1.19-1.19h10.84c.65,0,1.19-.54,1.19-1.19v-10.17c0-.65.54-1.19,1.19-1.19h10.55c.65,0,1.19-.54,1.19-1.19v-10.48c0-.65.54-1.19,1.19-1.19h10.5c.65,0,1.19-.54,1.19-1.19v-10.59c0-.65.54-1.19,1.19-1.19h10.75c.65,0,1.19-.54,1.19-1.19v-23.91c0-.65-.54-1.19-1.19-1.19ZM77.11,321.75c0,1.28-1.06,2.32-2.34,2.28l-8.41-.27c-1.01-.05-1.87.79-1.87,1.83v8.84c0,.92-.77,1.69-1.69,1.69h-9.67c-.97,0-1.76-.79-1.76-1.78v-9.58c0-.79-.65-1.44-1.47-1.44h-8.9c-1.15,0-2.1-.88-2.16-2.03-.07-1.01-.02-4.28.16-9.85,0-.2-.18-.5-.54-.86-.36-.36-.65-.56-.83-.54-5.57.11-8.86.14-9.87.05-1.13-.09-2.01-1.06-2.01-2.19l.11-8.9c0-.81-.63-1.49-1.42-1.49l-9.58-.11c-.99,0-1.78-.81-1.76-1.78l.09-9.67c.02-.92.79-1.67,1.71-1.67l8.84.11c1.04,0,1.87-.83,1.85-1.85l-.18-8.43c-.02-1.28,1.04-2.32,2.32-2.3l9.51.09c.92.02,1.67.77,1.67,1.69l-.11,9.38c-.02,1.04.81,1.89,1.85,1.89l9.44.11c.86,0,1.53.7,1.53,1.56.02,3.52.16,6.67.38,9.42,0,.16.18.41.52.74.32.32.56.5.72.52,2.75.25,5.88.41,9.42.47.86.02,1.53.7,1.53,1.56v9.44c0,1.04.83,1.87,1.87,1.87h9.38c.92,0,1.67.77,1.67,1.69v9.51ZM219.49,179.84c0,.92-.77,1.69-1.69,1.65l-9.58-.32c-1.08-.02-1.96.81-1.98,1.87l-.29,9.02c-.05.9-.79,1.6-1.69,1.6h-9.31c-.79,0-1.44.65-1.44,1.46v10.66c0,.63-.54,1.15-1.19,1.13l-9.87-.32c-.97-.05-1.76.72-1.8,1.69l-.34,10.37c-.02.61-.52,1.08-1.13,1.08h-10.1c-1.08,0-1.96.88-1.96,1.96v9.83c0,.86-.72,1.56-1.58,1.51l-8.07-.25c-1.19-.05-2.21.9-2.25,2.12l-.29,8.72c-.02.83-.72,1.51-1.56,1.51l-9.87-.09c-1.26.65-1.87,2.12-1.85,4.4.07,4.06.09,6.38.07,6.94-.05.74-.61,1.33-1.33,1.4-2.23.18-4.73.23-7.51.16-6.78-.2-4.1,8.29-4.33,11.31-.09,1.33-1.33,2.28-2.64,2.01-3.31-.65-6.24-.43-8.79.63-.88.36-1.46,1.22-1.51,2.19l-.32,9.58c-.02.7-.61,1.24-1.31,1.22l-7.6-.25c-1.51-.04-2.77,1.13-2.82,2.64l-.27,8.16c-.04,1.06-.9,1.89-1.96,1.89h-9.47c-.99,0-1.78.79-1.83,1.78l-.29,8.74c-.05,1.22-1.04,2.19-2.25,2.19h-7.89c-1.17,0-2.1-.95-2.12-2.12l-.14-9.96-1.06-11.97c-.07-.81-.77-1.44-1.58-1.44h-8.34c-.83,0-1.53-.68-1.58-1.51l-.47-11.5-11.65.05c-.81.02-1.47-.63-1.47-1.44v-23.28c0-.81.68-1.44,1.49-1.42l10.46.34c.81.02,1.49-.63,1.49-1.44v-10.21c0-.74.59-1.33,1.33-1.33h10.01c.74,0,1.33-.59,1.33-1.33v-10.01c0-.86.68-1.56,1.53-1.56h10.08c.61,0,1.1-.5,1.1-1.1v-11.11c0-.68.56-1.24,1.24-1.24h10.03c.81,0,1.47-.68,1.47-1.49v-9.49c0-.81.65-1.47,1.47-1.47h10.68c.56,0,1.01-.45,1.01-1.01v-10.08c0-.95.77-1.71,1.71-1.71h10.21c.7,0,1.28-.59,1.28-1.28v-10.46c0-.74.59-1.33,1.33-1.33h10.41c.79,0,1.42-.63,1.42-1.4v-9.99c0-.83.68-1.49,1.51-1.46l9.26.29c.83.05,1.51-.61,1.51-1.44v-10.75c0-.7.59-1.28,1.28-1.28h10.59c.56,0,1.04-.47,1.04-1.04v-9.71c0-.72.5-1.35,1.19-1.53,1.83-.45,3.85-.5,6.06-.11,1.8-.36,3.67-.29,5.64.18l11.34.13c1.06.02,1.89.86,1.89,1.92v8.25c0,1.94,1.74,3.43,3.65,3.13,4.62-.7,7.35-.29,8.2,1.26.23.38.43.79.61,1.17.11.23.29,2.37.59,6.4.14,1.65,1.49,2.95,3.13,3l6.87.23c1.58.07,2.82,1.35,2.82,2.93v21.55ZM296.98,153.7c0,.99-.81,1.78-1.8,1.74l-9.53-.32c-.92-.02-1.67.7-1.67,1.62v9.65c0,.72-.59,1.31-1.31,1.31h-49c-.7,0-1.26-.56-1.26-1.24v-10.98l-11.07-.25c-1.1-.02-1.98-.92-1.98-2.03v-9.69c0-.77-.63-1.4-1.4-1.4h-9.33c-1.28,0-2.34-1.06-2.34-2.34v-8.77c0-.79-.65-1.44-1.44-1.44h-9.11c-.83,0-1.51-.68-1.56-1.51-.25-4.89-.36-8.02-.29-9.38.07-1.6-1.31-2.52-4.12-2.82-2.5.59-5.16.56-8.02-.09-.59-.14-1.01-.65-1.01-1.24v-48.75c0-.74.61-1.35,1.35-1.35h10.17c.7,0,1.28-.59,1.28-1.28v-9.47c0-.99.81-1.78,1.8-1.78h9.9c1.08,0,1.94.88,1.89,1.94l-.32,9.44c-.02.77.61,1.42,1.37,1.42h9.83c1.1,0,2.03.9,2.05,2.01l.29,10.39,10.35.68c.74.05,1.33.68,1.33,1.42v10.1c0,.86.68,1.53,1.53,1.53h10.5c.83,0,1.51.68,1.51,1.53v9.58c0,.92.77,1.69,1.69,1.69h9.38c.86,0,1.56.7,1.56,1.56v9.62c0,.88.7,1.6,1.58,1.6h9.33c.92,0,1.69.77,1.69,1.69v8.93c0,1.13.9,2.03,2.03,2.07l9.76.34c.77.02,1.37.65,1.37,1.42l-.02,10.77c3.74,1.13,7.42,1.49,11,1.1,1.1-.11,2.05.72,2.05,1.83v9.15ZM322.38,128.5c-.02.18,0,.11-.2.32-.2.2-.14.2-.32.2-6.15.16-14.11.16-23.89-.02-.63,0-1.15-.52-1.15-1.17v-9.89c0-.95-.77-1.74-1.74-1.74h-9.56c-.79,0-1.44-.63-1.44-1.44v-9.71c0-.81-.68-1.47-1.49-1.47h-9.89c-.86,0-1.53-.7-1.53-1.56v-9.71c0-.9-.7-1.67-1.6-1.71-2.68-.18-5.39-.2-8.11-.05-1.62.09-2.61-.05-3-.43-.38-.38-.54-1.37-.43-3,.16-2.73.14-5.43-.05-8.11-.07-.9-.81-1.6-1.71-1.6h-9.71c-.86,0-1.56-.68-1.56-1.53v-9.9c0-.81-.68-1.49-1.49-1.49h-9.71c-.79,0-1.44-.65-1.44-1.44v-9.56c0-.97-.77-1.74-1.74-1.74h-9.9c-.63,0-1.15-.52-1.17-1.15-.18-9.76-.18-17.72-.02-23.87,0-.18,0-.14.2-.34.2-.2.14-.18.32-.18,6.15-.18,14.11-.18,23.89,0,.63.02,1.15.54,1.15,1.17v9.89c0,.97.77,1.74,1.74,1.74h9.56c.79,0,1.44.65,1.44,1.44v9.71c0,.81.65,1.49,1.49,1.49h9.89c.83,0,1.53.7,1.53,1.56v9.71c0,.9.7,1.65,1.6,1.71,2.68.18,5.39.18,8.11.02,1.62-.09,2.61.04,3,.43s.52,1.4.43,3c-.16,2.75-.14,5.45.05,8.11.07.9.81,1.6,1.71,1.6h9.71c.86,0,1.56.7,1.56,1.53v9.89c0,.83.65,1.49,1.49,1.49h9.71c.79,0,1.44.65,1.44,1.44v9.56c0,.97.77,1.74,1.74,1.74h9.89c.63,0,1.15.52,1.17,1.15.18,9.78.18,17.74.02,23.89Z"/>
      <path class="cls-6" d="M321.19,103.46h-9.89c-.97,0-1.74-.77-1.74-1.74v-9.56c0-.79-.65-1.44-1.44-1.44h-9.71c-.83,0-1.49-.65-1.49-1.49v-9.89c0-.83-.7-1.53-1.56-1.53h-9.71c-.9,0-1.65-.7-1.71-1.6-.18-2.66-.2-5.36-.05-8.11.09-1.6-.05-2.61-.43-3s-1.38-.52-3-.43c-2.73.16-5.43.16-8.11-.02-.9-.07-1.6-.81-1.6-1.71v-9.71c0-.86-.7-1.56-1.53-1.56h-9.89c-.83,0-1.49-.68-1.49-1.49v-9.71c0-.79-.65-1.44-1.44-1.44h-9.56c-.97,0-1.74-.77-1.74-1.74v-9.89c0-.63-.52-1.15-1.15-1.17-9.78-.18-17.74-.18-23.89,0-.18,0-.11-.02-.32.18-.2.2-.2.16-.2.34-.16,6.15-.16,14.11.02,23.87.02.63.54,1.15,1.17,1.15h9.9c.97,0,1.74.77,1.74,1.74v9.56c0,.79.65,1.44,1.44,1.44h9.71c.81,0,1.49.68,1.49,1.49v9.9c0,.86.7,1.53,1.56,1.53h9.71c.9,0,1.65.7,1.71,1.6.18,2.68.2,5.39.05,8.11-.11,1.62.05,2.61.43,3,.38.38,1.38.52,3,.43,2.73-.16,5.43-.14,8.11.05.9.04,1.6.81,1.6,1.71v9.71c0,.86.68,1.56,1.53,1.56h9.89c.81,0,1.49.65,1.49,1.47v9.71c0,.81.65,1.44,1.44,1.44h9.56c.97,0,1.74.79,1.74,1.74v9.89c0,.65.52,1.17,1.15,1.17,9.78.18,17.74.18,23.89.02.18,0,.11,0,.32-.2.2-.2.18-.14.2-.32.16-6.15.16-14.11-.02-23.89-.02-.63-.54-1.15-1.17-1.15Z"/>
      <path class="cls-7" d="M202.25,114.32c.99.27,1.98-.38,2.14-1.4l4.53-30.07c.27-1.69,1.51-3.09,3.16-3.52l8.27-2.25-.29-10.39c-.02-1.1-.95-2.01-2.05-2.01h-9.83c-.77,0-1.4-.65-1.37-1.42l.32-9.44c.05-1.06-.81-1.94-1.89-1.94h-9.9c-.99,0-1.8.79-1.8,1.78v9.47c0,.7-.59,1.28-1.28,1.28h-10.17c-.74,0-1.35.61-1.35,1.35v48.75c0,.59.43,1.1,1.01,1.24,2.86.65,5.52.68,8.02.09,2.64-2.57,6.81-3.09,12.49-1.53Z"/>
      <path class="cls-4" d="M270.63,151.26c.27-.92.32-2.12.16-3.56-.29-2.68,1.8-5,4.49-5,3.29,0,6.18-.36,8.66-1.08l.02-10.77c0-.77-.61-1.4-1.37-1.42l-9.76-.34c-1.13-.05-2.03-.95-2.03-2.07v-8.93c0-.92-.77-1.69-1.69-1.69h-9.33c-.88,0-1.58-.72-1.58-1.6v-9.62c0-.86-.7-1.56-1.56-1.56h-9.38c-.92,0-1.69-.77-1.69-1.69v-9.58c0-.86-.68-1.53-1.51-1.53h-10.5c-.86,0-1.53-.68-1.53-1.53v-10.1c0-.74-.59-1.38-1.33-1.42l-10.35-.68-8.27,2.25c-1.65.43-2.88,1.83-3.16,3.52l-4.53,30.07c-.16,1.01-1.15,1.67-2.14,1.4-5.68-1.56-9.85-1.04-12.49,1.53,2.82.29,4.19,1.22,4.12,2.82-.07,1.35.05,4.49.29,9.38.05.83.72,1.51,1.56,1.51h9.11c.79,0,1.44.65,1.44,1.44v8.77c0,1.28,1.06,2.34,2.34,2.34h9.33c.77,0,1.4.63,1.4,1.4v9.69c0,1.1.88,2.01,1.98,2.03l11.07.25,34.67-1.44c1.69-.09,3.13-1.19,3.56-2.77Z"/>
      <path class="cls-7" d="M69.33,258.03l5.18-1.08c.92-.2,1.58-1.01,1.58-1.94v-7.69c0-1.15.95-2.1,2.1-2.1h7.84c1.62,0,2.95-1.33,2.95-2.95v-8.36c0-1.13.88-2.07,2.01-2.19l7.01-.61c2.21-.18,3.92-2.05,3.92-4.28v-4.31c0-1.1.83-2.01,1.94-2.1l8.61-.77c1.65-.14,2.91-1.51,2.91-3.18v-7.57c0-.83.63-1.53,1.49-1.62l12.19-1.24-.02-11.16c0-.79.65-1.44,1.44-1.44h10.05c.68,0,1.24-.56,1.24-1.24v-9.8c0-.88.72-1.6,1.62-1.6h9.04c.88,0,1.58-.72,1.58-1.6v-9.47c0-1.24,1.01-2.25,2.25-2.25h10.14c.68,0,1.24-.56,1.24-1.24v-9.33c0-.68.52-1.22,1.17-1.26l9.47-.54c.47-9.13-.72-17.6-3.54-25.42-2.21-.38-4.24-.34-6.06.11-.7.18-1.19.81-1.19,1.53v9.71c0,.56-.47,1.04-1.04,1.04h-10.59c-.7,0-1.28.59-1.28,1.28v10.75c0,.83-.68,1.49-1.51,1.44l-9.26-.29c-.83-.02-1.51.63-1.51,1.46v9.99c0,.77-.63,1.4-1.42,1.4h-10.41c-.74,0-1.33.59-1.33,1.33v10.46c0,.7-.59,1.28-1.28,1.28h-10.21c-.95,0-1.71.77-1.71,1.71v10.08c0,.56-.45,1.01-1.01,1.01h-10.68c-.81,0-1.47.65-1.47,1.47v9.49c0,.81-.65,1.49-1.47,1.49h-10.03c-.68,0-1.24.56-1.24,1.24v11.11c0,.61-.5,1.1-1.1,1.1h-10.08c-.86,0-1.53.7-1.53,1.56v10.01c0,.74-.59,1.33-1.33,1.33h-10.01c-.74,0-1.33.59-1.33,1.33v10.21c0,.81-.68,1.46-1.49,1.44l-10.46-.34c-.81-.02-1.49.61-1.49,1.42v23.28c0,.81.65,1.47,1.47,1.44l11.65-.05.77-8.7c.2-2.37,1.92-4.33,4.24-4.8Z"/>
      <path class="cls-4" d="M178.29,155.12c2.01,2.32,2.73,6.11,2.19,11.41-.09.74.5,1.37,1.24,1.37h10.5c.79,0,1.44.63,1.46,1.44l.27,7.44.34,1.78c.14.72.77,1.26,1.51,1.26h7.73c.88,0,1.6-.72,1.6-1.6v-20.49c0-.88-.72-1.58-1.6-1.58h-6.6c-1.42,0-2.64-1.04-2.84-2.43l-1.8-12.26c-.14-.81-.95-1.33-1.74-1.06l-7.51,2.41c-1.19.38-2.43-.5-2.46-1.76l-.2-11.18c-1.96-.47-3.83-.54-5.64-.18,2.82,7.82,4.01,16.3,3.54,25.42Z"/>
      <path class="cls-8" d="M216.67,155.36l-6.87-.23c-1.65-.05-3-1.35-3.13-3-.29-4.03-.47-6.18-.59-6.4-.18-.38-.38-.79-.61-1.17-.86-1.56-3.58-1.96-8.2-1.26-1.92.29-3.65-1.19-3.65-3.13v-8.25c0-1.06-.83-1.89-1.89-1.92l-11.34-.13.2,11.18c.02,1.26,1.26,2.14,2.46,1.76l7.51-2.41c.79-.27,1.6.25,1.74,1.06l1.8,12.26c.2,1.4,1.42,2.43,2.84,2.43h6.6c.88,0,1.6.7,1.6,1.58v20.49c0,.88-.72,1.6-1.6,1.6h-7.73c-.74,0-1.37-.54-1.51-1.26l-.34-1.78c.09.97.02,1.94-.23,2.86-.2.77-.88,1.28-1.65,1.28h-9.6c-.72,0-1.31.59-1.31,1.31v9.62c0,.65-.54,1.19-1.22,1.19h-11.22c-.36,0-.68-.2-.83-.52-.11-.25-.2-.47-.27-.65-.36.77-.65,1.13-.9,1.08,1.01,4.03,1.28,8.25.83,12.62-.09.86-.79,1.49-1.65,1.49h-10.03c-.74,0-1.33.59-1.33,1.31v9.94c0,.68-.56,1.24-1.24,1.24l-10.53.16c.83,9.92-1.44,18.48-6.81,25.67l7.51-.34,9.87.09c.83,0,1.53-.68,1.56-1.51l.29-8.72c.05-1.22,1.06-2.16,2.25-2.12l8.07.25c.86.05,1.58-.65,1.58-1.51v-9.83c0-1.08.88-1.96,1.96-1.96h10.1c.61,0,1.1-.47,1.13-1.08l.34-10.37c.05-.97.83-1.74,1.8-1.69l9.87.32c.65.02,1.19-.5,1.19-1.13v-10.66c0-.81.65-1.46,1.44-1.46h9.31c.9,0,1.65-.7,1.69-1.6l.29-9.02c.02-1.06.9-1.89,1.98-1.87l9.58.32c.92.05,1.69-.72,1.69-1.65v-21.55c0-1.58-1.24-2.86-2.82-2.93Z"/>
      <path class="cls-2" d="M294.93,142.72c-3.58.38-7.26.02-11-1.1-2.48.72-5.36,1.08-8.66,1.08-2.68,0-4.78,2.32-4.49,5,.16,1.44.11,2.64-.16,3.56-.43,1.58-1.87,2.68-3.56,2.77l-34.67,1.44v10.98c0,.68.56,1.24,1.26,1.24h49c.72,0,1.31-.59,1.31-1.31v-9.65c0-.92.74-1.65,1.67-1.62l9.53.32c.99.05,1.8-.74,1.8-1.74v-9.15c0-1.1-.95-1.94-2.05-1.83Z"/>
      <path class="cls-1" d="M192.22,167.9h-10.5c-.74,0-1.33-.63-1.24-1.37.54-5.3-.18-9.08-2.19-11.41l-9.47.54c-.65.05-1.17.59-1.17,1.26v9.33c0,.68-.56,1.24-1.24,1.24h-10.14c-1.24,0-2.25,1.01-2.25,2.25v9.47c0,.88-.7,1.6-1.58,1.6h-9.04c-.9,0-1.62.72-1.62,1.6v9.8c0,.68-.56,1.24-1.24,1.24h-10.05c-.79,0-1.44.65-1.44,1.44l.02,11.16.09,12.31c.02.65.56,1.19,1.22,1.19l12.42.16,10.53-.16c.68,0,1.24-.56,1.24-1.24v-9.94c0-.72.59-1.31,1.33-1.31h10.03c.86,0,1.56-.63,1.65-1.49.45-4.37.18-8.59-.83-12.62l-10.71.63c-.77.05-1.42-.59-1.42-1.38v-9.78c0-.7.56-1.28,1.26-1.28h9.87c.97,0,1.74.77,1.76,1.71l.14,9.02c.07.18.16.41.27.65.16.32.47.52.83.52h11.22c.68,0,1.22-.54,1.22-1.19v-9.62c0-.72.59-1.31,1.31-1.31h9.6c.77,0,1.44-.52,1.65-1.28.25-.92.32-1.89.23-2.86l-.27-7.44c-.02-.81-.68-1.44-1.46-1.44ZM154.13,205.24c-.01.88-.73,1.55-1.61,1.54l-8.88-.2c-.88-.01-1.55-.73-1.54-1.61l.2-8.88c.01-.88.73-1.56,1.61-1.54l8.88.2c.88.01,1.56.73,1.54,1.61l-.2,8.88Z"/>
      <path class="cls-5" d="M165.73,181.15h-9.87c-.7,0-1.26.59-1.26,1.28v9.78c0,.79.65,1.42,1.42,1.38l10.71-.63c.25.05.54-.32.9-1.08l-.14-9.02c-.02-.95-.79-1.71-1.76-1.71Z"/>
      <path class="cls-3" d="M152.8,194.75l-8.88-.2c-.88-.01-1.6.66-1.61,1.54l-.2,8.88c-.01.88.66,1.6,1.54,1.61l8.88.2c.88.01,1.6-.66,1.61-1.54l.2-8.88c.01-.88-.66-1.6-1.54-1.61Z"/>
      <path class="cls-4" d="M89.75,296.17l1.08-7.17c.16-1.04.95-1.85,1.96-2.07l8.57-1.8c.9-.18,1.65-.79,2.01-1.6l4.26-9.58c.23-.52.68-.9,1.22-1.08l6.36-2.07c.88-.27,1.49-1.06,1.51-1.98.25-5.82,3.43-9.51,9.53-11.09.68-.18,1.24-.65,1.53-1.28l3.54-7.98c.09-.2.25-.36.43-.47l4.24-2.59c5.36-7.19,7.64-15.75,6.81-25.67l-12.42-.16c-.65,0-1.19-.54-1.22-1.19l-.09-12.31-12.19,1.24c-.86.09-1.49.79-1.49,1.62v7.57c0,1.67-1.26,3.04-2.91,3.18l-8.61.77c-1.1.09-1.94.99-1.94,2.1v4.31c0,2.23-1.71,4.1-3.92,4.28l-7.01.61c-1.13.11-2.01,1.06-2.01,2.19v8.36c0,1.62-1.33,2.95-2.95,2.95h-7.84c-1.15,0-2.1.95-2.1,2.1v7.69c0,.92-.65,1.74-1.58,1.94l-5.18,1.08c-2.32.47-4.03,2.43-4.24,4.8l-.77,8.7.47,11.5c.05.83.74,1.51,1.58,1.51h8.34c.81,0,1.51.63,1.58,1.44l1.06,11.97,10.12.16c1.13.02,2.12-.81,2.28-1.94Z"/>
      <path class="cls-2" d="M131.74,247.98c-.18.11-.34.27-.43.47l-3.54,7.98c-.29.63-.86,1.1-1.53,1.28-6.11,1.58-9.29,5.27-9.53,11.09-.02.92-.63,1.71-1.51,1.98l-6.36,2.07c-.54.18-.99.56-1.22,1.08l-4.26,9.58c-.36.81-1.1,1.42-2.01,1.6l-8.57,1.8c-1.01.23-1.8,1.04-1.96,2.07l-1.08,7.17c-.16,1.13-1.15,1.96-2.28,1.94l-10.12-.16.14,9.96c.02,1.17.95,2.12,2.12,2.12h7.89c1.22,0,2.21-.97,2.25-2.19l.29-8.74c.05-.99.83-1.78,1.83-1.78h9.47c1.06,0,1.92-.83,1.96-1.89l.27-8.16c.05-1.51,1.31-2.68,2.82-2.64l7.6.25c.7.02,1.28-.52,1.31-1.22l.32-9.58c.05-.97.63-1.83,1.51-2.19,2.55-1.06,5.48-1.28,8.79-.63,1.31.27,2.55-.68,2.64-2.01.23-3.02-2.46-11.52,4.33-11.31,2.77.07,5.27.02,7.51-.16.72-.07,1.28-.65,1.33-1.4.02-.56,0-2.89-.07-6.94-.02-2.28.59-3.74,1.85-4.4l-7.51.34-4.24,2.59Z"/>
      <path class="cls-8" d="M75.44,310.55h-9.38c-1.04,0-1.87-.83-1.87-1.87v-9.44c0-.86-.68-1.53-1.53-1.56-3.54-.07-6.67-.23-9.42-.47-.16-.02-.41-.2-.72-.52-.34-.34-.52-.59-.52-.74-.23-2.75-.36-5.91-.38-9.42,0-.86-.68-1.56-1.53-1.56l-9.44-.11c-1.04,0-1.87-.86-1.85-1.89l.11-9.38c0-.92-.74-1.67-1.67-1.69l-9.51-.09c-1.28-.02-2.34,1.01-2.32,2.3l.18,8.43c.02,1.01-.81,1.85-1.85,1.85l-8.84-.11c-.92,0-1.69.74-1.71,1.67l-.09,9.67c-.02.97.77,1.78,1.76,1.78l9.58.11c.79,0,1.42.68,1.42,1.49l-.11,8.9c0,1.13.88,2.1,2.01,2.19,1.01.09,4.3.07,9.87-.05.18-.02.47.18.83.54.36.36.54.65.54.86-.18,5.57-.23,8.84-.16,9.85.07,1.15,1.01,2.03,2.16,2.03h8.9c.81,0,1.47.65,1.47,1.44v9.58c0,.99.79,1.78,1.76,1.78h9.67c.92,0,1.69-.77,1.69-1.69v-8.84c0-1.04.86-1.87,1.87-1.83l8.41.27c1.28.05,2.34-.99,2.34-2.28v-9.51c0-.92-.74-1.69-1.67-1.69Z"/>
    </g>
  </g>
</svg>