<?xml version="1.0" encoding="UTF-8"?>
<svg id="Layer_2" data-name="Layer 2" xmlns="http://www.w3.org/2000/svg" viewBox="0 0 1183.75 1578.42">
  <defs>
    <style>
      .cls-1 {
        fill: #26375a;
      }

      .cls-2 {
        fill: #18274a;
      }

      .cls-3 {
        fill: #fefee5;
      }

      .cls-4 {
        fill: #566378;
      }

      .cls-5 {
        fill: #4b5770;
      }

      .cls-6 {
        fill: #f67152;
      }

      .cls-7 {
        fill: #ffea98;
      }

      .cls-8 {
        fill: #08122b;
      }

      .cls-9 {
        fill: #b2530c;
      }

      .cls-10 {
        fill: #949ea5;
      }

      .cls-11 {
        fill: #03030b;
      }

      .cls-12 {
        fill: #091020;
      }

      .cls-13 {
        fill: #687a98;
      }

      .cls-14 {
        fill: #bfc2c0;
      }

      .cls-15 {
        fill: #384250;
      }

      .cls-16 {
        fill: #eae7d1;
      }

      .cls-17 {
        fill: #1e2632;
      }

      .cls-18 {
        fill: #3e4c69;
      }

      .cls-19 {
        fill: #060715;
      }

      .cls-20 {
        fill: #f1cd70;
      }

      .cls-21 {
        fill: #828582;
      }
    </style>
  </defs>
  <g id="_Слой_1" data-name="Слой 1">
    <g>
      <path class="cls-1" d="M1096.25,53.02c-1.7,20.82-2.52,42.4-2.46,64.63.12,36.01.29,72.02.59,108.03.29,37.36-1.82,90.96-.06,136.59-3.46,1.17-6.16,1.06-8.09-.41-.47-.35-.7-.88-.7-1.47.7-59.06.76-157.59.23-295.53-.06-3.23,1.47-6.45,4.52-9.56.94-1,.23-2.58-1.11-2.58l-108.09,1.76-6.39.65c4.4-2.64,6.28-7.8,5.51-15.48-.23-1.94.82-3.81,2.52-4.69,11.03-5.87,17.71-14.96,20-27.33.82-4.4,4.63-7.62,9.09-7.62h67.91c2.11,0,3.99,1.47,4.52,3.58.94,4.05,3.87,7.8,8.8,11.32,1.94,1.41,3.11,3.69,3.11,6.1l.12,32.02h0Z"/>
      <path class="cls-18" d="M974.67,55.13l6.39-.65-4.52,11.26c-.88,2.17-3.28,3.34-5.51,2.64l-5.28-1.58c-1.58-.47-3.28.41-3.75,1.99l-.76,2.7c-.47,1.58.88,3.11,2.52,2.81l5.28-.94c1.53-.29,3.11.53,3.75,1.99,1.7,3.75,4.87,6.63,9.44,8.68,1.7.76,1.17,3.34-.7,3.34h-29.21c-3.05,0-5.45,2.52-5.28,5.57l.76,13.55c.12,2.23-1.64,4.11-3.93,4.11h-10.85c-1.99,0-3.81,1.29-4.4,3.23l-2.05,6.92c-.65,2.05-2.52,3.46-4.69,3.46h-26.22c-.65,0-1.23.59-1.17,1.23l.12,1.7c0,.23.18.41.41.41l27.92,1.29c1.82.12,2.76,2.17,1.64,3.58l-3.11,4.05c-1.7,2.11-4.28,3.23-6.98,2.99-8.04-.76-14.19-.47-18.47.94-1.82.59-2.93,2.35-2.76,4.28,1.47,14.13-.94,27.74-7.1,40.88-.76,1.64-2.4,2.7-4.22,2.7h-42.11c-2.93,0-5.28-2.4-5.28-5.34v-39.94c0-1.76-1.47-3.23-3.23-3.23h-184.04c-1.88,0-3.34,1.58-3.23,3.46l2.17,39.35c.12,2.11-1.76,3.81-3.87,3.52-10.38-1.35-20.7-1.94-31.08-1.76-1.64.06-3.11-.41-4.34-1.41-1.23-1-1.99-2.29-2.29-3.87l5.75-30.85c.65-3.34-1.76-6.57-5.16-6.8l-8.91-.76c-1.35-7.45-1.53-14.6-.47-21.35.47-2.7-1.06-5.34-3.58-6.39-18.01-7.33-28.44-6.51-31.44,2.58-1.41,4.34-7.68,3.93-8.5-.59l-3.99-22.11c-.47-2.76-2.93-4.63-5.69-4.46-9.21.65-19.47.82-30.79.47-3.05-.12-5.16-3.11-4.22-5.98.65-1.94,1.82-2.64,3.46-2.17,1.88.53,3.46-1.41,2.64-3.11l-9.38-19.41c-1.47-2.99-4.52-4.87-7.8-4.81l-96.71,1.29-1.23-31.96c-.23-5.69.7-10.38,2.87-14.19.88-1.52,2.35-2.58,4.05-2.93,19.82-3.52,38.53-4.46,56.07-2.87,4.93.47,10.03,4.16,15.25,11.03,1.23,1.58,2.99,2.7,4.93,3.05,4.05.88,7.68.29,10.91-1.76,4.34-2.81,9.97.94,9.03,6.04-1.64,8.8-.94,17.59,2.05,26.33.7,2.05,2.52,3.52,4.69,3.75l33.61,3.75c4.98.59,8.39,5.4,7.21,10.32-2.58,10.73,1.64,17.07,12.61,18.94,1.99.35,3.52,1.88,3.93,3.81,1.06,5.75,4.93,7.92,11.61,6.57,1.58-.29,3.23-.18,4.69.41,6.45,2.58,10.44,5.1,12.02,7.51.88,1.35,2.82,1.64,4.11.59.65-.53,2.99-.88,7.04-1,82.93-2.17,175.89-2.4,278.81-.82,1.7,0,5.45.29,11.32.88,10.09,1,18.3,1.47,24.63,1.41,3.05-.06,5.51-2.52,5.51-5.57v-32.84c0-2.17,1.41-4.11,3.46-4.81,14.13-4.87,29.38-6.57,45.63-5.1M598.21,110.08c.29-1.64.12-2.7-.53-3.17-1.23-.88-2.82.53-2.17,1.88.53,1.11.76,1.64.82,1.7.53.76,1.7.47,1.88-.41h0Z"/>
      <path class="cls-8" d="M398.63,22.64l1.23,31.96-.06,180.11-.35,76.65c-1.35,1.11-2.05,1.58-2.17,1.52-1.7-1-2.7-2.76-2.76-4.75l-2.81-251.13c3.93-2.17,6.04-5.92,6.33-11.26.35-7.74.53-15.42.59-23.11h0Z"/>
      <path class="cls-3" d="M1094.32,362.27c12.26,1.52,23.81,1.17,34.78-1.06l.59,7.16c1.35,8.27,2.11,16.54,2.17,24.93.41,47.92.41,95.77.12,143.69,0,1.52-.88,2.52-2.7,2.93l-39.65-1.35c-2.17-.06-3.93,1.64-3.93,3.81v45.69c0,2.4-3.11,3.34-4.46,1.35l-1.94-2.81-.41-47.92v-37.77c0-1.17-.94-2.05-2.11-1.99l-28.33,1.58c-1.64.06-2.87,1.47-2.82,3.11l1.58,36.13c-9.97,2.05-20.17,3.23-30.56,3.4-13.43.23-17.24,9.09-11.55,26.63,2.35,7.1,5.75,11.38,10.15,12.9,2.7.88,10.32,1.17,22.87.82,1.29-.06,2.4,1,2.52,2.29.12,1.94-.65,3.23-2.29,3.99-.59.23-1.29.29-1.94.06-4.98-2.11-11.08-2.82-18.42-2.05-24.22,2.46-47.39,3.69-69.56,3.75-1.82,0-3.46,1.29-3.81,3.11-3.52,17.42-1.29,31.38,6.74,41.93l-8.39,1.41-53.55-.06c-1.64,0-2.99,1.35-2.93,2.93l.53,35.13-2.87,6.22c-11.73-1.94-23.28-2.99-34.72-3.17-64.1-.82-128.2-.76-192.25.23l-26.27-.76c-1.58-.06-2.81-1.29-2.81-2.87v-29.91c0-2.23-1.7-4.05-3.93-4.16l-70.5-3.46,2.05-34.37c.18-2.7-1.82-4.99-4.52-5.22-4.05-.35-7.33-2.23-9.91-5.63-1.41-1.88-3.52-3.11-5.86-3.4-10.97-1.47-20.76-.18-29.5,3.99l-25.04-1.64.23-42.7c.06-3.81-2.58-7.1-6.33-7.92-10.03-2.23-21.05-1.7-33.02,1.52l-1.58-3.23,2.7-48.68c.12-2.23-1.76-4.11-3.99-3.93l-37.95,2.52c-1.64-1.17-2.46-2.4-2.52-3.75-.94-27.62-1.06-64.28-.29-109.97l36.36-1c1.64-.06,2.93-1.35,3.05-2.99l2.35-31.96c9.85,4.4,18.88,4.16,27.15-.59,1.52-.88,2.7-2.35,3.17-4.05,4.28-15.48,5.28-28.5,3.11-39-.35-1.88,1.06-3.58,2.93-3.58h24.28c4.87,0,8.74-4.11,8.39-8.97l-3.4-48.21,50.56-.23c1.76-.06,3.11-1.47,3.05-3.17l-1.41-46.63c-1.99-6.74-4.75-10.38-8.33-10.91-1.23-.18-2.23-1.06-2.52-2.29-.64-2.7-1.23-5.51-1.7-8.45-.23-1.41-1.41-2.58-2.82-2.7-1.41-.12-2.64.76-2.81,2.17-.18,1.29-.29,1.99-.35,2.05-1.58,1.82-3.99,2.7-6.39,2.23l-21.35-4.28c-2.23-.47-3.75-2.58-3.34-4.81.29-1.82.65-5.81,1-12.02.23-3.34-2.58-6.04-5.57-5.4-3.46.76-6.33-.23-8.62-2.99-.12-1.94-.53-3.64-1.23-5.16-.88-2.05-3.11-3.17-5.28-2.76-3.75.7-6.57-.47-8.39-3.52-.35-.65-.53-1.35-.59-2.11l-1.11-19.3c-.12-1.94-1.41-3.58-3.28-4.05-6.57-1.64-14.25-1.82-22.99-.59-8.15,9.68-12.37,18.53-12.67,26.45-1.23,32.9,1.11,49.26-9.03,70.5-.82,1.7-2.4,2.87-4.22,3.17-11.2,1.88-23.05,26.57-26.33,34.13l.06-180.11,96.71-1.29c3.28-.06,6.33,1.82,7.8,4.81l9.38,19.41c.82,1.7-.76,3.64-2.64,3.11-1.64-.47-2.82.23-3.46,2.17-.94,2.87,1.17,5.86,4.22,5.98,11.32.35,21.58.18,30.79-.47,2.76-.18,5.22,1.7,5.69,4.46l3.99,22.11c.82,4.52,7.1,4.93,8.5.59,2.99-9.09,13.43-9.91,31.44-2.58,2.52,1.06,4.05,3.69,3.58,6.39-1.06,6.74-.88,13.9.47,21.35,2.87,7.45,4.05,16.83,3.46,28.27-.18,4.05,1.41,7.39,4.87,10.15.29,1.58,1.06,2.87,2.29,3.87,1.23,1,2.7,1.47,4.34,1.41,10.38-.18,20.7.41,31.08,1.76,2.11.29,3.99-1.41,3.87-3.52l-2.17-39.35c-.12-1.88,1.35-3.46,3.23-3.46h184.04c1.76,0,3.23,1.47,3.23,3.23v39.94c0,2.93,2.35,5.34,5.28,5.34h42.11c1.82,0,3.46-1.06,4.22-2.7,6.16-13.14,8.56-26.74,7.1-40.88-.18-1.94.94-3.69,2.76-4.28,4.28-1.41,10.44-1.7,18.47-.94,2.7.23,5.28-.88,6.98-2.99l3.11-4.05c1.11-1.41.18-3.46-1.64-3.58l-27.92-1.29c-.23,0-.41-.18-.41-.41l-.12-1.7c-.06-.65.53-1.23,1.17-1.23h26.22c2.17,0,4.05-1.41,4.69-3.46l2.05-6.92c.59-1.94,2.4-3.23,4.4-3.23h10.85c2.29,0,4.05-1.88,3.93-4.11l-.76-13.55c-.18-3.05,2.23-5.57,5.28-5.57h29.21c1.88,0,2.4-2.58.7-3.34-4.57-2.05-7.74-4.93-9.44-8.68-.65-1.47-2.23-2.29-3.75-1.99l-5.28.94c-1.64.29-2.99-1.23-2.52-2.81l.76-2.7c.47-1.58,2.17-2.46,3.75-1.99l5.28,1.58c2.23.7,4.63-.47,5.51-2.64l4.52-11.26,108.09-1.76c1.35,0,2.05,1.58,1.11,2.58-3.05,3.11-4.57,6.33-4.52,9.56.53,137.94.47,236.47-.23,295.53,0,.59.23,1.11.7,1.47,1.94,1.47,4.63,1.58,8.09.41M940.6,180.7c-25.63,6.39-21.46,28.33-18.53,51.67.23,1.94,1.23,3.75,2.81,4.93,6.04,4.52,10.56,6.33,13.55,5.45,1.29-.35,2.46.65,2.4,1.94l-1,15.42c-.12,1.76,1,3.4,2.64,3.93,13.9,4.93,28.33,7.27,43.16,7.04,2.93-.06,5.45,2.05,5.98,4.93l1.64,9.32c.47,2.58,2.76,4.46,5.4,4.46h39c.94,0,1.7.76,1.7,1.7v65.04c0,1.94,1.47,3.58,3.4,3.69l31.61,2.05c2.35.18,4.34-1.7,4.34-4.05v-117.12c0-3.46-2.82-6.28-6.28-6.28l-33.31.12.53-128.03c0-1.82-1.29-3.4-3.17-3.81-1.23-.23-2.99.53-5.28,2.29-.82.59-1.76.94-2.7.94h-32.55c-1.23,0-2.23.94-2.29,2.17l-1.82,27.51c-.23,3.69-3.46,6.51-7.16,6.22-14.25-1.11-24.87,0-31.96,3.4-1.23.59-2.64.41-3.58-.47-1.47-1.29-2.87-1.82-4.16-1.64-2.17.35-3.64,2.29-3.4,4.46,1.52,11.32,1.17,22.23-1,32.73M818.67,449.01l-.59,24.63c-.06,2.58,1,5.04,2.82,6.86,3.58,3.46,6.28,7.62,8.21,12.49.88,2.23,2.46,4.11,4.52,5.34,9.33,5.57,19.24,6.74,29.62,3.52l59.7-1.64c1.17-.06,2.23-.88,2.4-2.05.41-2.76-1.64-5.28-6.28-7.51-1.35-.65-2.29-1.94-2.46-3.46-.29-2.58.35-4.46,2.05-5.57.47-.35,1.11-.53,1.7-.53l36.13.53c.82,5.22.65,9.79-.59,13.61-.82,2.7,1.17,5.4,3.99,5.4h34.13c3.28,0,5.92-2.58,5.98-5.86l.65-36.71,1.35-95.24c0-1.94-1.58-3.52-3.52-3.58l-35.19-.88-93.66-3.11c-4.4-.12-7.74,3.99-6.69,8.27,2.35,9.56,2.93,16.83,1.76,21.82-1,4.11,2.17,8.09,6.39,8.09h25.98c.7,0,1.29.59,1.35,1.29l1.58,28.91c.06.76-.59,1.41-1.35,1.41h-33.43c-1.64,0-2.87-1.47-2.58-3.05l3.52-21.82c.59-3.75-2.29-7.21-6.16-7.21h-34.31c-4.16,0-7.51,3.34-7.45,7.45l.41,48.62M565.31,486.55c-1.58,6.28-1.47,11.03.47,14.25,1,1.64,2.87,2.46,4.81,2.17l10.21-1.7,12.08.29,83.93-.06c1.41,0,2.52-1.11,2.52-2.52v-102.69c0-2.11-1.7-3.81-3.81-3.81h-23.64c-4.99,0-8.86-4.34-8.33-9.32.88-8.15.23-16.25-1.94-24.16-.41-1.58-1.88-2.7-3.58-2.7l-91.43.94-39.47.65c-1.35,0-2.46,1.11-2.46,2.52v117.53c0,3.64,2.93,6.57,6.57,6.51,17.24-.06,33.37-.47,48.38-1.17,1.23-.06,2.29.18,3.23.82.88.65,1.7,1.47,2.46,2.46M1114.96,437.98h-21.99c-4.11,0-7.39,3.28-7.39,7.33v82.87c0,4.05,3.28,7.33,7.33,7.33h25.45c4.69,0,8.39-3.87,8.21-8.56l-2.58-64.69c-.06-1.7-.35-3.34-.76-4.99l-4.28-16.25c-.47-1.82-2.11-3.05-3.99-3.05M726.83,581.32l-33.49,5.51c-3.75.65-6.63,3.75-6.86,7.57l-1.47,23.05c-.24,3.93,2.81,7.21,6.74,7.21h27.68c4.34,0,7.86-3.58,7.8-7.92-.23-16.19-.23-26.63,0-31.38.06-1.29.76-2.58,2.23-3.93l46.39-.65c1.88-.06,3.46-1.47,3.58-3.34l2.81-37.36,13.02-7.98c1.58-.94,2.76-2.35,3.46-4.05,2.46-5.86,1.11-11.32-4.05-16.42-1.41-1.35-3.58-1.52-5.16-.41-3.05,2.17-6.1,3.52-9.15,4.05l-16.71-29.68c-.76-1.35-2.81-.76-2.76.76l.23,4.34c.12,1.82-1.47,3.23-3.23,2.93l-24.4-3.99c-1.88-.29-3.69.82-4.28,2.58-2.99,8.62-4.28,15.72-3.93,21.29,1.35,22.46,1.88,45.04,1.52,67.8M780.49,620.26c0,3.23,2.64,5.86,5.86,5.86h29.38c3.28,0,5.87-2.87,5.51-6.16-.94-8.68.29-17.01,3.75-25.04,1.29-2.93-.88-6.22-4.11-6.22h-34.95c-2.99,0-5.45,2.4-5.45,5.4v26.16h0Z"/>
      <path class="cls-18" d="M1096.25,53.02l23.05,3.58c2.76.47,4.75,2.81,4.81,5.57l1.35,130.02c-1.17,4.16-1,6.28.47,6.33v6.8c-2.05,3.69-2.05,7.16.06,10.44l3.11,145.45c-10.97,2.23-22.52,2.58-34.78,1.06-1.76-45.63.35-99.23.06-136.59-.29-36.01-.47-72.02-.59-108.03-.06-22.23.76-43.81,2.46-64.63h0Z"/>
      <path class="cls-1" d="M391.71,57.01l2.81,251.13c.06,1.99,1.06,3.75,2.76,4.75.12.06.82-.41,2.17-1.52l.7,20.29-.24,29.97c0,3.4-3.05,5.98-6.39,5.4-8.97-1.52-15.42,1.41-19.35,8.8l-12.61-.41c-1.76-.06-3.17,1.35-3.17,3.11l.59,127.38c-1.94,9.56-2.29,19.18-.94,28.97.29,2.11,1.99,3.81,4.11,4.16,6.51,1,18.06,3.28,23.87-.82,4.69-3.34,7.92-3.11,9.62.7.41.88.64,1.82.76,2.76l5.1,40.35c.41,3.23,3.81,5.16,6.8,3.93,12.37-5.16,23.69-4.34,33.84,2.46,8.74,5.4,21.64,6.51,38.77,3.4l25.04,1.64c-6.28,3.46-13.72,5.04-22.4,4.81-3.17-.06-5.69,2.58-5.51,5.75l3.4,62.28c.23,4.98-3.69,9.21-8.68,9.33l-45.28.82c-20.59,5.69-31.38,21.29-32.32,46.86-18.94-.65-34.72,2.64-47.21,9.85-1-1.76-.65-4.4,1.11-7.86l1.76-5.22c.06-.29.12-.53.18-.82l4.93-41.11c.24-1.7,1.7-2.99,3.4-2.99h35.83c2.99,0,5.34-2.64,4.99-5.63-1.58-13.43-.47-21.76,3.46-25.1.76-.65,1.17-1.64,1.11-2.58l-2.7-49.5c-.06-1.58-.82-3.05-2.11-3.99-5.57-4.52-10.09-.65-14.66-2.35-9.09-3.23-17.71-5.57-25.75-7.04-2.23-.41-3.81-2.29-3.93-4.52l-3.81-72.84c-3.52-5.57-6.1-12.2-7.68-19.88,2.46-11.08,3.46-22.58,3.05-34.49,0-.65-.53-1.17-1.17-1.17-.65-.06-1.17.41-1.23,1.06l-2.99,32.84c-.41-.12-.82-.23-1.23-.41l.7-21.82c-.65-20.88,1.41-41.11,6.1-60.7-3.46,15.66-3.23,30.91.65,45.75.18.7.82,1.17,1.58,1.06.7-.06,1.23-.7,1.23-1.41l.59-58.35,5.04-26.92c.06-.29.06-.53.06-.76l-.06-293.42c0-1.7,1.29-3.17,2.99-3.28l32.32-2.7h0Z"/>
      <path class="cls-14" d="M452.06,100.46l1,128.73c.06,3.28,2.7,5.92,5.98,5.98l46.51.18,3.4,48.21c.35,4.87-3.52,8.97-8.39,8.97h-24.28c-1.88,0-3.28,1.7-2.93,3.58,2.17,10.5,1.17,23.52-3.11,39-.47,1.7-1.64,3.17-3.17,4.05-8.27,4.75-17.3,4.98-27.15.59-2.29-7.16-11.91-11.03-28.91-11.61-1.82-.06-3.64.65-4.99,1.94-3.81,3.69-5.75,4.22-5.86,1.58l-.7-20.29.35-76.65c3.28-7.57,15.13-32.26,26.33-34.13,1.82-.29,3.4-1.47,4.22-3.17,10.15-21.23,7.8-37.59,9.03-70.5.29-7.92,4.52-16.77,12.67-26.45h0Z"/>
      <path class="cls-6" d="M494.93,137.94c-.88,4.05.82,5.75,5.1,5.22,2.52-.35,4.75,1.64,4.75,4.16v29.68c0,4.05,3.23,7.39,7.27,7.45l45.69.88,1.41,46.63c.06,1.7-1.29,3.11-3.05,3.17l-50.56.23-46.51-.18c-3.28-.06-5.92-2.7-5.98-5.98l-1-128.73c8.74-1.23,16.42-1.06,22.99.59,1.88.47,3.17,2.11,3.28,4.05l1.11,19.3c.06.76.24,1.47.59,2.11,1.82,3.05,4.63,4.22,8.39,3.52,2.17-.41,4.4.7,5.28,2.76.7,1.52,1.11,3.23,1.23,5.16h0Z"/>
      <path class="cls-6" d="M1039.13,234.94l-41.93-.65c-2.17-.06-3.99-1.76-4.11-3.93l-1.17-21.76c-.12-2.11-1.99-3.69-4.11-3.4-16.07,2.23-31.67,1.88-46.8-1-1.76-.35-2.82-2.17-2.23-3.87,2.35-6.8,2.93-13.37,1.82-19.65,2.17-10.5,2.52-21.41,1-32.73-.23-2.17,1.23-4.11,3.4-4.46,1.29-.18,2.7.35,4.16,1.64.94.88,2.35,1.06,3.58.47,7.1-3.4,17.71-4.52,31.96-3.4,3.69.29,6.92-2.52,7.16-6.22l1.82-27.51c.06-1.23,1.06-2.17,2.29-2.17h32.55c.94,0,1.88-.35,2.7-.94,2.29-1.76,4.05-2.52,5.28-2.29,1.88.41,3.17,1.99,3.17,3.81l-.53,128.03M953.08,147.91c-2.46,0-4.51,2.58-4.51,5.83s1.94,5.9,4.41,5.9,4.51-2.58,4.51-5.83-1.94-5.9-4.41-5.9h0Z"/>
      <path class="cls-20" d="M557.74,185.33l-45.69-.88c-4.05-.06-7.27-3.4-7.27-7.45v-29.68c0-2.52-2.23-4.52-4.75-4.16-4.28.53-5.98-1.17-5.1-5.22,2.29,2.76,5.16,3.75,8.62,2.99,2.99-.65,5.81,2.05,5.57,5.4-.35,6.22-.7,10.2-1,12.02-.41,2.23,1.11,4.34,3.34,4.81l21.35,4.28c2.4.47,4.81-.41,6.39-2.23.06-.06.18-.76.35-2.05.18-1.41,1.41-2.29,2.81-2.17,1.41.12,2.58,1.29,2.82,2.7.47,2.93,1.06,5.75,1.7,8.45.29,1.23,1.29,2.11,2.52,2.29,3.58.53,6.33,4.16,8.33,10.91h0Z"/>
      <path class="cls-14" d="M604.66,179.05c-3.46-2.76-5.04-6.1-4.87-10.15.59-11.44-.59-20.82-3.46-28.27l8.91.76c3.4.23,5.81,3.46,5.16,6.8l-5.75,30.85h0Z"/>
      <path class="cls-16" d="M953.08,147.91c2.47,0,4.41,2.64,4.41,5.9s-2.05,5.83-4.51,5.83-4.41-2.64-4.41-5.9,2.05-5.83,4.51-5.83h0Z"/>
      <path class="cls-14" d="M940.6,180.7c1.11,6.28.53,12.84-1.82,19.65-.59,1.7.47,3.52,2.23,3.87,15.13,2.87,30.73,3.23,46.8,1,2.11-.29,3.99,1.29,4.11,3.4l1.17,21.76c.12,2.17,1.94,3.87,4.11,3.93l41.93.65,33.31-.12c3.46,0,6.28,2.81,6.28,6.28v117.12c0,2.35-1.99,4.22-4.34,4.05l-31.61-2.05c-1.94-.12-3.4-1.76-3.4-3.69v-65.04c0-.94-.76-1.7-1.7-1.7h-39c-2.64,0-4.93-1.88-5.4-4.46l-1.64-9.32c-.53-2.87-3.05-4.99-5.98-4.93-14.84.23-29.27-2.11-43.16-7.04-1.64-.53-2.76-2.17-2.64-3.93l1-15.42c.06-1.29-1.11-2.29-2.4-1.94-2.99.88-7.51-.94-13.55-5.45-1.58-1.17-2.58-2.99-2.81-4.93-2.93-23.34-7.1-45.28,18.53-51.67h0Z"/>
      <path class="cls-2" d="M1125.93,198.52c-1.47-.06-1.64-2.17-.47-6.33l.47,6.33h0Z"/>
      <path class="cls-17" d="M1125.93,205.33l.06,10.44c-2.11-3.28-2.11-6.74-.06-10.44h0Z"/>
      <path class="cls-13" d="M439.92,339.75l-2.35,31.96c-.12,1.64-1.41,2.93-3.05,2.99l-36.36,1-23.99.12c3.93-7.39,10.38-10.32,19.35-8.8,3.34.59,6.39-1.99,6.39-5.4l.24-29.97c.12,2.64,2.05,2.11,5.86-1.58,1.35-1.29,3.17-1.99,4.99-1.94,17.01.59,26.63,4.46,28.91,11.61h0Z"/>
      <path class="cls-19" d="M963.3,358.34c-4.75,9.85-5.86,21.05-3.28,33.66l-3.52,89.61-36.13-.53c-.59,0-1.23.18-1.7.53-1.7,1.11-2.35,2.99-2.05,5.57.18,1.52,1.11,2.81,2.46,3.46,4.63,2.23,6.69,4.75,6.28,7.51-.18,1.17-1.23,1.99-2.4,2.05l-59.7,1.64-1.47-49.79c-.06-1.76-1.47-3.17-3.23-3.17l-39.88.12-.41-48.62c-.06-4.11,3.28-7.45,7.45-7.45h34.31c3.87,0,6.74,3.46,6.16,7.21l-3.52,21.82c-.29,1.58.94,3.05,2.58,3.05h33.43c.76,0,1.41-.65,1.35-1.41l-1.58-28.91c-.06-.7-.65-1.29-1.35-1.29h-25.98c-4.22,0-7.39-3.99-6.39-8.09,1.17-4.99.59-12.26-1.76-21.82-1.06-4.28,2.29-8.39,6.69-8.27l93.66,3.11h0Z"/>
      <path class="cls-13" d="M546.6,357.23l.88,91.14c.06,2.11,1.7,3.75,3.81,3.81,1.94.06,4.4-.65,7.39-1.99l20.47,2.87c1.7.23,2.81,1.82,2.52,3.52l-6.1,35.6c-1.94-2.17-5.4-4.05-10.26-5.63-.76-1-1.58-1.82-2.46-2.46-.94-.65-1.99-.88-3.23-.82-15.01.7-31.14,1.11-48.38,1.17-3.64.06-6.57-2.87-6.57-6.51v-117.53c0-1.41,1.11-2.52,2.46-2.52l39.47-.65h0Z"/>
      <path class="cls-19" d="M592.88,501.56l-.12-49.15c0-1.58-1.11-2.87-2.64-3.17-10.44-2.05-20.94-1.7-31.44.94-2.99,1.35-5.45,2.05-7.39,1.99-2.11-.06-3.75-1.7-3.81-3.81l-.88-91.14,91.43-.94c1.7,0,3.17,1.11,3.58,2.7,2.17,7.92,2.82,16.01,1.94,24.16-.53,4.98,3.34,9.32,8.33,9.32h23.64c2.11,0,3.81,1.7,3.81,3.81v102.69c0,1.41-1.11,2.52-2.52,2.52l-83.93.06M642.15,396.96c.05-1.79-1.42-3.26-3.18-3.27l-40.11-.56c-1.76-.02-3.23,1.39-3.27,3.18l-.38,27.21c-.05,1.79,1.42,3.26,3.18,3.27l40.11.56c1.76.01,3.23-1.39,3.27-3.18l.38-27.21h0Z"/>
      <path class="cls-4" d="M1000.66,458.04l-1.17,13.25c-.18,2.05-2.99,2.4-3.64.47-1.94-5.81-2.93-10.03-2.99-12.79-.23-26.63-1.29-53.55-3.17-80.7,0-.12-.12-.23-.29-.23l-1.76.12c-.76.06-1.41.7-1.35,1.47.65,10.97.7,19.12.23,24.34-.88,9.5-13.72,11.79-19.12,3.4-.53-.76-.47-3.17.18-7.1.18-1.29-.06-2.64-.65-3.81-1.35-2.64-3.7-4.11-6.92-4.46-2.58-12.61-1.47-23.81,3.28-33.66l35.19.88c1.94.06,3.52,1.64,3.52,3.58l-1.35,95.24h0Z"/>
      <path class="cls-18" d="M1175.02,361.45c1.88.29,2.87,1.7,2.93,4.11.41,9.74.65,30.14.82,61.23l-3.81,102.58c-.12,3.46-2.99,6.22-6.45,6.22h-24.75c-2.99,0-5.4-2.46-5.4-5.45v-160.93c0-3.81-4.69-5.51-7.16-2.64l-1.52,1.82-.59-7.16,45.92.23h0Z"/>
      <path class="cls-2" d="M1178.77,426.78l4.98,114.31c-18.36-3.23-35.01-2.05-49.85,3.58-3.23-.35-4.75-1.94-4.63-4.75,1.82-.41,2.7-1.41,2.7-2.93.29-47.92.29-95.77-.12-143.69-.06-8.39-.82-16.66-2.17-24.93l1.52-1.82c2.46-2.87,7.16-1.17,7.16,2.64v160.93c0,2.99,2.4,5.45,5.4,5.45h24.75c3.46,0,6.33-2.76,6.45-6.22l3.81-102.58h0Z"/>
      <path class="cls-3" d="M374.18,375.82c-.29,5.1-2.46,9.38-6.45,12.84-1.41,1.23-2.23,2.99-2.29,4.87l-1.76,78.3v11.44c0,2.05,1.52,3.75,3.52,4.05,2.05.23,3.93-1,4.46-2.99,3.4-12.79,7.15-21.88,11.32-27.21.35-.47,1.06-.59,1.58-.23v.06c.47.35.59.94.23,1.41-5.1,6.98-8.5,14.6-10.09,22.93-.41,1.94-1.7,3.64-3.46,4.46l-7.16,3.46c-1.06.53-1.47,1.76-1,2.81l.88,1.76c.53,1.17,1.99,1.52,3.05.76,9.56-7.16,16.95-15.89,22.11-26.22-5.04,12.26-12.96,22.4-23.81,30.32.18.64.35,1.29.53,1.94-.18.29-.29.65-.47,1l-6.39,4.34-.59-127.38c0-1.76,1.41-3.17,3.17-3.11l12.61.41h0Z"/>
      <path class="cls-14" d="M398.16,375.7c-.76,45.69-.65,82.34.29,109.97.06,1.35.88,2.58,2.52,3.75-1.94,2.52-2.93,5.04-2.93,7.68l-32.67,4.46c.18-.35.29-.7.47-1l11.67-3.69c.12-.06.18-.18.18-.29-.06-.12-.18-.18-.29-.18l-12.08,2.23c10.85-7.92,18.77-18.06,23.81-30.32-.23-4.99-1.52-8.97-3.81-11.96-1.11-1.47-3.11-1.94-4.75-1.17-6.51,2.99-12.14,8.5-16.89,16.66l1.76-78.3c.06-1.88.88-3.64,2.29-4.87,3.99-3.46,6.16-7.74,6.45-12.84l23.99-.12h0Z"/>
      <path class="cls-13" d="M1000.66,458.04l-.65,36.71c-.06,3.28-2.7,5.86-5.98,5.86h-34.13c-2.81,0-4.81-2.7-3.99-5.4,1.23-3.81,1.41-8.39.59-13.61l3.52-89.61c3.23.35,5.57,1.82,6.92,4.46.59,1.17.82,2.52.65,3.81-.65,3.93-.7,6.33-.18,7.1,5.4,8.39,18.24,6.1,19.12-3.4.47-5.22.41-13.37-.23-24.34-.06-.76.59-1.41,1.35-1.47l1.76-.12c.18,0,.29.12.29.23,1.88,27.15,2.93,54.07,3.17,80.7.06,2.76,1.06,6.98,2.99,12.79.65,1.94,3.46,1.58,3.64-.47l1.17-13.25h0Z"/>
      <path class="cls-15" d="M351.36,384.09l-.59,58.35c0,.7-.53,1.35-1.23,1.41-.76.12-1.41-.35-1.58-1.06-3.87-14.84-4.11-30.09-.65-45.75-4.69,19.59-6.74,39.82-6.1,60.7-3.23-21.52-5.69-56.3,10.15-73.66h0Z"/>
      <path class="cls-3" d="M641.77,424.17c-.04,1.79-1.51,3.2-3.27,3.18l-40.11-.56c-1.76-.01-3.23-1.48-3.18-3.27l.38-27.21c.04-1.79,1.51-3.2,3.27-3.18l40.11.56c1.76.01,3.23,1.48,3.18,3.27l-.38,27.21h0Z"/>
      <path class="cls-12" d="M340.51,479.57c.41.18.82.29,1.23.41.65.94,1.47,1.52,2.35,1.76,1.58,7.68,4.16,14.31,7.68,19.88-11.67,2.29-17.65.65-18.06-4.87-1.82-26.86-2.64-53.72-2.52-80.64-.18,9.97-.06,19.88.35,29.79.06.7.59,1.23,1.29,1.17.65-.06,1.17-.59,1.17-1.23v-37.48c0-.59.47-1,1.06-.94h.06c.53,0,.94.47.88,1-2.23,25.04-1.17,50.91,3.23,77.53.06.18.18.29.35.29s.35-.12.35-.29l.59-6.39h0Z"/>
      <path class="cls-14" d="M1118.95,441.03l4.28,16.25c.41,1.64.7,3.28.76,4.99l2.58,64.69c.18,4.69-3.52,8.56-8.21,8.56h-25.45c-4.05,0-7.33-3.28-7.33-7.33v-82.87c0-4.05,3.28-7.33,7.39-7.33h21.99c1.88,0,3.52,1.23,3.99,3.05h0Z"/>
      <path class="cls-15" d="M344.09,481.74c-.88-.23-1.7-.82-2.35-1.76l2.99-32.84c.06-.65.59-1.11,1.23-1.06.65,0,1.17.53,1.17,1.17.41,11.91-.59,23.4-3.05,34.49h0Z"/>
      <path class="cls-10" d="M863.24,501.85c-10.38,3.23-20.29,2.05-29.62-3.52-2.05-1.23-3.64-3.11-4.52-5.34-1.94-4.87-4.63-9.03-8.21-12.49-1.82-1.82-2.87-4.28-2.82-6.86l.59-24.63,39.88-.12c1.76,0,3.17,1.41,3.23,3.17l1.47,49.79h0Z"/>
      <path class="cls-1" d="M592.88,501.56l-12.08-.29c-2.05-.12-3.81-3.17-5.22-9.09l6.1-35.6c.29-1.7-.82-3.28-2.52-3.52l-20.47-2.87c10.5-2.64,21-2.99,31.44-.94,1.52.29,2.64,1.58,2.64,3.17l.12,49.15h0Z"/>
      <path class="cls-10" d="M389.13,468.31c-5.16,10.32-12.55,19.06-22.11,26.22-1.06.76-2.52.41-3.05-.76l-.88-1.76c-.47-1.06-.06-2.29,1-2.81l7.16-3.46c1.76-.82,3.05-2.52,3.46-4.46,1.58-8.33,4.98-15.95,10.09-22.93.35-.47.23-1.06-.23-1.41v-.06c-.53-.35-1.23-.23-1.58.23-4.16,5.34-7.92,14.43-11.32,27.21-.53,1.99-2.4,3.23-4.46,2.99-1.99-.29-3.52-1.99-3.52-4.05v-11.44c4.75-8.15,10.38-13.67,16.89-16.66,1.64-.76,3.64-.29,4.75,1.17,2.29,2.99,3.58,6.98,3.81,11.96h0Z"/>
      <path class="cls-9" d="M780.37,515.28l1.88,24.81-2.81,37.36c-.12,1.88-1.7,3.28-3.58,3.34l-46.39.65-2.64-.12c.35-22.76-.18-45.33-1.52-67.8-.35-5.57.94-12.67,3.93-21.29.59-1.76,2.4-2.87,4.28-2.58l24.4,3.99c1.76.29,3.34-1.11,3.23-2.93l-.23-4.34c-.06-1.52,1.99-2.11,2.76-.76l16.71,29.68h0Z"/>
      <path class="cls-14" d="M575.57,492.18c1.41,5.92,3.17,8.97,5.22,9.09l-10.21,1.7c-1.94.29-3.81-.53-4.81-2.17-1.94-3.23-2.05-7.98-.47-14.25,4.87,1.58,8.33,3.46,10.26,5.63h0Z"/>
      <path class="cls-10" d="M440.21,539.5l-38.24-.12c-1.94,0-3.46-1.52-3.52-3.46l-.41-38.83c0-2.64,1-5.16,2.93-7.68l37.95-2.52c2.23-.18,4.11,1.7,3.99,3.93l-2.7,48.68h0Z"/>
      <path class="cls-13" d="M365.85,500.56c-.18-.65-.35-1.29-.53-1.94l12.08-2.23c.12,0,.23.06.29.18,0,.12-.06.23-.18.29l-11.67,3.69h0Z"/>
      <path class="cls-13" d="M398.05,497.1l.41,38.83c.06,1.94,1.58,3.46,3.52,3.46l38.24.12,1.58,3.23.35,45.69c-10.15-6.8-21.47-7.62-33.84-2.46-2.99,1.23-6.39-.7-6.8-3.93l-5.1-40.35c-.12-.94-.35-1.88-.76-2.76-1.7-3.81-4.93-4.05-9.62-.7-5.81,4.11-17.36,1.82-23.87.82-2.11-.35-3.81-2.05-4.11-4.16-1.35-9.79-1-19.41.94-28.97l6.39-4.34,32.67-4.46h0Z"/>
      <path class="cls-16" d="M1078.89,538.68l-31.67,1.06-1.58-36.13c-.06-1.64,1.17-3.05,2.82-3.11l28.33-1.58c1.17-.06,2.11.82,2.11,1.99v37.77h0Z"/>
      <path class="cls-7" d="M782.25,540.09l-1.88-24.81c3.05-.53,6.1-1.88,9.15-4.05,1.58-1.11,3.75-.94,5.16.41,5.16,5.1,6.51,10.56,4.05,16.42-.7,1.7-1.88,3.11-3.46,4.05l-13.02,7.98h0Z"/>
      <path class="cls-14" d="M1078.89,538.68l.41,47.92-30.5,1.06c-2.99.12-5.34,2.58-5.34,5.51v30.09c0,1.82-1.52,3.34-3.34,3.34h-39.59c-1.58,0-2.99,1.17-3.17,2.76l-1.88,13.31c-10.85-10.5-30.15-6.28-44.1-6.1-8.03-10.56-10.26-24.52-6.74-41.93.35-1.82,1.99-3.11,3.81-3.11,22.17-.06,45.33-1.29,69.56-3.75,7.33-.76,13.43-.06,18.42,2.05.64.23,1.35.18,1.94-.06,1.64-.76,2.4-2.05,2.29-3.99-.12-1.29-1.23-2.35-2.52-2.29-12.55.35-20.17.06-22.87-.82-4.4-1.52-7.8-5.81-10.15-12.9-5.69-17.54-1.88-26.39,11.55-26.63,10.38-.18,20.59-1.35,30.56-3.4l31.67-1.06h0Z"/>
      <path class="cls-5" d="M1129.27,539.92c-.12,2.81,1.41,4.4,4.63,4.75.06,4.4-1.35,7.8-4.28,10.2-1.11.88-1.82,2.23-1.99,3.69l-1,12.38c-.41,1.94-.18,3.75.64,5.4.65,4.46-.18,8.15-2.46,11.03l-18.94,18.3c-1.11,1.11-1.06,2.93.12,3.99l15.72,13.37-29.44-1.11c-2.87-.12-5.22,2.11-5.34,4.98l-1.23,44.75c-1.11.29-2.11.7-2.87,1.23-.94.65-1.29,1.47-1.06,2.46.29,1.29,1.06,2.7,2.35,4.16l-3.05-.23c-.59-2.23-2.87-3.46-6.92-3.75-10.85-.82-21.82-.88-32.84-.12l-49.56-.41,3.75-32.32,1.88-13.31c.18-1.58,1.58-2.76,3.17-2.76h39.59c1.82,0,3.34-1.52,3.34-3.34v-30.09c0-2.93,2.35-5.4,5.34-5.51l30.5-1.06,1.94,2.81c1.35,1.99,4.46,1.06,4.46-1.35v-45.69c0-2.17,1.76-3.87,3.93-3.81l39.65,1.35M1092.32,555.46l3.17,31.08c.29,2.4,2.46,4.16,4.87,3.93l3.93-.41c8.62-.94,15.25-5.04,14.84-9.21l-2.58-24.63c-.41-4.16-7.74-6.86-16.36-5.98l-3.93.41c-2.46.23-4.22,2.4-3.93,4.81h0Z"/>
      <path class="cls-14" d="M480.92,591.82c-17.12,3.11-30.03,1.99-38.77-3.4l-.35-45.69c11.96-3.23,22.99-3.75,33.02-1.52,3.75.82,6.39,4.11,6.33,7.92l-.23,42.7h0Z"/>
      <path class="cls-4" d="M1092.32,555.46c-.29-2.4,1.47-4.57,3.93-4.81l3.93-.41c8.62-.88,15.95,1.82,16.36,5.98l2.58,24.63c.41,4.16-6.22,8.27-14.84,9.21l-3.93.41c-2.4.23-4.58-1.52-4.87-3.93l-3.17-31.08h0Z"/>
      <path class="cls-17" d="M1127.28,576.34c-.82-1.64-1.06-3.46-.64-5.4.7,1.64.94,3.46.64,5.4h0Z"/>
      <path class="cls-14" d="M726.83,581.32l2.64.12c-1.47,1.35-2.17,2.64-2.23,3.93-.23,4.75-.23,15.19,0,31.38.06,4.34-3.46,7.92-7.8,7.92h-27.68c-3.93,0-6.98-3.28-6.74-7.21l1.47-23.05c.23-3.81,3.11-6.92,6.86-7.57l33.49-5.51h0Z"/>
      <path class="cls-15" d="M1124.81,587.36c4.87,18.83,3.81,30.67-3.11,35.66l-15.72-13.37c-1.17-1.06-1.23-2.87-.12-3.99l18.94-18.3h0Z"/>
      <path class="cls-10" d="M553.7,638.09l-28.91,2.11c-2.99.23-5.16-2.76-3.99-5.51l16.42-38.65v-.12c-.06-.06-.12-.06-.12,0-15.78,22.87-24.69,49.44-26.86,79.64l6.51,44.81-42.87,2.17-34.54-.23c-1.76,0-3.17,1.47-3.05,3.23l4.11,75.13c.12,1.76,1.47,3.11,3.23,3.23l25.22,1.76c-5.86,4.11-16.48,5.92-31.79,5.45-2.87,2.29-7.1,3.17-12.73,2.52-5.92,5.22-10.44,11.32-13.55,18.3-2.4-.12-4.81,2.99-7.21,9.27l-5.28,60.29c-.18,1.94.94,3.81,2.82,4.63l6.04,2.52c1.88.76,2.17,3.28.59,4.52-8.27,6.51-11.61,14.49-9.97,23.93.35,1.88,2.05,3.17,3.93,2.99l35.89-3.28c6.1-.59,11.91,2.81,14.43,8.39.47,1.11.29,4.57-.53,10.32-.41,7.74,3.64,18.06,12.02,30.97-3.34-4.05-6.51-6.04-9.56-6.04-1.94,0-3.52,1.58-3.58,3.52-.47,31.26-3.69,49.56,4.22,63.81,1.64,2.99,6.1,2.05,6.45-1.29l3.58-34.72,2.05,38.24c.23,4.69,4.11,8.33,8.8,8.33h23.69c4.69,0,8.09,4.52,6.74,9.03-3.64,12.49-3.52,22.7.35,30.73,2.35,4.87,9.68,3.23,9.68-2.17v-5.51c0-2.23,1.52-4.11,3.69-4.52,4.16-.82,8.27.18,12.32,3.05,1.23.88,2.11,2.17,2.35,3.69l4.57,25.51c.59,3.11,3.46,5.22,6.57,4.87l38.42-4.16c.41,1.35.59,2.82.47,4.28-3.81,11.55-5.28,23.22-4.4,35.07.06,1.29-1.17,2.17-2.35,1.7-11.26-4.81-35.25-.94-48.27-.94-1.7,0-3.23.94-3.99,2.46l-19.12,36.66c-5.92-17.77-9.09-36.13-9.44-55.19-.06-1.88-1.35-3.52-3.17-4.05-2.05-.65-4.58-.7-7.57-.23-.65-.18-1.35-.35-2.05-.41-.64-.06-1-.82-.59-1.35.29-.41.82-.7,1.52-.88.12,0,.18-.18.06-.23l-44.87-30.44c-1.06-.59-2.11-1.47-3.11-2.64l17.71,3.69c.41.12.76-.12.88-.53v-.06c.06-.53-.35-1-.88-1.11l-17.13-3.17c-.59-.12-.7-.88-.18-1.11l7.51-3.64c2.11-1.06,3.17-3.46,2.4-5.69-.7-2.29-2.99-3.64-5.34-3.23l-14.43,2.58c-1.88.35-3.75-.65-4.46-2.4-1.41-3.52-1.64-7.86-.7-12.96.88-4.87-4.75-8.15-8.56-4.98l-6.22,5.22c-.23-3.05.76-6.74,2.93-11.14l26.63,2.81c1.99.23,3.87-.94,4.52-2.81,2.05-5.69,1-11.5-3.11-17.3-2.64-3.81-8.03-9.32-16.19-16.6-1.29-1.17-2.35-2.52-3.11-4.05l-8.15-15.84-7.51-34.78c-.41-1.94-1.58-3.58-3.28-4.69-23.05-14.9-35.25-35.78-36.71-62.64.82-18.12,2.29-35.83,4.46-53.08,1.06-8.27-5.1-20.76-6.22-29.32-1.47-10.44-.94-20.47,1.47-30.03,1.23-4.93-4.22-8.86-8.5-6.04-9.27,6.04-20.47,8.09-33.55,6.1,5.22-.7,7.68-2.4,7.27-5.04-.12-.53-.47-1.06-1-1.29-6.74-3.4-9.85-8.03-9.21-13.9,4.4-.88,8.45-2.58,12.14-5.1,1.23-.88,2.7-1.35,4.22-1.35,2.17.06,3.93.7,5.4,2.05,1.99,1.82,5.22.47,5.4-2.23l2.46-35.83c12.49-7.21,28.27-10.5,47.21-9.85,10.79.88,21.35-.12,31.73-2.87,1.76-.47,2.99-2.17,2.87-3.99l-2.29-40,45.28-.82c4.98-.12,8.91-4.34,8.68-9.33l-3.4-62.28c-.18-3.17,2.35-5.81,5.51-5.75,8.68.23,16.13-1.35,22.4-4.81,8.74-4.16,18.53-5.45,29.5-3.99,2.35.29,4.46,1.52,5.86,3.4,2.58,3.4,5.86,5.28,9.91,5.63,2.7.23,4.69,2.52,4.52,5.22l-2.05,34.37M539.86,601.03l-5.57,34.25c-.29,1.76,1.11,3.4,2.93,3.4h7.92c1.47,0,2.58-1.41,2.17-2.81-2.87-10.44-4.57-21.99-5.04-34.66,0-.65-.53-1.11-1.11-1.17-.64-.06-1.17.41-1.29,1M543.79,605.95c-.24,0-.47.65-.47,1.41s.23,1.41.47,1.41.47-.65.47-1.41-.24-1.41-.47-1.41M387.37,916.85c0-.76-.65-1.41-1.41-1.41s-1.41.65-1.41,1.41.65,1.41,1.41,1.41,1.41-.65,1.41-1.41h0Z"/>
      <path class="cls-14" d="M780.49,620.26v-26.16c0-2.99,2.46-5.4,5.45-5.4h34.95c3.23,0,5.4,3.28,4.11,6.22-3.46,8.03-4.69,16.36-3.75,25.04.35,3.28-2.23,6.16-5.51,6.16h-29.38c-3.23,0-5.86-2.64-5.86-5.86h0Z"/>
      <path class="cls-13" d="M553.7,638.09l70.5,3.46c2.23.12,3.93,1.94,3.93,4.16v29.91c0,1.58,1.23,2.81,2.81,2.87l26.27.76-27.33,1.99c-.41.06-.76.35-.76.76v.06c0,.41.29.76.7.82,16.48,1.64,33.08,2.52,49.68,2.64,55.36.29,110.49.29,165.39-.12l.7,29.44c.06,1.17,1.06,1.99,2.23,1.82,11.91-1.64,23.58-.35,34.95,3.93l-39.18,1.52-74.48-.41-141.22.29-30.56-1.35c-1.94-.12-3.46-1.7-3.46-3.64v-33.72c0-3.46-2.7-6.28-6.16-6.45l-22.4-1.17-55.07-.12c2.17-30.2,11.08-56.77,26.86-79.64,0-.06.06-.06.12,0v.12l-16.42,38.65c-1.17,2.76,1,5.75,3.99,5.51l28.91-2.11h0Z"/>
      <path class="cls-14" d="M539.86,601.03c.12-.59.65-1.06,1.29-1,.59.06,1.11.53,1.11,1.17.47,12.67,2.17,24.22,5.04,34.66.41,1.41-.7,2.81-2.17,2.81h-7.92c-1.82,0-3.23-1.64-2.93-3.4l5.57-34.25h0Z"/>
      <path class="cls-14" d="M543.79,605.95c.23,0,.47.65.47,1.41s-.24,1.41-.47,1.41-.47-.65-.47-1.41.23-1.41.47-1.41h0Z"/>
      <path class="cls-18" d="M943,637.97c1.35,2.05,1.11,3.58-.59,4.69-.29.18-.65.29-1.06.35l-45.98,2.52c-3.23.18-5.57,3.11-4.98,6.28l2.4,13.14c.76,4.22,4.4,7.33,8.68,7.39l49.62.59-13.96,3.34-50.09-.29-.53-35.13c-.06-1.58,1.29-2.93,2.93-2.93l53.55.06h0Z"/>
      <path class="cls-13" d="M951.39,636.57c13.96-.18,33.25-4.4,44.1,6.1l-3.75,32.32-40.64-2.05-49.62-.59c-4.28-.06-7.92-3.17-8.68-7.39l-2.4-13.14c-.59-3.17,1.76-6.1,4.98-6.28l45.98-2.52c.41-.06.76-.18,1.06-.35,1.7-1.11,1.94-2.64.59-4.69l8.39-1.41h0Z"/>
      <path class="cls-5" d="M427.49,676.45l2.29,40c.12,1.82-1.11,3.52-2.87,3.99-10.38,2.76-20.94,3.75-31.73,2.87.94-25.57,11.73-41.17,32.32-46.86h0Z"/>
      <path class="cls-18" d="M1085.7,671.64c.06,1,.41,1.76,1.06,2.35.23.18.47.29.76.29l27.56,1.47c1.7.94,3.64,1.11,5.81.47,2.7,5.1,4.11,9.56,4.22,13.25.41,15.95.65,49.62.59,100.93-1.58,6.74-1.64,13.25-.18,19.53l.12,135.83.06,24.1-.06,68.33c-1,1.94-1.11,4.05-.35,6.33.88,3.05.76,5.45-.23,7.21-1,1.7-3.11,2.7-6.45,2.87-10.73.7-21.23,1-31.38.88-1.58-.06-2.93,1.29-2.93,2.93l.53,228.38c0,2.46,1.99,4.46,4.46,4.46.41,0,12.38-.29,35.89-.82,4.34-.12,6.74,2.93,7.21,9.21-.7,2.4-.64,4.81.24,7.33l-1.23,21.47-1.06,7.45-1.52-8.21c-.47-2.7-3.58-3.99-5.86-2.46-2.99,2.05-6.92,3.28-11.67,3.81-1.05.12-2.11.12-3.17.06l-57.65-4.87c-4.63-19.35-6.92-35.54-6.86-48.62.35-58.47.12-115.54-.7-171.25l1.41-50.09c10.15,2.23,21.11,2.35,32.84.41,4.16.18,6.69-5.98,7.45-18.53,1.35,4.28,2.46,6.22,3.4,5.92,2.87-.94,4.81-3.58,4.87-6.57l1.88-329.31c.06-3.28-2.23-6.22-5.45-7.04-.53-.18-1.47,1.52-2.76,5.1l-2.41-24.75c-1.29-1.47-2.05-2.87-2.35-4.16-.23-1,.12-1.82,1.06-2.46.76-.53,1.76-.94,2.87-1.23h0Z"/>
      <path class="cls-16" d="M565.31,675.69l-8.5,71.2-.06-21.52c0-1.94-1.58-3.52-3.52-3.58l-36.48-1.41-6.51-44.81,55.07.12h0Z"/>
      <path class="cls-14" d="M627.89,722.02c3.46,2.58,3.28,5.4-.59,8.5-2.76,2.17-1.23,6.63,2.29,6.57,16.25-.29,23.69,6.51,22.4,20.29-.47,5.51,3.69,10.26,9.21,10.5l31.61,1.29-28.33,1.58c-1.99.12-3.99-.35-5.75-1.29-15.13-8.15-46.8-2.82-64.69,0-4.22.7-7.1,4.69-6.33,8.91l4.46,24.57c.41,2.4-1.06,4.69-3.4,5.34-17.24,4.57-28.62-1.88-34.19-19.3-2.52-7.92-1.82-21.99,2.23-42.11l8.5-71.2,22.4,1.17c3.46.18,6.16,2.99,6.16,6.45v33.72c0,1.94,1.53,3.52,3.46,3.64l30.56,1.35h0Z"/>
      <path class="cls-10" d="M937.14,676.27l5.98,44.87-18.36.7-41.99-1.23c-11.38-4.28-23.05-5.57-34.95-3.93-1.17.18-2.17-.65-2.23-1.82l-.7-29.44,39.29-3.23,2.87-6.22,50.09.29h0Z"/>
      <path class="cls-14" d="M951.1,672.93l40.64,2.05,49.56.41,1.93.7c1.29.47,1.64,2.17.65,3.17-.41.41-.7.82-1,1.23-1.06,1.58-1.64,3.64-1.58,5.81l.94,36.66-99.12-1.82-5.98-44.87,13.96-3.34h0Z"/>
      <path class="cls-10" d="M1081.06,679.26l-2.46,85.22c-.06,2.87-2.52,5.1-5.4,4.93l-25.22-1.64c-2.7-.18-4.81-2.4-4.87-5.1l-.88-39.7-.94-36.66c-.06-2.17.53-4.22,1.58-5.81.29-.41.59-.82,1-1.23,1-1,.64-2.7-.65-3.17l-1.93-.7c11.03-.76,21.99-.7,32.84.12,4.05.29,6.33,1.52,6.92,3.75h0Z"/>
      <path class="cls-8" d="M1120.88,676.21c-2.17.65-4.11.47-5.81-.47,2.29-.65,4.22-.47,5.81.47h0Z"/>
      <path class="cls-5" d="M884.18,682.2l-39.29,3.23c-54.89.41-110.02.41-165.39.12-16.6-.12-33.2-1-49.68-2.64-.41-.06-.7-.41-.7-.82v-.06c0-.41.35-.7.76-.76l27.33-1.99c64.04-1,128.15-1.06,192.25-.23,11.44.18,22.99,1.23,34.72,3.17h0Z"/>
      <path class="cls-3" d="M1081.06,679.26l3.05.23,2.41,24.75-1.94,331.89c-.76,12.55-3.28,18.71-7.45,18.53l2.46-91.61c.12-3.58-2.76-6.51-6.33-6.51h-21.93c-3.64,0-6.63,2.87-6.74,6.45l-1.76,46.51-45.57-4.63c-4.4-.41-8.27,2.87-8.56,7.27l-2.58,40.12c-.12,1.52-1.29,2.7-2.76,2.81l-38.65,2.99-50.79-1.88-3.28-3.23c-1.64-1.58-2.64-3.75-2.82-6.04-.7-10.62-2.81-21.17-6.39-31.79-.94-2.82-1.29-5.81-1.06-8.74l3.28-42.58c.06-.23.06-.47.06-.76l.41-18.94c.06-2.99-2.35-5.45-5.34-5.45h-35.72c-3.58,0-6.45,2.99-6.22,6.57l3.05,55.48c.23,4.57-3.28,8.5-7.86,8.74l-33.66,1.88c-1.94.12-3.4,1.7-3.28,3.64l2.05,37.36c.29,5.1-3.81,9.38-8.91,9.27l-38.06-.59c-20.35-5.22-41.87-6.39-64.45-3.58-3.34.41-4.22,4.87-1.29,6.51,10.97,6.16,8.27,23.99,7.92,37.12-.12,3.05,2.76,5.4,5.75,4.75,10.26-2.23,19.88-1.29,28.74,2.87,1.82.82,3.87,1.11,5.92.82,8.86-1.35,16.01.94,21.52,6.98,1.29,1.47,1.99,3.28,2.05,5.22l1.17,48.91c-.41,10.56-1.41,21-3.11,31.38-4.46,27.51-3.4,44.57-4.4,71.96-.12,2.17,1.64,3.93,3.81,3.93h24.22c2.76,0,5.04,2.17,5.16,4.93l1.11,28.74.47,80.58c.06,1.35,1.06,2.4,2.35,2.46l35.89,2.35c2.7.18,4.81,2.35,4.93,5.04l4.46,124.63-151.66-1.64-1.29-130.26c31.03,7.92,62.05,7.74,93.07-.47,1-.23,1.7-1.11,1.7-2.17v-100.64c0-1.47-1.23-2.7-2.7-2.58l-108.38,5.92c-2.76.18-4.98,2.46-5.04,5.28-.18,12.37-.18,24.87,0,37.48.06,3.58-2.4,5.98-7.51,7.15l-18.12-.82c-5.22-.23-9.21-4.63-8.91-9.85,3.64-61.87,4.4-119.52,2.29-172.89-.12-2.05-1.88-3.69-3.93-3.58l-29.44,1.64c-3.64.18-6.74-2.64-6.92-6.33l-1.23-29.74c.12-1.47-.06-2.93-.47-4.28-8.97-25.34-20.41-49.67-34.25-72.96-17.36-29.27-23.58-58.18-38.94-86.86-.88-1.7-2.7-2.76-4.63-2.81l-54.54-.7c.82-5.75,1-9.21.53-10.32-2.52-5.57-8.33-8.97-14.43-8.39l-35.89,3.28c-1.88.18-3.58-1.11-3.93-2.99-1.64-9.44,1.7-17.42,9.97-23.93,1.58-1.23,1.29-3.75-.59-4.52l-6.04-2.52c-1.88-.82-2.99-2.7-2.82-4.63l5.28-60.29,28.68-10.73c1.58-.59,2.7-1.99,2.93-3.69l1.88-15.66c15.31.47,25.92-1.35,31.79-5.45l5.04-83.1,42.87-2.17,36.48,1.41c1.94.06,3.52,1.64,3.52,3.58l.06,21.52c-4.05,20.12-4.75,34.19-2.23,42.11,5.57,17.42,16.95,23.87,34.19,19.3,2.35-.65,3.81-2.93,3.4-5.34l-4.46-24.57c-.76-4.22,2.11-8.21,6.33-8.91,17.89-2.82,49.56-8.15,64.69,0,1.76.94,3.75,1.41,5.75,1.29l28.33-1.58,58.53-1.88,30.79.18c1.7,0,3.17,1.35,3.28,3.05l2.99,38.12c13.61,5.1,28.91,4.99,45.86-.47-5.1-3.28-6.22-6.69-3.46-10.15,1.47-2.23.88-3.93-1.88-5.1-.29-7.51,1.76-15.25,6.16-23.17,18.88-5.69,35.89-7.33,51.02-4.99,19.76,3.05,35.66,4.05,47.56,3.05,2.05-.18,3.75-1.7,4.11-3.75,1.11-7.27-1.17-12.96-6.98-17.07-1.11-.76-1.82-1.99-2.05-3.28l-3.99-21.88,18.36-.7,99.12,1.82.88,39.7c.06,2.7,2.17,4.93,4.87,5.1l25.22,1.64c2.87.18,5.34-2.05,5.4-4.93l2.46-85.22M937.84,776.6c0-1.27-1.11-2.33-2.39-2.3l-34.36.66c-1.31.02-2.3,1.07-2.3,2.39l.82,42.69c0,1.27,1.11,2.33,2.39,2.3l34.36-.66c1.31-.02,2.3-1.07,2.3-2.39l-.82-42.69M700,795.07c.03-1.8-1.44-3.26-3.28-3.29l-35.42-.06c-1.8-.03-3.26,1.44-3.29,3.28l-.06,35.42c-.03,1.8,1.44,3.26,3.28,3.29l35.42.06c1.8.03,3.26-1.44,3.29-3.28l.06-35.42M1077.01,836.15c-.06-2-1.76-3.58-3.78-3.49l-24.85,1c-1.99.08-3.57,1.78-3.49,3.78l.68,16.99c.06,2,1.76,3.58,3.78,3.49l24.85-1c1.99-.08,3.57-1.78,3.49-3.78l-.68-16.99M514.62,857.56c.08-3.06-2.38-5.58-5.41-5.62l-26.5-.51c-3.02-.04-5.54,2.36-5.62,5.41l-.31,16.3c-.08,3.06,2.38,5.58,5.41,5.62l26.5.51c3.02.04,5.54-2.36,5.62-5.41l.31-16.3M988.63,892.57l-40.94-.35c-.94,0-1.64.7-1.7,1.64l-.29,37.77c-.06,5.04,3.64,9.15,8.27,9.21l27.45.23c4.63.06,8.45-4.05,8.5-9.09l.29-37.77c0-.88-.7-1.64-1.58-1.64M420.16,909.22l7.45,5.81c1.35,1.06,3.4.59,4.16-1.06,1.82-3.93,1.06-6.86-2.29-8.74-2.05-1.11-4.87-1.35-8.33-.59-2.11.47-2.76,3.23-1,4.57M677.45,1053.44c2.23,0,4.05-1.76,4.05-3.99v-32.78c0-3.17-2.99-5.45-6.04-4.63-10.03,2.7-19.88,2.46-29.68-.76-2.93-.94-4.99-3.64-5.16-6.69l-2.05-38.3c-.18-2.58-2.35-4.52-4.93-4.34l-19.35,1.06c-2.29.12-3.99,2.05-3.87,4.34l1.88,33.96c.18,3.58,3.58,6.1,7.04,5.22,10.32-2.52,15.89.82,16.66,10.03.59,7.1.29,17.59-.94,31.38-.23,2.99,2.11,5.51,5.1,5.51h37.3M710.17,1444.15c-.82-1.76-3.46-1.17-3.46.76v19.82c0,1.82-1,3.46-2.64,4.22-4.28,2.11-7.45,3.17-9.5,3.11-2.05-.06-3.81,1.52-4.05,3.58l-3.75,33.61c-.35,3.05,2.05,5.69,5.1,5.69h125.39c3.23,0,5.81-2.58,5.81-5.81v-33.2c0-2.64-2.11-4.75-4.75-4.75h-103.46c-3.7,0-6.1-3.81-4.57-7.1,2.99-6.63,2.99-13.25-.12-19.94h0Z"/>
      <path class="cls-2" d="M1084.58,1036.14l1.94-331.89c1.29-3.58,2.23-5.28,2.76-5.1,3.23.82,5.51,3.75,5.45,7.04l-1.88,329.31c-.06,2.99-1.99,5.63-4.87,6.57-.94.29-2.05-1.64-3.4-5.92h0Z"/>
      <path class="cls-10" d="M769.11,721.72c-9.38,14.43-15.31,29.62-17.77,45.57l-58.53,1.88-31.61-1.29c-5.51-.23-9.68-4.99-9.21-10.5,1.29-13.78-6.16-20.59-22.4-20.29-3.52.06-5.04-4.4-2.29-6.57,3.87-3.11,4.05-5.92.59-8.5l141.22-.29h0Z"/>
      <path class="cls-16" d="M882.77,720.61l41.99,1.23,3.99,21.88c.23,1.29.94,2.52,2.05,3.28,5.81,4.11,8.09,9.79,6.98,17.07-.35,2.05-2.05,3.58-4.11,3.75-11.91,1-27.8,0-47.56-3.05-15.13-2.35-32.14-.7-51.02,4.99l8.5-47.62,39.18-1.52h0Z"/>
      <path class="cls-16" d="M473.88,722.55l-5.04,83.1-25.22-1.76c-1.76-.12-3.11-1.47-3.23-3.23l-4.11-75.13c-.12-1.76,1.29-3.23,3.05-3.23l34.54.23h0Z"/>
      <path class="cls-14" d="M843.6,722.13l-8.5,47.62c-4.4,7.92-6.45,15.66-6.16,23.17-.94,1.11-1.23,2.11-.88,3.11.35,1.11,1.29,1.76,2.76,1.99-2.76,3.46-1.64,6.86,3.46,10.15l-45.86.47-2.99-38.12c-.12-1.7-1.58-3.05-3.28-3.05l-30.79-.18c2.46-15.95,8.39-31.14,17.77-45.57l74.48.41h0Z"/>
      <path class="cls-2" d="M349.07,725.3c-1.76,3.46-2.11,6.1-1.11,7.86l-2.46,35.83c-.18,2.7-3.4,4.05-5.4,2.23-1.47-1.35-3.23-1.99-5.4-2.05-1.52,0-2.99.47-4.22,1.35-3.69,2.52-7.74,4.22-12.14,5.1l-17.13-1.82,2.46-42.05c.23-4.11,3.69-7.33,7.8-7.21l37.59.76h0Z"/>
      <path class="cls-12" d="M274.77,773.63c-.88.76-1.52.94-1.94.53-2.81,3.52-4.28,6.1-4.34,7.8-.35,8.97-3.4,15.72-9.21,20.35l.06-26.86c0-1.99,1.76-3.52,3.69-3.28l11.73,1.47h0Z"/>
      <path class="cls-17" d="M280.57,772.63l-5.81,1c.18-1.58,1.11-2.46,2.87-2.52,1.7-.06,2.64.47,2.93,1.52h0Z"/>
      <path class="cls-4" d="M280.57,772.63c7.57,2.23,14.49,2.64,20.64,1.17l17.13,1.82c-.65,5.87,2.46,10.5,9.21,13.9.53.23.88.76,1,1.29.41,2.64-2.05,4.34-7.27,5.04l-15.07,1.7c-5.16.59-9.21,4.63-9.79,9.79l-1.47,13.14c-.06.65-.29,1.17-.59,1.7l-13.43,23.46c-.94,1.58-2.93,2.23-4.63,1.47-7.33-3.23-13.31-3.93-18.06-2.23,8.97-20.94,13.84-44.51,14.6-70.73.41.41,1.06.23,1.94-.53l5.81-1h0Z"/>
      <path class="cls-1" d="M272.83,774.16c-.76,26.22-5.63,49.79-14.6,70.73l-17.01.94c-1.88.12-3.58,1.06-4.63,2.52-7.68,10.15-10.44,21.58-8.33,34.31-1.94,9.56-12.26,13.49-30.85,11.85-5.34-.47-10.09,3.46-10.62,8.8l-2.81,27.15-1,49.21c-2.17,1.88-3.34,4.63-3.52,8.33-.06,1.11-1.58,1.41-2.05.41-.29-.53-.29-1.47-.06-2.81.41-2.17-.88-4.28-2.99-4.93l-21.11-6.33c-.88-.29-1.82-.23-2.76.06-7.92,2.87-12.08,8.09-12.49,15.54-2.11,5.22-3.05,9.68-2.87,13.31,1.47,29.85,1.64,60.64.59,92.49-.06,1.06.82,1.88,1.88,1.88h1.7c.82,0,1.47-.59,1.52-1.41l2.17-37.42.94-7.27c.18-1.47,2.23-1.58,2.58-.18l.7,2.7.29,20.7-1.41,30.56-45.51.12c-1.11.06-1.94.88-1.99,1.99l-.94,124.74,1.58,24.22c-.41,36.36-17.24,59.47-50.61,69.26l-8.56.94c-2.05.18-3.69,1.88-3.81,3.93-.06,1.47.12,3.17.65,5.1v108.5c0,1.11,1,2.05,2.11,1.94l46.45-3.93c1.47.65,4.16.18,8.09-1.52.23-9.44,1.7-16.66,4.46-21.76l4.63,53.49-9.68,42.75c-.12-4.46-1.64-6.51-4.63-6.22,1.11-2.46,1.35-4.57.76-6.28-.59-1.76-2.35-2.99-5.28-3.64-7.57-1.82-16.25-1.94-25.98-.47-1.47.18-2.99.18-4.46-.12l-14.72-2.81c-1.23-.23-1.94-1.52-1.52-2.7.59-1.47,1.17-2.52,1.82-3.11,1.11-1.06,1.53-2.64,1.06-4.11-3.23-10.67-4.57-22.17-4.11-34.49.06-2.35-2.11-4.11-4.4-3.52-7.45,2.05-13.43-.06-17.83-6.22-1.11-1.58-3.34-1.94-4.93-.76-.65.53-1.11.82-1.35,1-3.34,1.88-7.45-.59-7.39-4.4l1.76-125.86c0-1.7,1.29-3.11,2.99-3.34,1.7-.18,3.28.88,3.75,2.52.94,3.46,4.63,4.22,11.14,2.29,6.98-2.17,10.5-3.23,10.56-3.17,6.69,3.28,14.54-1.99,14.6-9.85.18-24.63.23-48.62.23-72.02.7-2.35.76-4.81.12-7.45l.18-5.75-.06-8.8,1.52-97.06c.06-1.94,1.58-3.46,3.52-3.46h34.43c2.23,0,3.99-1.76,3.99-3.99v-114.07c0-3.99,3.75-6.92,7.62-5.98,7.8,1.88,17.07,2.23,27.86,1.11,5.45-.59,9.62-5.1,9.74-10.56l.7-26.98-.06-5.98-.18-37.18c0-2.76,2.17-5.04,4.93-5.22l34.9-1.88c4.99-.29,8.86-4.46,8.86-9.44v-37.95c0-1.7,1.82-2.76,3.28-1.94,11.32,6.39,24.34,6.22,39.18-.59,1.94-.88,3.23-2.7,3.46-4.75l4.16-36.89c.29-2.46,2.23-4.4,4.69-4.63,6.69-.59,13.84.7,21.41,3.93,5.81-4.63,8.86-11.38,9.21-20.35.06-1.7,1.52-4.28,4.34-7.8h0Z"/>
      <path class="cls-14" d="M938.66,819.29c0,1.32-.99,2.37-2.3,2.39l-34.36.66c-1.28.03-2.39-1.03-2.39-2.3l-.82-42.69c0-1.32.99-2.37,2.3-2.39l34.36-.66c1.28-.03,2.39,1.03,2.39,2.3l.82,42.69h0Z"/>
      <path class="cls-14" d="M363.62,908.23c-2.4-5.98-5.57-10.73-9.44-14.31-1.29-1.23-3.11-1.82-4.87-1.58l-53.25,7.04c-4.57.59-8.39,3.87-9.74,8.33l-9.03,29.85c-.7,2.29-2.52,4.11-4.81,4.75-13.31,3.64-27.98,4.75-43.99,3.4l-.23-63.05c-2.11-12.73.65-24.16,8.33-34.31,1.06-1.47,2.76-2.4,4.63-2.52l17.01-.94c4.75-1.7,10.73-1,18.06,2.23,1.7.76,3.69.12,4.63-1.47l13.43-23.46c.29-.53.53-1.06.59-1.7l1.47-13.14c.59-5.16,4.63-9.21,9.79-9.79l15.07-1.7c13.08,1.99,24.28-.06,33.55-6.1,4.28-2.81,9.74,1.11,8.5,6.04-2.4,9.56-2.93,19.59-1.47,30.03,1.11,8.56,7.27,21.05,6.22,29.32-2.17,17.24-3.64,34.95-4.46,53.08h0Z"/>
      <path class="cls-8" d="M1125.69,790.4l-.18,19.53c-1.47-6.28-1.41-12.79.18-19.53h0Z"/>
      <path class="cls-14" d="M699.94,830.49c-.03,1.84-1.49,3.31-3.29,3.28l-35.42-.06c-1.84-.03-3.31-1.49-3.28-3.29l.06-35.42c.03-1.84,1.49-3.31,3.29-3.28l35.42.06c1.84.03,3.31,1.49,3.28,3.29l-.06,35.42h0Z"/>
      <path class="cls-21" d="M828.93,792.92c2.76,1.17,3.34,2.87,1.88,5.1-1.47-.23-2.41-.88-2.76-1.99-.35-1-.06-1.99.88-3.11h0Z"/>
      <path class="cls-10" d="M834.27,808.17c-16.95,5.45-32.26,5.57-45.86.47l45.86-.47h0Z"/>
      <path class="cls-16" d="M437.05,811.1l-1.88,15.66c-.23,1.7-1.35,3.11-2.93,3.69l-28.68,10.73c2.4-6.28,4.81-9.38,7.21-9.27l13.55-18.3c5.63.65,9.85-.23,12.73-2.52h0Z"/>
      <path class="cls-14" d="M424.32,813.63l-13.55,18.3c3.11-6.98,7.62-13.08,13.55-18.3h0Z"/>
      <path class="cls-16" d="M1077.7,853.15c.08,2-1.5,3.7-3.49,3.78l-24.85,1c-2.02.1-3.72-1.49-3.78-3.49l-.68-16.99c-.08-2,1.5-3.7,3.49-3.78l24.85-1c2.02-.1,3.72,1.49,3.78,3.49l.68,16.99h0Z"/>
      <path class="cls-16" d="M514.3,873.86c-.07,3.04-2.6,5.45-5.62,5.41l-26.5-.51c-3.02-.04-5.49-2.56-5.41-5.62l.31-16.3c.07-3.04,2.6-5.45,5.62-5.41l26.5.51c3.02.04,5.49,2.56,5.41,5.62l-.31,16.3h0Z"/>
      <path class="cls-10" d="M228.26,882.65l.23,63.05-.7,56.65-31.49.65c-4.11.12-7.27-3.52-6.63-7.57,3.34-21.29,3.99-43.34,1.82-66.27-.18-2.05-2.64-2.99-4.16-1.64l-3.34,2.93,2.81-27.15c.53-5.34,5.28-9.27,10.62-8.8,18.59,1.64,28.91-2.29,30.85-11.85h0Z"/>
      <path class="cls-14" d="M988.63,892.57c.88,0,1.58.76,1.58,1.64l-.29,37.77c-.06,5.04-3.87,9.15-8.5,9.09l-27.45-.23c-4.63-.06-8.33-4.16-8.27-9.21l.29-37.77c.06-.94.76-1.64,1.7-1.64l40.94.35h0Z"/>
      <path class="cls-3" d="M363.62,908.23c1.47,26.86,13.66,47.74,36.71,62.64,1.7,1.11,2.87,2.76,3.28,4.69l7.51,34.78c9.09,23.46,8.91,41.41-.59,53.78-2.17,4.4-3.17,8.09-2.93,11.14-3.34,9.09-4.16,17.65-2.46,25.81.35,1.7,1.94,2.93,3.69,2.87l28.15-1.29c1,1.17,2.05,2.05,3.11,2.64,8.09,10.32-2.7,20-5.75,30.2-.88,2.82,1.35,5.63,4.28,5.45l21.05-1.23,11.61-.29c5.57,1.41,10.44,1.11,14.72-.82,2.99-.47,5.51-.41,7.57.23,1.82.53,3.11,2.17,3.17,4.05.35,19.06,3.52,37.42,9.44,55.19v6.16l-3.99,111.02c-.23,6.98-6.45,12.2-13.31,11.26l-27.1-3.69c-4.69-.65-9.5-.76-14.19-.29-27.92,2.58-49.56,3.34-64.92,2.35-3.46-.23-10.2,1-20.35,3.69-1.64.41-2.7,1.99-2.46,3.69.23,1.7,1.64,2.93,3.34,2.93,8.97-.06,12.32,2.58,10.03,7.92l-90.43-.47c-2.23-.06-3.87-2.05-3.46-4.28,1.17-5.69,1.82-9.74,1.94-12.2.35-6.28,4.05-9.33,11.03-9.03.53.06,1-.23,1.35-.76.06-.06,0-.18-.12-.18-35.07-5.16-77.65-2.81-137.88-2.29-2.4-2.29-1.94-4.52,1.35-6.57,1.06-.65,2.29-1,3.58-.94l65.86,1.76,52.55-4.98c3.87-.35,6.86-3.46,7.1-7.33l3.93-60.76c.18-2.82-2.05-5.22-4.93-5.22h-38.42c-1.99,0-3.58-1.64-3.46-3.64.47-8.97-2.87-22.11-10.09-39.35-.88-2.11-3.05-3.28-5.28-2.93l-31.08,5.63c-1.58.23-2.64,1.82-2.35,3.4l2.23,12.32c.53,2.81-1.7,5.45-4.63,5.45l-48.8-.47c-2.64-12.55-2.46-26.33.53-41.35,4.69-23.28,5.45-44.51,2.35-63.63l1.41-30.56c10.91,25.81,25.51,41.7,51.02,35.6,29.03-6.98,54.01-10.56,74.83-10.62,4.4,0,7.92-3.58,7.92-7.98v-22.17c0-2.23.7-4.46,1.94-6.28,6.1-9.09,9.33-15.95,9.68-20.47.12-1.94,1.52-3.58,3.46-3.99,12.14-2.76,23.87-.53,35.19,6.74.7.47,1.64.06,1.76-.76,1.11-5.81.82-11.91-.94-18.24-.41-1.41-1.41-2.58-2.76-3.11-2.11-.88-5.16-.82-9.21.06-11.32,2.52-21.17,5.81-29.68,9.79-.76.41-1.7.23-2.35-.35-.7-.7-1.23-1.06-1.52-1.11-1.11-.06-2.05.7-2.23,1.82l-2.7,20.06c-.59,4.28-4.4,7.39-8.74,7.1l-35.89-2.29c-4.57-.29-7.98-4.46-7.27-9.03,2.46-16.01,1.7-31.73-2.23-47.15l.7-56.65c16.01,1.35,30.67.23,43.99-3.4,2.29-.65,4.11-2.46,4.81-4.75l9.03-29.85c1.35-4.46,5.16-7.74,9.74-8.33l53.25-7.04c1.76-.23,3.58.35,4.87,1.58,3.87,3.58,7.04,8.33,9.44,14.31h0Z"/>
      <path class="cls-10" d="M420.16,909.22c-1.76-1.35-1.11-4.11,1-4.57,3.46-.76,6.28-.53,8.33.59,3.34,1.88,4.11,4.81,2.29,8.74-.76,1.64-2.81,2.11-4.16,1.06l-7.45-5.81h0Z"/>
      <path class="cls-14" d="M387.37,916.85c0,.76-.65,1.41-1.41,1.41s-1.41-.65-1.41-1.41.65-1.41,1.41-1.41,1.41.65,1.41,1.41h0Z"/>
      <path class="cls-16" d="M227.79,1002.36c3.93,15.42,4.69,31.14,2.23,47.15-.7,4.57,2.7,8.74,7.27,9.03l35.89,2.29c4.34.29,8.15-2.81,8.74-7.1l2.7-20.06c.18-1.11,1.11-1.88,2.23-1.82.29.06.82.41,1.52,1.11.65.59,1.58.76,2.35.35,8.5-3.99,18.36-7.27,29.68-9.79,4.05-.88,7.1-.94,9.21-.06,1.35.53,2.35,1.7,2.76,3.11,1.76,6.33,2.05,12.43.94,18.24-.12.82-1.06,1.23-1.76.76-11.32-7.27-23.05-9.5-35.19-6.74-1.94.41-3.34,2.05-3.46,3.99-.35,4.52-3.58,11.38-9.68,20.47-1.23,1.82-1.94,4.05-1.94,6.28v22.17c0,4.4-3.52,7.98-7.92,7.98-20.82.06-45.8,3.64-74.83,10.62-25.51,6.1-40.12-9.79-51.02-35.6l-.29-20.7,30.73-1.17c1.7-.06,2.99-1.41,3.05-3.11l1.99-70.08,1-49.21,3.34-2.93c1.52-1.35,3.99-.41,4.16,1.64,2.17,22.93,1.53,44.98-1.82,66.27-.65,4.05,2.52,7.68,6.63,7.57l31.49-.65h0Z"/>
      <polygon class="cls-2" points="134.66 944.82 134.6 938.84 134.66 944.82 134.66 944.82"/>
      <path class="cls-16" d="M893.92,1056.19c-2.17-.76-4.52-.35-7.1,1.17l-.76,45.86c-.06,1.64-1.41,2.99-3.05,2.99l-72.9.18-56.3,1.99c-3.23.12-5.86-2.52-5.69-5.75l2.05-41.64,38.06.59c5.1.12,9.21-4.16,8.91-9.27l-2.05-37.36c-.12-1.94,1.35-3.52,3.28-3.64l33.66-1.88c4.57-.23,8.09-4.16,7.86-8.74l-3.05-55.48c-.23-3.58,2.64-6.57,6.22-6.57h35.72c2.99,0,5.4,2.46,5.34,5.45l-.41,18.94c0,.29,0,.53-.06.76l-3.28,42.58c-.23,2.93.12,5.92,1.06,8.74,3.58,10.61,5.69,21.17,6.39,31.79.18,2.29,1.17,4.46,2.82,6.04l3.28,3.23h0Z"/>
      <polygon class="cls-17" points="1125.69 969.86 1125.63 945.76 1125.69 969.86 1125.69 969.86"/>
      <path class="cls-16" d="M583.84,1118.83l-38.42,4.16c-3.11.35-5.98-1.76-6.57-4.87l-4.57-25.51c-.23-1.52-1.11-2.81-2.35-3.69-4.05-2.87-8.15-3.87-12.32-3.05-2.17.41-3.69,2.29-3.69,4.52v5.51c0,5.4-7.33,7.04-9.68,2.17-3.87-8.03-3.99-18.24-.35-30.73,1.35-4.52-2.05-9.03-6.74-9.03h-23.69c-4.69,0-8.56-3.64-8.8-8.33l-2.05-38.24-1.11-25.28c-8.39-12.9-12.43-23.23-12.02-30.97l54.54.7c1.94.06,3.75,1.11,4.63,2.81,15.37,28.68,21.58,57.59,38.94,86.86,13.84,23.28,25.28,47.62,34.25,72.96h0Z"/>
      <path class="cls-10" d="M1077.13,1054.67c-11.73,1.94-22.7,1.82-32.84-.41l-1.47-44.75,1.76-46.51c.12-3.58,3.11-6.45,6.74-6.45h21.93c3.58,0,6.45,2.93,6.33,6.51l-2.46,91.61h0Z"/>
      <path class="cls-10" d="M677.45,1053.44h-37.3c-2.99,0-5.34-2.52-5.1-5.51,1.23-13.78,1.52-24.28.94-31.38-.76-9.21-6.33-12.55-16.66-10.03-3.46.88-6.86-1.64-7.04-5.22l-1.88-33.96c-.12-2.29,1.58-4.22,3.87-4.34l19.35-1.06c2.58-.18,4.75,1.76,4.93,4.34l2.05,38.3c.18,3.05,2.23,5.75,5.16,6.69,9.79,3.23,19.65,3.46,29.68.76,3.05-.82,6.04,1.47,6.04,4.63v32.78c0,2.23-1.82,3.99-4.05,3.99h0Z"/>
      <path class="cls-13" d="M182.98,979.66l-1.99,70.08c-.06,1.7-1.35,3.05-3.05,3.11l-30.73,1.17-.7-2.7c-.35-1.41-2.4-1.29-2.58.18l-.94,7.27-4.98-68.85c.41-7.45,4.57-12.67,12.49-15.54.94-.29,1.88-.35,2.76-.06l21.11,6.33c2.11.65,3.4,2.76,2.99,4.93-.23,1.35-.23,2.29.06,2.81.47,1,1.99.7,2.05-.41.18-3.69,1.35-6.45,3.52-8.33h0Z"/>
      <path class="cls-4" d="M463.5,986.46l1.11,25.28-3.58,34.72c-.35,3.34-4.81,4.28-6.45,1.29-7.92-14.25-4.69-32.55-4.22-63.81.06-1.94,1.64-3.52,3.58-3.52,3.05,0,6.22,1.99,9.56,6.04h0Z"/>
      <path class="cls-14" d="M142.99,1058.77l-2.17,37.42c-.06.82-.7,1.41-1.52,1.41h-1.7c-1.06,0-1.94-.82-1.88-1.88,1.06-31.85.88-62.64-.59-92.49-.18-3.64.76-8.09,2.87-13.31l4.98,68.85h0Z"/>
      <path class="cls-14" d="M1042.82,1009.51l1.47,44.75-1.41,50.09-51.02,2.7c-2.87-2.4-5.81-2.29-8.68.29l-45.75-2.05.35-43.52c4.28-.94,8.91-1.76,13.61-2.11-2.46-.12-4.57-.47-6.69-1.58l38.65-2.99c1.47-.12,2.64-1.29,2.76-2.81l2.58-40.12c.29-4.4,4.16-7.68,8.56-7.27l45.57,4.63h0Z"/>
      <path class="cls-14" d="M410.54,1064.11c9.5-12.38,9.68-30.32.59-53.78l8.15,15.84c.76,1.52,1.82,2.87,3.11,4.05,8.15,7.27,13.55,12.79,16.19,16.6,4.11,5.81,5.16,11.61,3.11,17.3-.65,1.88-2.52,3.05-4.52,2.81l-26.63-2.81h0Z"/>
      <path class="cls-8" d="M1125.28,1044.52c-.76-2.29-.65-4.4.35-6.33.47,2.35.35,4.46-.35,6.33h0Z"/>
      <path class="cls-10" d="M750.17,1061l-2.05,41.64c-.18,3.23,2.46,5.87,5.69,5.75l56.3-1.99-22.76,2.11c-1.64.18-2.87,1.52-2.76,3.11v.12c.06.53.53.94,1.06.94l100.29.7c2.46,0,4.4,2.23,3.99,4.63l-.29,1.82c-.23,1.41-1.47,2.4-2.87,2.4h-98.7c-3.52,0-6.39,2.87-6.39,6.45v78.76c0,1.94-1.47,3.46-3.4,3.58l-17.07.94c-1.94.12-3.58-1.23-3.93-3.11-1.06-6.04,4.63-15.37,5.34-23.22,2.29-24.16,2.76-48.5,1.41-73.08-.06-.94-.88-1.7-1.82-1.64l-2.58.12c-.94.06-1.7.88-1.76,1.82l-.35,57.77-1.17-48.91c-.06-1.94-.76-3.75-2.05-5.22-5.51-6.04-12.67-8.33-21.52-6.98-2.05.29-4.11,0-5.92-.82-8.86-4.16-18.47-5.1-28.74-2.87-2.99.65-5.86-1.7-5.75-4.75.35-13.14,3.05-30.97-7.92-37.12-2.93-1.64-2.05-6.1,1.29-6.51,22.58-2.81,44.1-1.64,64.45,3.58h0Z"/>
      <path class="cls-1" d="M893.92,1056.19l50.79,1.88c2.11,1.11,4.22,1.47,6.69,1.58-4.69.35-9.33,1.17-13.61,2.11l-48.8-1.41c-.76,0-1.53-.47-1.82-1.17-.23-.59-.35-1.17-.35-1.82,2.58-1.52,4.93-1.94,7.1-1.17h0Z"/>
      <path class="cls-13" d="M886.82,1057.37c0,.65.12,1.23.35,1.82.29.7,1.06,1.17,1.82,1.17l48.8,1.41-.35,43.52-36.77,2.35c-1.7.12-2.99,1.52-3.05,3.17l-1.11,41.52-2.52,30.44-42.23-.88c-1.7-.06-3.11,1.29-3.17,2.99l-1.35,42.99-.94-34.84c0-.41-.35-.76-.76-.76h-2.46c-1.52,0-2.76,1.23-2.76,2.76v157.12c0,2.58-2.23,4.57-4.81,4.28-12.73-1.41-25.45,1.06-38.18,7.39-2.11,1.06-4.57-.41-4.63-2.76l-1.47-46.8-2.52-27.51c0-.12-.12-.23-.29-.23l-1.76.06c-.65.06-1.11.59-1.17,1.23l-1.17,23.75-1.11-28.74c-.12-2.76-2.4-4.93-5.16-4.93h-24.22c-2.17,0-3.93-1.76-3.81-3.93,1-27.39-.06-44.46,4.4-71.96,1.7-10.38,2.7-20.82,3.11-31.38l.35-57.77c.06-.94.82-1.76,1.76-1.82l2.58-.12c.94-.06,1.76.7,1.82,1.64,1.35,24.57.88,48.91-1.41,73.08-.7,7.86-6.39,17.18-5.34,23.22.35,1.88,1.99,3.23,3.93,3.11l17.07-.94c1.94-.12,3.4-1.64,3.4-3.58v-78.76c0-3.58,2.87-6.45,6.39-6.45h98.7c1.41,0,2.64-1,2.87-2.4l.29-1.82c.41-2.4-1.52-4.63-3.99-4.63l-100.29-.7c-.53,0-1-.41-1.06-.94v-.12c-.12-1.58,1.11-2.93,2.76-3.11l22.76-2.11,72.9-.18c1.64,0,2.99-1.35,3.05-2.99l.76-45.86h0Z"/>
      <path class="cls-18" d="M436.99,1102.64l-28.15,1.29c-1.76.06-3.34-1.17-3.69-2.87-1.7-8.15-.88-16.71,2.46-25.81l6.22-5.22c3.81-3.17,9.44.12,8.56,4.98-.94,5.1-.7,9.44.7,12.96.7,1.76,2.58,2.76,4.46,2.4l14.43-2.58c2.35-.41,4.63.94,5.34,3.23.76,2.23-.29,4.63-2.4,5.69l-7.51,3.64c-.53.23-.41,1,.18,1.11l17.13,3.17c.53.12.94.59.88,1.11v.06c-.12.41-.47.65-.88.53l-17.71-3.69h0Z"/>
      <path class="cls-16" d="M983.18,1107.34c-20,32.61-48.85,47.62-86.68,44.98l1.11-41.52c.06-1.64,1.35-3.05,3.05-3.17l36.77-2.35,45.75,2.05h0Z"/>
      <path class="cls-13" d="M1042.88,1104.34c.82,55.72,1.06,112.78.7,171.25-.06,13.08,2.23,29.27,6.86,48.62-8.91-.53-13.31,2.52-13.14,9.27.18,5.22-4.34,9.62-10.15,9.97-10.79.65-21.17,1.58-31.14,2.93-1.76.23-3.4-1-3.58-2.76-.53-4.11.12-8.09,1.82-11.96,2.29.23,3.4-1.99,3.46-6.63.88-57.89.7-125.33-.53-202.34,0-1.17-.94-2.11-2.11-2.11h-1.52c-.41,0-.7.29-.7.65l-.76,43.52-.23-57.71,51.02-2.7h0Z"/>
      <path class="cls-14" d="M146.09,1105.28c3.11,19.12,2.35,40.35-2.35,63.63-2.99,15.01-3.17,28.8-.53,41.35l92.49-.64c2.58,0,4.69,2.17,4.63,4.75-.53,17.07-2.64,33.9-6.45,50.44-.76,3.4-1.41,10.79-1.88,22.11-.35,9.44-2.23,16.54-5.57,21.23l-65.86-1.76c-1.29-.06-2.52.29-3.58.94-3.28,2.05-3.75,4.28-1.35,6.57l-13.72-.65c-1.76-.06-3.17-1.35-3.4-3.11l-1.41-10.5-3.05-55.07.47-27.68c.06-.88-.7-1.58-1.58-1.58h-25.28c-1.23,0-2.23.94-2.29,2.17-.59,14.13-3.17,19.06-7.74,14.66l.94-124.74c.06-1.11.88-1.94,1.99-1.99l45.51-.12M109.26,1155.25h22.7c2.7,0,4.87-2.17,4.87-4.87v-31.55c0-3.46-3.11-6.16-6.57-5.75-6.16.76-12.32.23-18.53-1.58-3.34-1-6.74,1.52-6.74,4.98v34.54c0,2.35,1.94,4.22,4.28,4.22h0Z"/>
      <path class="cls-13" d="M486.02,1138.59c-4.28,1.94-9.15,2.23-14.72.82-2.52-4.16-6.39-4.05-11.61.29l-21.05,1.23c-2.93.18-5.16-2.64-4.28-5.45,3.05-10.2,13.84-19.88,5.75-30.2l44.87,30.44c.12.06.06.23-.06.23-.7.18-1.23.47-1.52.88-.41.53-.06,1.29.59,1.35.7.06,1.41.23,2.05.41h0Z"/>
      <path class="cls-3" d="M991.86,1107.04l.23,57.71.7,149.08-.88,26.86c-.06,1.06-.59,1.99-1.41,2.52-1.99,1.23-3.75,1.17-5.34-.23-2.17-1.94-4.52-2.64-6.92-2.05-6.63,1.7-13.72,1.76-21.29.29-3.58-.65-10.67-1.06-21.35-1.17-13.08-.12-25.57.18-37.36.88-2.17.12-3.99-1.64-3.99-3.81l-.29-154.36,2.52-30.44c37.83,2.64,66.68-12.37,86.68-44.98,2.87-2.58,5.81-2.7,8.68-.29h0Z"/>
      <path class="cls-10" d="M109.26,1155.25c-2.35,0-4.28-1.88-4.28-4.22v-34.54c0-3.46,3.4-5.98,6.74-4.98,6.22,1.82,12.38,2.35,18.53,1.58,3.46-.41,6.57,2.29,6.57,5.75v31.55c0,2.7-2.17,4.87-4.87,4.87h-22.7Z"/>
      <path class="cls-1" d="M994.26,1331.66l-1.47-17.83-.7-149.08.76-43.52c0-.35.29-.65.7-.65h1.52c1.17,0,2.11.94,2.11,2.11,1.23,77.01,1.41,144.45.53,202.34-.06,4.63-1.17,6.86-3.46,6.63h0Z"/>
      <path class="cls-13" d="M584.31,1123.11l1.23,29.74c.18,3.69,3.28,6.51,6.92,6.33l29.44-1.64c2.05-.12,3.81,1.52,3.93,3.58,2.11,53.37,1.35,111.02-2.29,172.89-.29,5.22,3.69,9.62,8.91,9.85l18.12.82c-2.29,3.05-5.92,4.81-10.97,5.34-1.58.18-2.64,1.7-2.23,3.28.23.94,1.7,1.47,4.34,1.64,1.58.12,2.76,1.52,2.52,3.11-.76,4.81-.29,9.62,1.41,14.49.7,1.99,2.35,3.52,4.4,3.93l20.88,4.57,1.88,58.18c.06,1.7-1.29,3.17-2.99,3.28-5.92.29-12.02-1.64-18.42-5.81,1.82-15.25.23-27.86-4.63-37.77l-45.45-2.29c-1.88-.12-3.34-1.64-3.34-3.52v-25.51c0-3.46-2.76-6.33-6.22-6.39-14.37-.23-28.44-2.99-42.34-8.33l-7.16-69.85c-.23-2.17-1.06-4.28-2.46-5.98-.41-.53-.82-1.06-1.29-1.64-1.06-1.35-1.64-3.05-1.64-4.75l-1.53-81.4.41-12.9c.12-3.05-2.05-5.63-5.04-6.16-2.99-.47-5.92,1.35-6.8,4.22l-6.1,19.88-5.92,49.21c-.12.82-.82,1.47-1.64,1.41-.82,0-1.52-.7-1.58-1.52l-2.46-39.18v-6.16l19.12-36.66c.76-1.52,2.29-2.46,3.99-2.46,13.02,0,37.01-3.87,48.27.94,1.17.47,2.4-.41,2.35-1.7-.88-11.85.59-23.52,4.4-35.07M536.87,1166.81c15.78-1.23,25.22-2.64,28.27-4.16,1.64-.82,1-3.23-.82-3.11-11.2.88-20.47,2.76-27.86,5.51-.41.18-.65.59-.59,1.06.12.41.53.76,1,.7h0Z"/>
      <path class="cls-4" d="M471.3,1139.42l-11.61.29c5.22-4.34,9.09-4.46,11.61-.29h0Z"/>
      <path class="cls-10" d="M536.87,1166.81c-.47.06-.88-.29-1-.7-.06-.47.18-.88.59-1.06,7.39-2.76,16.66-4.63,27.86-5.51,1.82-.12,2.46,2.29.82,3.11-3.05,1.52-12.49,2.93-28.27,4.16h0Z"/>
      <path class="cls-14" d="M535.34,1189.27c-6.1-1.41-11.96.29-17.54,5.04l6.1-19.88c.88-2.87,3.81-4.69,6.8-4.22,2.99.53,5.16,3.11,5.04,6.16l-.41,12.9h0Z"/>
      <path class="cls-16" d="M535.34,1189.27l1.53,81.4c0,1.7.59,3.4,1.64,4.75.47.59.88,1.11,1.29,1.64,1.41,1.7,2.23,3.81,2.46,5.98l7.16,69.85c-10.97,1.58-22.58,1.29-34.95-1-4.52-.82-8.74,2.46-8.97,7.04l-1.41,30.32-1.35-34.07c-.06-1.94.88-3.75,2.46-4.81.88-.53,1.35-.94,1.41-1.23.76-2.11-.59-4.4-2.81-4.75-22.76-3.69-45.8-4.05-69.09-1.06l-61.46-.23c2.29-5.34-1.06-7.98-10.03-7.92-1.7,0-3.11-1.23-3.34-2.93-.24-1.7.82-3.28,2.46-3.69,10.15-2.7,16.89-3.93,20.35-3.69,15.37,1,37.01.23,64.92-2.35,4.69-.47,9.5-.35,14.19.29l27.1,3.69c6.86.94,13.08-4.28,13.31-11.26l3.99-111.02,2.46,39.18c.06.82.76,1.52,1.58,1.52.82.06,1.53-.59,1.64-1.41l5.92-49.21c5.57-4.75,11.44-6.45,17.54-5.04h0Z"/>
      <path class="cls-14" d="M893.97,1182.76l.29,154.36c0,2.17,1.82,3.93,3.99,3.81,11.79-.7,24.28-1,37.36-.88,10.67.12,17.77.53,21.35,1.17,7.57,1.47,14.66,1.41,21.29-.29,2.4-.59,4.75.12,6.92,2.05,1.58,1.41,3.34,1.47,5.34.23.82-.53,1.35-1.47,1.41-2.52l.88-26.86,1.47,17.83c-1.7,3.87-2.35,7.86-1.82,11.96.18,1.76,1.82,2.99,3.58,2.76,9.97-1.35,20.35-2.29,31.14-2.93,5.81-.35,10.32-4.75,10.15-9.97-.18-6.74,4.22-9.79,13.14-9.27l57.65,4.87c1.06.06,2.11.06,3.17-.06,4.75-.53,8.68-1.76,11.67-3.81,2.29-1.52,5.4-.23,5.86,2.46l1.52,8.21-1.11,20.94c-6.92,2.35-11.67,5.45-14.19,9.27-5.81,8.74-19.06,7.51-23.75-2.17-1-2.11-2.46-5.92-4.34-11.38-.82-2.35-3.05-3.93-5.51-3.93h-24.1c-2.76,0-5.1,1.94-5.63,4.63l-8.5,40.88c.47-.94,0-.82-1.41.29-6.98,2.17-14.19,3.11-21.64,2.81-6.63-.23-11.85.18-15.66,1.17-4.99,1.35-10.09,2.93-15.19,4.75,3.81-9.79,8.27-16.66,13.37-20.53,23.4-17.65,34.19-26.98,44.81-51.67.88-1.99-1.47-3.81-3.17-2.52-.65.53-3.28,6.33-7.8,17.54-.82,1.99-2.7,3.4-4.87,3.52l-36.24,1.99c-1.64.06-2.99,1.23-3.34,2.81-.35,1.47-.53,2.23-.53,2.29-.7,1.35-2.11,2.17-3.58,2.17l-42.17.94c-1.7.06-3.05,1.29-3.23,2.99-.18,2.17.59,3.05,2.4,2.76,1.06-.18,1.99.65,1.94,1.7l-1.41,32.9c-5.28,7.33-8.09,18.77-8.39,34.31-.06,2.29-1.99,4.05-4.28,3.93l-31.67-1.64c-1.82-.06-3.34-1.41-3.69-3.23-.88-4.28-.59-15.72.88-34.31.29-3.93-1.7-5.75-6.04-5.4.47-13.08-1.23-21.41-5.16-25.1l-40.35,1.88.47-142.63,1.35-42.99c.06-1.7,1.47-3.05,3.17-2.99l42.23.88h0Z"/>
      <path class="cls-16" d="M226.44,1308.15c3.34-4.69,5.22-11.79,5.57-21.23.47-11.32,1.11-18.71,1.88-22.11,3.81-16.54,5.92-33.37,6.45-50.44.06-2.58-2.05-4.75-4.63-4.75l-92.49.64,48.8.47c2.93,0,5.16-2.64,4.63-5.45l-2.23-12.32c-.29-1.58.76-3.17,2.35-3.4l31.08-5.63c2.23-.35,4.4.82,5.28,2.93,7.21,17.24,10.56,30.38,10.09,39.35-.12,1.99,1.47,3.64,3.46,3.64h38.42c2.87,0,5.1,2.4,4.93,5.22l-3.93,60.76c-.23,3.87-3.23,6.98-7.1,7.33l-52.55,4.98h0Z"/>
      <path class="cls-4" d="M847.23,1227.86l-.47,142.63.12,18.83c0,3.81,3.11,6.86,6.92,6.86h25.86c3.93,0,6.92-3.58,6.22-7.45-1-5.57-.59-12.26,1.23-20.12,3.93,3.69,5.63,12.02,5.16,25.1l.29,55.19.18,19.35c0,1.82,1.17,3.4,2.93,3.99,9.85,3.05,19.94,2.7,30.2-1l.18,6.57-88.73-8.33-6.45-72.78c-.18-2.23-1.99-3.99-4.22-4.11l-31.26-2.05c-3.05-.18-5.4-2.76-5.34-5.75l1.17-70.55,1.47,46.8c.06,2.35,2.52,3.81,4.63,2.76,12.73-6.33,25.45-8.8,38.18-7.39,2.58.29,4.81-1.7,4.81-4.28v-157.12c0-1.52,1.23-2.76,2.76-2.76h2.46c.41,0,.76.35.76.76l.94,34.84h0Z"/>
      <polygon class="cls-8" points="45.34 1214.6 45.28 1205.81 45.34 1214.6 45.34 1214.6"/>
      <path class="cls-10" d="M134.07,1244.57c-1.7,1.94-2.76,4.81-3.17,8.68-.18,2.11-2.11,3.64-4.22,3.4l-17.13-1.94c-3.11-.35-5.57,2.46-4.93,5.51,1.53,6.8,1.29,13.02-.76,18.71-.29.76-1.11,1.23-1.88,1-.82-.18-1.35-.94-1.23-1.76.88-6.92.35-14.19-1.53-21.82l-1.58-24.22c4.57,4.4,7.16-.53,7.74-14.66.06-1.23,1.06-2.17,2.29-2.17h25.28c.88,0,1.64.7,1.58,1.58l-.47,27.68h0Z"/>
      <path class="cls-17" d="M45.04,1227.8l.12-7.45c.65,2.64.59,5.1-.12,7.45h0Z"/>
      <path class="cls-5" d="M134.07,1244.57l3.05,55.07-.06,25.04-88.44.94c33.37-9.79,50.2-32.9,50.61-69.26,1.88,7.62,2.4,14.9,1.53,21.82-.12.82.41,1.58,1.23,1.76.76.23,1.58-.23,1.88-1,2.05-5.69,2.29-11.91.76-18.71-.64-3.05,1.82-5.87,4.93-5.51l17.13,1.94c2.11.23,4.05-1.29,4.22-3.4.41-3.87,1.47-6.74,3.17-8.68h0Z"/>
      <path class="cls-16" d="M679.44,1394.71c-.41-10.91-3.23-15.48-8.5-13.67l-20.88-4.57c-2.05-.41-3.69-1.94-4.4-3.93-1.7-4.87-2.17-9.68-1.41-14.49.23-1.58-.94-2.99-2.52-3.11-2.64-.18-4.11-.7-4.34-1.64-.41-1.58.65-3.11,2.23-3.28,5.04-.53,8.68-2.29,10.97-5.34,5.1-1.17,7.57-3.58,7.51-7.15-.18-12.61-.18-25.1,0-37.48.06-2.81,2.29-5.1,5.04-5.28l108.38-5.92c1.47-.12,2.7,1.11,2.7,2.58v100.64c0,1.06-.7,1.94-1.7,2.17-31.02,8.21-62.05,8.39-93.07.47h0Z"/>
      <path class="cls-2" d="M791.22,1314.25l-1.17,70.55c-.06,2.99,2.29,5.57,5.34,5.75l31.26,2.05c2.23.12,4.05,1.88,4.22,4.11l6.45,72.78,1.82,57.65c.06,1.17.76,2.23,1.82,2.64.94.35,1.88.47,2.87.29-4.87,11.08-6.45,23.28-4.75,36.54.41,3.58-2.35,6.69-5.92,6.69h-158.53c-2.87,0-5.1-2.64-4.57-5.51,1.7-9.56,1.58-18.83-.47-27.68,1.7-1.7,2.46-4.69,2.35-9.03-.06-2.82,1-4.81,3.28-6.04l.41,3.4c.18,1.64,1.58,2.82,3.23,2.76,10.38-.53,26.69.18,48.91,2.11,25.04,2.17,59.88-.06,104.63-6.69l-4.46-124.63c-.12-2.7-2.23-4.87-4.93-5.04l-35.89-2.35c-1.29-.06-2.29-1.11-2.35-2.46l-.47-80.58,1.17-23.75c.06-.65.53-1.17,1.17-1.23l1.76-.06c.18,0,.29.12.29.23l2.52,27.51h0Z"/>
      <path class="cls-4" d="M155.65,1313.89c60.23-.53,102.81-2.87,137.88,2.29.12,0,.18.12.12.18-.35.53-.82.82-1.35.76-6.98-.29-10.67,2.76-11.03,9.03-.12,2.46-.76,6.51-1.94,12.2-.41,2.23,1.23,4.22,3.46,4.28l90.43.47,61.46.23,30.97-.29c1.17-.06,2.11.88,2.11,2.05v2.11c0,.47-.41.88-.88.88l-183.92,1.76c-2.29,0-3.87,2.29-3.17,4.46.12.53.7,1.47,1.82,2.7,1.29,1.47,3.34,1.88,5.1,1.06l4.57-2.23c.59-.29,1.23-.41,1.88-.41h186.38c3.17,0,5.63,2.7,5.4,5.86-1,12.38.47,23.93,4.52,34.66l-210.49.41c-1,0-1.94-.7-2.23-1.7-.23-.82-.23-1.64,0-2.52,1.7-11.03,1.29-21.47-1.23-31.26-.41-1.64-1.94-2.81-3.64-2.76l-40,.47-83.46-1.41-11.38-32.49.06-25.04,1.41,10.5c.23,1.76,1.64,3.05,3.4,3.11l13.72.65h0Z"/>
      <path class="cls-17" d="M1132.61,1306.97c-.88-2.52-.94-4.93-.24-7.33,1.94,1.35,1.99,3.75.24,7.33h0Z"/>
      <path class="cls-10" d="M137.06,1324.69l11.38,32.49-2.11,40.29-43.46-.41c-2.64,0-4.75,2.11-4.75,4.69l-.12,17.07c-2.76,5.1-4.22,12.32-4.46,21.76l-.65-44.4-2.4-48.15c-.12-2.4-2.23-4.28-4.63-4.05-17.3,1.47-33.66-1.35-48.97-8.39-.53-1.94-.7-3.64-.65-5.1.12-2.05,1.76-3.75,3.81-3.93l8.56-.94,88.44-.94h0Z"/>
      <path class="cls-10" d="M989.28,1403.16l-43.81-3.11,1.41-32.9c.06-1.06-.88-1.88-1.94-1.7-1.82.29-2.58-.59-2.4-2.76.18-1.7,1.52-2.93,3.23-2.99l42.17-.94c1.47,0,2.87-.82,3.58-2.17,0-.06.18-.82.53-2.29.35-1.58,1.7-2.76,3.34-2.81l36.24-1.99c2.17-.12,4.05-1.52,4.87-3.52,4.52-11.2,7.15-17.01,7.8-17.54,1.7-1.29,4.05.53,3.17,2.52-10.62,24.69-21.41,34.02-44.81,51.67-5.1,3.87-9.56,10.73-13.37,20.53h0Z"/>
      <path class="cls-1" d="M1131.15,1443.27l-2.4-20.29.47-26.39v-39.76l1.11-20.94,1.06-7.45c11.08-3.34,22.52-3.58,34.43-.76,3.17.76,5.69,3.11,6.69,6.22,1.35,4.28,2.23,9.91,2.64,16.89.47,8.56.29,34.95-.47,79.23,0,1.82-.88,3.52-2.35,4.57-12.26,9.09-25.98,11.96-41.17,8.68h0Z"/>
      <path class="cls-16" d="M92.9,1396.18l-41.93-.35c-1.88,0-3.4,1.52-3.4,3.34v33.02c0,3.4,3.05,5.98,6.45,5.45,14.9-2.4,25.39-.94,31.44,4.46l-46.45,3.93c-1.11.12-2.11-.82-2.11-1.94v-108.5c15.31,7.04,31.67,9.85,48.97,8.39,2.4-.23,4.52,1.64,4.63,4.05l2.4,48.15h0Z"/>
      <path class="cls-14" d="M504.08,1389.26c.29,4.16-4.57,6.39-14.6,6.69-4.05-10.73-5.51-22.29-4.52-34.66.23-3.17-2.23-5.86-5.4-5.86h-186.38c-.65,0-1.29.12-1.88.41l-4.57,2.23c-1.76.82-3.81.41-5.1-1.06-1.11-1.23-1.7-2.17-1.82-2.7-.7-2.17.88-4.46,3.17-4.46l183.92-1.76c.47,0,.88-.41.88-.88v-2.11c0-1.17-.94-2.11-2.11-2.05l-30.97.29c23.28-2.99,46.33-2.64,69.09,1.06,2.23.35,3.58,2.64,2.81,4.75-.06.29-.53.7-1.41,1.23-1.58,1.06-2.52,2.87-2.46,4.81l1.35,34.07h0Z"/>
      <path class="cls-16" d="M1129.21,1356.82v39.76l-42.34-1.11-4.34-.06c-14.13,2.17-27.21,1.76-39.35-1.29l8.5-40.88c.53-2.7,2.87-4.63,5.63-4.63h24.1c2.46,0,4.69,1.58,5.51,3.93,1.88,5.45,3.34,9.27,4.34,11.38,4.69,9.68,17.95,10.91,23.75,2.17,2.52-3.81,7.27-6.92,14.19-9.27h0Z"/>
      <path class="cls-3" d="M549.42,1352.9c13.9,5.34,27.97,8.09,42.34,8.33,3.46.06,6.22,2.93,6.22,6.39v25.51c0,1.88,1.47,3.4,3.34,3.52l45.45,2.29-1,72.55-370.83-2.05-2.76-21.82c-.29-1.99-1.99-3.52-3.99-3.52h-36.24c-1.64,0-3.11-.88-3.81-2.35l-9.03-18.71c-.7-1.47-2.23-2.35-3.87-2.23l-22.34,1.76c-1.29-1.23-3.11-1.41-5.4-.41l-35.07,1.06c-1.88.06-3.46-1.29-3.64-3.11l-2.46-22.64,2.11-40.29,83.46,1.41,1.47,1c1.94,1.41,1.06,4.52-1.35,4.63l-40.64,2.29c-1.35.06-2.4,1.17-2.4,2.52v25.39c0,1.76,1.41,3.17,3.17,3.17h72.61c2.52,0,4.81-1.35,5.98-3.58.35-.65.7-1.41,1.06-2.29.53-1.29,1.35-1.88,2.52-1.7,1,.12,1.82.82,2.46,2.11-.23.88-.23,1.7,0,2.52.29,1,1.23,1.7,2.23,1.7l210.49-.41c10.03-.29,14.9-2.52,14.6-6.69l1.41-30.32c.24-4.57,4.46-7.86,8.97-7.04,12.37,2.29,23.99,2.58,34.95,1h0Z"/>
      <path class="cls-16" d="M276.76,1392.13c-.65-1.29-1.47-1.99-2.46-2.11-1.17-.18-1.99.41-2.52,1.7-.35.88-.7,1.64-1.06,2.29-1.17,2.23-3.46,3.58-5.98,3.58h-72.61c-1.76,0-3.17-1.41-3.17-3.17v-25.39c0-1.35,1.06-2.46,2.4-2.52l40.64-2.29c2.4-.12,3.28-3.23,1.35-4.63l-1.47-1,40-.47c1.7-.06,3.23,1.11,3.64,2.76,2.52,9.79,2.93,20.23,1.23,31.26h0Z"/>
      <path class="cls-10" d="M887.11,1368.61c-1.82,7.86-2.23,14.54-1.23,20.12.7,3.87-2.29,7.45-6.22,7.45h-25.86c-3.81,0-6.92-3.05-6.92-6.86l-.12-18.83,40.35-1.88h0Z"/>
      <path class="cls-5" d="M670.94,1381.05c5.28-1.82,8.09,2.76,8.5,13.67l1.29,130.26c1-2.4-.88-2.35-5.51.06-2.29,1.23-3.34,3.23-3.28,6.04.12,4.34-.65,7.33-2.35,9.03l-3.17.41c-2.11-.65-4.22-.7-6.33-.23-.88-1.58-3.34-2.46-7.27-2.76l-1.41-100.82c6.39,4.16,12.49,6.1,18.42,5.81,1.7-.12,3.05-1.58,2.99-3.28l-1.88-58.18h0Z"/>
      <path class="cls-3" d="M945.47,1400.05l43.81,3.11c5.1-1.82,10.2-3.4,15.19-4.75,3.81-1,9.03-1.41,15.66-1.17,7.45.29,14.66-.65,21.64-2.81l1.53,2.29c.82,1.17,1.29,2.58,1.29,4.05l.47,67.45c0,.53-.12,1-.35,1.41-.82,1.64-1.41,1.88-1.82.76l-44.28.06-62.81-1.29c-1.88-.06-3.46,1.52-3.46,3.4v40.88c0,1.82,1.47,3.28,3.28,3.34,19.18.59,37.36-.53,54.54-3.4.76-.12,1.29-.47,1.58-1,.29-.64.59-1.06.94-1.35.94-.76,2.23-.7,3.17.06.47.41,1,.82,1.52,1.29l-.41,12.02-71.26-.53.35-46.04-.18-6.57.41-22.7c0-1.76-1.17-3.34-2.87-3.81-11.61-3.34-21.88-1.94-30.85,4.16l-.29-55.19c4.34-.35,6.33,1.47,6.04,5.4-1.47,18.59-1.76,30.03-.88,34.31.35,1.82,1.88,3.17,3.69,3.23l31.67,1.64c2.29.12,4.22-1.64,4.28-3.93.29-15.54,3.11-26.98,8.39-34.31h0Z"/>
      <path class="cls-18" d="M1043.18,1394.12c12.14,3.05,25.22,3.46,39.35,1.29l-28.5,6.51c-1.52.35-2.58,1.7-2.58,3.23v55.6c0,3.81,3.17,6.86,6.98,6.63l14.13-.76c4.52-.23,7.98-4.11,7.74-8.62l-.59-10.79c-.12-2.29,1.53-4.34,3.81-4.75,4.87-.82,9.97.06,15.25,2.58-6.16,18.83-10.44,30.56-12.96,35.31-8.68,16.25-23.75,21.99-37.89,31.85-.53-11.73-1.23-23.52-2.17-35.31-.18-2.11-1.17-4.28-2.87-6.51.41,1.11,1,.88,1.82-.76.23-.41.35-.88.35-1.41l-.47-67.45c0-1.47-.47-2.87-1.29-4.05l-1.53-2.29c1.41-1.11,1.88-1.23,1.41-.29h0Z"/>
      <path class="cls-14" d="M92.9,1396.18l.65,44.4c-3.93,1.7-6.63,2.17-8.09,1.52-6.04-5.4-16.54-6.86-31.44-4.46-3.4.53-6.45-2.05-6.45-5.45v-33.02c0-1.82,1.52-3.34,3.4-3.34l41.93.35h0Z"/>
      <path class="cls-4" d="M1086.87,1395.47c-.12,1.94-.88,3.64-2.29,5.1-1.06,1.11-1.47,2.64-1.23,4.16l1.82,10.09c.47,2.58,2.58,4.46,5.16,4.69,14.19,1.11,24.1-2.7,38.41,3.46l2.4,20.29c-.53,2.52-.35,3.93.41,4.11l-32.78-2.35c-5.28-2.52-10.38-3.4-15.25-2.58-2.29.41-3.93,2.46-3.81,4.75l.59,10.79c.24,4.52-3.23,8.39-7.74,8.62l-14.13.76c-3.81.23-6.98-2.82-6.98-6.63v-55.6c0-1.52,1.06-2.87,2.58-3.23l28.5-6.51,4.34.06h0Z"/>
      <path class="cls-10" d="M1129.21,1396.59l-.47,26.39c-14.31-6.16-24.22-2.35-38.41-3.46-2.58-.23-4.69-2.11-5.16-4.69l-1.82-10.09c-.23-1.52.18-3.05,1.23-4.16,1.41-1.47,2.17-3.17,2.29-5.1l42.34,1.11h0Z"/>
      <path class="cls-14" d="M146.33,1397.47l2.46,22.64c.18,1.82,1.76,3.17,3.64,3.11l35.07-1.06c1.64,4.63,1.99,8.74,1,12.32-.47,1.82-2.11,3.11-3.99,3.17l-35.72,1.99c-3.46.18-6.28,2.87-6.63,6.28-.76,7.39.88,12.61,4.98,15.66,1.53,1.06,2.46,2.76,2.7,4.57.29,2.81-.65,5.16-2.93,7.1l-44.28-.94-4.63-53.49.12-17.07c0-2.58,2.11-4.69,4.75-4.69l43.46.41h0Z"/>
      <path class="cls-12" d="M651.41,1436.7l1.41,100.82-28.8-5.92-402.44-.12c-1.41,0-2.76-.12-4.11-.41-14.72-2.99-26.51-1.41-35.36,4.69l-88.27.29c-3.05.06-5.57-2.46-5.57-5.57l.06-21.64c2.99-.29,4.52,1.76,4.63,6.22-.18,6.39,1.7,9.74,5.75,9.97,25.34,1.52,53.19.76,83.57-2.23,4.52,2.76,10.97,3.28,19.35,1.58l383.03-.12,58-.35c1.7,0,3.11-1.41,3.11-3.11v-49.32l1-72.55c4.87,9.91,6.45,22.52,4.63,37.77h0Z"/>
      <path class="cls-10" d="M192.89,1422.57l.35,9.97-1.29,30.32c-.06,2.11.88,4.11,2.58,5.34.29.23.76.53,1.29.88,1.17.82,1.88,2.11,1.94,3.52l1.76,51.43c.7.12,1.41.23,2.11.35-8.39,1.7-14.84,1.17-19.35-1.58l-.65-46.45c0-1.64-1.35-2.93-2.99-2.93l-31.73-.18c2.29-1.94,3.23-4.28,2.93-7.1-.24-1.82-1.17-3.52-2.7-4.57-4.11-3.05-5.75-8.27-4.98-15.66.35-3.4,3.17-6.1,6.63-6.28l35.72-1.99c1.88-.06,3.52-1.35,3.99-3.17,1-3.58.65-7.68-1-12.32,2.29-1,4.11-.82,5.4.41h0Z"/>
      <path class="cls-16" d="M274.94,1469.43l-56.83.35c-4.34,0-7.68-3.75-7.21-8.03l1.47-12.84c.29-2.64-1.64-5.04-4.28-5.34l-9.32-1.06c-2.11-.23-3.87-1.82-4.28-3.93l-1.23-6.04-.35-9.97,22.34-1.76c1.64-.12,3.17.76,3.87,2.23l9.03,18.71c.7,1.47,2.17,2.35,3.81,2.35h36.24c1.99,0,3.69,1.52,3.99,3.52l2.76,21.82h0Z"/>
      <path class="cls-14" d="M274.94,1469.43l370.83,2.05v49.32c0,1.7-1.41,3.11-3.11,3.11l-58,.35c-13.08-8.86-33.31-12.73-60.7-11.49-23.23,1-87.8,1.17-193.77.41-30.32-.23-75.13,1.35-98.65,1.41-6.74,0-11.08,2.35-12.96,7.04-.65,1.64-2.29,2.76-4.11,2.7l-14.95-.29-1.76-51.43c-.06-1.41-.76-2.7-1.94-3.52-.53-.35-1-.65-1.29-.88-1.7-1.23-2.64-3.23-2.58-5.34l1.29-30.32,1.23,6.04c.41,2.11,2.17,3.69,4.28,3.93l9.32,1.06c2.64.29,4.57,2.7,4.28,5.34l-1.47,12.84c-.47,4.28,2.87,8.03,7.21,8.03l56.83-.35h0Z"/>
      <path class="cls-14" d="M710.17,1444.15c3.11,6.69,3.11,13.31.12,19.94-1.52,3.28.88,7.1,4.57,7.1h103.46c2.64,0,4.75,2.11,4.75,4.75v33.2c0,3.23-2.58,5.81-5.81,5.81h-125.39c-3.05,0-5.45-2.64-5.1-5.69l3.75-33.61c.23-2.05,1.99-3.64,4.05-3.58,2.05.06,5.22-1,9.5-3.11,1.64-.76,2.64-2.4,2.64-4.22v-19.82c0-1.94,2.64-2.52,3.46-.76h0Z"/>
      <path class="cls-10" d="M925.88,1471.25c-10.26,3.7-20.35,4.05-30.2,1-1.76-.59-2.93-2.17-2.93-3.99l-.18-19.35c8.97-6.1,19.24-7.51,30.85-4.16,1.7.47,2.87,2.05,2.87,3.81l-.41,22.7h0Z"/>
      <path class="cls-1" d="M1098.77,1445.03l32.78,2.35-5.75,49.73c-.23,1.94-1.88,3.4-3.87,3.4h-23.17c-4.34,0-7.86,3.52-7.86,7.86v20.12c0,3.52-2.82,6.33-6.28,6.33l-23.81.06-12.73-10.67-.18-12.02c14.13-9.85,29.21-15.6,37.89-31.85,2.52-4.75,6.8-16.48,12.96-35.31h0Z"/>
      <path class="cls-18" d="M926.05,1477.82l-.35,46.04c-2.76-.65-5.28-.41-7.62.76-1.47.76-2.7,2.58-3.58,5.4-.76,2.35-1.94,4.34-3.52,6.04-5.22-2.87-10.67-4.28-16.48-4.22-.06,0-.06-.12,0-.18.06,0,.06-.06.12-.12.12-.06.23-.12.41-.06,4.93,1.11,7.8.65,8.62-1.41.94-2.29-.76-4.81-3.28-4.87-17.36-.41-34.66-.53-51.84-.23-1.64,0-2.82.47-3.52,1.35-.82,1-1.23,2.29-1.17,3.75-1,.18-1.94.06-2.87-.29-1.06-.41-1.76-1.47-1.82-2.64l-1.82-57.65,88.73,8.33h0Z"/>
      <path class="cls-14" d="M998.6,1470.43l-1.23,41.93c-.53-.47-1.06-.88-1.52-1.29-.94-.76-2.23-.82-3.17-.06-.35.29-.65.7-.94,1.35-.29.53-.82.88-1.58,1-17.18,2.87-35.36,3.99-54.54,3.4-1.82-.06-3.28-1.52-3.28-3.34v-40.88c0-1.88,1.58-3.46,3.46-3.4l62.81,1.29h0Z"/>
      <path class="cls-13" d="M1042.88,1470.37c1.7,2.23,2.7,4.4,2.87,6.51.94,11.79,1.64,23.58,2.17,35.31l.18,12.02-51.14.18.41-12.02,1.23-41.93,44.28-.06h0Z"/>
      <path class="cls-18" d="M146.91,1473.24l31.73.18c1.64,0,2.99,1.29,2.99,2.93l.65,46.45c-30.38,2.99-58.24,3.75-83.57,2.23-4.05-.23-5.92-3.58-5.75-9.97l9.68-42.75,44.28.94h0Z"/>
      <path class="cls-16" d="M584.66,1524.27l-383.03.12c-.7-.12-1.41-.23-2.11-.35l14.95.29c1.82.06,3.46-1.06,4.11-2.7,1.88-4.69,6.22-7.04,12.96-7.04,23.52-.06,68.32-1.64,98.65-1.41,105.98.76,170.55.59,193.77-.41,27.39-1.23,47.62,2.64,60.7,11.49h0Z"/>
      <path class="cls-11" d="M680.73,1524.97l151.66,1.64c-44.75,6.63-79.59,8.86-104.63,6.69-22.23-1.94-38.53-2.64-48.91-2.11-1.64.06-3.05-1.11-3.23-2.76l-.41-3.4c4.63-2.4,6.51-2.46,5.51-.06h0Z"/>
      <path class="cls-2" d="M925.7,1523.85l71.26.53,51.14-.18,12.73,10.67c-4.75.29-9.27,1.47-13.66,3.46-1.88.88-3.11,2.76-3.11,4.87v30.97c0,2.11-1.7,3.81-3.81,3.87-39.47.76-80.52.35-123.28-1.29-2.58-.06-3.69-1.7-3.34-4.81,1.29-4.28,1-6.69-.82-7.15l-1.82-28.74c1.58-1.7,2.76-3.69,3.52-6.04.88-2.82,2.11-4.63,3.58-5.4,2.35-1.17,4.87-1.41,7.62-.76h0Z"/>
      <path class="cls-2" d="M624.02,1531.6l-17.07,5.86c-1.88.65-3.17,2.4-3.17,4.34v31.03c0,3.05-2.46,5.57-5.51,5.57H190.37c-3.75,0-6.86-2.99-6.98-6.8l-1.29-35.83c8.86-6.1,20.64-7.68,35.36-4.69,1.35.29,2.7.41,4.11.41l402.44.12h0Z"/>
      <path class="cls-2" d="M666.42,1540.51c-2.64,1.17-4.75,1.11-6.33-.23,2.11-.47,4.22-.41,6.33.23h0Z"/>
      <path class="cls-12" d="M913.62,1571.95l-.82-7.15c1.82.47,2.11,2.87.82,7.15h0Z"/>
    </g>
  </g>
</svg>